<?xml version="1.0" encoding="UTF-8" standalone="no"?>
<svg
   id="Layer_1"
   data-name="Layer 1"
   viewBox="0 0 699.99999 110.99703"
   version="1.1"
   sodipodi:docname="logo_amicidelteatro.svg"
   width="700"
   height="110.99696"
   inkscape:version="1.4.2 (f4327f4, 2025-05-13)"
   xmlns:inkscape="http://www.inkscape.org/namespaces/inkscape"
   xmlns:sodipodi="http://sodipodi.sourceforge.net/DTD/sodipodi-0.dtd"
   xmlns="http://www.w3.org/2000/svg"
   xmlns:svg="http://www.w3.org/2000/svg">
  <sodipodi:namedview
     id="namedview43"
     pagecolor="#ffffff"
     bordercolor="#000000"
     borderopacity="0.25"
     inkscape:showpageshadow="2"
     inkscape:pageopacity="0.0"
     inkscape:pagecheckerboard="0"
     inkscape:deskcolor="#d1d1d1"
     inkscape:zoom="1.3556645"
     inkscape:cx="344.84934"
     inkscape:cy="55.692246"
     inkscape:window-width="1920"
     inkscape:window-height="1009"
     inkscape:window-x="-8"
     inkscape:window-y="-8"
     inkscape:window-maximized="1"
     inkscape:current-layer="Layer_1" />
  <defs
     id="defs1">
    <style
       id="style1">
      .cls-1 {
        fill: #101820;
      }

      .cls-2 {
        fill: #c10230;
      }
    </style>
  </defs>
  <path
     class="cls-2"
     d="M 0,0.00695808 V 110.93696 H 110.93 V 0.00695808 Z M 76.2,11.946958 c 5.44,-2.35 9.81,-3.23 10,-3.25 l 1.07,-0.12 1.26,7 -1.28,0.09 c -6.84,0.47 -12.81,2.93 -17.76,7.32 -3.71,3.29 -5.42,6.49 -5.44,6.52 0,0 0.74,-12.61 12.16,-17.56 z m -10.17,26.54 c 5.65,-10.67 11.41,-16.07 17.15,-16.07 0.05,0 0.09,0 0.14,0 6.94,0.1 10.92,8.05 11.09,8.39 l 0.97,1.97 -2.17,-0.32 c -12.23,-1.79 -25.35,7.42 -25.48,7.51 l -3.96,2.82 2.27,-4.3 z m -1.25,32.17 -16.51,1.11 0.42,-1.56 c 2.68,-9.96 6.85,-31.27 6.85,-31.27 0,0 5.12,21.33 8.66,30.25 z M 8.7,8.696958 h 46.84 v 1.17 c -0.03,1.88 -0.03,3.76 0,5.61 v 0.98 c 0,0 -0.96,0.17 -0.96,0.17 -13,2.23 -21.66,3.26 -29.68,3.26 -5.01,0 -9.77,-0.4 -15.19,-1.16 l -0.99,-0.14 v -9.88 z m 4.39,30.53 c 0.32,-0.38 7.88,-8.78 16.95,-8.14 15.63,1.1 16.17,18.96 16.17,18.96 l -4.08,-5.21 c 0,0 -2.83,-3.55 -7.62,-5.75 -6.34,-2.92 -13.05,-2.29 -19.94,1.88 l -6.02,3.64 4.54,-5.37 z m 32.59,20.5 -4.06,-2.34 c -0.17,-0.1 -16.76,-9.54 -27.81,-5.27 l -3.52,1.36 2.16,-3.1 c 0.22,-0.31 5.39,-7.59 13.27,-7.59 0.09,0 0.19,0 0.29,0 6.02,0.13 11.8,4.5 17.17,12.98 l 2.5,3.95 z m -17.88,29.82 c -3.55,3.84 -9.5,8.89 -17.64,11.190002 l -1.47,0.41 V 88.866958 l 1.11,-0.04 c 6.02,-0.22 14.72,-1.88 22.03,-8.55 l 4.9,-4.48 -3.11,5.87 c -0.08,0.15 -1.99,3.73 -5.83,7.88 z m 6.41,12.830002 1.21,-1.8 c 1.46,-2.160002 2.86,-4.460002 4.18,-6.850002 2.17,-3.94 4.16,-8.43 5.93,-13.35 l 0.25,-0.71 22.59,-1.52 0.35,0.64 c 5.19,9.45 11.56,16.67 18.93,21.470002 l 3.25,2.12 H 34.2 Z m 68.17,-28.610002 -1.07,0.08 c -9.72,0.7 -17.61,6.83 -17.69,6.89 l -3.93,3.09 2.18,-4.5 c 4.21,-8.7 10.8,-14.48 19.06,-16.7 l 1.45,-0.39 v 11.52 z"
     id="path1" />
  <g
     id="g43"
     transform="translate(-76.28,-242.16304)">
    <g
       id="g15">
      <path
         class="cls-1"
         d="m 273.46,311.74 c 0,0.33 -0.1,0.49 -0.29,0.49 h -22.48 c -0.32,0 -0.49,-0.2 -0.49,-0.59 v -1.32 c 0,-0.45 0.16,-0.68 0.49,-0.68 h 6.68 c 0.52,0 0.73,-0.29 0.63,-0.88 -0.29,-1.04 -1.41,-4.43 -3.36,-10.17 -1.95,-5.74 -3.02,-8.82 -3.22,-9.24 -0.26,-0.65 -0.6,-0.98 -1.02,-0.98 h -23.55 c -0.29,0.07 -0.54,0.26 -0.73,0.59 -0.46,0.88 -1.24,2.93 -2.34,6.17 -1.1,3.23 -1.79,5.44 -2.05,6.61 -0.52,2.6 -0.78,4.16 -0.78,4.68 0,2.15 0.26,3.22 0.78,3.22 h 7.41 c 0.39,0 0.59,0.23 0.59,0.68 v 1.41 c 0,0.33 -0.16,0.49 -0.49,0.49 h -19.7 c -0.32,0 -0.49,-0.16 -0.49,-0.49 v -1.61 c 0,-0.32 0.13,-0.49 0.39,-0.49 h 4.19 c 0.71,0 1.68,-1.53 2.9,-4.58 1.22,-3.05 4.85,-11.88 10.9,-26.48 3.87,-9.2 8.57,-20.35 14.09,-33.45 0.36,-1.01 0.71,-1.58 1.07,-1.71 0.91,-0.26 2.08,-0.66 3.51,-1.22 0.23,-0.1 0.49,0.08 0.78,0.51 0.29,0.44 0.16,0.93 -0.39,1.49 -0.98,1.01 -1.46,1.98 -1.46,2.93 -0.03,0.98 0.2,2.19 0.68,3.66 1.76,4.88 4.93,14 9.51,27.38 4.58,13.38 7.77,22.04 9.56,25.97 1.72,3.68 2.96,5.51 3.71,5.51 h 4.58 c 0.26,0 0.39,0.23 0.39,0.68 v 1.41 z m -24.14,-27.8 c -1.33,-3.87 -2.76,-8.11 -4.29,-12.73 -1.53,-4.61 -3.1,-9.43 -4.73,-14.44 -0.1,-0.42 -0.23,-0.68 -0.39,-0.78 -0.13,0.13 -0.29,0.39 -0.49,0.78 -4.06,9.95 -6.98,17 -8.75,21.16 -1.77,4.16 -2.66,6.31 -2.66,6.44 0,0.2 0.15,0.29 0.44,0.29 h 20.63 c 0.32,0 0.41,-0.24 0.24,-0.73 z"
         id="path2" />
      <path
         class="cls-1"
         d="m 350.76,311.84 c 0,0.26 -0.2,0.39 -0.59,0.39 h -19.9 c -0.32,0 -0.49,-0.16 -0.49,-0.49 v -1.51 c 0,-0.39 0.16,-0.59 0.49,-0.59 h 4.58 c 0.52,0 0.83,-0.27 0.93,-0.83 0.32,-1.76 0.49,-8.91 0.49,-21.46 0,-6.17 -0.67,-10.11 -2,-11.8 -1.59,-1.98 -4.03,-2.97 -7.32,-2.97 -4.26,0 -7.67,1.34 -10.24,4 -0.29,0.36 -0.44,0.78 -0.44,1.27 v 21.51 c 0,6.86 0.47,10.29 1.41,10.29 h 5.8 c 0.26,0 0.39,0.17 0.39,0.49 v 1.61 c 0,0.33 -0.13,0.49 -0.39,0.49 h -19.07 c -0.36,0 -0.54,-0.13 -0.54,-0.39 v -1.71 c 0,-0.32 0.15,-0.49 0.44,-0.49 h 4.78 c 0.46,0 0.68,-0.31 0.68,-0.93 0,-0.2 -0.02,-4.89 -0.05,-14.09 -0.03,-9.2 -0.05,-14.01 -0.05,-14.44 0,-5.33 -2.63,-8 -7.9,-8 -4.91,0 -8.66,1.3 -11.27,3.9 -0.39,0.39 -0.59,0.81 -0.59,1.27 v 22.19 c 0,6.8 0.55,10.19 1.66,10.19 h 5.9 c 0.36,0 0.54,0.13 0.54,0.39 v 1.61 c 0,0.33 -0.15,0.49 -0.44,0.49 H 276.7 c -0.26,0 -0.42,-0.05 -0.49,-0.15 -0.07,-0.1 -0.1,-0.21 -0.1,-0.34 v -1.41 c 0,-0.45 0.2,-0.68 0.59,-0.68 h 5.8 c 0.62,0 0.93,-0.41 0.93,-1.22 0,-0.13 -0.07,-5.16 -0.22,-15.09 -0.15,-9.93 -0.22,-15.13 -0.22,-15.58 0,-5.3 -0.67,-7.95 -2,-7.95 h -5.07 c -0.39,0 -0.59,-0.18 -0.59,-0.54 v -1.46 c 0,-0.36 0.16,-0.54 0.49,-0.54 h 6.78 c 1.04,0 2.41,-0.1 4.1,-0.29 0.26,-0.03 0.71,-0.12 1.37,-0.27 0.65,-0.15 1.06,-0.22 1.22,-0.22 0.49,0 0.73,0.26 0.73,0.78 0,0.17 -0.03,1.04 -0.1,2.63 -0.07,1.59 -0.1,2.52 -0.1,2.78 0,0.81 0.23,1.07 0.68,0.78 0.55,-0.42 2.36,-1.58 5.41,-3.46 0.71,-0.52 1.84,-1.15 3.36,-1.9 2.34,-0.81 4.6,-1.22 6.78,-1.22 2.54,0 4.68,0.73 6.44,2.19 1.37,1.17 2.29,2.75 2.78,4.73 0.16,0.65 0.49,0.78 0.98,0.39 1.63,-1.59 2.89,-2.66 3.8,-3.22 0.49,-0.42 1.66,-1.22 3.51,-2.39 1.63,-0.88 4.05,-1.32 7.27,-1.32 3.22,0 6.11,1.14 8.39,3.41 2.54,2.51 3.8,7.59 3.8,15.26 0,0.33 -0.1,3.21 -0.29,8.66 -0.2,5.44 -0.29,8.3 -0.29,8.56 0,4.33 0.36,6.49 1.07,6.49 h 6.83 c 0.26,0 0.39,0.17 0.39,0.49 v 1.71 z"
         id="path3" />
      <path
         class="cls-1"
         d="m 377.28,311.74 c 0,0.33 -0.2,0.49 -0.59,0.49 h -23.16 c -0.32,0 -0.49,-0.2 -0.49,-0.59 v -1.51 c 0,-0.45 0.13,-0.68 0.39,-0.68 h 7.07 c 0.62,0 0.93,-0.34 0.93,-1.02 0,-0.2 0.02,-4.14 0.05,-11.82 0.03,-7.69 0.05,-11.94 0.05,-12.75 0,-5.07 -0.05,-8.11 -0.15,-9.12 -0.36,-3.02 -1.24,-4.54 -2.63,-4.54 h -4.83 c -0.52,0 -0.78,-0.16 -0.78,-0.49 V 268 c 0,-0.42 0.16,-0.63 0.49,-0.63 h 2.88 c 3.02,0 5.93,-0.13 8.73,-0.39 2.08,-0.2 3.04,-0.29 2.88,-0.29 0.75,0 1.12,0.51 1.12,1.51 0,0.1 -0.12,4.93 -0.37,14.51 -0.24,9.57 -0.37,14.59 -0.37,15.04 0,7.8 0.8,11.7 2.39,11.7 h 5.9 c 0.32,0 0.49,0.17 0.49,0.49 z M 369.24,250 c 0,1.73 -0.78,3.25 -2.34,4.58 -1.33,1.14 -2.58,1.71 -3.76,1.71 -2.15,0 -3.22,-1.05 -3.22,-3.17 0,-1.27 0.54,-2.55 1.61,-3.85 1.3,-1.56 2.89,-2.34 4.78,-2.34 1.89,0 2.93,1.02 2.93,3.07 z"
         id="path4" />
      <path
         class="cls-1"
         d="m 420.35,304.23 c 0,0.49 -0.8,1.35 -2.39,2.58 -5.23,4.07 -10.86,6.1 -16.87,6.1 -3.58,0 -6.41,-0.55 -8.49,-1.66 -3.12,-1.69 -5.82,-4.57 -8.1,-8.63 -1.85,-3.28 -2.78,-7.44 -2.78,-12.48 0,-3.38 0.39,-6.53 1.17,-9.46 1.04,-3.83 3.04,-7.04 6,-9.61 3.22,-2.79 7.67,-4.19 13.36,-4.19 5.07,0 9.35,1.68 12.83,5.02 1.85,1.79 2.78,3.41 2.78,4.88 0,1.47 -0.6,2.29 -1.8,2.29 -1.63,0 -3.28,-0.83 -4.97,-2.49 -1.53,-1.53 -2.57,-3.23 -3.12,-5.12 -0.23,-0.78 -0.97,-1.27 -2.22,-1.46 -1.25,-0.2 -2.51,-0.29 -3.78,-0.29 -1.63,0 -2.96,0.1 -4,0.29 -2.7,0.52 -4.83,1.64 -6.39,3.36 -2.6,2.9 -3.9,7.43 -3.9,13.61 0,6.18 2.1,11.67 6.29,16.09 1.89,1.95 4.19,3.22 6.92,3.8 1.4,0.33 3.59,0.49 6.58,0.49 4.03,0 7.46,-1.01 10.29,-3.02 0.39,-0.26 0.86,-0.59 1.41,-0.98 0.13,-0.06 0.32,-0.1 0.59,-0.1 0.39,0.36 0.59,0.68 0.59,0.98 z"
         id="path5" />
      <path
         class="cls-1"
         d="m 448.39,311.74 c 0,0.33 -0.2,0.49 -0.59,0.49 h -23.16 c -0.32,0 -0.49,-0.2 -0.49,-0.59 v -1.51 c 0,-0.45 0.13,-0.68 0.39,-0.68 h 7.07 c 0.62,0 0.93,-0.34 0.93,-1.02 0,-0.2 0.02,-4.14 0.05,-11.82 0.03,-7.69 0.05,-11.94 0.05,-12.75 0,-5.07 -0.05,-8.11 -0.15,-9.12 -0.36,-3.02 -1.24,-4.54 -2.63,-4.54 h -4.83 c -0.52,0 -0.78,-0.16 -0.78,-0.49 V 268 c 0,-0.42 0.16,-0.63 0.49,-0.63 h 2.88 c 3.02,0 5.93,-0.13 8.73,-0.39 2.08,-0.2 3.04,-0.29 2.88,-0.29 0.75,0 1.12,0.51 1.12,1.51 0,0.1 -0.12,4.93 -0.37,14.51 -0.24,9.57 -0.37,14.59 -0.37,15.04 0,7.8 0.8,11.7 2.39,11.7 h 5.9 c 0.32,0 0.49,0.17 0.49,0.49 z M 440.34,250 c 0,1.73 -0.78,3.25 -2.34,4.58 -1.33,1.14 -2.58,1.71 -3.76,1.71 -2.15,0 -3.22,-1.05 -3.22,-3.17 0,-1.27 0.54,-2.55 1.61,-3.85 1.3,-1.56 2.89,-2.34 4.78,-2.34 1.89,0 2.93,1.02 2.93,3.07 z"
         id="path6" />
      <g
         id="g9">
        <path
           class="cls-1"
           d="m 486.67,294.25 c -0.24,0 -0.55,0.06 -1.32,0.38 -0.35,0.14 -0.9,0.33 -1.63,0.57 -0.09,-0.44 -0.2,-1.33 -0.2,-3.09 v -21.08 c 0,-0.34 0.02,-1.43 0.07,-3.28 0.05,-1.88 0.07,-2.84 0.07,-2.88 0,-1.5 -1.1,-1.54 -1.23,-1.54 -0.22,0 -0.24,0 -1.6,0.57 -1.14,0.47 -2.64,0.71 -4.45,0.71 h -1.05 c -0.6,0 -1.21,0.45 -1.21,1.29 v 0.59 c 0,0.71 0.51,1.23 1.21,1.23 h 2.78 c 0.1,0.32 0.26,1.11 0.26,3.01 0,0.24 0.02,1.7 0.05,4.37 0.02,1.4 0.03,2.45 0.03,3.17 -0.77,-0.41 -1.38,-0.69 -1.84,-0.87 -1.14,-0.41 -2.46,-0.62 -3.94,-0.62 -2.77,0 -5.09,0.9 -6.89,2.68 -2.03,2.02 -3.06,5.03 -3.06,8.96 0,2.29 0.46,4.49 1.36,6.53 0.76,1.7 1.91,2.99 3.44,3.86 1,0.56 2.22,0.84 3.63,0.84 2.16,0 4.01,-0.5 5.54,-1.5 0.8,-0.58 1.52,-1.11 2.17,-1.6 v 0.09 c 0,0.11 -0.02,0.42 -0.06,0.93 -0.05,0.59 -0.07,0.96 -0.07,1.08 0,1.02 0.65,1.47 1.3,1.47 0.24,0 0.46,-0.09 0.62,-0.23 0.23,-0.12 0.74,-0.36 1.54,-0.73 2.06,-0.93 3.68,-1.6 4.87,-1.99 0.3,-0.11 0.8,-0.44 0.8,-1.37 0,-1.47 -0.99,-1.54 -1.18,-1.54 z m -16.05,0.3 c -0.53,-0.25 -1.11,-0.77 -1.72,-1.55 -0.23,-0.29 -0.59,-0.89 -0.99,-2.09 -0.4,-1.15 -0.6,-2.25 -0.6,-3.27 0,-2.65 0.59,-4.68 1.74,-6.04 0.86,-1.01 2.17,-1.5 4,-1.5 1.83,0 3.61,0.39 5.05,1.16 0.16,0.09 0.2,0.18 0.22,0.27 0.23,1.13 0.34,2.64 0.34,4.5 0,1.31 0,2.8 0.02,4.48 0,0.96 0.01,1.64 0.04,2.12 -0.01,0.06 -0.02,0.12 -0.02,0.19 0,0.2 -0.02,0.32 0,0.33 -1.69,1.23 -3.43,1.82 -5.32,1.82 -1.23,0 -2.17,-0.14 -2.77,-0.42 z"
           id="path7" />
        <path
           class="cls-1"
           d="m 508.03,294.2 c -0.09,0.05 -0.38,0.22 -0.45,0.3 -0.02,0.02 -0.22,0.2 -0.95,0.44 -0.81,0.28 -1.88,0.42 -3.18,0.42 -2.52,0 -4.31,-0.45 -5.34,-1.34 -2.05,-1.78 -3.05,-4.02 -3.05,-6.85 v -0.11 c 0.12,0 0.26,0 0.42,-0.01 0.61,-0.02 0.95,-0.02 1.04,-0.02 1.11,0 3.23,-0.29 6.47,-0.89 3.79,-0.69 4.77,-0.99 5.17,-1.14 0.93,-0.35 1.03,-1.03 1.03,-1.3 0,-0.34 -0.09,-0.69 -0.27,-1.1 -0.56,-1.23 -1.6,-2.38 -3.16,-3.5 -1.23,-0.89 -2.12,-1.46 -2.71,-1.74 -0.82,-0.41 -1.86,-0.62 -3.07,-0.62 -2.49,0 -4.62,0.86 -6.32,2.54 -1.44,1.41 -2.46,3.34 -3.02,5.74 -0.23,0.99 -0.34,2.46 -0.34,4.5 0,2.97 1.05,5.53 3.13,7.61 1.73,1.73 4.08,2.61 6.96,2.61 1.9,0 3.68,-0.37 5.3,-1.09 1.01,-0.45 1.8,-0.87 2.42,-1.31 0.34,-0.25 0.77,-0.62 1.28,-1.13 0.08,-0.07 0.14,-0.16 0.18,-0.25 0.07,-0.13 0.15,-0.41 0.15,-0.56 0,-0.12 -0.11,-0.43 -0.16,-0.54 -0.25,-0.61 -0.94,-0.93 -1.5,-0.65 z M 495.7,282.95 c 0.41,-1.01 0.71,-1.53 0.89,-1.77 0.67,-0.89 1.33,-1.35 1.95,-1.35 1.06,0 1.97,0.3 2.78,0.92 0.81,0.63 1.5,1.41 2.06,2.34 -1.2,0.38 -2.91,0.66 -5.09,0.83 -1.33,0.1 -2.3,0.18 -2.99,0.25 0.08,-0.3 0.2,-0.7 0.41,-1.22 z"
           id="path8" />
        <path
           class="cls-1"
           d="m 523.63,296.18 h -2.84 c -0.11,-0.41 -0.29,-1.44 -0.29,-4.02 0,-0.32 0.05,-4.88 0.14,-13.69 l 0.1,-9.99 c 0.02,-2.19 0.03,-3.29 0.03,-3.32 0,-1.42 -1.19,-1.89 -1.88,-1.46 -0.22,0.07 -0.64,0.18 -1.24,0.34 -1.08,0.29 -2.11,0.43 -3.06,0.43 h -1.75 c -0.55,0 -1.14,0.4 -1.14,1.28 v 0.74 c 0,0.71 0.52,1.23 1.23,1.23 h 2.37 c 0.11,0.39 0.3,1.42 0.3,4.02 v 24.44 h -3.17 c -0.7,0 -1.21,0.52 -1.21,1.23 v 0.78 c 0,0.59 0.43,1.19 1.25,1.19 h 11.15 c 0.79,0 1.21,-0.57 1.21,-1.14 v -0.87 c 0,-0.69 -0.51,-1.19 -1.21,-1.19 z"
           id="path9" />
      </g>
      <rect
         class="cls-1"
         x="462.70001"
         y="309.45001"
         width="62.130001"
         height="2.78"
         rx="0.61000001"
         ry="0.61000001"
         id="rect9" />
      <path
         class="cls-1"
         d="m 581.65,246.59 c -0.29,2.05 -0.8,4.42 -1.51,7.12 -0.13,0.46 -0.32,0.68 -0.59,0.68 -0.32,0 -0.63,-0.26 -0.93,-0.78 -0.75,-1.46 -2.05,-2.4 -3.9,-2.83 -3.22,-0.71 -9.01,-1.07 -17.36,-1.07 -0.52,0 -0.8,0.21 -0.83,0.63 -0.03,0.42 -0.13,8 -0.29,22.73 -0.2,14.14 -0.29,21.7 -0.29,22.68 0,9.27 0.8,13.9 2.39,13.9 h 8.39 c 0.23,0 0.34,0.13 0.34,0.39 v 1.71 c 0,0.33 -0.11,0.49 -0.34,0.49 h -26.82 c -0.36,0 -0.54,-0.16 -0.54,-0.49 v -1.61 c 0,-0.32 0.18,-0.49 0.54,-0.49 h 7.85 c 0.62,0 0.93,-0.42 0.93,-1.27 -0.13,-6.83 -0.2,-10.56 -0.2,-11.22 0,-0.55 0.08,-6.04 0.24,-16.46 0.16,-10.42 0.24,-15.86 0.24,-16.31 0,-9.78 -0.57,-14.68 -1.71,-14.68 -8.39,0 -14.31,0.47 -17.75,1.41 -2.5,0.65 -4.11,1.55 -4.83,2.68 -0.36,0.59 -0.68,0.88 -0.98,0.88 -0.42,0 -0.63,-0.13 -0.63,-0.39 0,-0.36 0.11,-0.78 0.34,-1.27 0.91,-3.28 1.64,-5.72 2.19,-7.32 0.13,-0.42 0.49,-0.59 1.07,-0.49 0.68,0.1 4.03,0.29 10.05,0.59 7.02,0.33 12.7,0.49 17.02,0.49 13.92,0 21.82,-0.03 23.7,-0.1 0.88,-0.03 1.7,-0.11 2.46,-0.22 0.76,-0.12 1.13,-0.17 1.1,-0.17 0.42,0 0.63,0.26 0.63,0.78 z"
         id="path10" />
      <path
         class="cls-1"
         d="m 613.2,305.64 c 0,0.07 -0.03,0.17 -0.1,0.29 -1.01,1.01 -1.85,1.76 -2.54,2.24 -1.2,0.85 -2.83,1.73 -4.88,2.63 -3.28,1.46 -6.84,2.19 -10.68,2.19 -5.72,0 -10.27,-1.69 -13.65,-5.07 -4.13,-4.13 -6.19,-9.15 -6.19,-15.07 0,-4.22 0.23,-7.33 0.68,-9.31 1.14,-4.84 3.14,-8.66 6,-11.46 3.32,-3.28 7.41,-4.93 12.29,-4.93 2.34,0 4.26,0.38 5.75,1.12 1.17,0.56 3.04,1.76 5.61,3.61 3.06,2.18 5.12,4.44 6.19,6.78 0.26,0.59 0.39,1.09 0.39,1.51 0,0.36 -0.29,0.65 -0.88,0.88 -1.24,0.49 -4.86,1.29 -10.88,2.39 -6.86,1.27 -11.43,1.9 -13.7,1.9 -0.2,0 -0.97,0.02 -2.32,0.05 -1.35,0.03 -2.14,0.05 -2.37,0.05 -0.39,0 -0.59,0.77 -0.59,2.29 0,6.73 2.46,12.23 7.36,16.48 2.63,2.28 6.96,3.41 12.97,3.41 3.09,0 5.63,-0.34 7.61,-1.02 1.4,-0.45 2.36,-0.94 2.88,-1.46 0.1,-0.06 0.24,-0.15 0.44,-0.24 0.16,0 0.29,0.12 0.39,0.34 0.07,0.1 0.13,0.23 0.2,0.39 z m -9.12,-26.09 c 0,-0.26 -0.16,-0.68 -0.49,-1.27 -1.4,-2.47 -3.15,-4.52 -5.27,-6.14 -2.11,-1.62 -4.55,-2.44 -7.32,-2.44 -2.05,0 -4.02,1.25 -5.9,3.76 -0.68,0.95 -1.41,2.39 -2.19,4.34 -0.85,2.12 -1.27,3.74 -1.27,4.88 0,0.52 0.2,0.78 0.59,0.78 -0.32,0 2.47,-0.23 8.39,-0.68 5.63,-0.45 9.85,-1.22 12.68,-2.29 0.52,-0.23 0.78,-0.54 0.78,-0.93 z"
         id="path11" />
      <path
         class="cls-1"
         d="m 657.34,309.01 c 0,0.17 -0.07,0.38 -0.2,0.63 -1.85,1.85 -3.19,3.04 -4,3.56 -0.29,0.23 -0.59,0.34 -0.88,0.34 -1.92,0 -3.82,-0.89 -5.71,-2.68 -1.76,-1.66 -3.06,-3.64 -3.9,-5.95 -0.2,-0.59 -0.46,-0.65 -0.78,-0.2 -0.36,0.56 -1.27,1.5 -2.73,2.83 -1.46,1.34 -2.49,2.16 -3.07,2.49 -3.19,1.85 -6.08,2.78 -8.68,2.78 -2.6,0 -4.31,-0.42 -5.51,-1.27 -1.85,-1.37 -2.78,-3.39 -2.78,-6.1 0,-3.18 1.01,-6.19 3.02,-9.02 1.43,-2.01 3.66,-3.71 6.68,-5.07 3.28,-1.49 7.67,-2.76 13.17,-3.8 0.29,-0.06 0.46,-0.42 0.49,-1.07 0.23,-4.97 0.23,-8.34 0,-10.09 -0.2,-1.72 -0.94,-3 -2.24,-3.85 -1.3,-0.84 -3.14,-1.27 -5.51,-1.27 -3.35,0 -5.69,0.41 -7.02,1.22 -0.78,0.56 -1.1,1.12 -0.98,1.71 v 1.37 c 0,1.43 -0.37,2.7 -1.12,3.8 -1.17,1.82 -2.54,2.73 -4.1,2.73 -1.14,0 -1.71,-0.75 -1.71,-2.24 0,-1.27 0.73,-2.84 2.19,-4.73 1.46,-1.88 3.07,-3.36 4.83,-4.44 3.15,-1.92 7.48,-2.88 12.97,-2.88 3.64,0 6.27,0.77 7.9,2.29 1.2,1.11 1.8,3.43 1.8,6.97 0,2.57 -0.15,6.44 -0.46,11.61 -0.31,5.17 -0.46,8.1 -0.46,8.78 0,3.22 0.83,5.82 2.49,7.8 1.2,1.4 3.07,2.46 5.61,3.17 0.46,0.2 0.68,0.39 0.68,0.59 z m -15.07,-18.24 c 0,-0.62 -0.26,-0.93 -0.78,-0.93 -2.54,0 -5.36,0.7 -8.49,2.1 -5.27,2.37 -7.9,5.58 -7.9,9.61 0,2.47 0.6,4.16 1.8,5.07 1.01,0.81 2.6,1.22 4.78,1.22 2.93,0 5.82,-1.27 8.68,-3.8 0.78,-0.68 1.22,-1.51 1.32,-2.49 0.39,-3.87 0.59,-7.46 0.59,-10.78 z"
         id="path12" />
      <path
         class="cls-1"
         d="m 692.4,306.33 c 0,0.49 -0.13,0.86 -0.39,1.12 -1.33,1.07 -3.07,2.1 -5.22,3.07 -3.67,1.73 -7.09,2.58 -10.24,2.58 -6.8,0 -10.19,-3.46 -10.19,-10.39 0,-0.42 0.07,-4.03 0.2,-10.83 0.13,-6.79 0.2,-10.37 0.2,-10.73 0,-0.42 -0.03,-1.83 -0.1,-4.22 -0.07,-2.39 -0.1,-3.65 -0.1,-3.78 0,-0.68 -0.31,-1.17 -0.93,-1.46 -0.49,-0.26 -1.76,-0.83 -3.8,-1.71 -0.42,-0.2 -0.62,-0.57 -0.59,-1.12 0,-0.42 0.24,-0.81 0.73,-1.17 3.25,-2.76 6.71,-5.67 10.39,-8.73 0.49,-0.32 0.91,-0.49 1.27,-0.49 0.52,0 0.68,0.47 0.49,1.41 -0.39,2.12 -0.59,4.28 -0.59,6.49 0,1.07 0.16,1.61 0.49,1.61 0.29,0 3.1,-0.09 8.44,-0.27 5.33,-0.18 8.08,-0.27 8.24,-0.27 0.68,0 0.93,0.34 0.73,1.02 0,0.65 -0.24,1.58 -0.73,2.78 -0.16,0.49 -0.46,0.73 -0.88,0.73 -0.29,0 -2.95,-0.02 -7.97,-0.05 -5.02,-0.03 -7.63,-0.05 -7.83,-0.05 -0.39,0 -0.59,0.17 -0.59,0.49 v 27.07 c 0,2.83 0.41,4.9 1.22,6.19 0.88,1.46 3.33,2.19 7.36,2.19 2.21,0 4.81,-0.5 7.8,-1.51 1.3,-0.59 2,-0.88 2.1,-0.88 0.32,0 0.49,0.29 0.49,0.88 z"
         id="path13" />
      <path
         class="cls-1"
         d="m 729.56,271.99 c -0.36,2.12 -0.86,4.15 -1.51,6.1 -0.16,0.52 -0.39,0.78 -0.68,0.78 -0.36,0 -0.65,-0.16 -0.88,-0.49 -0.85,-1.2 -1.59,-2.03 -2.24,-2.49 -1.27,-1.01 -2.89,-1.51 -4.88,-1.51 -3.67,0 -6.44,0.8 -8.29,2.39 -0.32,0.29 -0.49,0.73 -0.49,1.32 0,0.2 -0.02,3.95 -0.05,11.27 -0.03,7.32 -0.05,11.19 -0.05,11.61 0,5.79 0.54,8.68 1.61,8.68 h 9.56 c 0.42,0 0.63,0.23 0.63,0.68 v 1.41 c 0,0.33 -0.15,0.49 -0.44,0.49 h -24.97 c -0.46,0 -0.68,-0.16 -0.68,-0.49 v -1.41 c 0,-0.45 0.2,-0.68 0.59,-0.68 h 5.9 c 0.62,0 0.93,-0.31 0.93,-0.93 v -32.04 c 0,-4.45 -0.54,-6.68 -1.61,-6.68 h -6 c -0.32,0 -0.49,-0.18 -0.49,-0.54 v -1.56 c 0,-0.36 0.16,-0.54 0.49,-0.54 h 6.68 c 2.34,0 3.84,-0.1 4.49,-0.29 1.79,-0.52 2.76,-0.78 2.93,-0.78 0.46,0 0.68,0.44 0.68,1.32 0,0.23 -0.03,1.2 -0.1,2.9 -0.07,1.71 -0.1,2.66 -0.1,2.85 0,0.95 0.2,1.22 0.59,0.83 1.49,-1.3 3.2,-2.73 5.12,-4.29 2.37,-1.76 4.7,-2.63 6.97,-2.63 2.63,0 4.66,1.11 6.1,3.32 0.29,0.46 0.36,0.93 0.2,1.41 z"
         id="path14" />
      <path
         class="cls-1"
         d="m 776.28,289.65 c 0,4.23 -0.7,8 -2.1,11.31 -1.63,3.84 -4.58,6.96 -8.88,9.36 -2.96,1.66 -6.39,2.49 -10.29,2.49 -4.42,0 -7.56,-0.39 -9.41,-1.17 -3.97,-1.76 -6.95,-4.66 -8.95,-8.7 -2,-4.05 -3,-8.35 -3,-12.9 0,-5 1.09,-9.43 3.27,-13.26 1.98,-3.44 4.78,-6.08 8.39,-7.9 2.8,-1.4 6.76,-2.1 11.9,-2.1 4.16,0 7.46,0.77 9.9,2.29 3.19,2.02 5.54,4.88 7.07,8.58 1.4,3.41 2.1,7.41 2.1,12 z m -6.88,2.39 c 0,-6.76 -1.61,-12.05 -4.83,-15.85 -3.28,-3.93 -7.58,-5.9 -12.87,-5.9 -2.76,0 -4.65,0.23 -5.66,0.68 -0.68,0.29 -1.46,1.06 -2.34,2.29 -1.92,2.8 -2.88,6.96 -2.88,12.48 0,5.52 1.02,11.02 3.07,15.8 1.43,3.29 3.33,5.64 5.71,7.07 2.08,1.27 4.39,1.9 6.92,1.9 2.93,0 5.19,-0.45 6.78,-1.37 1.92,-1.14 3.48,-3.32 4.68,-6.53 0.94,-2.44 1.41,-5.96 1.41,-10.58 z"
         id="path15" />
    </g>
    <g
       id="g42">
      <path
         class="cls-1"
         d="m 209.04,352.76 7.88,-19.79 h 3.06 l 7.9,19.79 h -2.45 l -2.08,-5.22 h -9.93 l -2.05,5.22 h -2.34 z m 5.16,-7.19 h 8.37 l -2.6,-6.61 c -0.06,-0.15 -0.14,-0.38 -0.26,-0.69 -0.11,-0.31 -0.24,-0.66 -0.39,-1.05 -0.15,-0.39 -0.29,-0.79 -0.43,-1.2 -0.14,-0.4 -0.28,-0.77 -0.42,-1.1 h -0.2 c -0.12,0.37 -0.26,0.8 -0.45,1.3 -0.18,0.5 -0.37,0.99 -0.55,1.49 -0.18,0.49 -0.34,0.91 -0.48,1.25 l -2.6,6.61 z"
         id="path16" />
      <path
         class="cls-1"
         d="m 239.68,353.1 c -1.06,0 -2.09,-0.1 -3.09,-0.29 -1,-0.19 -1.89,-0.52 -2.65,-0.98 -0.77,-0.46 -1.38,-1.07 -1.82,-1.82 -0.44,-0.75 -0.66,-1.68 -0.66,-2.8 v -0.27 c 0,-0.09 0,-0.18 0.03,-0.27 h 2.28 c 0,0.08 0,0.18 -0.01,0.32 -0.01,0.14 -0.01,0.25 -0.01,0.35 0,0.85 0.25,1.55 0.76,2.12 0.51,0.57 1.2,0.99 2.08,1.27 0.88,0.28 1.86,0.42 2.96,0.42 0.36,0 0.8,-0.02 1.31,-0.07 0.51,-0.05 1.03,-0.14 1.56,-0.29 0.53,-0.14 1.01,-0.35 1.46,-0.61 0.44,-0.26 0.8,-0.6 1.08,-1.01 0.28,-0.42 0.42,-0.93 0.42,-1.54 0,-0.71 -0.19,-1.3 -0.58,-1.76 -0.39,-0.46 -0.89,-0.84 -1.51,-1.14 -0.63,-0.3 -1.34,-0.56 -2.15,-0.79 -0.81,-0.23 -1.63,-0.45 -2.48,-0.66 -0.85,-0.21 -1.67,-0.45 -2.47,-0.72 -0.8,-0.27 -1.51,-0.61 -2.15,-1.01 -0.64,-0.41 -1.14,-0.91 -1.51,-1.51 -0.37,-0.6 -0.56,-1.35 -0.56,-2.24 0,-0.77 0.15,-1.47 0.46,-2.11 0.31,-0.64 0.78,-1.18 1.41,-1.63 0.63,-0.45 1.44,-0.8 2.42,-1.05 0.98,-0.25 2.14,-0.37 3.49,-0.37 1.02,0 1.97,0.11 2.86,0.32 0.88,0.21 1.66,0.54 2.34,0.99 0.67,0.45 1.2,1.02 1.57,1.7 0.38,0.68 0.56,1.5 0.56,2.47 v 0.35 h -2.25 v -0.49 c 0,-0.71 -0.22,-1.31 -0.66,-1.8 -0.44,-0.49 -1.03,-0.87 -1.77,-1.15 -0.74,-0.28 -1.58,-0.42 -2.53,-0.42 -1.29,0 -2.35,0.13 -3.17,0.39 -0.83,0.26 -1.44,0.62 -1.85,1.07 -0.4,0.45 -0.61,0.96 -0.61,1.52 0,0.65 0.19,1.2 0.58,1.63 0.38,0.43 0.89,0.79 1.53,1.07 0.64,0.28 1.35,0.53 2.15,0.75 0.8,0.22 1.62,0.44 2.47,0.65 0.85,0.21 1.67,0.46 2.47,0.74 0.8,0.28 1.52,0.62 2.16,1.04 0.64,0.41 1.16,0.93 1.53,1.54 0.37,0.61 0.56,1.37 0.56,2.28 0,1.37 -0.34,2.48 -1.02,3.35 -0.68,0.87 -1.62,1.5 -2.81,1.91 -1.19,0.41 -2.58,0.61 -4.15,0.61 z"
         id="path17" />
      <path
         class="cls-1"
         d="m 260.88,353.1 c -1.06,0 -2.09,-0.1 -3.09,-0.29 -1,-0.19 -1.89,-0.52 -2.65,-0.98 -0.77,-0.46 -1.38,-1.07 -1.82,-1.82 -0.44,-0.75 -0.66,-1.68 -0.66,-2.8 v -0.27 c 0,-0.09 0,-0.18 0.03,-0.27 h 2.28 c 0,0.08 0,0.18 -0.01,0.32 -0.01,0.14 -0.01,0.25 -0.01,0.35 0,0.85 0.25,1.55 0.76,2.12 0.51,0.57 1.2,0.99 2.08,1.27 0.88,0.28 1.86,0.42 2.96,0.42 0.36,0 0.8,-0.02 1.31,-0.07 0.51,-0.05 1.03,-0.14 1.56,-0.29 0.53,-0.14 1.01,-0.35 1.46,-0.61 0.44,-0.26 0.8,-0.6 1.08,-1.01 0.28,-0.42 0.42,-0.93 0.42,-1.54 0,-0.71 -0.19,-1.3 -0.58,-1.76 -0.39,-0.46 -0.89,-0.84 -1.51,-1.14 -0.63,-0.3 -1.34,-0.56 -2.15,-0.79 -0.81,-0.23 -1.63,-0.45 -2.48,-0.66 -0.85,-0.21 -1.67,-0.45 -2.47,-0.72 -0.8,-0.27 -1.51,-0.61 -2.15,-1.01 -0.64,-0.41 -1.14,-0.91 -1.51,-1.51 -0.37,-0.6 -0.56,-1.35 -0.56,-2.24 0,-0.77 0.15,-1.47 0.46,-2.11 0.31,-0.64 0.78,-1.18 1.41,-1.63 0.63,-0.45 1.44,-0.8 2.42,-1.05 0.98,-0.25 2.14,-0.37 3.49,-0.37 1.02,0 1.97,0.11 2.86,0.32 0.88,0.21 1.66,0.54 2.34,0.99 0.67,0.45 1.2,1.02 1.57,1.7 0.38,0.68 0.56,1.5 0.56,2.47 v 0.35 h -2.25 v -0.49 c 0,-0.71 -0.22,-1.31 -0.66,-1.8 -0.44,-0.49 -1.03,-0.87 -1.77,-1.15 -0.74,-0.28 -1.58,-0.42 -2.53,-0.42 -1.29,0 -2.35,0.13 -3.17,0.39 -0.83,0.26 -1.44,0.62 -1.85,1.07 -0.4,0.45 -0.61,0.96 -0.61,1.52 0,0.65 0.19,1.2 0.58,1.63 0.38,0.43 0.89,0.79 1.53,1.07 0.64,0.28 1.35,0.53 2.15,0.75 0.8,0.22 1.62,0.44 2.47,0.65 0.85,0.21 1.67,0.46 2.47,0.74 0.8,0.28 1.52,0.62 2.16,1.04 0.64,0.41 1.16,0.93 1.53,1.54 0.38,0.62 0.56,1.37 0.56,2.28 0,1.37 -0.34,2.48 -1.02,3.35 -0.68,0.87 -1.62,1.5 -2.81,1.91 -1.19,0.41 -2.58,0.61 -4.15,0.61 z"
         id="path18" />
      <path
         class="cls-1"
         d="m 283.65,353.1 c -2.04,0 -3.79,-0.38 -5.27,-1.14 -1.47,-0.76 -2.6,-1.9 -3.39,-3.42 -0.79,-1.52 -1.18,-3.42 -1.18,-5.68 0,-2.26 0.39,-4.19 1.18,-5.7 0.79,-1.51 1.92,-2.64 3.39,-3.41 1.47,-0.76 3.23,-1.14 5.27,-1.14 2.04,0 3.82,0.38 5.29,1.14 1.47,0.76 2.6,1.89 3.38,3.41 0.78,1.51 1.17,3.41 1.17,5.7 0,2.29 -0.39,4.16 -1.17,5.68 -0.78,1.52 -1.9,2.66 -3.38,3.42 -1.47,0.76 -3.24,1.14 -5.29,1.14 z m 0,-1.96 c 1.13,0 2.16,-0.15 3.09,-0.45 0.92,-0.3 1.71,-0.77 2.36,-1.43 0.65,-0.66 1.16,-1.48 1.51,-2.48 0.36,-1 0.54,-2.2 0.54,-3.61 v -0.61 c 0,-1.42 -0.18,-2.63 -0.54,-3.63 -0.36,-1 -0.86,-1.83 -1.51,-2.48 -0.65,-0.65 -1.44,-1.13 -2.36,-1.43 -0.92,-0.3 -1.95,-0.45 -3.09,-0.45 -1.14,0 -2.16,0.15 -3.07,0.45 -0.91,0.3 -1.7,0.77 -2.35,1.43 -0.65,0.66 -1.16,1.48 -1.51,2.48 -0.36,1 -0.53,2.21 -0.53,3.63 v 0.61 c 0,1.41 0.18,2.61 0.53,3.61 0.36,1 0.86,1.83 1.51,2.48 0.66,0.65 1.44,1.13 2.35,1.43 0.91,0.3 1.94,0.45 3.07,0.45 z"
         id="path19" />
      <path
         class="cls-1"
         d="m 307.74,353.1 c -2.02,0 -3.73,-0.37 -5.12,-1.12 -1.39,-0.75 -2.45,-1.89 -3.17,-3.41 -0.72,-1.52 -1.08,-3.42 -1.08,-5.71 0,-3.42 0.83,-5.99 2.48,-7.69 1.65,-1.7 3.97,-2.55 6.95,-2.55 1.71,0 3.22,0.27 4.52,0.82 1.3,0.55 2.32,1.37 3.06,2.45 0.74,1.08 1.11,2.47 1.11,4.14 h -2.31 c 0,-1.25 -0.26,-2.28 -0.78,-3.07 -0.52,-0.8 -1.26,-1.39 -2.21,-1.79 -0.95,-0.39 -2.09,-0.59 -3.42,-0.59 -1.42,0 -2.66,0.28 -3.72,0.83 -1.06,0.56 -1.88,1.43 -2.45,2.61 -0.58,1.18 -0.87,2.73 -0.87,4.63 v 0.61 c 0,1.86 0.29,3.37 0.87,4.53 0.58,1.15 1.39,2 2.45,2.54 1.06,0.54 2.31,0.81 3.75,0.81 1.33,0 2.47,-0.2 3.43,-0.59 0.96,-0.39 1.7,-0.99 2.22,-1.79 0.52,-0.8 0.78,-1.82 0.78,-3.07 h 2.25 c 0,1.69 -0.38,3.09 -1.14,4.18 -0.76,1.1 -1.79,1.91 -3.1,2.44 -1.31,0.53 -2.81,0.79 -4.5,0.79 z"
         id="path20" />
      <path
         class="cls-1"
         d="m 322.28,352.76 v -19.79 h 2.28 v 19.79 z"
         id="path21" />
      <path
         class="cls-1"
         d="M 329.12,352.76 337,332.97 h 3.06 l 7.9,19.79 h -2.45 l -2.08,-5.22 h -9.93 l -2.05,5.22 h -2.34 z m 5.16,-7.19 h 8.37 l -2.6,-6.61 c -0.06,-0.15 -0.14,-0.38 -0.26,-0.69 -0.11,-0.31 -0.24,-0.66 -0.39,-1.05 -0.14,-0.39 -0.29,-0.79 -0.43,-1.2 -0.14,-0.4 -0.28,-0.77 -0.42,-1.1 h -0.2 c -0.12,0.37 -0.26,0.8 -0.45,1.3 -0.19,0.5 -0.37,0.99 -0.55,1.49 -0.18,0.49 -0.34,0.91 -0.48,1.25 l -2.6,6.61 z"
         id="path22" />
      <path
         class="cls-1"
         d="m 350.9,352.76 v -1.24 l 12.67,-16.59 h -11.92 v -1.96 h 15.29 v 1.21 l -12.75,16.62 h 13.01 v 1.96 z"
         id="path23" />
      <path
         class="cls-1"
         d="m 372.62,352.76 v -19.79 h 2.28 v 19.79 z"
         id="path24" />
      <path
         class="cls-1"
         d="m 390.63,353.1 c -2.04,0 -3.79,-0.38 -5.27,-1.14 -1.47,-0.76 -2.6,-1.9 -3.39,-3.42 -0.79,-1.52 -1.18,-3.42 -1.18,-5.68 0,-2.26 0.39,-4.19 1.18,-5.7 0.79,-1.51 1.92,-2.64 3.39,-3.41 1.47,-0.76 3.23,-1.14 5.27,-1.14 2.04,0 3.82,0.38 5.29,1.14 1.47,0.76 2.6,1.89 3.38,3.41 0.78,1.51 1.17,3.41 1.17,5.7 0,2.29 -0.39,4.16 -1.17,5.68 -0.78,1.52 -1.9,2.66 -3.38,3.42 -1.47,0.76 -3.24,1.14 -5.29,1.14 z m 0,-1.96 c 1.13,0 2.16,-0.15 3.09,-0.45 0.92,-0.3 1.71,-0.77 2.36,-1.43 0.65,-0.66 1.16,-1.48 1.51,-2.48 0.35,-1 0.54,-2.2 0.54,-3.61 v -0.61 c 0,-1.42 -0.18,-2.63 -0.54,-3.63 -0.36,-1 -0.86,-1.83 -1.51,-2.48 -0.65,-0.65 -1.44,-1.13 -2.36,-1.43 -0.92,-0.3 -1.95,-0.45 -3.09,-0.45 -1.14,0 -2.16,0.15 -3.07,0.45 -0.91,0.3 -1.7,0.77 -2.35,1.43 -0.65,0.66 -1.16,1.48 -1.51,2.48 -0.35,1 -0.53,2.21 -0.53,3.63 v 0.61 c 0,1.41 0.18,2.61 0.53,3.61 0.35,1 0.86,1.83 1.51,2.48 0.66,0.65 1.44,1.13 2.35,1.43 0.91,0.3 1.94,0.45 3.07,0.45 z"
         id="path25" />
      <path
         class="cls-1"
         d="m 406.41,352.76 v -19.79 h 2.22 l 10.13,13.68 c 0.12,0.13 0.26,0.32 0.42,0.55 0.16,0.23 0.33,0.46 0.49,0.7 0.16,0.24 0.3,0.46 0.42,0.65 h 0.14 v -15.58 h 2.22 v 19.79 h -1.99 L 410.13,338.8 c -0.13,-0.19 -0.35,-0.5 -0.63,-0.91 -0.29,-0.42 -0.54,-0.76 -0.75,-1.05 h -0.11 v 15.93 h -2.22 z"
         id="path26" />
      <path
         class="cls-1"
         d="m 429.4,352.76 v -19.79 h 15.15 v 1.96 h -12.87 v 6.7 h 11.6 v 1.99 h -11.6 v 7.18 h 13.04 v 1.96 z"
         id="path27" />
      <path
         class="cls-1"
         d="m 466.94,353.1 c -2.02,0 -3.73,-0.37 -5.12,-1.12 -1.39,-0.75 -2.45,-1.89 -3.17,-3.41 -0.72,-1.52 -1.08,-3.42 -1.08,-5.71 0,-3.42 0.83,-5.99 2.48,-7.69 1.65,-1.7 3.97,-2.55 6.95,-2.55 1.71,0 3.22,0.27 4.52,0.82 1.3,0.55 2.32,1.37 3.06,2.45 0.74,1.08 1.11,2.47 1.11,4.14 h -2.31 c 0,-1.25 -0.26,-2.28 -0.78,-3.07 -0.52,-0.8 -1.26,-1.39 -2.21,-1.79 -0.95,-0.39 -2.09,-0.59 -3.42,-0.59 -1.42,0 -2.66,0.28 -3.72,0.83 -1.06,0.56 -1.88,1.43 -2.45,2.61 -0.58,1.18 -0.87,2.73 -0.87,4.63 v 0.61 c 0,1.86 0.29,3.37 0.87,4.53 0.58,1.16 1.39,2 2.45,2.54 1.06,0.54 2.31,0.81 3.75,0.81 1.33,0 2.47,-0.2 3.43,-0.59 0.96,-0.39 1.7,-0.99 2.22,-1.79 0.52,-0.8 0.78,-1.82 0.78,-3.07 h 2.25 c 0,1.69 -0.38,3.09 -1.14,4.18 -0.76,1.1 -1.79,1.91 -3.1,2.44 -1.31,0.53 -2.81,0.79 -4.5,0.79 z"
         id="path28" />
      <path
         class="cls-1"
         d="m 489.38,353.1 c -1.65,0 -3.07,-0.26 -4.25,-0.79 -1.18,-0.53 -2.09,-1.38 -2.73,-2.55 -0.63,-1.17 -0.95,-2.69 -0.95,-4.56 v -12.23 h 2.28 v 12.7 c 0,1.82 0.49,3.19 1.49,4.1 0.99,0.91 2.38,1.36 4.17,1.36 1.79,0 3.26,-0.45 4.28,-1.36 1.03,-0.91 1.54,-2.27 1.54,-4.1 v -12.7 h 2.25 v 12.23 c 0,1.87 -0.32,3.39 -0.97,4.56 -0.64,1.17 -1.57,2.03 -2.77,2.55 -1.2,0.53 -2.65,0.79 -4.34,0.79 z"
         id="path29" />
      <path
         class="cls-1"
         d="m 504.41,352.76 v -19.79 h 2.28 v 17.8 h 9.78 v 1.99 z"
         id="path30" />
      <path
         class="cls-1"
         d="m 523.8,352.76 v -17.8 h -7.01 v -1.99 h 16.36 v 1.99 h -7.07 v 17.8 z"
         id="path31" />
      <path
         class="cls-1"
         d="m 545.87,353.1 c -1.65,0 -3.07,-0.26 -4.25,-0.79 -1.18,-0.53 -2.09,-1.38 -2.73,-2.55 -0.63,-1.17 -0.95,-2.69 -0.95,-4.56 v -12.23 h 2.28 v 12.7 c 0,1.82 0.49,3.19 1.49,4.1 0.99,0.91 2.38,1.36 4.17,1.36 1.79,0 3.26,-0.45 4.28,-1.36 1.03,-0.91 1.54,-2.27 1.54,-4.1 v -12.7 h 2.25 v 12.23 c 0,1.87 -0.32,3.39 -0.97,4.56 -0.65,1.17 -1.57,2.03 -2.77,2.55 -1.2,0.53 -2.65,0.79 -4.34,0.79 z"
         id="path32" />
      <path
         class="cls-1"
         d="m 560.91,352.76 v -19.79 h 10.39 c 1.31,0 2.39,0.25 3.25,0.74 0.86,0.49 1.5,1.16 1.93,2 0.43,0.85 0.65,1.81 0.65,2.88 0,1.41 -0.32,2.59 -0.97,3.56 -0.64,0.97 -1.5,1.66 -2.55,2.06 l 4.21,8.54 h -2.51 l -3.95,-8.14 h -8.17 v 8.14 h -2.28 z m 2.27,-10.1 h 7.88 c 1.17,0 2.1,-0.36 2.77,-1.08 0.67,-0.72 1.01,-1.72 1.01,-2.99 0,-0.77 -0.14,-1.42 -0.43,-1.96 -0.29,-0.54 -0.71,-0.95 -1.27,-1.25 -0.56,-0.3 -1.25,-0.45 -2.08,-0.45 h -7.88 z"
         id="path33" />
      <path
         class="cls-1"
         d="m 581.36,352.76 7.88,-19.79 h 3.06 l 7.9,19.79 h -2.45 l -2.08,-5.22 h -9.93 l -2.05,5.22 h -2.34 z m 5.17,-7.19 h 8.37 l -2.6,-6.61 c -0.06,-0.15 -0.14,-0.38 -0.26,-0.69 -0.11,-0.31 -0.24,-0.66 -0.39,-1.05 -0.15,-0.39 -0.29,-0.79 -0.43,-1.2 -0.14,-0.4 -0.28,-0.77 -0.42,-1.1 h -0.2 c -0.12,0.37 -0.26,0.8 -0.45,1.3 -0.19,0.5 -0.37,0.99 -0.55,1.49 -0.18,0.49 -0.34,0.91 -0.48,1.25 l -2.6,6.61 z"
         id="path34" />
      <path
         class="cls-1"
         d="m 604.79,352.76 v -19.79 h 2.28 v 17.8 h 9.78 v 1.99 z"
         id="path35" />
      <path
         class="cls-1"
         d="m 621.52,352.76 v -19.79 h 15.15 v 1.96 H 623.8 v 6.7 h 11.6 v 1.99 h -11.6 v 7.18 h 13.04 v 1.96 z"
         id="path36" />
      <path
         class="cls-1"
         d="m 650.75,352.76 v -19.79 h 2.22 l 10.13,13.68 c 0.12,0.13 0.26,0.32 0.42,0.55 0.16,0.23 0.33,0.46 0.49,0.7 0.16,0.24 0.3,0.46 0.42,0.65 h 0.14 v -15.58 h 2.22 v 19.79 H 664.8 L 654.47,338.8 c -0.13,-0.19 -0.35,-0.5 -0.63,-0.91 -0.29,-0.42 -0.54,-0.76 -0.75,-1.05 h -0.11 v 15.93 h -2.22 z"
         id="path37" />
      <path
         class="cls-1"
         d="m 682.51,353.1 c -2.04,0 -3.79,-0.38 -5.27,-1.14 -1.47,-0.76 -2.6,-1.9 -3.39,-3.42 -0.79,-1.52 -1.18,-3.42 -1.18,-5.68 0,-2.26 0.39,-4.19 1.18,-5.7 0.79,-1.51 1.92,-2.64 3.39,-3.41 1.47,-0.76 3.23,-1.14 5.27,-1.14 2.04,0 3.82,0.38 5.29,1.14 1.47,0.76 2.6,1.89 3.38,3.41 0.78,1.52 1.17,3.41 1.17,5.7 0,2.29 -0.39,4.16 -1.17,5.68 -0.78,1.52 -1.9,2.66 -3.38,3.42 -1.47,0.76 -3.24,1.14 -5.29,1.14 z m 0,-1.96 c 1.13,0 2.16,-0.15 3.09,-0.45 0.92,-0.3 1.71,-0.77 2.36,-1.43 0.65,-0.66 1.16,-1.48 1.51,-2.48 0.35,-1 0.54,-2.2 0.54,-3.61 v -0.61 c 0,-1.42 -0.18,-2.63 -0.54,-3.63 -0.36,-1 -0.86,-1.83 -1.51,-2.48 -0.65,-0.65 -1.44,-1.13 -2.36,-1.43 -0.92,-0.3 -1.95,-0.45 -3.09,-0.45 -1.14,0 -2.16,0.15 -3.07,0.45 -0.91,0.3 -1.7,0.77 -2.35,1.43 -0.65,0.66 -1.16,1.48 -1.51,2.48 -0.35,1 -0.53,2.21 -0.53,3.63 v 0.61 c 0,1.41 0.18,2.61 0.53,3.61 0.35,1 0.86,1.83 1.51,2.48 0.66,0.65 1.44,1.13 2.35,1.43 0.91,0.3 1.94,0.45 3.07,0.45 z"
         id="path38" />
      <path
         class="cls-1"
         d="m 702.71,353.1 c -1.27,0 -2.36,-0.21 -3.26,-0.65 -0.9,-0.43 -1.6,-1.06 -2.08,-1.89 -0.48,-0.83 -0.72,-1.87 -0.72,-3.12 v -0.75 h 2.28 v 0.95 c 0,1.12 0.33,1.98 0.98,2.58 0.66,0.61 1.59,0.91 2.8,0.91 1.21,0 2.21,-0.39 2.88,-1.18 0.67,-0.79 1.01,-1.98 1.01,-3.58 v -13.41 h 2.28 v 13.21 c 0,1.56 -0.24,2.85 -0.74,3.88 -0.49,1.03 -1.2,1.79 -2.12,2.29 -0.92,0.5 -2.03,0.75 -3.32,0.75 z"
         id="path39" />
      <path
         class="cls-1"
         d="m 713.41,352.76 7.88,-19.79 h 3.06 l 7.9,19.79 h -2.45 l -2.08,-5.22 h -9.93 l -2.05,5.22 h -2.34 z m 5.17,-7.19 h 8.37 l -2.6,-6.61 c -0.06,-0.15 -0.14,-0.38 -0.26,-0.69 -0.11,-0.31 -0.24,-0.66 -0.39,-1.05 -0.15,-0.39 -0.29,-0.79 -0.43,-1.2 -0.14,-0.4 -0.28,-0.77 -0.42,-1.1 h -0.2 c -0.12,0.37 -0.26,0.8 -0.45,1.3 -0.18,0.5 -0.37,0.99 -0.55,1.49 -0.18,0.49 -0.34,0.91 -0.48,1.25 l -2.6,6.61 z"
         id="path40" />
      <path
         class="cls-1"
         d="m 736.84,352.76 v -19.79 h 2.22 l 10.13,13.68 c 0.12,0.13 0.26,0.32 0.42,0.55 0.16,0.23 0.33,0.46 0.49,0.7 0.16,0.24 0.3,0.46 0.42,0.65 h 0.14 v -15.58 h 2.22 v 19.79 h -1.99 L 740.56,338.8 c -0.13,-0.19 -0.35,-0.5 -0.63,-0.91 -0.29,-0.42 -0.54,-0.76 -0.75,-1.05 h -0.11 v 15.93 h -2.22 z"
         id="path41" />
      <path
         class="cls-1"
         d="m 757.44,352.76 7.88,-19.79 h 3.06 l 7.9,19.79 h -2.45 l -2.08,-5.22 h -9.93 l -2.05,5.22 h -2.34 z m 5.16,-7.19 h 8.37 l -2.6,-6.61 c -0.06,-0.15 -0.14,-0.38 -0.26,-0.69 -0.11,-0.31 -0.24,-0.66 -0.39,-1.05 -0.14,-0.39 -0.29,-0.79 -0.43,-1.2 -0.14,-0.4 -0.28,-0.77 -0.42,-1.1 h -0.2 c -0.12,0.37 -0.26,0.8 -0.45,1.3 -0.18,0.5 -0.37,0.99 -0.55,1.49 -0.18,0.49 -0.34,0.91 -0.48,1.25 l -2.6,6.61 z"
         id="path42" />
    </g>
  </g>
</svg>
