<?xml version="1.0" encoding="UTF-8"?>
<svg id="Layer_1" data-name="Layer 1" xmlns="http://www.w3.org/2000/svg" viewBox="0 0 841.89 595.28">
  <defs>
    <style>
      .cls-1 {
        fill: #fff;
      }

      .cls-2 {
        fill: #c10230;
      }
    </style>
  </defs>
  <path class="cls-2" d="M352.5,152.25v136.9h136.9v-136.9h-136.9ZM446.54,166.98c6.71-2.91,12.11-3.99,12.34-4.01l1.32-.15,1.55,8.64-1.58.11c-8.44.58-15.81,3.62-21.92,9.03-4.58,4.06-6.69,8.01-6.71,8.05,0,0,.91-15.57,15-21.67ZM433.98,199.74c6.97-13.16,14.09-19.84,21.16-19.84.06,0,.11,0,.17,0,8.56.13,13.48,9.94,13.69,10.35l1.19,2.43-2.68-.39c-15.09-2.21-31.28,9.16-31.45,9.27l-4.89,3.48,2.81-5.3ZM432.45,239.43l-20.38,1.37.52-1.92c3.31-12.29,8.45-38.59,8.45-38.59,0,0,6.32,26.33,10.68,37.33l.72,1.81ZM363.24,162.97h57.8v1.44c-.04,2.31-.03,4.64,0,6.92v1.22s-1.18.21-1.18.21c-16.05,2.75-26.73,4.02-36.63,4.02-6.18,0-12.06-.49-18.75-1.43l-1.23-.17v-12.2ZM368.66,200.64c.39-.47,9.73-10.84,20.92-10.05,19.29,1.36,19.96,23.4,19.96,23.4l-5.04-6.43s-3.49-4.38-9.41-7.1c-7.83-3.6-16.11-2.82-24.6,2.32l-7.43,4.49,5.61-6.63ZM408.87,225.95l-5.01-2.88c-.21-.12-20.68-11.77-34.32-6.5l-4.35,1.68,2.67-3.82c.27-.39,6.65-9.37,16.38-9.37.12,0,.23,0,.35,0,7.43.17,14.56,5.55,21.19,16.02l3.09,4.88ZM386.81,262.75c-4.38,4.73-11.72,10.97-21.76,13.81l-1.81.51v-15.15l1.37-.05c7.43-.27,18.17-2.32,27.18-10.56l6.05-5.53-3.83,7.24c-.1.19-2.46,4.6-7.2,9.72ZM394.72,278.57l1.5-2.22c1.8-2.66,3.53-5.51,5.15-8.46,2.67-4.86,5.13-10.4,7.31-16.48l.31-.88,27.87-1.88.44.8c6.41,11.66,14.27,20.58,23.36,26.5l4.02,2.62h-69.97ZM478.84,243.27l-1.32.1c-12,.87-21.73,8.43-21.83,8.51l-4.85,3.82,2.69-5.55c5.19-10.74,13.33-17.87,23.52-20.6l1.79-.48v14.22Z"/>
  <g>
    <g>
      <path class="cls-1" d="M150.44,391.98c0,.4-.12.6-.36.6h-27.74c-.4,0-.6-.24-.6-.72v-1.62c0-.56.2-.84.6-.84h8.24c.64,0,.9-.36.78-1.08-.36-1.28-1.75-5.47-4.15-12.55-2.41-7.08-3.73-10.88-3.97-11.41-.32-.8-.74-1.2-1.26-1.2h-29.07c-.36.08-.66.32-.9.72-.56,1.08-1.53,3.62-2.89,7.62-1.36,3.99-2.21,6.71-2.53,8.15-.64,3.21-.96,5.14-.96,5.78,0,2.65.32,3.97.96,3.97h9.15c.48,0,.72.28.72.84v1.75c0,.4-.2.6-.6.6h-24.31c-.4,0-.6-.2-.6-.6v-1.99c0-.4.16-.6.48-.6h5.18c.88,0,2.08-1.88,3.58-5.66,1.5-3.77,5.99-14.66,13.45-32.68,4.78-11.35,10.57-25.11,17.39-41.28.44-1.24.88-1.94,1.32-2.11,1.12-.32,2.57-.82,4.33-1.5.28-.12.6.09.96.63s.2,1.15-.48,1.83c-1.2,1.25-1.81,2.45-1.81,3.61-.04,1.2.24,2.71.84,4.51,2.17,6.02,6.08,17.28,11.74,33.79,5.66,16.51,9.59,27.19,11.8,32.04,2.13,4.54,3.65,6.8,4.57,6.8h5.66c.32,0,.48.28.48.84v1.75ZM120.65,357.68c-1.65-4.77-3.41-10.01-5.3-15.71-1.89-5.69-3.83-11.63-5.84-17.81-.12-.52-.28-.84-.48-.96-.16.16-.36.48-.6.96-5.02,12.28-8.62,20.98-10.8,26.12-2.19,5.14-3.28,7.79-3.28,7.94,0,.24.18.36.54.36h25.46c.4,0,.5-.3.3-.9Z"/>
      <path class="cls-1" d="M245.83,392.1c0,.32-.24.48-.72.48h-24.55c-.4,0-.6-.2-.6-.6v-1.87c0-.48.2-.72.6-.72h5.66c.64,0,1.02-.34,1.14-1.02.4-2.17.6-10.99.6-26.48,0-7.62-.82-12.48-2.47-14.56-1.97-2.44-4.97-3.67-9.03-3.67-5.26,0-9.47,1.65-12.64,4.93-.36.44-.54.96-.54,1.56v26.54c0,8.47.58,12.7,1.75,12.7h7.16c.32,0,.48.2.48.6v1.99c0,.4-.16.6-.48.6h-23.53c-.44,0-.66-.16-.66-.48v-2.11c0-.4.18-.6.54-.6h5.9c.56,0,.84-.38.84-1.14,0-.24-.02-6.04-.06-17.39-.04-11.35-.06-17.29-.06-17.81,0-6.58-3.25-9.87-9.75-9.87-6.06,0-10.69,1.61-13.9,4.81-.48.48-.72,1-.72,1.56v27.38c0,8.39.68,12.58,2.05,12.58h7.28c.44,0,.66.16.66.48v1.99c0,.4-.18.6-.54.6h-25.76c-.32,0-.52-.06-.6-.18s-.12-.26-.12-.42v-1.75c0-.56.24-.84.72-.84h7.16c.76,0,1.14-.5,1.14-1.5,0-.16-.09-6.37-.27-18.62-.18-12.26-.27-18.67-.27-19.23,0-6.54-.82-9.81-2.47-9.81h-6.26c-.48,0-.72-.22-.72-.66v-1.81c0-.44.2-.66.6-.66h8.37c1.28,0,2.97-.12,5.06-.36.32-.04.88-.15,1.69-.33.8-.18,1.3-.27,1.5-.27.6,0,.9.32.9.96,0,.2-.04,1.29-.12,3.25-.08,1.97-.12,3.11-.12,3.43,0,1,.28,1.32.84.96.68-.52,2.91-1.94,6.68-4.27.88-.64,2.27-1.42,4.15-2.35,2.89-1,5.68-1.5,8.37-1.5,3.13,0,5.78.9,7.94,2.71,1.69,1.44,2.83,3.39,3.43,5.84.2.81.6.96,1.2.48,2.01-1.96,3.57-3.29,4.69-3.97.6-.52,2.05-1.5,4.33-2.95,2.01-1.08,4.99-1.62,8.97-1.62s7.54,1.41,10.35,4.21c3.13,3.09,4.69,9.37,4.69,18.84,0,.4-.12,3.96-.36,10.68-.24,6.72-.36,10.24-.36,10.56,0,5.34.44,8,1.32,8h8.43c.32,0,.48.2.48.6v2.11Z"/>
      <path class="cls-1" d="M278.57,391.98c0,.4-.24.6-.72.6h-28.59c-.4,0-.6-.24-.6-.72v-1.87c0-.56.16-.84.48-.84h8.73c.76,0,1.14-.42,1.14-1.26,0-.24.02-5.11.06-14.59.04-9.49.06-14.74.06-15.74,0-6.26-.06-10.01-.18-11.25-.44-3.73-1.53-5.6-3.25-5.6h-5.96c-.64,0-.96-.2-.96-.6v-2.11c0-.52.2-.78.6-.78h3.55c3.73,0,7.32-.16,10.77-.48,2.57-.24,3.75-.36,3.55-.36.92,0,1.38.62,1.38,1.87,0,.12-.15,6.09-.45,17.91-.3,11.81-.45,18-.45,18.56,0,9.63.98,14.44,2.95,14.44h7.28c.4,0,.6.2.6.6v2.23ZM268.64,315.79c0,2.13-.96,4.01-2.89,5.66-1.65,1.41-3.19,2.11-4.63,2.11-2.65,0-3.97-1.3-3.97-3.91,0-1.56.66-3.15,1.99-4.75,1.6-1.93,3.57-2.89,5.9-2.89s3.61,1.26,3.61,3.79Z"/>
      <path class="cls-1" d="M331.71,382.71c0,.6-.98,1.67-2.95,3.19-6.46,5.02-13.4,7.52-20.82,7.52-4.41,0-7.9-.68-10.47-2.05-3.85-2.08-7.18-5.63-9.99-10.65-2.29-4.05-3.43-9.18-3.43-15.41,0-4.17.48-8.06,1.44-11.68,1.28-4.73,3.75-8.68,7.4-11.86,3.97-3.45,9.47-5.18,16.49-5.18,6.26,0,11.53,2.07,15.83,6.2,2.29,2.21,3.43,4.21,3.43,6.02s-.74,2.83-2.23,2.83c-2.01,0-4.05-1.02-6.14-3.07-1.89-1.88-3.17-3.99-3.85-6.32-.28-.96-1.19-1.56-2.74-1.81-1.54-.24-3.1-.36-4.66-.36-2.01,0-3.65.12-4.93.36-3.33.64-5.96,2.03-7.88,4.15-3.21,3.57-4.81,9.17-4.81,16.79s2.59,14.41,7.76,19.86c2.33,2.41,5.18,3.97,8.55,4.69,1.72.4,4.43.6,8.12.6,4.97,0,9.21-1.24,12.7-3.73.48-.32,1.06-.72,1.75-1.2.16-.08.4-.12.72-.12.48.44.72.84.72,1.2Z"/>
      <path class="cls-1" d="M366.31,391.98c0,.4-.24.6-.72.6h-28.59c-.4,0-.6-.24-.6-.72v-1.87c0-.56.16-.84.48-.84h8.73c.76,0,1.14-.42,1.14-1.26,0-.24.02-5.11.06-14.59.04-9.49.06-14.74.06-15.74,0-6.26-.06-10.01-.18-11.25-.44-3.73-1.53-5.6-3.25-5.6h-5.96c-.64,0-.96-.2-.96-.6v-2.11c0-.52.2-.78.6-.78h3.55c3.73,0,7.32-.16,10.77-.48,2.57-.24,3.75-.36,3.55-.36.92,0,1.38.62,1.38,1.87,0,.12-.15,6.09-.45,17.91-.3,11.81-.45,18-.45,18.56,0,9.63.98,14.44,2.95,14.44h7.28c.4,0,.6.2.6.6v2.23ZM356.38,315.79c0,2.13-.96,4.01-2.89,5.66-1.65,1.41-3.19,2.11-4.63,2.11-2.65,0-3.97-1.3-3.97-3.91,0-1.56.66-3.15,1.99-4.75,1.6-1.93,3.57-2.89,5.9-2.89s3.61,1.26,3.61,3.79Z"/>
      <g>
        <path class="cls-1" d="M413.55,370.4c-.3,0-.68.08-1.62.47-.44.17-1.11.41-2.01.71-.11-.54-.25-1.64-.25-3.81v-26.01c0-.42.03-1.77.08-4.05.06-2.31.08-3.5.08-3.56,0-1.85-1.36-1.9-1.52-1.9-.28,0-.29,0-1.97.7-1.4.58-3.25.87-5.5.87h-1.3c-.74,0-1.49.55-1.49,1.6v.72c0,.88.62,1.52,1.49,1.52h3.43c.12.39.31,1.37.31,3.71,0,.29.02,2.09.06,5.39.02,1.73.03,3.03.04,3.91-.95-.5-1.7-.85-2.27-1.07-1.41-.5-3.04-.76-4.86-.76-3.42,0-6.28,1.11-8.5,3.31-2.51,2.49-3.78,6.21-3.78,11.05,0,2.83.56,5.54,1.68,8.06.94,2.09,2.36,3.69,4.25,4.76,1.24.69,2.74,1.03,4.48,1.03,2.66,0,4.94-.61,6.84-1.86.98-.72,1.88-1.37,2.68-1.98v.11c0,.14-.03.52-.08,1.15-.06.73-.09,1.18-.09,1.34,0,1.25.8,1.82,1.6,1.82.29,0,.56-.11.77-.28.28-.15.92-.45,1.9-.9,2.54-1.15,4.54-1.97,6.01-2.46.37-.14.99-.55.99-1.69,0-1.81-1.22-1.9-1.46-1.9ZM393.75,370.77c-.65-.31-1.37-.95-2.13-1.91-.28-.36-.73-1.1-1.22-2.58-.49-1.42-.74-2.78-.74-4.04,0-3.27.72-5.78,2.15-7.45,1.07-1.25,2.68-1.85,4.94-1.85s4.46.49,6.23,1.43c.19.11.25.22.28.33.28,1.39.42,3.26.42,5.55,0,1.61,0,3.45.03,5.53,0,1.19.02,2.03.05,2.62-.02.07-.02.15-.02.23,0,.25-.02.39,0,.41-2.08,1.51-4.23,2.25-6.56,2.25-1.52,0-2.68-.18-3.42-.52Z"/>
        <path class="cls-1" d="M439.92,370.33c-.12.06-.47.27-.56.37-.03.02-.27.25-1.18.54-1,.34-2.32.52-3.93.52-3.11,0-5.32-.56-6.59-1.65-2.53-2.19-3.77-4.96-3.77-8.45v-.13c.15,0,.33,0,.52-.01.75-.02,1.18-.03,1.29-.03,1.37,0,3.98-.36,7.99-1.1,4.68-.86,5.89-1.22,6.37-1.41,1.14-.43,1.27-1.27,1.27-1.61,0-.42-.11-.86-.33-1.36-.7-1.52-1.97-2.93-3.9-4.31-1.52-1.09-2.62-1.8-3.35-2.14-1.01-.5-2.29-.76-3.79-.76-3.08,0-5.71,1.06-7.8,3.13-1.78,1.74-3.03,4.12-3.73,7.09-.28,1.22-.42,3.04-.42,5.55,0,3.67,1.3,6.82,3.86,9.39,2.14,2.14,5.03,3.22,8.59,3.22,2.34,0,4.54-.45,6.54-1.35,1.25-.56,2.22-1.08,2.98-1.61.42-.31.95-.77,1.58-1.4.09-.09.17-.19.22-.31.08-.16.18-.51.18-.69,0-.15-.14-.53-.2-.67-.31-.75-1.16-1.14-1.85-.81ZM424.69,356.45c.5-1.25.88-1.89,1.09-2.19.83-1.1,1.64-1.66,2.4-1.66,1.31,0,2.43.37,3.43,1.14,1,.77,1.86,1.75,2.54,2.88-1.49.47-3.59.81-6.28,1.03-1.65.12-2.83.22-3.69.31.09-.37.25-.86.51-1.51Z"/>
        <path class="cls-1" d="M459.16,372.78h-3.5c-.14-.5-.35-1.78-.35-4.96,0-.39.06-6.02.17-16.89l.12-12.33c.03-2.7.04-4.06.04-4.09,0-1.75-1.47-2.33-2.32-1.8-.27.08-.78.22-1.53.42-1.33.35-2.6.53-3.78.53h-2.16c-.68,0-1.4.49-1.4,1.57v.91c0,.88.64,1.52,1.52,1.52h2.92c.14.48.37,1.75.37,4.96v30.16h-3.91c-.86,0-1.49.64-1.49,1.52v.97c0,.73.53,1.46,1.54,1.46h13.75c.98,0,1.49-.71,1.49-1.41v-1.08c0-.85-.62-1.46-1.49-1.46Z"/>
      </g>
      <rect class="cls-1" x="383.97" y="389.15" width="76.67" height="3.43" rx=".75" ry=".75"/>
      <path class="cls-1" d="M530.76,311.58c-.36,2.53-.98,5.46-1.87,8.79-.16.56-.4.84-.72.84-.4,0-.78-.32-1.14-.96-.92-1.81-2.53-2.97-4.81-3.49-3.97-.88-11.11-1.32-21.42-1.32-.64,0-.98.26-1.02.78-.04.52-.16,9.87-.36,28.04-.24,17.45-.36,26.78-.36,27.98,0,11.43.98,17.15,2.95,17.15h10.35c.28,0,.42.16.42.48v2.11c0,.4-.14.6-.42.6h-33.1c-.44,0-.66-.2-.66-.6v-1.99c0-.4.22-.6.66-.6h9.69c.76,0,1.14-.52,1.14-1.56-.16-8.43-.24-13.04-.24-13.84,0-.68.1-7.45.3-20.31.2-12.86.3-19.57.3-20.13,0-12.07-.7-18.11-2.11-18.11-10.35,0-17.65.58-21.91,1.75-3.09.81-5.08,1.91-5.96,3.31-.44.72-.84,1.08-1.2,1.08-.52,0-.78-.16-.78-.48,0-.44.14-.96.42-1.56,1.12-4.05,2.03-7.06,2.71-9.03.16-.52.6-.72,1.32-.6.84.12,4.97.36,12.4.72,8.67.4,15.67.6,21,.6,17.17,0,26.92-.04,29.25-.12,1.08-.04,2.1-.13,3.04-.27.94-.14,1.39-.21,1.35-.21.52,0,.78.32.78.96Z"/>
      <path class="cls-1" d="M569.7,384.46c0,.08-.04.2-.12.36-1.24,1.25-2.29,2.17-3.13,2.77-1.48,1.05-3.49,2.13-6.02,3.25-4.05,1.81-8.45,2.71-13.18,2.71-7.06,0-12.68-2.08-16.85-6.26-5.09-5.09-7.64-11.29-7.64-18.6,0-5.21.28-9.05.84-11.49,1.4-5.98,3.87-10.69,7.4-14.14,4.09-4.05,9.15-6.08,15.17-6.08,2.89,0,5.26.46,7.1,1.38,1.44.69,3.75,2.17,6.92,4.45,3.77,2.69,6.32,5.48,7.64,8.37.32.72.48,1.35.48,1.87,0,.44-.36.81-1.08,1.08-1.53.6-6,1.59-13.42,2.95-8.46,1.56-14.1,2.35-16.91,2.35-.24,0-1.19.02-2.86.06-1.66.04-2.64.06-2.92.06-.48,0-.72.94-.72,2.83,0,8.3,3.03,15.09,9.09,20.34,3.25,2.81,8.59,4.21,16.01,4.21,3.81,0,6.94-.42,9.39-1.26,1.72-.56,2.91-1.16,3.55-1.81.12-.08.3-.18.54-.3.2,0,.36.14.48.42.08.12.16.28.24.48ZM558.45,352.26c0-.32-.2-.84-.6-1.56-1.72-3.05-3.89-5.57-6.5-7.58-2.61-2-5.62-3.01-9.03-3.01-2.53,0-4.96,1.55-7.28,4.63-.84,1.17-1.75,2.95-2.71,5.36-1.04,2.61-1.56,4.62-1.56,6.02,0,.64.24.96.72.96-.4,0,3.05-.28,10.35-.84,6.94-.56,12.16-1.5,15.65-2.83.64-.28.96-.66.96-1.14Z"/>
      <path class="cls-1" d="M624.16,388.61c0,.2-.08.46-.24.78-2.29,2.29-3.93,3.75-4.93,4.39-.36.28-.72.42-1.08.42-2.37,0-4.71-1.1-7.04-3.31-2.17-2.05-3.77-4.49-4.81-7.34-.24-.72-.56-.8-.96-.24-.44.69-1.56,1.85-3.37,3.49-1.81,1.65-3.07,2.67-3.79,3.07-3.93,2.29-7.5,3.43-10.71,3.43s-5.32-.52-6.8-1.56c-2.29-1.69-3.43-4.19-3.43-7.52,0-3.93,1.24-7.64,3.73-11.13,1.77-2.49,4.51-4.57,8.24-6.26,4.05-1.84,9.47-3.41,16.25-4.69.36-.08.56-.52.6-1.32.28-6.14.28-10.29,0-12.46-.24-2.12-1.16-3.71-2.77-4.75-1.6-1.04-3.87-1.56-6.8-1.56-4.13,0-7.02.5-8.67,1.5-.96.69-1.36,1.38-1.2,2.11v1.69c0,1.77-.46,3.33-1.38,4.69-1.44,2.25-3.13,3.37-5.06,3.37-1.4,0-2.11-.92-2.11-2.77,0-1.56.9-3.51,2.71-5.84,1.81-2.32,3.79-4.15,5.96-5.48,3.89-2.37,9.23-3.55,16.01-3.55,4.49,0,7.74.94,9.75,2.83,1.48,1.37,2.23,4.24,2.23,8.61,0,3.17-.19,7.94-.57,14.32-.38,6.38-.57,9.99-.57,10.83,0,3.97,1.02,7.18,3.07,9.63,1.48,1.73,3.79,3.03,6.92,3.91.56.24.84.48.84.72ZM605.57,366.1c0-.76-.32-1.14-.96-1.14-3.13,0-6.62.87-10.47,2.59-6.5,2.93-9.75,6.88-9.75,11.86,0,3.05.74,5.14,2.23,6.26,1.24,1,3.21,1.5,5.9,1.5,3.61,0,7.18-1.56,10.71-4.69.96-.84,1.5-1.87,1.62-3.07.48-4.77.72-9.21.72-13.3Z"/>
      <path class="cls-1" d="M667.43,385.3c0,.6-.16,1.06-.48,1.38-1.65,1.32-3.79,2.59-6.44,3.79-4.53,2.13-8.75,3.19-12.64,3.19-8.39,0-12.58-4.27-12.58-12.82,0-.52.08-4.97.24-13.36.16-8.38.24-12.8.24-13.24,0-.52-.04-2.25-.12-5.2s-.12-4.5-.12-4.67c0-.84-.38-1.44-1.14-1.81-.6-.32-2.17-1.02-4.69-2.11-.52-.24-.76-.7-.72-1.38,0-.52.3-1,.9-1.44,4.01-3.41,8.28-7,12.82-10.77.6-.4,1.12-.6,1.56-.6.64,0,.84.58.6,1.75-.48,2.61-.72,5.28-.72,8,0,1.32.2,1.99.6,1.99.36,0,3.83-.11,10.41-.33,6.58-.22,9.97-.33,10.17-.33.84,0,1.14.42.9,1.26,0,.81-.3,1.95-.9,3.43-.2.6-.56.9-1.08.9-.36,0-3.64-.02-9.84-.06-6.2-.04-9.42-.06-9.66-.06-.48,0-.72.2-.72.6v33.4c0,3.49.5,6.04,1.5,7.64,1.08,1.81,4.11,2.71,9.09,2.71,2.73,0,5.94-.62,9.63-1.87,1.6-.72,2.47-1.08,2.59-1.08.4,0,.6.36.6,1.08Z"/>
      <path class="cls-1" d="M713.29,342.93c-.44,2.61-1.06,5.12-1.87,7.52-.2.64-.48.96-.84.96-.44,0-.8-.2-1.08-.6-1.04-1.48-1.97-2.5-2.77-3.07-1.56-1.24-3.57-1.87-6.02-1.87-4.53,0-7.94.99-10.23,2.95-.4.36-.6.9-.6,1.62,0,.24-.02,4.87-.06,13.9-.04,9.03-.06,13.8-.06,14.32,0,7.14.66,10.71,1.99,10.71h11.8c.52,0,.78.28.78.84v1.75c0,.4-.18.6-.54.6h-30.81c-.56,0-.84-.2-.84-.6v-1.75c0-.56.24-.84.72-.84h7.28c.76,0,1.14-.38,1.14-1.14v-39.54c0-5.49-.66-8.24-1.99-8.24h-7.4c-.4,0-.6-.22-.6-.66v-1.93c0-.44.2-.66.6-.66h8.24c2.89,0,4.73-.12,5.54-.36,2.21-.64,3.41-.96,3.61-.96.56,0,.84.54.84,1.62,0,.28-.04,1.48-.12,3.58-.08,2.11-.12,3.28-.12,3.52,0,1.17.24,1.5.72,1.02,1.84-1.6,3.95-3.37,6.32-5.3,2.93-2.17,5.8-3.25,8.61-3.25,3.25,0,5.76,1.37,7.52,4.09.36.56.44,1.14.24,1.75Z"/>
      <path class="cls-1" d="M770.94,364.72c0,5.22-.86,9.87-2.59,13.96-2.01,4.74-5.66,8.59-10.95,11.55-3.65,2.05-7.88,3.07-12.7,3.07-5.46,0-9.33-.48-11.61-1.44-4.9-2.17-8.58-5.74-11.04-10.74-2.47-4.99-3.7-10.3-3.7-15.92,0-6.18,1.34-11.63,4.03-16.37,2.45-4.25,5.9-7.5,10.35-9.75,3.45-1.72,8.34-2.59,14.68-2.59,5.14,0,9.21.94,12.22,2.83,3.93,2.49,6.84,6.02,8.73,10.59,1.72,4.21,2.59,9.15,2.59,14.8ZM762.46,367.67c0-8.34-1.99-14.86-5.96-19.56-4.05-4.85-9.35-7.28-15.89-7.28-3.41,0-5.74.28-6.98.84-.84.36-1.81,1.31-2.89,2.83-2.37,3.45-3.55,8.59-3.55,15.41s1.26,13.6,3.79,19.5c1.77,4.06,4.11,6.96,7.04,8.73,2.57,1.56,5.42,2.35,8.55,2.35,3.61,0,6.4-.56,8.37-1.69,2.37-1.4,4.29-4.09,5.78-8.06,1.16-3.01,1.75-7.36,1.75-13.06Z"/>
    </g>
    <g>
      <path class="cls-1" d="M70.94,442.6l9.72-24.43h3.77l9.75,24.43h-3.03l-2.56-6.45h-12.25l-2.53,6.45h-2.88ZM77.32,433.73h10.32l-3.2-8.15c-.07-.19-.18-.47-.32-.86-.14-.38-.3-.81-.48-1.3s-.36-.98-.53-1.48c-.18-.5-.35-.95-.52-1.35h-.25c-.14.45-.33.99-.55,1.6-.23.62-.45,1.23-.68,1.83-.23.6-.42,1.12-.59,1.55l-3.2,8.15Z"/>
      <path class="cls-1" d="M108.76,443.03c-1.31,0-2.58-.12-3.81-.36-1.23-.23-2.33-.64-3.27-1.21-.95-.57-1.7-1.32-2.24-2.24-.55-.93-.82-2.08-.82-3.46v-.34c0-.11.01-.22.03-.34h2.81c0,.1,0,.23-.02.39-.01.17-.02.31-.02.43,0,1.04.31,1.92.94,2.62.63.7,1.48,1.22,2.56,1.56,1.08.34,2.29.52,3.65.52.45,0,.99-.03,1.62-.09.63-.06,1.27-.18,1.92-.36.65-.18,1.25-.43,1.8-.75.55-.32.99-.74,1.33-1.25.34-.51.52-1.15.52-1.9,0-.88-.24-1.6-.71-2.17-.48-.57-1.1-1.04-1.87-1.41-.77-.37-1.66-.69-2.65-.98-1-.29-2.02-.56-3.06-.82s-2.06-.56-3.04-.89c-.98-.33-1.87-.75-2.65-1.25-.78-.5-1.41-1.12-1.87-1.87-.46-.75-.7-1.67-.7-2.76,0-.95.19-1.82.57-2.6.38-.78.96-1.45,1.74-2.01.78-.56,1.78-.99,2.99-1.3,1.21-.31,2.65-.46,4.31-.46,1.26,0,2.43.13,3.52.39,1.09.26,2.05.67,2.88,1.23.83.56,1.48,1.26,1.94,2.1.46.84.69,1.86.69,3.04v.43h-2.78v-.61c0-.88-.27-1.62-.82-2.23-.55-.6-1.28-1.08-2.19-1.42-.91-.35-1.95-.52-3.12-.52-1.59,0-2.89.16-3.92.48-1.02.32-1.78.76-2.28,1.32-.5.56-.75,1.18-.75,1.87,0,.8.24,1.48.71,2.01.47.53,1.1.97,1.89,1.32.78.34,1.67.65,2.65.93.98.27,2,.54,3.04.8,1.04.26,2.06.57,3.04.91.98.34,1.87.77,2.67,1.28.8.51,1.43,1.14,1.89,1.9.46.76.69,1.7.69,2.81,0,1.69-.42,3.06-1.26,4.13-.84,1.07-2,1.85-3.47,2.35-1.47.5-3.18.75-5.13.75Z"/>
      <path class="cls-1" d="M134.93,443.03c-1.31,0-2.58-.12-3.81-.36-1.23-.23-2.33-.64-3.27-1.21-.95-.57-1.7-1.32-2.24-2.24s-.82-2.08-.82-3.46v-.34c0-.11.01-.22.03-.34h2.81c0,.1,0,.23-.02.39-.01.17-.02.31-.02.43,0,1.04.31,1.92.94,2.62.63.7,1.48,1.22,2.56,1.56,1.08.34,2.29.52,3.65.52.45,0,.99-.03,1.62-.09.63-.06,1.27-.18,1.92-.36.65-.18,1.25-.43,1.8-.75.55-.32.99-.74,1.33-1.25.34-.51.52-1.15.52-1.9,0-.88-.24-1.6-.71-2.17-.48-.57-1.1-1.04-1.87-1.41-.77-.37-1.66-.69-2.65-.98-1-.29-2.02-.56-3.06-.82s-2.06-.56-3.04-.89c-.98-.33-1.87-.75-2.65-1.25-.78-.5-1.41-1.12-1.87-1.87s-.7-1.67-.7-2.76c0-.95.19-1.82.57-2.6s.96-1.45,1.74-2.01c.78-.56,1.78-.99,2.99-1.3,1.21-.31,2.65-.46,4.31-.46,1.26,0,2.43.13,3.52.39,1.09.26,2.05.67,2.88,1.23.83.56,1.48,1.26,1.94,2.1s.69,1.86.69,3.04v.43h-2.78v-.61c0-.88-.27-1.62-.82-2.23-.55-.6-1.28-1.08-2.19-1.42-.91-.35-1.95-.52-3.12-.52-1.59,0-2.89.16-3.92.48-1.02.32-1.78.76-2.28,1.32-.5.56-.75,1.18-.75,1.87,0,.8.24,1.48.71,2.01.47.53,1.1.97,1.89,1.32.78.34,1.67.65,2.65.93.98.27,2,.54,3.04.8,1.04.26,2.06.57,3.04.91.98.34,1.87.77,2.67,1.28.8.51,1.43,1.14,1.89,1.9.46.76.69,1.7.69,2.81,0,1.69-.42,3.06-1.26,4.13-.84,1.07-2,1.85-3.47,2.35-1.47.5-3.18.75-5.13.75Z"/>
      <path class="cls-1" d="M163.02,443.03c-2.52,0-4.68-.47-6.5-1.41-1.82-.93-3.21-2.34-4.19-4.22-.97-1.88-1.46-4.22-1.46-7.01s.48-5.17,1.46-7.03c.97-1.86,2.37-3.26,4.19-4.2,1.81-.93,3.98-1.4,6.5-1.4s4.72.47,6.53,1.4c1.82.94,3.21,2.34,4.17,4.2.96,1.86,1.44,4.21,1.44,7.03s-.48,5.14-1.44,7.01c-.96,1.87-2.35,3.28-4.17,4.22-1.81.94-3.99,1.41-6.53,1.41ZM163.02,440.6c1.4,0,2.67-.18,3.81-.55,1.14-.37,2.11-.96,2.92-1.76.81-.81,1.43-1.83,1.87-3.06.44-1.23.66-2.72.66-4.45v-.75c0-1.76-.22-3.25-.66-4.49-.44-1.23-1.06-2.26-1.87-3.06-.81-.8-1.78-1.39-2.92-1.76-1.14-.37-2.41-.55-3.81-.55s-2.67.18-3.79.55c-1.13.37-2.09.96-2.9,1.76-.81.81-1.43,1.83-1.87,3.06-.44,1.23-.66,2.73-.66,4.49v.75c0,1.73.22,3.22.66,4.45.44,1.23,1.06,2.26,1.87,3.06.81.8,1.78,1.39,2.9,1.76,1.13.37,2.39.55,3.79.55Z"/>
      <path class="cls-1" d="M192.74,443.03c-2.49,0-4.6-.46-6.32-1.39-1.72-.93-3.02-2.33-3.92-4.2-.89-1.87-1.33-4.22-1.33-7.05,0-4.22,1.02-7.39,3.06-9.49,2.04-2.1,4.9-3.15,8.58-3.15,2.11,0,3.97.34,5.57,1.01,1.6.68,2.86,1.69,3.77,3.03.91,1.34,1.37,3.04,1.37,5.11h-2.85c0-1.54-.32-2.81-.96-3.79-.64-.99-1.55-1.72-2.73-2.21-1.17-.49-2.58-.73-4.22-.73-1.76,0-3.29.34-4.59,1.03-1.3.69-2.31,1.76-3.02,3.22-.71,1.46-1.07,3.36-1.07,5.72v.75c0,2.3.36,4.16,1.07,5.59.71,1.42,1.72,2.47,3.02,3.13,1.31.66,2.85,1,4.63,1,1.64,0,3.05-.24,4.24-.73,1.19-.49,2.1-1.22,2.74-2.21.64-.98.96-2.25.96-3.79h2.78c0,2.09-.47,3.81-1.41,5.16-.94,1.35-2.21,2.36-3.83,3.01-1.61.65-3.46.98-5.55.98Z"/>
      <path class="cls-1" d="M210.69,442.6v-24.43h2.81v24.43h-2.81Z"/>
      <path class="cls-1" d="M219.13,442.6l9.72-24.43h3.77l9.75,24.43h-3.03l-2.56-6.45h-12.25l-2.53,6.45h-2.88ZM225.5,433.73h10.32l-3.2-8.15c-.07-.19-.18-.47-.32-.86-.14-.38-.3-.81-.48-1.3s-.36-.98-.53-1.48c-.18-.5-.35-.95-.52-1.35h-.25c-.14.45-.33.99-.55,1.6s-.45,1.23-.68,1.83c-.23.6-.42,1.12-.59,1.55l-3.2,8.15Z"/>
      <path class="cls-1" d="M246.01,442.6v-1.53l15.63-20.47h-14.71v-2.42h18.87v1.5l-15.74,20.51h16.06v2.42h-20.12Z"/>
      <path class="cls-1" d="M272.82,442.6v-24.43h2.81v24.43h-2.81Z"/>
      <path class="cls-1" d="M295.03,443.03c-2.52,0-4.68-.47-6.5-1.41-1.82-.93-3.21-2.34-4.19-4.22-.97-1.88-1.46-4.22-1.46-7.01s.48-5.17,1.46-7.03c.97-1.86,2.37-3.26,4.19-4.2,1.81-.93,3.98-1.4,6.5-1.4s4.72.47,6.53,1.4c1.82.94,3.21,2.34,4.17,4.2.96,1.86,1.44,4.21,1.44,7.03s-.48,5.14-1.44,7.01c-.96,1.87-2.35,3.28-4.17,4.22-1.81.94-3.99,1.41-6.53,1.41ZM295.03,440.6c1.4,0,2.67-.18,3.81-.55,1.14-.37,2.11-.96,2.92-1.76.81-.81,1.43-1.83,1.87-3.06.44-1.23.66-2.72.66-4.45v-.75c0-1.76-.22-3.25-.66-4.49-.44-1.23-1.06-2.26-1.87-3.06-.81-.8-1.78-1.39-2.92-1.76-1.14-.37-2.41-.55-3.81-.55s-2.67.18-3.79.55c-1.13.37-2.09.96-2.9,1.76-.81.81-1.43,1.83-1.87,3.06-.44,1.23-.66,2.73-.66,4.49v.75c0,1.73.22,3.22.66,4.45.44,1.23,1.06,2.26,1.87,3.06.81.8,1.78,1.39,2.9,1.76,1.13.37,2.39.55,3.79.55Z"/>
      <path class="cls-1" d="M314.51,442.6v-24.43h2.74l12.5,16.88c.14.17.32.39.52.68.2.28.4.57.6.87.2.3.37.57.52.8h.18v-19.23h2.74v24.43h-2.46l-12.75-17.23c-.17-.24-.43-.61-.78-1.12-.36-.51-.66-.94-.93-1.3h-.14v19.65h-2.74Z"/>
      <path class="cls-1" d="M342.88,442.6v-24.43h18.69v2.42h-15.88v8.26h14.31v2.46h-14.31v8.87h16.09v2.42h-18.91Z"/>
      <path class="cls-1" d="M389.2,443.03c-2.49,0-4.6-.46-6.32-1.39-1.72-.93-3.02-2.33-3.92-4.2-.89-1.87-1.33-4.22-1.33-7.05,0-4.22,1.02-7.39,3.06-9.49,2.04-2.1,4.9-3.15,8.58-3.15,2.11,0,3.97.34,5.57,1.01,1.6.68,2.86,1.69,3.77,3.03.91,1.34,1.37,3.04,1.37,5.11h-2.85c0-1.54-.32-2.81-.96-3.79-.64-.99-1.55-1.72-2.73-2.21-1.17-.49-2.58-.73-4.22-.73-1.76,0-3.29.34-4.59,1.03-1.3.69-2.31,1.76-3.02,3.22-.71,1.46-1.07,3.36-1.07,5.72v.75c0,2.3.36,4.16,1.07,5.59s1.72,2.47,3.02,3.13c1.31.66,2.85,1,4.63,1,1.64,0,3.05-.24,4.24-.73,1.19-.49,2.1-1.22,2.74-2.21.64-.98.96-2.25.96-3.79h2.78c0,2.09-.47,3.81-1.41,5.16-.94,1.35-2.21,2.36-3.83,3.01-1.61.65-3.46.98-5.55.98Z"/>
      <path class="cls-1" d="M416.9,443.03c-2.04,0-3.79-.33-5.25-.98-1.46-.65-2.58-1.7-3.37-3.15-.78-1.45-1.17-3.32-1.17-5.63v-15.09h2.81v15.67c0,2.25.61,3.94,1.83,5.05,1.22,1.12,2.94,1.67,5.14,1.67s4.02-.56,5.29-1.67c1.27-1.12,1.91-2.8,1.91-5.05v-15.67h2.78v15.09c0,2.3-.4,4.18-1.19,5.63-.8,1.45-1.94,2.5-3.42,3.15-1.48.65-3.27.98-5.36.98Z"/>
      <path class="cls-1" d="M435.45,442.6v-24.43h2.81v21.97h12.07v2.46h-14.88Z"/>
      <path class="cls-1" d="M459.38,442.6v-21.97h-8.65v-2.46h20.19v2.46h-8.72v21.97h-2.81Z"/>
      <path class="cls-1" d="M486.62,443.03c-2.04,0-3.79-.33-5.25-.98-1.46-.65-2.58-1.7-3.37-3.15-.78-1.45-1.17-3.32-1.17-5.63v-15.09h2.81v15.67c0,2.25.61,3.94,1.83,5.05,1.22,1.12,2.94,1.67,5.14,1.67s4.02-.56,5.29-1.67c1.27-1.12,1.91-2.8,1.91-5.05v-15.67h2.78v15.09c0,2.3-.4,4.18-1.19,5.63-.8,1.45-1.94,2.5-3.42,3.15-1.48.65-3.27.98-5.36.98Z"/>
      <path class="cls-1" d="M505.17,442.6v-24.43h12.82c1.61,0,2.95.3,4.01.91,1.06.6,1.85,1.43,2.39,2.47.53,1.05.8,2.23.8,3.56,0,1.73-.4,3.2-1.19,4.4s-1.85,2.05-3.15,2.55l5.2,10.54h-3.1l-4.88-10.04h-10.08v10.04h-2.81ZM507.98,430.14h9.72c1.45,0,2.59-.45,3.42-1.34.83-.89,1.25-2.12,1.25-3.69,0-.95-.18-1.76-.53-2.42-.36-.66-.88-1.18-1.57-1.55-.69-.37-1.54-.55-2.56-.55h-9.72v9.54Z"/>
      <path class="cls-1" d="M530.41,442.6l9.72-24.43h3.77l9.75,24.43h-3.03l-2.56-6.45h-12.25l-2.53,6.45h-2.88ZM536.78,433.73h10.32l-3.2-8.15c-.07-.19-.18-.47-.32-.86-.14-.38-.3-.81-.48-1.3s-.36-.98-.53-1.48c-.18-.5-.35-.95-.52-1.35h-.25c-.14.45-.33.99-.55,1.6s-.45,1.23-.68,1.83c-.23.6-.42,1.12-.59,1.55l-3.2,8.15Z"/>
      <path class="cls-1" d="M559.32,442.6v-24.43h2.81v21.97h12.07v2.46h-14.88Z"/>
      <path class="cls-1" d="M579.97,442.6v-24.43h18.69v2.42h-15.88v8.26h14.31v2.46h-14.31v8.87h16.09v2.42h-18.91Z"/>
      <path class="cls-1" d="M616.03,442.6v-24.43h2.74l12.5,16.88c.14.17.32.39.52.68.2.28.4.57.6.87.2.3.37.57.52.8h.18v-19.23h2.74v24.43h-2.46l-12.75-17.23c-.17-.24-.43-.61-.78-1.12-.36-.51-.66-.94-.93-1.3h-.14v19.65h-2.74Z"/>
      <path class="cls-1" d="M655.23,443.03c-2.52,0-4.68-.47-6.5-1.41-1.82-.93-3.21-2.34-4.19-4.22-.97-1.88-1.46-4.22-1.46-7.01s.48-5.17,1.46-7.03,2.37-3.26,4.19-4.2c1.81-.93,3.98-1.4,6.5-1.4s4.72.47,6.53,1.4c1.82.94,3.21,2.34,4.17,4.2.96,1.86,1.44,4.21,1.44,7.03s-.48,5.14-1.44,7.01c-.96,1.87-2.35,3.28-4.17,4.22-1.81.94-3.99,1.41-6.53,1.41ZM655.23,440.6c1.4,0,2.67-.18,3.81-.55,1.14-.37,2.11-.96,2.92-1.76.81-.81,1.43-1.83,1.87-3.06s.66-2.72.66-4.45v-.75c0-1.76-.22-3.25-.66-4.49s-1.06-2.26-1.87-3.06c-.81-.8-1.78-1.39-2.92-1.76-1.14-.37-2.41-.55-3.81-.55s-2.67.18-3.79.55c-1.13.37-2.09.96-2.9,1.76-.81.81-1.43,1.83-1.87,3.06s-.66,2.73-.66,4.49v.75c0,1.73.22,3.22.66,4.45s1.06,2.26,1.87,3.06c.81.8,1.78,1.39,2.9,1.76,1.13.37,2.39.55,3.79.55Z"/>
      <path class="cls-1" d="M680.16,443.03c-1.57,0-2.91-.27-4.02-.8-1.11-.53-1.97-1.31-2.56-2.33-.59-1.02-.89-2.3-.89-3.85v-.93h2.81v1.18c0,1.38.4,2.44,1.21,3.19.81.75,1.96,1.12,3.46,1.12s2.73-.49,3.56-1.46,1.25-2.44,1.25-4.42v-16.55h2.81v16.31c0,1.92-.3,3.52-.91,4.79-.6,1.27-1.48,2.21-2.62,2.83s-2.51.93-4.09.93Z"/>
      <path class="cls-1" d="M693.36,442.6l9.72-24.43h3.77l9.75,24.43h-3.03l-2.56-6.45h-12.25l-2.53,6.45h-2.88ZM699.74,433.73h10.32l-3.2-8.15c-.07-.19-.18-.47-.32-.86-.14-.38-.3-.81-.48-1.3s-.36-.98-.53-1.48c-.18-.5-.35-.95-.52-1.35h-.25c-.14.45-.33.99-.55,1.6s-.45,1.23-.68,1.83c-.23.6-.42,1.12-.59,1.55l-3.2,8.15Z"/>
      <path class="cls-1" d="M722.27,442.6v-24.43h2.74l12.5,16.88c.14.17.32.39.52.68.2.28.4.57.6.87.2.3.37.57.52.8h.18v-19.23h2.74v24.43h-2.46l-12.75-17.23c-.17-.24-.43-.61-.78-1.12-.36-.51-.66-.94-.93-1.3h-.14v19.65h-2.74Z"/>
      <path class="cls-1" d="M747.7,442.6l9.72-24.43h3.77l9.75,24.43h-3.03l-2.56-6.45h-12.25l-2.53,6.45h-2.88ZM754.07,433.73h10.32l-3.2-8.15c-.07-.19-.18-.47-.32-.86-.14-.38-.3-.81-.48-1.3s-.36-.98-.53-1.48c-.18-.5-.35-.95-.52-1.35h-.25c-.14.45-.33.99-.55,1.6s-.45,1.23-.68,1.83c-.23.6-.42,1.12-.59,1.55l-3.2,8.15Z"/>
    </g>
  </g>
</svg>