<?xml version="1.0" encoding="UTF-8" standalone="no"?>
<svg
   version="1.1"
   style="display: block;"
   viewBox="0 0 2048 758"
   width="794"
   height="294"
   preserveAspectRatio="none"
   id="svg13"
   sodipodi:docname="logo_goatycoder_black.svg"
   inkscape:version="1.4.2 (f4327f4, 2025-05-13)"
   xmlns:inkscape="http://www.inkscape.org/namespaces/inkscape"
   xmlns:sodipodi="http://sodipodi.sourceforge.net/DTD/sodipodi-0.dtd"
   xmlns="http://www.w3.org/2000/svg"
   xmlns:svg="http://www.w3.org/2000/svg">
  <defs
     id="defs13" />
  <sodipodi:namedview
     id="namedview13"
     pagecolor="#ffffff"
     bordercolor="#000000"
     borderopacity="0.25"
     inkscape:showpageshadow="2"
     inkscape:pageopacity="0.0"
     inkscape:pagecheckerboard="0"
     inkscape:deskcolor="#d1d1d1"
     inkscape:zoom="0.79081968"
     inkscape:cx="319.28897"
     inkscape:cy="85.354477"
     inkscape:window-width="1920"
     inkscape:window-height="1009"
     inkscape:window-x="-8"
     inkscape:window-y="-8"
     inkscape:window-maximized="1"
     inkscape:current-layer="svg13" />
  <path
     id="path1"
     d="M 66.871537 35.94417 C 60.867937 36.10047 55.190028 37.023144 49.617128 39.207244 C 33.635828 45.470444 28.574345 60.947611 28.352645 76.989411 C 27.867145 112.13271 27.788482 147.30829 27.904282 182.47029 L 28.433249 355.62974 L 28.428212 485.31176 C 28.316512 510.92876 27.636103 537.0492 28.720403 562.5882 C 30.600103 606.8612 54.387045 646.73785 90.352645 671.99685 C 94.721187 675.06509 98.639478 678.30778 103.35013 680.6732 C 102.0989 679.33218 100.84069 677.99327 99.576826 676.66486 C 107.34173 581.76254 158.194 441.22452 210 362.29185 C 220.17 346.69524 231.23458 331.70441 243.14358 317.39941 C 250.20758 309.06611 262.27006 296.80968 267.87406 288.35906 C 208.18106 279.95957 168.99875 250.97199 163.83375 187.42533 C 210.66175 186.71835 254.93814 192.00704 298.68514 209.85393 C 306.47114 213.02981 323.80336 223.46066 331.64736 220.07118 C 334.73536 214.63398 327.84587 205.91998 324.64987 201.21282 C 310.10987 179.43794 290.63972 161.42279 267.82872 148.63604 C 219.22472 121.01883 154.11976 109.81344 98.554156 107.45484 C 155.95776 77.426991 263.01804 81.410487 324.00504 100.61648 C 368.59704 114.20948 408.42131 140.22294 438.84131 175.63194 C 457.68131 197.45896 464.25151 210.97803 487.93451 229.25613 C 517.92551 254.4967 523.58673 289.84766 540.89673 322.37459 C 560.47973 359.17347 612.50247 405.27517 605.39547 450.73727 C 602.91047 466.6307 567.27273 454.93856 553.43073 454.37298 C 563.11573 479.33076 579.68575 483.75788 603.83375 478.17126 C 581.63175 519.56599 540.26065 535.12692 500.61965 506.10378 C 478.54565 541.26207 486.80079 575.31634 503.83879 610.19987 C 480.20979 603.58137 460.86851 595.41581 448.20151 572.84069 C 438.20151 554.59769 435.81775 533.12231 441.56675 513.11838 C 444.31075 503.53659 449.6395 492.59156 455.1335 484.24924 C 437.5955 475.21599 420.6473 472.80999 401.5063 469.9179 C 368.4483 464.92394 330.75568 445.95955 319.82368 411.82713 C 318.99068 409.14563 318.22337 406.44344 317.51637 403.72484 C 309.22637 446.69297 321.77631 472.80459 351.10831 503.97875 C 350.17958 573.17185 354.76708 640.46081 391.44584 701.57601 C 391.78094 701.54579 392.11022 701.514 392.43325 701.48034 C 396.30425 701.96534 413.00592 701.75044 417.45592 701.77744 L 476.07053 701.8429 C 503.60853 701.8369 628.10988 704.44908 643.71788 698.33308 C 652.15488 695.10208 658.92251 688.58539 662.46851 680.27539 C 667.88751 667.88339 665.71262 581.49037 665.68262 561.05737 L 665.59698 386.13042 L 665.55164 217.55337 C 665.58364 187.86837 665.82934 158.02058 665.51134 128.34758 C 665.43334 120.98958 664.35508 106.058 662.01008 99.543899 C 652.80908 73.992999 634.80945 53.211686 609.52645 42.621386 C 601.21445 39.139286 592.27948 36.441905 582.99748 36.316805 C 554.84448 35.937405 526.36855 36.103509 498.20655 36.105309 L 335.89924 36.095238 L 148.65995 36.190915 C 121.44395 36.223315 94.091137 35.82047 66.871537 35.94417 z "
     transform="translate(0,0)"
     style="fill:#de3332;fill-opacity:1" />
  <path
     transform="translate(0,0)"
     fill="rgb(222,51,50)"
     d="M 442.843 283.358 C 467.288 284.037 485.051 293.535 494.143 316.652 C 486.157 318.289 479.696 318.137 471.665 318.124 C 458.224 316.456 446.42 314.405 434.711 306.766 C 428.569 302.761 413.417 291.962 426.899 285.917 C 430.162 284.454 438.859 283.785 442.843 283.358 z"
     id="path3" />
  <path
     transform="translate(0,0)"
     fill="rgb(254,254,254)"
     d="M 1565.82 402.484 L 1573.61 402.464 C 1573.23 506.743 1572.81 613.719 1574.15 717.815 C 1553.25 718.065 1532.34 718.056 1511.44 717.787 C 1511.27 708.485 1511.53 700.156 1511.89 690.868 C 1499.3 706.966 1481.05 717.656 1460.85 720.756 C 1428.37 725.929 1403.17 716.951 1377.57 698.275 C 1375.55 696.466 1373.56 694.624 1371.59 692.751 C 1326.5 649.714 1327.54 562.617 1371.19 518.602 C 1409.78 479.686 1471.06 474.86 1511.53 513.817 C 1509.98 477.639 1510.36 439.299 1510.15 402.933 C 1524.88 402.966 1551.95 403.758 1565.82 402.484 z M 1457.68 665.155 C 1495.61 662.841 1515.11 634.771 1512.06 598.34 C 1509.2 564.223 1489.49 547.063 1456.82 543.336 C 1445.79 544.322 1437.33 545.252 1427.69 551.097 C 1385.3 576.795 1393.77 659.443 1447.96 664.273 C 1451.21 664.562 1454.42 665.013 1457.68 665.155 z"
     id="path4"
     style="fill:#343434;fill-opacity:1" />
  <path
     transform="translate(0,0)"
     fill="rgb(254,254,254)"
     d="M 935.592 53.4487 C 951.853 52.3495 968.185 53.9116 983.943 58.0732 C 1020.43 67.9296 1053.08 90.5136 1072.1 123.54 C 1058.77 132.713 1032.66 147.343 1017.78 156.333 C 1001.91 142.721 996.092 131.677 974.265 123.456 C 952.95 115.327 924.538 115.154 903.58 124.497 C 855.436 145.959 836.458 206.208 857.465 252.955 C 866.882 274.425 884.605 291.157 906.579 299.326 C 938.464 311.437 977.687 305.104 1003.61 282.639 C 1014.14 273.518 1018.1 262.428 1022.86 249.861 C 998.921 248.801 956.876 249.015 933.033 250.404 C 932.354 231.023 932.992 208.544 933.377 189.049 L 946.964 189.031 L 1087.76 188.868 C 1089.28 238.413 1088.19 280.241 1053.55 319.956 C 1028.78 348.524 993.664 366.059 955.947 368.692 C 862.894 374.988 789.49 316.692 783.418 222.033 C 780.515 180.578 794.355 139.691 821.84 108.522 C 852.571 73.6397 889.543 56.407 935.592 53.4487 z"
     id="path5"
     style="fill:#343434;fill-opacity:1" />
  <path
     transform="translate(0,0)"
     fill="rgb(254,254,254)"
     d="M 1216.83 132.34 C 1282.77 126.787 1340.72 175.789 1346.2 241.742 C 1351.67 307.696 1302.6 365.584 1236.64 370.985 C 1170.79 376.377 1113.02 327.406 1107.55 261.56 C 1102.08 195.713 1150.99 137.884 1216.83 132.34 z M 1232.4 310.629 C 1270.51 306.403 1287.12 281.007 1284.44 243.56 C 1282.32 213.97 1255.53 188.01 1225.15 191.199 C 1224.67 191.247 1224.19 191.321 1223.71 191.419 C 1215.89 192.266 1210.54 192.702 1203.2 195.925 C 1164.55 212.914 1159.94 274.703 1192.39 299.877 C 1202.78 307.937 1219.35 313.126 1232.4 310.629 z"
     id="path6"
     style="fill:#343434;fill-opacity:1" />
  <path
     transform="translate(0,0)"
     fill="rgb(254,254,254)"
     d="M 1184.8 486.902 C 1250.17 477.386 1310.85 522.763 1320.19 588.161 C 1329.54 653.558 1284.01 714.115 1218.58 723.293 C 1153.4 732.436 1093.12 687.104 1083.8 621.946 C 1074.49 556.789 1119.67 496.384 1184.8 486.902 z M 1211 665.421 C 1215.65 664.364 1221.01 663.24 1225.36 661.372 C 1266.19 643.84 1268.53 574.865 1231.35 552.267 C 1219.86 545.28 1206.2 543.158 1193 544.213 C 1120.92 559.41 1133.6 673.649 1211 665.421 z"
     id="path7"
     style="fill:#343434;fill-opacity:1" />
  <path
     transform="translate(0,0)"
     fill="rgb(254,254,254)"
     d="M 925.231 408.419 C 942.416 405.476 981.179 412.724 997.194 419.723 C 1031.43 434.683 1055.92 456.655 1070.38 491.25 C 1051.99 500.848 1031.35 510.821 1013.66 521.259 C 968.673 428.549 827.885 472.795 850.302 588.487 C 854.869 612.608 868.985 633.862 889.447 647.426 C 923.929 670.516 978.426 663.924 1004.07 629.953 C 1006.11 627.259 1008.06 624.309 1009.93 621.5 C 1011.41 619.07 1013.73 615.889 1015.38 613.463 C 1034.03 622.526 1051.94 633.872 1070.84 642.835 C 1048.65 688.35 1005.24 719.215 954.376 723.137 C 912.159 726.392 868.379 715.897 836.083 687.424 C 734.076 597.49 783.873 419.923 925.231 408.419 z"
     id="path8"
     style="fill:#343434;fill-opacity:1" />
  <path
     transform="translate(0,0)"
     fill="rgb(254,254,254)"
     d="M 1453.65 135.353 C 1479.7 131.709 1516.1 137.945 1537.08 153.929 C 1571.99 180.523 1570.04 218.543 1570.14 257.594 C 1570.23 291.684 1568.36 329.932 1572.91 363.637 C 1554.11 364.432 1529.91 364 1510.89 363.714 C 1510.95 355.162 1511.14 348.703 1511.87 340.143 C 1481.67 378.307 1413.41 381.642 1381.51 343.622 C 1356.67 313.473 1362 265.965 1394.64 243.706 C 1424.65 223.244 1474.88 221.758 1509.78 227.638 C 1508.37 221.798 1508 214.266 1505.5 208.891 C 1493.78 183.664 1458.97 184.669 1437.42 194.924 C 1429.67 198.613 1425.63 205.462 1418.34 209.778 C 1413.67 210.105 1377.13 184.01 1375.81 180.539 C 1375.71 173.059 1386.67 165.191 1391.69 160.624 C 1410.12 143.853 1429.75 138.379 1453.65 135.353 z M 1472.43 318.156 C 1499.19 308.836 1507.22 299.123 1509.78 270.793 C 1495.67 269.809 1481.51 269.658 1467.38 270.34 C 1455 271.77 1442.28 273.616 1433.76 283.745 C 1426.37 292.524 1426.86 306.046 1436.46 313.036 C 1447.4 320.991 1459.79 319.928 1472.43 318.156 z"
     id="path9"
     style="fill:#343434;fill-opacity:1" />
  <path
     transform="translate(0,0)"
     fill="rgb(254,254,254)"
     d="M 1702.51 486.407 C 1732.3 481.101 1773.37 495.182 1793.16 518.436 C 1819.02 548.81 1822.09 580.344 1819.97 618.088 C 1784.11 616.985 1746.41 618.59 1710.4 617.992 C 1695.71 617.749 1675.07 618.849 1660.98 617.216 C 1666.09 636.94 1668.95 649.128 1687.79 661.368 C 1700.93 669.909 1721.57 670.523 1736.51 666.714 C 1750.66 663.137 1762.83 654.122 1770.38 641.626 C 1774.89 645.078 1788.31 652.53 1793.93 655.815 C 1796.76 657.35 1812.31 664.645 1812.15 667.037 C 1811.31 679.097 1793.73 693.863 1785.23 701.027 C 1746.91 733.328 1682.01 728.593 1643.61 699.013 C 1592.8 660.603 1586.02 577.004 1624.24 527.683 C 1644.9 501.135 1669.86 490.347 1702.51 486.407 z M 1662.54 577.299 C 1679.61 577.104 1696.68 577.022 1713.75 577.053 C 1727.99 577.018 1748.36 576.449 1762.12 577.895 C 1755.91 561.681 1751.56 549.242 1734.32 541.388 C 1728.05 538.527 1717.25 536.522 1710.41 537.292 C 1683.12 540.54 1670.95 550.716 1662.54 577.299 z"
     id="path10"
     style="fill:#343434;fill-opacity:1" />
  <path
     transform="translate(0,0)"
     fill="rgb(254,254,254)"
     d="M 1938.54 140.173 C 1957.71 139.237 1983.89 140.074 2003.41 140.262 C 1999.15 154.818 1990.8 175.329 1985.24 189.911 L 1953.17 273.291 C 1938.12 309.084 1925.11 346.462 1910.59 382.559 C 1903.28 400.745 1895.64 420.062 1889.49 438.624 C 1868.73 439.039 1843.7 438.43 1822.86 437.645 C 1829.92 414.638 1845.73 385.962 1853.58 360.075 C 1850.65 347.684 1834.18 310.35 1828.66 296.681 L 1776.53 166.199 C 1772.98 157.304 1768.48 148.385 1765.27 140.155 L 1834.18 140.051 C 1835.14 142.032 1835.81 144.163 1836.59 146.22 C 1846.24 172.56 1856.73 198.845 1865.61 225.45 C 1871.83 244.1 1882.57 265.876 1886.83 284.666 C 1901.53 239.676 1921.82 184.489 1938.54 140.173 z"
     id="path11"
     style="fill:#343434;fill-opacity:1" />
  <path
     transform="translate(0,0)"
     fill="rgb(254,254,254)"
     d="M 1624.84 82.0481 L 1686.09 81.8566 C 1685.13 101.014 1686.2 121.274 1684.84 139.997 C 1704.84 139.553 1725.9 139.952 1746.13 139.717 C 1745.27 155.275 1746.05 176.596 1745.74 192.963 C 1727.51 191.792 1703.57 192.328 1684.88 192.275 C 1686.33 215.833 1681.35 282.571 1691.35 299.597 C 1695.01 305.832 1700.83 310.314 1707.9 312 C 1721.02 315.13 1734.35 309.682 1745.23 302.81 C 1746.16 315.382 1745.91 329.173 1745.91 341.875 L 1745.52 359.319 C 1729.89 366.067 1713.04 369.543 1696.02 369.532 C 1622.86 369.079 1624.77 315.223 1624.74 260.077 C 1624.65 237.461 1624.75 214.845 1625.04 192.23 C 1613.05 192.948 1597.46 192.602 1585.02 192.802 L 1584.99 139.659 C 1597.66 139.237 1612.35 139.673 1625.24 139.67 C 1623.89 125.173 1624.36 97.1137 1624.84 82.0481 z"
     id="path12"
     style="fill:#343434;fill-opacity:1" />
  <path
     transform="translate(0,0)"
     fill="rgb(254,254,254)"
     d="M 1980.84 485.465 L 1981.64 485.746 C 1983.65 488.936 1983.2 540.746 1983.31 548.672 C 1979.2 548.434 1975.08 548.283 1970.95 548.22 C 1955.82 548.042 1938.69 552.571 1927.78 563.554 C 1907.99 583.474 1911.89 618.415 1911.95 644.425 L 1912.03 717.868 C 1892.22 718.253 1870.27 717.094 1850.87 718.373 C 1851.03 707.166 1851.12 695.958 1851.15 684.75 L 1850.69 490.053 C 1870.7 489.81 1890.7 489.955 1910.7 490.491 C 1911.31 500.361 1910.7 514.91 1910.29 524.851 C 1928.76 493.366 1946.42 488.038 1980.84 485.465 z"
     id="path13"
     style="fill:#343434;fill-opacity:1" />
</svg>
