<?xml version="1.0" encoding="UTF-8" standalone="no"?>
<svg
   width="36"
   height="36"
   viewBox="0 0 36 36"
   fill="none"
   version="1.1"
   id="svg2"
   sodipodi:docname="logo_noicattaro.svg"
   inkscape:version="1.4.2 (f4327f4, 2025-05-13)"
   xml:space="preserve"
   xmlns:inkscape="http://www.inkscape.org/namespaces/inkscape"
   xmlns:sodipodi="http://sodipodi.sourceforge.net/DTD/sodipodi-0.dtd"
   xmlns="http://www.w3.org/2000/svg"
   xmlns:svg="http://www.w3.org/2000/svg"><defs
     id="defs2" /><sodipodi:namedview
     id="namedview2"
     pagecolor="#ffffff"
     bordercolor="#000000"
     borderopacity="0.25"
     inkscape:showpageshadow="2"
     inkscape:pageopacity="0.0"
     inkscape:pagecheckerboard="0"
     inkscape:deskcolor="#d1d1d1"
     inkscape:zoom="16"
     inkscape:cx="23.90625"
     inkscape:cy="20.65625"
     inkscape:window-width="1920"
     inkscape:window-height="1009"
     inkscape:window-x="-8"
     inkscape:window-y="-8"
     inkscape:window-maximized="1"
     inkscape:current-layer="svg2" /><circle
     cx="18"
     cy="18"
     r="17.5"
     fill="#FFFFFF"
     stroke="#E2DDD7"
     id="circle1"
     style="stroke:#8f1f33;stroke-opacity:1" /><g
     style="display:inline"
     id="g2"
     transform="matrix(0.01654458,0,0,0.01654052,6.9166611,1.124996)"><path
       fill="#00a2e7"
       d="m 383.191,583.012 641.039,-0.002 -0.02,62.311 c 0,6.506 0.41,24.215 -0.28,30.239 1.01,46.281 0.25,95.181 0.25,141.614 l -0.02,260.436 -0.01,169.52 c 0.01,25.33 1.21,64.09 -0.19,88.2 0.67,29.39 -7.83,53.2 -28.034,74.55 -20.573,21.73 -42.194,29.8 -71.796,29.91 -49.361,0.18 -98.496,0.08 -147.84,-0.55 -10.95,-0.14 -22.333,-0.97 -33.086,1.19 -16.857,3.65 -31.409,18.23 -40.093,32.56 -27.382,-39.98 -43.724,-33.92 -87.23,-33.44 l -82.577,0.24 c -50.089,0.06 -98.95,8.74 -130.594,-40.18 -12.682,-19.61 -18.389,-39.04 -19.541,-62.15 l 0.154,-665.737 z"
       id="path2-8" /><path
       fill="#292a2b"
       d="m 383.191,583.012 641.039,-0.002 -0.02,62.311 c 0,6.506 0.41,24.215 -0.28,30.239 1.01,46.281 0.25,95.181 0.25,141.614 l -0.02,260.436 -0.01,169.52 c 0.01,25.33 1.21,64.09 -0.19,88.2 0.67,29.39 -7.83,53.2 -28.034,74.55 -20.573,21.73 -42.194,29.8 -71.796,29.91 -49.361,0.18 -98.496,0.08 -147.84,-0.55 -10.95,-0.14 -22.333,-0.97 -33.086,1.19 -16.857,3.65 -31.409,18.23 -40.093,32.56 -27.382,-39.98 -43.724,-33.92 -87.23,-33.44 l -82.577,0.24 c -50.089,0.06 -98.95,8.74 -130.594,-40.18 -12.682,-19.61 -18.389,-39.04 -19.541,-62.15 l 3.615,4.67 c 1.587,-1.65 1.558,-2.06 2.347,-4.17 2.75,24.58 8.324,46.89 24.839,66.42 10.718,12.9 25.191,22.14 41.404,26.43 14.058,3.61 38.941,2.61 54.093,2.59 l 95.535,-0.31 c 16.752,-0.1 35.275,-0.65 51.947,0.18 20.273,1.01 33.637,13.61 46.062,28.55 2.986,-3.47 5.965,-7.03 9.206,-10.26 7.517,-7.51 15.342,-13.17 25.645,-16.08 18.749,-5.29 95.054,-2.26 120.563,-2.19 l 47.079,0.08 c 34.541,0.01 57.941,0.64 84.862,-26.47 14.494,-14.48 23.854,-33.31 26.634,-53.61 2.33,-16.24 1.16,-58.81 1.15,-77.51 l -0.03,-153.26 0.1,-533.134 c -49.213,-0.66 -99.669,-0.044 -149.026,-0.048 l -293.497,-10e-4 -119.735,0.032 c -20.685,0.006 -46.811,0.682 -67.056,-0.42 -5.265,1.689 -3.551,5.134 -4.314,9.685 -1.42,8.47 1.685,69.403 -1.269,73.089 z"
       id="path3" /><path
       fill="#391e0e"
       d="m 1023.96,1335.33 c -0.92,2.94 -1.37,6.5 -3.4,7.94 -2.14,-4.17 -1.14,-164.61 -1.15,-186.81 l -0.01,-410.441 -0.02,-99.012 c 0.01,-8.495 -0.51,-42.156 1.19,-48.978 4.46,12.847 -1.05,72.748 3.36,77.531 1.01,46.281 0.25,95.181 0.25,141.614 l -0.02,260.436 -0.01,169.52 c 0.01,25.33 1.21,64.09 -0.19,88.2 z"
       id="path4" /><path
       fill="#391e0e"
       d="m 383.323,671.723 c 2.954,-3.686 -0.151,-64.619 1.269,-73.089 0.763,-4.551 -0.951,-7.996 4.314,-9.685 1.089,39.458 0.258,82.002 0.255,121.717 l -0.026,226.442 0.002,267.782 c 0.002,43.53 0.81,89.74 -0.006,133.07 -0.789,2.11 -0.76,2.52 -2.347,4.17 l -3.615,-4.67 z"
       id="path5" /><path
       fill="#292a2b"
       d="m 703.351,621.032 c 17.908,-0.98 20.891,13.985 21.882,28.026 6.982,-6.468 14.864,-12.742 25.203,-11.357 9.835,1.318 13.197,11.832 11.565,20.521 -2.174,11.569 -9.646,16.83 -18.567,23.191 13.878,7.434 32.751,23.167 9.015,38.541 -6.796,4.401 -19.833,0.529 -27.151,-2.45 0.202,13.981 -0.548,19.814 -10.239,29.987 l -0.106,130.532 c 6.949,-11.536 31.19,-38.116 32.622,-8.515 9.823,-19.8 22.725,-41.94 31.645,-61.485 -8.292,-24.38 -11.799,-67.609 10.307,-85.95 l 1.41,0.31 c 6.866,9.221 6.171,44.772 6.184,57.464 6.186,-12.064 19.258,-30.46 27.09,-42.138 -8.062,-1.229 -14.228,-1.757 -20.356,-7.704 -3.355,-3.223 -5.255,-7.672 -5.262,-12.324 0.017,-9.942 6.002,-16.569 12.536,-23.085 -9.627,-11.543 -13.188,-28.626 2.805,-36.195 5.665,-2.681 10.333,-2.75 16.358,-3.744 2.775,-9.413 5.942,-19.296 16.532,-23.16 14.783,-5.393 22.651,4.136 27.409,16.861 7.335,-6.725 14.136,-11.73 24.668,-9.183 5.06,1.173 9.392,4.425 11.93,8.957 3.839,6.92 3.026,12.688 1.093,19.813 1.193,0.353 2.381,0.724 3.562,1.114 25.474,8.479 23.984,32.443 -0.384,44.024 14.519,26.771 -7.31,42.792 -32.725,30.243 -10.009,21.962 -28.713,27.196 -43.32,4.824 l -28.299,46.877 c 22.803,-12.321 45.038,-17.113 70.719,-16.421 -17.905,23.818 -52.422,49.12 -83.566,39.901 -9.137,13.081 -17.874,27.964 -24.64,42.448 -2.383,5.103 -2.946,10.392 -5.856,16.623 -4.124,2.14 -5.859,2.54 -7.094,6.997 3.06,1.411 6.095,2.877 9.102,4.4 21.57,11.127 -7.288,28.285 -21.026,30.714 -3.723,10.219 -13.281,24.472 -15.634,34.829 -0.176,0.774 1.122,1.641 1.899,2.366 3.755,-0.302 6.627,-4.563 8.591,-7.488 14.411,-21.469 33.249,-38.069 52.708,-54.993 1.02,-27.755 9.381,-42.085 32.237,-56.864 -0.193,14.544 -2.141,23.596 -5.726,37.502 15.69,-10.869 27.28,-16.412 45.181,-22.987 3.297,-13.058 8.254,-17.123 19.438,-23.906 -13.649,-27.956 13.98,-55.582 38.272,-28.255 22.072,-22.053 44.16,-8.458 38.606,21.465 14.964,5.466 28.476,18.179 17.336,35.834 -5.862,9.29 -16.949,9.387 -27.055,10.635 -7.875,20.373 -13.273,39.825 -41.464,22.408 -5.784,-3.573 -6.836,-11.152 -7.592,-17.377 -12.689,1.761 -17.174,1.918 -28.664,-3.476 -14.953,4.645 -24.539,10.804 -37.963,18.472 8.204,2.404 21.044,6.781 25.061,14.909 0.636,18.929 -39.179,7.746 -48.927,1.475 -22.772,18.954 -35.356,30.623 -53.216,54.34 l 19.854,2.562 c 32.953,-19.849 67.746,-15.855 78.811,24.453 11.641,42.407 -14.933,69.327 -35.763,101.607 -15.823,24.52 -8.937,57.16 -1.907,83.83 -17.165,-7.36 -23.724,-9.98 -32.764,-26.69 -6.33,37.52 -17.413,65.27 -45.506,91.46 -5.03,5.47 -18.655,16.68 -20.48,23.73 -13.267,51.25 55.725,67.17 91.099,79.3 4.614,1.58 7.979,4.06 9.465,7.65 -0.416,2.72 -0.911,3.89 -2.937,5.85 -17.103,16.56 -117.883,13.57 -144.364,13.46 -18.256,-0.06 -78.95,-0.44 -92.817,-7.5 -3.452,-1.76 -5.853,-3.83 -7.043,-7.6 0.902,-4.71 5.578,-8.56 9.405,-9.15 29.703,-4.61 55.222,-12.27 76.709,-34.88 9.969,-10.49 20.759,-34.42 13.065,-49.57 -4.406,-8.68 -14.79,-15.94 -21.678,-22.72 -27.064,-23.4 -42.825,-53.81 -45.081,-89.95 -9.767,16.98 -14.554,19.91 -32.25,27.4 5.44,-22.57 10.91,-51.53 3.028,-74.71 -4.101,-8.01 -8.735,-15.35 -14.901,-22.41 -29.501,-33.76 -49.282,-95.012 -1.193,-122.266 15.237,-8.636 40.668,1.597 56.977,8.562 8.294,-1.446 17.823,-2.578 26.238,-3.754 -8.676,-15.718 -37.301,-42.816 -53.218,-52.397 -12.283,5.664 -39.572,14.978 -50.597,3.605 -3.435,-11.088 17.012,-17.645 25.075,-20.079 -12.651,-6.865 -29.202,-16.447 -42.447,-20.939 -6.557,2.84 -13.695,4.587 -20.885,3.788 -1.544,-0.172 -6.365,-1.641 -7.533,-1.305 -3.149,0.906 -5.024,18.377 -13.208,22.668 -5.535,2.903 -14.55,3.108 -20.341,0.917 -12.147,-4.598 -8.294,-15.324 -12.585,-24.206 -1.487,-3.079 -14.829,-2.633 -18.686,-4.375 -4.834,-2.184 -9.747,-7.567 -11.431,-12.537 -1.638,-4.832 -0.709,-9.975 1.631,-14.4 4.3,-8.132 11.435,-11.243 19.859,-13.614 -4.068,-11.261 -4.261,-22.369 5.167,-31.157 4.259,-4.039 9.983,-6.162 15.845,-5.879 9.555,0.451 14.426,5.234 20.332,11.825 8.058,-7.727 17.224,-13.293 28.645,-7.544 5.374,2.675 9.34,7.53 10.891,13.33 2.261,8.474 -0.25,12.803 -4.086,19.786 12.797,7.204 16.091,10.9 16.522,25.849 14.765,5.426 32.129,14.23 45.48,22.466 -2.349,-8.233 -6.137,-20.584 -2.547,-28.542 9.286,-7.004 20.542,16 23.063,22.578 2.993,7.807 2.83,12.681 2.46,20.898 17.733,11.891 34.227,26.051 48.505,42.148 3.923,4.422 15.542,24.092 18.962,25.566 3.415,0.099 4.332,0.436 7.093,-1.248 -4.498,-11.61 -13.61,-28.896 -19.164,-40.807 -18.908,-3.901 -43.577,-15.517 -15.047,-31.893 -11.978,-20.351 -23.71,-41.086 -37.16,-60.471 -33.9,5.677 -62.79,-14.529 -85.425,-37.442 25.727,-2.53 41.992,1.557 65.788,10.023 -8.021,-13.395 -19.313,-32.805 -30.938,-43.502 -1.161,-1.069 -8.528,-4.859 -10.323,-5.786 -6.281,11.389 -20.996,28.008 -35.782,15.257 -5.678,-4.897 -4.863,-14.46 -4.68,-21.539 -4.497,2.916 -7.54,4.243 -12.441,6.469 -30.633,-1.919 -31.682,-24.503 -11.335,-42.893 -1.102,-0.813 -2.197,-1.636 -3.284,-2.469 -10.975,-8.418 -18.119,-18.596 -7.899,-32.322 6.229,-8.367 17.115,-6.676 26.323,-7.752 0.05,-4.916 -0.78,-12.341 1.187,-16.639 4.505,-9.836 13.96,-14.896 24.595,-12.334 9.872,2.378 13.425,8.166 18.333,16.44 8.401,-11.141 21.795,-21.579 34.529,-7.175 6.475,7.324 4.387,14.57 3.298,23.594 5.007,10.378 41.316,19.045 4.206,47.151 8.589,12.502 2.879,19.719 -4.612,30.65 7.947,13.841 18.096,27.803 27.581,40.666 0.313,-9.274 2.763,-57.263 17.551,-53.417 16.159,14.37 8.153,63.123 1.24,82.372 l 38.258,65.511 c -4.348,-38.747 18.411,-26.496 30.772,-1.273 0.888,-34.614 -0.445,-69.784 0.181,-104.443 0.154,-8.569 -0.039,-16.708 0.659,-25.314 -8.167,-10.689 -7.797,-14.799 -7.82,-28.147 -11.285,6.738 -41.266,18.189 -40.658,-7.644 0.243,-10.352 13.658,-20.077 21.36,-26.05 -11.927,-6.317 -26.164,-16.489 -18.368,-32.365 2.336,-4.696 6.576,-8.164 11.643,-9.522 9.853,-2.732 17.727,1.921 25.752,6.698 0.204,-14.619 1.159,-20.746 15.613,-27.044 z"
       id="path6" /><path
       fill="#fed001"
       d="m 691.404,998.457 c 21.287,-0.696 64.225,0.7 85.922,5.083 -6.842,13.6 -18.89,28.8 -28.243,41.19 15.167,14.44 30.35,29.82 34.459,51.18 7.368,38.32 -5.034,92.48 -30.917,122.24 -10.437,11.99 -23.886,22.63 -32.816,35.25 -5.074,7.17 -5.468,19.14 -3.128,27.66 8.53,31.06 39.828,44.01 67.357,53.93 9.858,3.55 23.379,6.55 32.087,11.77 l 0.208,1.55 c -11.885,11.68 -89.638,10.86 -108.036,11 -15.585,0.35 -118.866,1.09 -123.045,-9.14 4.464,-5.64 18.79,-5.08 26.287,-7.35 31.982,-9.61 64.225,-28.38 71.881,-63.53 7.961,-36.56 -28.413,-45.12 -45.967,-71.8 -20.741,-31.52 -27.133,-70.14 -20.692,-107.06 4.232,-24.25 19.21,-39.44 38.838,-52.19 -12.096,-15.19 -21.249,-28.64 -32.383,-44.57 19.261,-3.707 48.305,-4.636 68.188,-5.213 z"
       id="path7" /><path
       fill="#fed001"
       d="m 850.279,636.951 c 16.248,-1.288 17.55,11.502 19.653,24.113 7.343,-5.519 13.083,-13.994 22.061,-16.384 7.514,-2 12.309,1.705 13.811,9.148 1.95,9.664 -0.448,14.255 -5.582,22.204 6.285,-0.178 15.846,-1.024 20.414,3.056 18.572,16.588 -2.117,26.025 -15.85,28.277 3.519,8.41 11.116,14.188 8.382,24.621 -2.311,8.822 -11.325,10.679 -19.165,8.739 -8.886,-2.198 -10.583,-6.116 -14.878,-13.426 -2.307,9.14 -5.344,24.193 -15.904,27.912 -13.4,4.718 -18.544,-10.236 -22.074,-19.92 -7.413,10.198 -15.322,23.607 -22.179,34.341 -21.935,34.338 -41.166,69.682 -60.468,105.52 -2.274,4.435 -4.874,10.509 -10.714,10.237 0.315,-6.585 32.508,-65.276 38.421,-75.551 -9.41,-27.804 -11.576,-48.053 1.169,-74.987 5.31,21.611 2.904,44.25 4.116,66.412 10.819,-21.373 31.327,-50.971 45.996,-70.455 -10.37,1.394 -27.132,1.409 -32.021,-10.219 -1.374,-3.322 -1.337,-7.061 0.105,-10.355 2.666,-6.126 9.495,-11.591 15.797,-14.093 -7.733,-8.002 -14.972,-18.162 -8.666,-29.269 5.735,-10.099 17.571,-3.739 24.154,0.585 0.293,-15.784 0.124,-20.514 13.422,-30.506 z"
       id="path8" /><path
       fill="#292a2b"
       d="m 864.338,681.159 c 24.543,-0.707 28.439,24.316 5.513,34.79 -9.276,0.663 -16.907,-1.088 -20.075,-11.244 -1.599,-5.075 -0.938,-10.592 1.814,-15.146 3.301,-5.475 7.08,-6.912 12.748,-8.4 z"
       id="path9" /><path
       fill="#fed001"
       d="m 862.221,688.006 c 17.065,-1.522 23.352,9.75 7.892,20.164 -15.772,5.006 -20.04,-10.606 -7.892,-20.164 z"
       id="path10" /><path
       fill="#fed001"
       d="m 517.444,636.036 c 22.176,0.072 13.144,17.738 23.142,23.298 3.775,-1.197 25.554,-43.299 34.543,-5.956 1.136,4.72 -5.016,15.242 -7.419,19.903 32.935,-3.72 35.416,29.985 -1.503,33.768 2.894,1.688 11.47,6.417 12.883,8.31 7.778,10.425 -6.092,29.057 -18.134,27.138 -10.342,-1.648 -13.046,-7.188 -18.23,-13.883 -0.59,6.303 -0.781,10.716 -2.85,16.803 -0.55,0.756 -1.113,1.502 -1.688,2.239 -15.35,19.638 -31.527,9.375 -23.884,-13.076 1.351,-3.968 2.099,-10.639 2.396,-14.799 -8.687,8.269 -15.043,18.395 -28.298,18.29 -8.356,-0.067 -13.015,-5.543 -12.063,-13.868 1.287,-11.259 10.185,-17.577 18.497,-23.951 -9.718,-4.274 -31.97,-17.297 -15.832,-31.837 6.997,-6.303 23.63,-0.734 32.63,1.544 -7.767,-15.08 -14.638,-26.166 5.81,-33.923 z"
       id="path11" /><path
       fill="#292a2b"
       d="m 530.062,682.03 c 22.498,-0.947 29.668,21.974 10.912,33.948 -25.071,2.01 -28.25,-23.086 -10.912,-33.948 z"
       id="path12" /><path
       fill="#fed001"
       d="m 531.17,687.948 c 15.392,-0.046 18.221,11.675 8.68,21.991 -16.008,1.898 -18.319,-12.099 -8.68,-21.991 z"
       id="path13" /><path
       fill="#fed001"
       d="m 705.07,627.031 c 18.428,3.466 12.386,26.538 12.157,41.367 6.117,-7.899 11.982,-15.521 20.603,-21.03 11.523,-7.365 22.632,-0.986 17.102,12.899 -4.897,12.298 -17.059,17.133 -28.338,22.133 6.091,3.309 13.299,5.209 19.868,8.232 12.663,5.829 15.19,20.612 -0.272,24.435 -10.369,2.563 -21.911,-5.855 -30.638,-11.175 4.483,15.133 7.771,28.585 -6.462,39.524 -23.34,-2.107 -10.317,-26.049 -11.943,-35.111 -5.789,-3.393 -27.288,14.817 -36.518,10.874 -24.836,-10.61 15.416,-32.528 24.038,-36.604 -9.352,-4.446 -27.097,-8.443 -29.672,-19.82 -0.839,-3.716 -0.07,-7.613 2.118,-10.73 1.854,-2.704 4.713,-4.552 7.939,-5.134 9.478,-1.633 24.106,10.404 32.153,16.031 -2.023,-13.577 -7.621,-29.565 7.865,-35.891 z"
       id="path14" /><path
       fill="#292a2b"
       d="m 702.513,673.276 c 2.07,-0.127 4.22,-0.203 6.283,0.035 3.985,0.469 7.597,2.571 9.974,5.804 5.812,7.808 -0.1,14.728 -6.728,18.957 -16.611,1.089 -25.884,-16.329 -9.529,-24.796 z"
       id="path15" /><path
       fill="#fed001"
       d="m 703.903,679.739 c 3.124,-2.102 7.362,-1.255 9.437,1.887 2.075,3.141 1.192,7.372 -1.967,9.421 -3.121,2.024 -7.291,1.153 -9.341,-1.951 -2.051,-3.104 -1.216,-7.281 1.871,-9.357 z"
       id="path16" /><path
       fill="#fed001"
       d="m 899.878,795.15 c 17.156,-1.238 20.197,5.788 23.134,21.04 4.808,-8.135 21.654,-34.465 34.733,-13.149 3.812,6.214 -1.059,16.877 -4.182,23.337 40.32,4.888 28.974,45.646 -8.184,30.56 0.955,5.87 1.3,9.435 1.597,15.387 -4.803,19.196 -25.894,25.675 -34.495,4.901 -1.671,-4.037 1.01,-7.711 0.934,-12.568 -2.319,-0.11 -18.699,2.833 -23.773,3.237 -1.162,-0.543 -2.31,-1.113 -3.444,-1.71 -7.843,-4.124 -15.91,-11.064 -9.762,-21.118 5.018,-8.205 13.461,-10.311 22.217,-12.677 -13.012,-14.163 -14.48,-24.394 1.225,-37.24 z"
       id="path17" /><path
       fill="#292a2b"
       d="m 923.57,825.1 c 9.181,-1.62 17.944,4.492 19.596,13.667 1.652,9.176 -4.428,17.96 -13.598,19.645 -9.216,1.693 -18.054,-4.425 -19.714,-13.647 -1.661,-9.221 4.488,-18.037 13.716,-19.665 z"
       id="path18" /><path
       fill="#fed001"
       d="m 921.763,832.258 c 3.458,-1.674 7.552,-1.346 10.699,0.859 3.146,2.205 4.853,5.941 4.46,9.763 -0.393,3.822 -2.824,7.132 -6.354,8.65 -5.291,2.276 -11.432,-0.092 -13.826,-5.331 -2.393,-5.239 -0.163,-11.431 5.021,-13.941 z"
       id="path19" /><path
       fill="#fed001"
       d="m 462.656,793.12 c 12.83,1.183 15.994,8.719 21.535,18.679 4.794,-7.691 9.002,-14.345 18.833,-15.729 8.059,-1.134 15.077,4.597 15.127,12.879 0.054,9.128 -4.622,13.295 -10.646,19.431 9.297,2.379 26.511,7.525 22.584,21.696 -6.192,22.347 -33.27,10.148 -38.836,13.145 l -0.661,3.033 c -0.077,1.107 -0.176,2.212 -0.299,3.314 -1.771,15.627 -17.046,29.128 -29.189,11.917 -5.021,-7.117 -2.039,-16.933 0.22,-24.791 -10.665,3.419 -31.544,9.948 -34.29,-9.016 -2.536,-17.507 19.442,-13.729 25.102,-19.934 -0.465,-3.032 -4.919,-11.65 -6.546,-16.01 3.115,-11.217 5.115,-15.681 17.066,-18.614 z"
       id="path20" /><path
       fill="#292a2b"
       d="m 475.417,825.465 c 8.428,-3.191 17.858,0.976 21.172,9.358 3.313,8.381 -0.717,17.87 -9.049,21.305 -5.499,2.267 -11.792,1.397 -16.469,-2.277 -4.677,-3.674 -7.013,-9.582 -6.113,-15.461 0.9,-5.88 4.897,-10.818 10.459,-12.925 z"
       id="path21" /><path
       fill="#fed001"
       d="m 477.272,831.431 c 5.149,-2.094 11.03,0.282 13.278,5.366 2.248,5.083 0.049,11.032 -4.965,13.432 -3.38,1.618 -7.372,1.269 -10.42,-0.911 -3.047,-2.18 -4.668,-5.845 -4.23,-9.566 0.439,-3.721 2.867,-6.909 6.337,-8.321 z"
       id="path22" /><path
       fill="#fed001"
       d="m 677.732,961.44 c 34.5,-1.216 73.248,0.76 107.282,7.222 -0.742,9.711 -2.953,19.058 -5.221,28.492 -18.021,-2.766 -34.073,-3.789 -52.197,-4.967 -38.768,-0.74 -69.515,0.247 -108.139,5.184 -2.09,-8.749 -2.594,-19.647 -2.765,-28.602 20.157,-4.958 40.39,-6.023 61.04,-7.329 z"
       id="path23" /><path
       fill="#fed001"
       d="m 573.715,956.206 c 10.28,-0.654 27.883,1.631 36.958,6.632 2.297,3.264 0.38,6.088 0.227,10.225 -0.145,3.932 -0.055,7.491 0.163,11.431 -18.541,-13.31 -38.683,-15.855 -45.468,10.892 -9.39,37.024 23.592,64.634 37.192,95.114 5.811,13.03 5.994,30.69 3.46,44.57 -4.145,13.36 -9.12,18.74 -20.161,26.68 4.205,-14.88 7.218,-47.46 1.614,-62.18 -10.091,-26.51 -37.032,-46.35 -43.908,-75.8 -6.372,-27.289 -0.753,-59.668 29.923,-67.564 z"
       id="path24" /><path
       fill="#fed001"
       d="m 812.801,956.256 c 25.042,-0.85 37.375,10.764 42.622,35.36 7.468,35.004 -14.45,60.744 -32.998,87.524 -17.742,25.62 -14.82,53.43 -8.759,82.27 -8.119,-5.18 -10.616,-6.96 -15.664,-15.05 -30.967,-68.7 61.815,-99.72 29.206,-163.64 -7.922,-15.528 -28.034,-4.976 -38.558,3.806 4.643,-24.029 -5.937,-23.901 24.151,-30.27 z"
       id="path25" /><path
       fill="#00a2e7"
       d="m 582.152,981.925 c 23.951,-2.481 29.818,15.495 40.6,32.355 6.519,10.2 15.256,23.5 23.537,32.14 -11.827,8.65 -21.027,17.93 -28.291,30.73 -2.78,5.89 -4.728,12.55 -6.743,18.79 -10.114,-27.98 -66.469,-88.6 -29.103,-114.015 z"
       id="path26" /><path
       fill="#00a2e7"
       d="m 807.167,982.032 c 22.27,-1.29 24.031,21.968 19.568,38.128 -6.97,25.24 -23.206,47.65 -37.201,69.55 l -1.078,-0.12 -1.848,-5.02 c -5.297,-13.21 -18.385,-32.78 -30.149,-40.41 6.536,-8.01 12.118,-15.13 17.951,-23.68 11.312,-16.58 13.687,-30.024 32.757,-38.448 z"
       id="path27" /><path
       fill="#fed001"
       d="m 622.167,735.65 c 12.321,17.575 4.951,57.24 -4.011,75.573 0.945,1.244 1.871,2.502 2.778,3.774 4.609,6.47 37.145,61.505 36.56,64.955 -1.168,0.124 -4.937,0.317 -5.673,-0.711 -12.563,-17.565 -22.628,-37.574 -34.602,-55.583 -17.487,-24.846 -33.883,-50.803 -51.089,-74.995 l 9.21,-3.316 c 8.243,14.141 27.605,43.672 37.744,56.229 0.493,-24.157 -1.008,-43.428 9.083,-65.926 z"
       id="path28" /><path
       fill="#fed001"
       d="m 701.6,749.378 c 2.902,0.174 3.929,0.328 6.756,1.005 1.368,4.351 0.797,49.481 0.787,56.39 l -0.426,148.148 c -2.419,-0.05 -3.999,-0.228 -6.405,-0.524 -0.392,-0.495 -0.97,-0.888 -1.176,-1.485 -0.453,-1.309 -1,-190.858 0.464,-203.534 z"
       id="path29" /><path
       fill="#fed001"
       d="m 670.496,857.235 c 16.218,4.013 24.557,29.04 24.464,44.177 -15.11,5.283 -26.722,7.781 -42.43,4.077 -5.48,-1.219 -14.525,-4.511 -13.528,-11.267 8.502,-11.674 27.195,-5.929 38.126,-2.146 -5.324,-13.651 -8.57,-19.63 -6.632,-34.841 z"
       id="path30" /><path
       fill="#fed001"
       d="m 739.048,862.884 c 8.057,10.303 -9.311,31.316 -15.545,39.185 10.093,-4.229 33.71,-14.362 43.615,-7.882 2.277,3.62 1.723,1.966 1.982,6.342 -1.186,3.475 -3.135,4.817 -5.822,7.248 -1.471,0.87 -2.996,1.644 -4.566,2.319 -13.853,6.046 -29.987,4.31 -43.763,-1.049 -0.21,-20.482 4.062,-36.604 24.099,-46.163 z"
       id="path31" /><path
       fill="#fed001"
       d="m 533.593,856.609 1.073,0.365 c 39.726,13.664 105.804,56.849 127.032,95.708 1.148,2.102 0.769,1.681 0.018,3.861 -1.57,0.126 -3.521,0.462 -5.04,-0.002 -2.489,-0.761 -6.584,-7.297 -8.345,-9.583 -7.625,-9.902 -16.796,-19.341 -25.908,-27.889 -16.36,-15.349 -35.069,-26.947 -54.543,-37.901 -5.888,-3.312 -33.597,-15.829 -35.761,-19.62 z"
       id="path32" /><path
       fill="#fed001"
       d="m 867.981,858.07 c 2.295,3.027 2.207,1.983 2.328,5.17 -1.428,1.552 -28.523,15.26 -33.117,18.018 -9.226,5.564 -18.087,11.712 -26.528,18.408 -12.849,10.061 -23.323,19.635 -34.727,31.282 -5.93,6.057 -18.736,24.106 -24.379,27.836 l -3.215,-1.759 c -1.507,-4.359 3.519,-9.33 6.38,-12.779 30.425,-36.682 69.621,-67.769 113.258,-86.176 z"
       id="path33" /><path
       fill="#fed001"
       d="m 863.606,785.389 c 1.464,-0.291 1.86,-0.097 3.404,0.033 -0.615,2.06 -0.487,1.951 -2.296,3.59 -16.628,15.065 -33.734,25.243 -56.508,25.236 -1.971,-0.355 -2.24,-0.568 -4.064,-1.292 0.137,-1.768 -0.092,-1.884 1.283,-3.406 15.518,-17.184 36.902,-21.688 58.181,-24.161 z"
       id="path34" /><path
       fill="#fed001"
       d="m 538.082,789.229 c 21.484,1.378 53.955,6.805 65.791,26.442 -21.575,1.291 -51.883,-9.442 -65.791,-26.442 z"
       id="path35" /><path
       fill="#fed001"
       d="m 574.519,894.31 c 5.37,-0.788 9.719,3.065 14.159,6.09 -9.276,4.09 -15.361,5.722 -25.338,7.316 -3.841,0.309 -9.024,0.831 -12.123,-1.503 l -0.038,-1.818 c 5.584,-6.906 15.032,-9.069 23.34,-10.085 z"
       id="path36" /><path
       fill="#fed001"
       d="m 667.801,913.056 c 3.317,-0.171 3.882,-0.354 6.979,0.598 3.599,5.534 15.346,34.732 17.724,41.949 -1.524,-0.238 -5.405,-0.583 -5.88,-1.377 -3.687,-6.155 -18.588,-36.045 -18.823,-41.17 z"
       id="path37" /><path
       fill="#fed001"
       d="m 829.451,893.818 c 7.391,-0.113 22.819,3.027 26.15,9.943 -2.375,2.657 -3.327,2.136 -7.345,3.037 -9.921,0.913 -19.127,-2.578 -28.061,-6.283 z"
       id="path38" /><path
       fill="#fed001"
       d="m 819.536,850.755 0.716,0.708 c 2.186,5.677 -3.659,20.484 -6.5,26.042 -2.667,5.215 -5.105,7.072 -9.598,10.677 -6.703,-6.232 10.179,-31.947 15.382,-37.427 z"
       id="path39" /><path
       fill="#00a2e7"
       d="m 691.68,909.163 2.109,-0.21 1.097,1.584 c 0.48,5.131 1.598,27.66 -0.905,31.383 l -1.569,-2.369 c -3.524,-9.184 -7.485,-18.625 -11.171,-27.783 z"
       id="path40" /><path
       fill="#fed001"
       d="m 734.004,919.909 c 3.762,0.213 3.53,-0.361 6.303,1.376 -0.979,4.057 -12.89,28.015 -15.419,33.275 -2.451,1.073 -2.991,0.68 -4.695,-0.632 -0.018,-6.51 10.432,-26.908 13.811,-34.019 z"
       id="path41" /><path
       fill="#fed001"
       d="m 583.895,850.798 c 9.683,5.089 14.095,22.625 15.253,32.479 -2.639,-1.032 -6.881,-3.993 -9.417,-5.633 -2.881,-8.932 -5.378,-17.396 -5.836,-26.846 z"
       id="path42" /><path
       fill="#00a2e7"
       d="m 715.089,917.068 11.964,2.187 -8.567,19.495 c -0.847,2.225 -2.495,4.95 -3.684,7.082 z"
       id="path43" /><path
       fill="#292a2b"
       d="m 1196.46,919.671 c 0.22,-5.875 0.31,-7.914 1.67,-13.569 -1.91,-9.643 -26.47,-26.682 -18.16,-41.609 0.75,-3.024 5.82,-1.832 5.07,-4.095 -3.07,-9.239 -17.21,-21.172 -11.56,-31.658 2.23,-4.142 5.15,-3.045 4.34,-9.588 -1.3,-10.433 -7.75,-23.501 -3.38,-33.65 0.97,-1.936 5.18,-2.837 7.24,-3.296 2.81,-10.51 -0.9,-35.487 15.81,-37.45 10.11,3.24 10.17,24.549 15.51,30.878 l 1.17,-0.197 c 3.28,-0.535 4.55,-1.047 7.49,0.409 9.27,9.294 0.44,29.811 11.89,34.913 7.58,3.376 7.12,11.802 7.83,18.526 4.43,-8.483 21.25,-36.031 36.53,-26.086 12.48,8.126 3.71,46.984 -11.8,49.337 -3.11,0.914 -12.79,1.927 -14.7,4.044 -1.63,6.328 -0.07,10.394 -0.87,15.201 -1,6.067 -2.32,12.465 -3.33,18.798 2.87,-7.22 7.67,-21.892 17.66,-20.192 8.52,4.658 9.82,19.853 10.91,28.573 3.73,1.107 6.08,-0.664 8.93,4.951 4.87,9.588 1.08,24.527 3.31,34.987 0.66,0.252 1.32,0.505 1.98,0.757 3.8,-10.055 32.16,-36.069 37.98,-12.741 5.1,20.453 -1.3,40.709 -25.19,41.206 -5.09,9.2 -8.98,27.258 -12.91,38.87 1.16,1.38 2.42,1.67 4.11,2.34 8.5,11.77 1.84,27.44 4.96,32.4 3.53,0.47 6.19,0.36 8.8,2.59 6.36,10.78 -4.35,25.85 -4.47,35.47 11.62,1.02 8.74,3.51 8.72,13.8 -0.01,7.02 -11.91,23.45 -9.6,27.95 5.78,11.27 -1.61,20.98 -7.66,30.67 7.94,-2.29 34.91,-10.08 38.51,3.31 3.45,12.86 -15.92,28.86 -27.25,30.95 -8.85,2.12 -13.92,-0.5 -20.58,-6.05 -6.07,7.86 -30.67,34.04 -26.08,43.72 6.48,-0.59 8.99,-28 22.59,-28.83 15.79,-0.96 8.27,24.26 12.21,31.28 l 1.14,0.74 c 15.34,10 1.18,25.87 1.77,39.73 l 1.26,0.47 c 1.68,0.63 2.36,1.01 3.91,1.88 6.12,15.7 -9.75,29.06 -12.3,40.81 l 0.72,0.75 c 14.48,15.32 -12.68,32.26 -21.04,42.6 -0.56,0.7 -0.29,4.26 -0.23,5.25 l 1.24,1.28 c 6.69,-4.58 14.69,-16.65 24.11,-15.8 12.46,8.81 -1.69,29.91 1.08,38.27 2.6,1.71 4.9,2.44 5.32,5.56 1.41,10.65 -13.06,24.96 -15.12,32.05 23.46,12 -17.39,31.5 -15.46,36.1 8.65,20.67 -14.64,22.46 -30.92,38.43 l 4.14,3.51 v 4.44 c 1.6,1.03 5.54,0.38 7.65,-0.48 11.46,-4.66 48.88,-4.89 34.29,17.21 -8.01,12.13 -30.34,23.3 -45.32,13.47 -25.68,5.98 -49.02,8.51 -64.42,30.85 l 5.73,0.34 c 4.81,-3.23 8.9,-6.66 14.76,-6.51 3.4,1.23 3.68,2.01 6.09,4.93 11.13,-0.51 21.91,-25.52 36.06,-6.01 10.42,-4.09 34.29,-12.75 40.63,2.27 1.01,12.59 -19.12,19.46 -21.92,27.08 l 0.11,1.25 c 1.44,17.73 -28.62,17.94 -28.62,22.96 0.01,20.89 -21.01,13.51 -35.83,20.34 -1.22,0.56 -0.97,12.5 -7.11,12.48 -16.18,6.28 -30.3,-5.9 -40.85,9.37 -3.23,4.67 -25.95,1.19 -33.27,0.25 -13.37,16.3 -3.71,11.88 -7.94,22.06 l 0.59,0.92 c 14.11,-3.78 23.55,-8.47 32.45,4.47 3.11,4.52 28.02,1.99 32.25,16.24 -0.59,12.39 -20.06,15.69 -29.62,16.92 0.37,17.19 -22.43,13.8 -34.87,13.98 -7.39,20.88 -26.03,8.66 -41.14,8.53 0.03,0 -1.76,2.97 -2.22,3.85 -6.71,12.76 -30.15,-4.83 -40.57,-4.55 -8.09,0.21 -11.3,5.9 -19.67,3.65 -14.285,-4.11 -31.289,-12.93 -46.059,-14.1 -27.633,-2.18 -49.891,5.32 -76.207,9.87 6.757,7.64 14.221,15.78 20.578,23.67 6.772,-1.99 13.286,-3.14 19.1,1.01 28.825,20.6 22.248,57 -17.177,33.32 -10.043,-6.03 -11.642,-13.69 -11.003,-25.2 -8.155,-9.17 -20.105,-22 -30.02,-29.47 l -32.346,5.75 c 0.274,27.68 -6.68,47.14 -39.764,47.48 -11.696,0.12 -31.888,-2.91 -42.939,-6.52 31.717,23.41 71.659,44.95 102.681,68.27 0.371,16.87 1.775,32.96 2.475,49.65 l -79.544,-56.29 c -9.843,-7.04 -24.221,-16.82 -33.3,-24.18 8.403,28.81 23.365,27.33 41.317,47.21 7.82,8.65 11.673,30.06 20.008,39.61 9.59,14.61 20.804,19.58 25.872,26.79 -6.55,9.9 -46.718,-15.69 -54.334,-20.59 -4.975,22.28 -12.154,41 -32.066,55.15 -1.423,1.01 -2.006,1.11 -3.698,1.23 -2.644,-3.18 1.636,-28.52 1.655,-35.41 -0.151,-3.2 0.011,-7.58 0.045,-10.88 -1.24,-21.96 -13.556,-26.99 -23.895,-44.6 -4.567,-7.78 -6.237,-14.5 -8.016,-23.21 -0.638,-5.67 -0.953,-16.25 -0.41,-21.74 -0.18,-7.95 2.244,-35.29 -1.283,-39.49 l -1.98,0.4 c -4.12,3.99 -6.035,9.02 -8.295,14.15 -12.975,29.45 -0.614,64.98 -5.005,96.9 -2.301,16.72 -9.285,29.27 -11.892,45.54 -0.949,5.92 5.215,14.39 3.315,18.57 -10.606,2.73 -28.494,-33.29 -31.715,-41.97 -8.94,7.56 -46.508,27.85 -56.312,19.83 -0.505,-3.42 6.578,-7.98 9.679,-11.56 10.07,-11.59 19.536,-23.79 26.734,-37.31 17.606,-33.08 7.586,-58.97 23.759,-92.7 -12.563,7.3 -33.131,23.91 -45.16,33.04 -24.001,17.87 -47.783,36.03 -71.343,54.48 0.2,-15.22 1.23,-31.6 1.72,-46.96 24.447,-19.87 59.28,-39.22 82.728,-58.71 -33.575,3.46 -61.309,-0.26 -43.208,-43.06 -13.217,-2.85 -32.041,-6.79 -45.149,-8.22 l -25.98,23.37 c 14.161,16.66 4.163,38.64 -16.849,40.17 -23.373,1.69 -28.938,-36.7 -7.448,-44.42 2.135,-0.77 9.176,-0.73 11.731,-1.12 7.871,-6.25 15.376,-14.1 22.708,-21.07 -12.6,-3.25 -26.056,-5.34 -38.945,-8.13 -36.152,16.16 -69.542,40.56 -110.604,42.25 -25.234,1.03 -45.733,-5.4 -69.317,-13.31 33.321,-22.16 103.076,-44.31 143.074,-46.05 -7.664,-4.41 -20.423,-10.16 -28.695,-14.2 -57.97,12.71 -134.328,21.4 -191.555,4.06 17.849,-16.85 45.377,-28.71 68.909,-34.76 -10.987,-6.29 -20.334,-13.36 -30.469,-20.84 -12.214,-1.4 -26.747,-1.99 -39.029,-2.34 -7.291,10.47 -9.828,11.65 -22.216,14.52 -2.151,-0.46 -4.275,-1.03 -6.36,-1.73 -20.679,-6.98 -19.347,-33.52 -1.301,-41.32 5.242,-2.26 11.176,-2.3 16.447,-0.11 8.213,3.49 11.791,10.1 14.979,17.83 l 21.755,-0.23 c -11.115,-11.47 -21.411,-23.7 -30.812,-36.6 -2.46,-3.43 -6.648,-9.09 -5.955,-13.28 9.72,-3.12 42.844,8.93 55.731,11.37 l 1.282,0.24 c -15.508,-8.04 -30.721,-11.39 -46.617,-17.57 -50.874,-19.78 -118.6571,-58.1 -131.1688,-116.17 17.0968,7.18 34.3188,14.06 51.6568,20.64 -24.278,-33.85 -36.7264,-66.15 -31.412,-109.36 0.331,-2.68 1.527,-5.87 3.818,-7.48 5.773,0.76 13.186,11.94 17.136,16.28 20.292,22.26 33.054,42.88 46.986,69.39 -0.252,-11.03 0.02,-22.86 0.08,-33.95 -5.642,-5.99 -13.55,-12.6 -19.745,-18.19 -30.831,-27.73 -61.4749,-56.85 -73.5983,-97.92 -2.9652,-10.04 -7.9886,-31.82 -5.0358,-41.63 8.8889,-6.7 43.6901,36.23 51.6011,44 -4.337,-16.83 -10.169,-22.36 -19.785,-36.51 -5.7636,-8.48 -11.4046,-18.61 -16.6427,-27.54 -4.7785,1.15 -12.7639,2.78 -17.0533,0.47 -39.1189,-21.05 10.3039,-67 29.051,-27.19 2.947,6.25 0.28,13.73 -2.657,19.74 4.516,6.91 12.984,19.73 18.692,25.46 l 1.456,-31.72 c -27.0823,-32.25 -42.7902,-64.62 -48.2823,-106.64 -1.412,-10.81 -4.8896,-40.8 4.9527,-46.79 4.4592,0.91 14.9026,15.98 18.3935,20.55 -5.2643,-22.33 -8.2926,-46.95 -5.5646,-69.83 1.3824,-11.6 11.8305,-58.79 18.7337,-64.187 12.252,-0.563 21.717,45.147 24.582,55.367 2.67,-9.04 5.526,-24.156 8.105,-34.258 -7.635,-14.318 -13.885,-29.13 -21.674,-43.408 -21.5595,6.452 -40.0188,-7.805 -29.206,-28.199 2.8964,-5.443 7.7993,-9.543 13.669,-11.431 15.431,-4.947 23.412,5.695 27.447,18.74 -1.032,5.029 -1.955,7.515 -3.747,12.348 4.376,9.229 13.737,23.912 19.223,33.102 7.887,-16.828 8.31,-21.502 11.447,-40.011 -7.924,-14.901 -15.548,-29.959 -22.868,-45.165 -7.064,-0.912 -10.929,-1.151 -16.85,-5.49 -9.494,-6.956 -9.18,-19.61 -2.347,-28.303 4.069,-5.211 10.074,-8.552 16.647,-9.261 12.737,-1.314 21.636,8.858 22.384,21.249 0.444,7.347 -4.805,13.196 -9.854,18.051 4.334,8.696 11.208,19.236 16.424,27.698 5.22,-21.251 13.037,-54.064 22.546,-73.08 8.63,-17.26 29.266,-55.044 41.822,-68.509 -0.422,9.723 -2.583,23.018 -3.669,33.02 -2.205,22.342 -4.615,44.664 -7.229,66.963 8.126,-6.977 17.978,-16.299 26.86,-21.636 -4.656,22.346 -18.182,65.452 -25.72,87.832 18.198,-7.219 36.758,-0.793 34.626,20.897 -0.675,6.631 -3.977,12.715 -9.169,16.894 -13.559,10.724 -25.686,1.815 -34.455,-9.132 -7.263,19.589 -16.874,41.215 -25.645,60.139 15.866,-15.022 37.815,-28.183 58.656,-34.854 -9.693,33.754 -36.682,85.434 -55.123,114.944 -10.786,17.26 -23.67,34.53 -34.196,52.32 2.823,15.89 6.114,31.6 8.888,47.67 5.045,-11.1 23.251,-43.03 30.389,-52.32 -30.053,-34.24 42.157,-58.81 38.32,-13.12 -1.392,16.57 -15.631,21.7 -30.527,18.38 -10.246,30.68 -22.921,46.37 -34.639,73.14 l 3.05,29.84 c 7.205,-15.05 16.375,-32.06 26.947,-44.98 5.001,-6.11 27.693,-34.41 34.779,-36.17 l 1.368,1.17 c 0.978,6.93 -1.825,26.09 -2.341,33.99 -3.761,57.65 -19.417,106.95 -50.064,156.55 3.954,9.01 7.266,16.46 11.915,25.11 7.441,-16.99 19.627,-38.76 28.21,-56.44 -7.448,-10.48 -10.42,-23.86 1.349,-32.94 5.302,-4.11 12.041,-5.9 18.686,-4.97 29.359,4.21 23.832,51.96 -12.488,42.66 -7.165,25.05 -16.122,49.07 -29.198,71.7 2.309,7.17 5.882,14.4 9.043,21.28 0.184,-0.79 0.378,-1.57 0.583,-2.34 6.445,-24.7 22.511,-63.84 45.317,-77.16 3.259,21.69 5.144,43.55 5.642,65.47 0.262,19.69 -1.244,39.54 -1.139,59.22 0.091,17.32 2.28,34.27 4.905,51.36 l 1.382,0.55 0.558,-0.87 c 10.679,-34.1 57.136,-15.91 41.256,16.69 51.086,15.39 81.661,37.67 107.025,85.91 27.445,52.21 33.73,73.11 95.408,90.08 3.415,0.94 6.943,1.38 10.481,1.9 -5.363,-11.66 -11.409,-24.19 -16.456,-35.93 -14.117,-2.84 -23.417,-11.44 -19.217,-26.83 1.586,-6.01 5.466,-11.16 10.807,-14.35 11.025,-6.48 25.753,0.1 31.287,10.72 2.368,4.63 2.778,10.01 1.138,14.94 -1.988,6.02 -6.683,10.39 -11.415,14.33 6.384,12.93 15.606,27.5 20.848,40.18 14.512,3.55 31.613,6.59 46.471,8.84 -7.946,-27.61 -22.219,-71.58 17.155,-81.07 28.894,-6.97 71.427,0.6 79.233,34.14 3.76,16.16 2.025,31.52 10.939,45.8 l 22.534,-2.53 c 1.411,-21.07 4.113,-60 20.361,-74.71 15.966,-14.46 54.912,-16.77 75.851,-16.04 30.696,1.07 29.894,26.02 27.77,49.54 -1.316,14.58 -4.623,28.51 -6.335,42.72 11.013,-0.97 22.125,-3.12 33.031,-5.06 13.455,-12.89 17.69,-27.09 25.944,-44.08 -12.052,-14.58 -9.379,-27.68 1.876,-42.3 19.971,-25.93 34.75,-0.5 30.719,21.4 -2.847,17.94 -15.249,17.4 -24.05,30.6 -5.953,8.82 -9.228,20.18 -12.673,30.21 8.413,-1.72 13.627,-2.6 21.672,-5.71 5.66,-11.16 20.77,-49.08 36.577,-30.23 3.052,-6.12 15.774,-37.11 26.789,-32 0.876,0.41 2.967,3.36 3.701,4.38 5.649,-3.27 22.369,-28.45 34.36,-26.72 l 3.6,4.57 c 12.7,-5.05 9.93,-9.87 28.27,-10.83 10.28,-63.7 30.08,-14.09 38.47,-11.42 11.83,-7.06 0.83,-30.62 10.92,-40.02 1.64,-1.53 8.25,-1.12 8.67,-1.68 9.18,-12.3 2.14,-33.89 23.47,-31.96 4.15,-4.25 7.83,-12.81 11.99,-18.58 -15.97,-5.96 -16.97,-18.72 -19.09,-34.06 -1.8,-13.06 5.9,-25.13 20.19,-16.91 16.34,10.44 22.92,27.03 16.96,45.12 1.83,1.78 3.25,3.17 5.23,4.78 3.46,-1.66 4.14,-2.77 8.12,-4.49 1.19,-9.22 -21.68,-29.45 -5.26,-45.47 -3.13,-9.83 -8.85,-26.92 -4.58,-37.06 1.19,-2.82 3.99,-3.63 6.74,-4.65 4.38,-15.67 -8.8,-29.06 11.19,-39.41 1.19,-6.85 4.38,-32.22 15.54,-30.54 3.93,0.59 10.44,7.28 15.09,7.43 l 1.22,-1.04 c 0.26,-12.42 -38.12,-26.1 -13.7,-40.16 -7.24,-7.22 -20.64,-20.19 -20.74,-31.17 -0.04,-3.82 2.83,-6.81 5.21,-9.68 -1.52,-11.86 -11.11,-20.52 -6.2,-33.87 2.56,-2.57 3.4,-2.97 6.59,-4.75 2.43,-7.93 -2.27,-16.7 -0.02,-26.26 2.1,-8.9 11.45,-7.03 8.16,-12.53 -6.3,-10.52 -17.93,-31.22 -4.63,-41.17 6.18,-4.63 17.66,7.18 23.98,1.21 0.98,-3.24 1.75,-5.64 0.13,-8.81 -3.92,-7.64 -16.71,-19.96 -14.37,-28.92 0.93,-3.56 5.28,-5.52 6.17,-8.21 0.64,-1.91 -8.43,-21.05 -8.55,-28.03 -0.13,-8.12 6.08,-6.87 8.13,-12.74 3.8,-10.92 -2.26,-18.81 5.7,-35 l -7.28,-7.69 c -6.66,3.21 -10.94,3.95 -18.09,1.84 -10.73,-3.18 -30.81,-18.18 -28.73,-30.65 1.8,-10.822 25.64,-6.429 31.47,-8.218 -0.09,-12.525 -1.47,-9.022 5.41,-17.484 -4.46,-7.732 -13.75,-21.896 -12.39,-30.649 1.42,-3.208 3.78,-3.967 6.97,-5.742 1.86,-7.348 -9.56,-39.261 11.08,-35.74 4.24,0.724 10.22,11.504 12.09,15.454 z"
       id="path44" /><path
       fill="#fed001"
       d="m 1181.69,1564.05 c 4.81,-3.23 8.9,-6.66 14.76,-6.51 3.4,1.23 3.68,2.01 6.09,4.93 11.13,-0.51 21.91,-25.52 36.06,-6.01 10.42,-4.09 34.29,-12.75 40.63,2.27 1.01,12.59 -19.12,19.46 -21.92,27.08 l 0.11,1.25 c 1.44,17.73 -28.62,17.94 -28.62,22.96 0.01,20.89 -21.01,13.51 -35.83,20.34 -1.22,0.56 -0.97,12.5 -7.11,12.48 -16.18,6.28 -30.3,-5.9 -40.85,9.37 -3.23,4.67 -25.95,1.19 -33.27,0.25 -13.37,16.3 -3.71,11.88 -7.94,22.06 l 0.59,0.92 c -7.03,3.38 -9.23,5.02 -15.49,9.86 10.26,-2.02 35.34,-12.6 42.09,-2.82 -0.41,1.33 -0.88,2.52 -1.56,3.73 8.98,4.43 26.62,0.48 32.96,10.33 l -0.54,1.95 c -8.6,8.29 -25.2,4.62 -30.38,13.5 0.37,2.47 0.85,3.9 -0.09,6.19 -9.87,5.02 -32.93,-1.1 -36.15,5.98 0.57,3.06 1.24,4.54 0.01,7.2 -10.01,5.93 -32.35,-5.23 -42.06,-3.9 -1.21,2.85 0.76,3.92 1.73,8.8 -7.35,5.28 -34.45,-12.56 -43.68,-9.56 l -1.01,4.06 c -5.15,3.93 -39.177,-7.42 -42.202,-9.73 -20.858,-15.93 -132.328,22.23 -141.778,13.95 l -0.042,-2.09 c 4.113,-4.2 33.334,-7.28 41.033,-8.96 25.258,-5.51 50.914,-10.69 76.114,-16.45 35.26,-8.08 69.485,-25.11 102.105,-40.29 24.04,-11.3 44.04,-16.91 61.83,-37.86 3.89,-4.59 19.23,-25.45 22.36,-26.37 0.64,4.97 1.48,11.41 7.22,12.49 4.28,-2.41 11.24,-16.73 15.51,-22.16 7.8,-9.91 15.83,-19.68 23.59,-29.58 z"
       id="path45" /><path
       fill="#292a2b"
       d="m 1181.69,1564.05 c 4.81,-3.23 8.9,-6.66 14.76,-6.51 3.4,1.23 3.68,2.01 6.09,4.93 11.13,-0.51 21.91,-25.52 36.06,-6.01 10.42,-4.09 34.29,-12.75 40.63,2.27 1.01,12.59 -19.12,19.46 -21.92,27.08 l 0.11,1.25 c 1.44,17.73 -28.62,17.94 -28.62,22.96 0.01,20.89 -21.01,13.51 -35.83,20.34 -1.22,0.56 -0.97,12.5 -7.11,12.48 -16.18,6.28 -30.3,-5.9 -40.85,9.37 -3.23,4.67 -25.95,1.19 -33.27,0.25 -13.37,16.3 -3.71,11.88 -7.94,22.06 -3.52,0.89 -6.41,2.06 -9.82,1.19 l -0.35,-1.27 2.01,-3.45 -0.49,-0.5 c -7.2,2.12 -16.69,4.77 -23.56,7.52 -5.83,2.34 -12.42,10.26 -19.48,10.9 -1.75,-2.93 -1.61,-7.57 -1.86,-11.19 -18.32,11.62 -25.6,15.21 -41.97,29.75 0.41,-4.29 1.36,-9.69 2,-14.05 -20.715,10.23 -29.051,16.15 -52.447,17.03 25.174,-12.22 50.407,-20.43 75.857,-30.74 22.13,-8.97 40.1,-24.99 64.28,-32.57 17.2,-5.4 34.08,5.87 44.91,0.32 0.95,-3.1 -0.64,-4.08 -2.47,-8.06 1,-1.2 0.97,-1.59 3.26,-1.57 17.04,0.21 25.61,1.65 42.78,-1.5 -2,-3.49 -3.56,-5.54 -2.97,-9.19 8.2,-7.32 34.02,-3.78 38.44,-12.55 -1.06,-1.81 -2.18,-3.58 -3.35,-5.31 1.45,-3.63 26.79,-13.64 34.34,-19.8 l -6.89,-6.84 c 7.73,-4.68 22.62,-11.61 26.2,-20.09 -1.88,-14.75 -29.55,-0.2 -37.16,0.29 -4.05,0.26 -1.58,-3.86 -5.35,-7.02 -10.32,-1.2 -25.04,20.04 -32.93,14.21 -0.21,-2.49 -0.14,-3.17 -1.19,-5.52 -8.42,-1.01 -24.42,18.85 -33.1,24.79 l -1.45,-0.86 -0.02,-2.2 c 3,-7.09 14.73,-16.78 20.67,-22.19 z"
       id="path46" /><path
       fill="#fed001"
       d="m 1100.25,1654.2 0.69,0.7 c -1.14,3.96 -4.59,7.89 -6.97,11.26 -13.08,3.12 -25.86,6.04 -37.5,13.09 -1.36,-1.8 -1.36,-1.81 -1.26,-4.06 7.18,-8.33 34.19,-18.48 45.04,-20.99 z"
       id="path47" /><path
       fill="#00c232"
       d="m 710.962,1795.03 12.203,-5.99 c 6.934,18.2 7.235,34.4 15.088,50.74 6.487,13.5 28.265,22.68 37.387,34.73 5.348,7.05 7.434,18.32 11.4,26.26 5.234,10.47 13.752,19.77 21.277,28.71 -16.778,-8.37 -26.524,-13.97 -41.391,-25.44 -5.28,26.14 -8.127,37.42 -26.893,57.82 0.32,-3.24 1.134,-9.92 0.986,-12.83 l -1.887,0.19 c -2.134,-3 -1.379,-9.04 -2.903,-13.44 -0.151,-3.2 0.011,-7.58 0.045,-10.88 -1.24,-21.96 -13.556,-26.99 -23.895,-44.6 -4.567,-7.78 -6.237,-14.5 -8.016,-23.21 -0.638,-5.67 -0.953,-16.25 -0.41,-21.74 0.823,-1.59 1.838,-4.82 2.557,-6.7 l 2.848,0.33 c 1.312,-8.2 1.171,-24.9 1.604,-33.95 z"
       id="path48" /><path
       fill="#292a2b"
       d="m 704.363,1857.09 c 1.163,-3.62 0.536,-3.61 2.961,-5.73 l 0.689,0.62 1.25,-0.03 c 1.483,8.17 3.944,18.81 7.919,26.07 6.24,11.38 20.08,20.91 22.755,33.9 -3.568,4.62 -0.94,8.24 -3.663,12.98 -1.24,-21.96 -13.556,-26.99 -23.895,-44.6 -4.567,-7.78 -6.237,-14.5 -8.016,-23.21 z"
       id="path49" /><path
       fill="#33242b"
       d="m 739.937,1911.92 c 2.869,11.44 2.354,25.41 1.082,37.11 l -1.887,0.19 c -2.134,-3 -1.379,-9.04 -2.903,-13.44 -0.151,-3.2 0.011,-7.58 0.045,-10.88 2.723,-4.74 0.095,-8.36 3.663,-12.98 z"
       id="path50" /><path
       fill="#33242b"
       d="m 703.953,1835.35 c 0.823,-1.59 1.838,-4.82 2.557,-6.7 l 2.848,0.33 c -0.141,7.62 -0.397,15.36 -0.095,22.97 l -1.25,0.03 -0.689,-0.62 c -2.425,2.12 -1.798,2.11 -2.961,5.73 -0.638,-5.67 -0.953,-16.25 -0.41,-21.74 z"
       id="path51" /><path
       fill="#ffffff"
       d="m 263.131,1534 c 5.111,7.9 7.449,9.05 16.957,11.05 l 1.213,0.26 c 0.959,16.11 1.432,34.59 4.072,50.31 -9.656,-15.4 -18.673,-43.44 -23.796,-61.04 z"
       id="path52" /><path
       fill="#747372"
       d="m 258.303,1520.36 1.382,0.55 0.558,-0.87 c 0.633,4.53 1.105,9.85 2.888,13.96 l -1.554,0.58 c -2.269,-5.2 -2.505,-8.58 -3.274,-14.22 z"
       id="path53" /><path
       fill="#fed001"
       d="m 308.616,1545.29 c 0.322,0.07 0.646,0.14 0.967,0.22 37.367,9.54 68.28,36.9 87.643,69.48 8.669,14.59 15.487,30.24 24.109,44.88 6.836,11.61 14.31,22.85 24.392,31.93 25.191,22.69 64.741,29.03 97.072,34.43 11.472,1.92 23.187,3.35 34.454,6.26 1.911,2.23 1.184,4.45 1.062,7.28 -9.707,1.19 -23.109,-3.08 -32.797,-5 -18.547,-3.69 -37.303,-6.26 -55.538,-11.38 -19.935,-5.59 -50.161,-19.53 -69.09,-28.57 -62.612,-29.89 -90.28,-87.52 -112.274,-149.53 z"
       id="path54" /><path
       fill="#fed001"
       d="m 1291.07,1350.88 1.6,1.7 c 2.37,14.22 -4.26,24.11 -7.4,36.84 3.31,1.76 4.68,-1.45 8,0.36 2.65,11.29 -14.87,25.73 -16.1,34.45 2.79,1.73 7.95,2.01 11.44,2.47 -9.92,17.08 -15.99,16.31 -28.41,30.4 -1.27,1.44 -0.88,1.6 -0.6,3.18 2.3,0.72 4.26,1.23 6.6,1.81 l 0.44,1.63 c -4.8,9.3 -28.79,23.24 -38.37,33.23 l 9.17,5.21 c -13.74,12.32 -27.38,17.8 -38.1,25.07 -9.02,6.12 -45.05,53.7 -50.04,62.4 -2.62,5.4 -9.33,10.77 -13.87,14.61 15.08,-36.99 37.94,-53.23 59.4,-84.95 1.44,-2.13 3.46,-30.64 5.34,-37.26 4.34,-4.63 12.05,4.46 11.91,-13.52 -0.06,-7.5 -1.19,-23.71 3.22,-29.27 3.45,-1.11 3.97,-0.16 7.98,1.18 4.01,-2.93 5.3,-30.47 7.65,-39.83 3.33,2.66 6.44,5.66 10.55,5.57 3.05,-2.4 4.93,-12.47 7.6,-17.58 3.73,-7.12 5.9,-10.41 10.45,-16.82 2.41,2.41 5.08,5.49 7.41,8.05 7.46,-13.2 10.77,-21.41 24.13,-28.93 z"
       id="path55" /><path
       fill="#fed001"
       d="m 1286.46,1012.53 c 10.49,3.94 1.59,29.99 9.33,35.96 3.31,-0.92 4.98,-1.43 6.96,1.6 0.44,11.39 -3.93,25.62 -6.81,37.02 l 11.45,-1.01 c -2.8,15.18 -10.49,25.12 -14.22,39.32 -0.05,0.23 3.81,2.06 4.49,4.89 2.66,10.92 -22.9,32.75 -21.44,38.99 2.66,0.9 3.08,0.9 5.09,2.74 0.75,7.09 -20.04,29.01 -25.66,33.55 -4.15,14.37 -6.81,35.72 -9.69,51.19 l -0.75,2.39 -2.16,0.65 -1.88,-1.09 c -2.69,-5.46 6.59,-46.18 5.6,-56.56 -1.25,-13.04 -6.63,-24.71 -6.5,-37.14 2.99,-3.8 5.3,1.13 9.3,-2.37 -0.29,-10.63 -11.52,-39.37 -9.01,-43.39 4.99,-0.93 6.25,3.26 10.39,2.53 1.34,-4.07 -2.95,-23 -3.16,-29.17 -0.23,-6.8 -0.11,-11.25 0.29,-18.16 l 9.28,4.53 c 2.27,-10.77 2.98,-27.05 7.7,-36.42 l 1.33,-0.14 c 1.5,1.77 2.31,3.15 4.49,3.87 5.78,-9.88 1.99,-21.61 15.58,-33.78 z"
       id="path56" /><path
       fill="#fed001"
       d="m 1195.32,750.793 c 8.88,9.166 9.32,29.203 15.06,33.697 2.56,-0.418 2.91,-0.575 5.36,-1.597 l 0.65,-0.276 1.81,1.139 c 5.24,9.999 2.17,30.638 6.99,34.387 2.59,-1.012 3.43,-1.627 6.06,-1.234 7.84,10.044 0.98,37.073 5.31,43.238 2.71,0.035 4.6,0.109 7.29,0.407 6.16,11.317 -9.54,39.997 -9.68,50.865 -0.1,3.233 3.8,25.178 2.03,26.111 -12.45,6.583 -6.32,8.179 -9.19,20.814 l -1.42,0.109 c -3.02,-3.994 -4.16,-7.508 -6.02,-12.141 -2.66,-11.194 -19.6,-26.512 -16.68,-33.828 2.8,0.652 2.99,0.669 5.87,0.696 l 1.15,-1.35 c -0.41,-9.011 -24.65,-26.293 -25.95,-41.865 3.46,-3.373 4.65,0.369 9.6,-2.543 0.79,-9.935 -17.49,-26.459 -14.22,-36.036 2.15,-0.666 3.3,-1.073 5.37,-1.941 3.57,-7.064 -8.4,-29.194 -4.74,-38.471 2.81,0.459 2.7,0.47 5.5,-0.048 7.66,-6.794 0.77,-25.56 9.85,-40.133 z"
       id="path57" /><path
       fill="#fed001"
       d="m 1282.55,1200.57 c 7.59,6.28 3.12,29.42 1.76,38.33 2.78,-2.13 4.5,-3.99 7.88,-4.27 8.66,5.13 -3.16,34.85 -5.82,43.31 3.77,-0.81 7.95,-2.27 11.67,-3.44 -1.72,6.16 -3,10.36 -5.6,16.21 -3.13,7.07 -10.56,17.49 -12.18,24.44 2.21,4.17 3.67,-0.1 7.87,3.89 0.15,13.21 -27.73,30.82 -28.68,39.21 2.19,1.02 2.86,1.17 4.48,3.03 -1.53,4.18 -10.7,8.54 -14.21,13.09 -3.12,4.03 -4.6,7.45 -6.8,11.99 l -4.07,11.42 -6.77,-4 c -0.31,-7.01 -4.59,-36.78 -2.47,-39.69 1.12,-0.1 5.41,-0.44 5.76,-0.9 6.27,-8.43 -7.68,-38 -4.85,-47.72 3.96,-0.96 5.66,4.98 10.38,2.92 2.43,-4.78 -2.46,-35.72 -3.21,-43.78 3.3,1.69 4.26,2.37 7.9,2.7 10.82,-4.37 6.18,-27.44 12.73,-37.82 l 1.64,-0.35 c 2.18,1.21 3.61,2.29 6.08,2.47 7.85,-11.99 2.55,-18.75 16.51,-31.04 z"
       id="path58" /><path
       fill="#f92420"
       d="m 777.357,1639.38 c 12.964,-1.67 28.526,-1.47 40.929,2.49 2.558,2.44 5.443,5.77 6.735,9.12 6.725,17.47 -4.293,56.53 -5.404,76.38 -0.442,7.9 2.133,15.83 2.261,23.75 0.107,6.54 -0.926,17.34 -5.721,22.25 -7.117,7.3 -21.468,13.25 -31.666,12.68 -2.947,-0.16 -3.66,-0.95 -5.417,-3.03 2.386,-5.6 8.863,-8.77 11.483,-15.32 7.435,-18.57 2.623,-33.05 2.18,-51.97 -0.261,-11.11 1.144,-22.68 2.155,-33.76 0.36,-9.82 2.075,-25.18 -4.736,-33.23 -2.497,-2.95 -5.012,-4.19 -8.818,-4.41 -31.307,-1.8 -34.952,41.9 -40.292,63.63 -1.862,7.85 -4.663,15.44 -8.342,22.61 -1.405,2.71 -3.236,6.58 -5.682,8.49 -1.658,1.29 -2.502,1.01 -4.463,0.87 -2.308,-5.45 -4.469,-10.96 -7.833,-15.87 l -0.629,-0.9 c -0.046,-19.24 2.354,-50.27 14.467,-65.84 11.45,-14.72 31.727,-15.9 48.793,-17.94 z"
       id="path59" /><path
       fill="#fed001"
       d="m 213.409,1586.76 c 11.841,1.73 23.87,5.62 35.402,8.88 32.291,9.11 68.896,18.47 94.485,41.45 7.978,7.16 14.713,16.04 22.052,23.87 9.294,9.92 19.574,18.11 30.617,25.99 -14.221,0.41 -29.058,-0.82 -43.038,-3.44 -43.976,-8.24 -86.824,-33.68 -116.787,-66.75 -8.469,-9.34 -15.603,-19.62 -22.731,-30 z"
       id="path60" /><path
       fill="#fed001"
       d="m 228.881,850.833 c 0.312,4.943 -5.677,22.576 -7.301,28.644 -12.855,48.018 -30.049,95.363 -52.194,139.903 -6.513,13.1 -18.324,23.73 -27.762,43.51 l -1.376,0.27 c -0.762,-17.53 -4.345,-26.07 -2.952,-45.79 4.027,-56.995 48.342,-130.692 91.585,-166.537 z"
       id="path61" /><path
       fill="#fed001"
       d="m 1261.98,875.556 c 9.86,6.588 3.79,29.719 10.21,33.961 l 5.17,-2.545 1.85,0.805 c 4.81,9.049 -0.21,27.291 2.69,36.078 2.33,2.163 5.47,2.115 8.8,2.574 -0.83,11.314 -5.42,24.002 -5.67,34.453 -0.03,1.288 8.6,0.455 3.74,13.311 -3.84,10.157 -9.53,15.577 -15.17,24.637 -1.72,2.83 -4.93,12.34 -6.56,16.18 -13.26,3.15 -10.99,20.94 -14.43,31.34 l -1.35,0.11 c -4.19,-11.56 -8.05,-23.23 -11.56,-35.01 3.81,-1.23 8.63,-2.24 12.6,-3.17 -9.25,-17.03 -15.68,-26 -21.35,-44.489 3.82,0.602 7.82,1.883 11.29,0.791 3.36,-10.135 -10.24,-31.274 -6.71,-37.48 3.16,-0.31 3.98,-0.187 6.71,-1.632 4.04,-9.449 -3.79,-22.981 0.22,-38.334 l 1.24,-0.687 4.06,1.345 c 6,-4.669 6.14,-20.77 14.22,-32.238 z"
       id="path62" /><path
       fill="#fed001"
       d="m 1184,1356.7 c 9.34,9.16 7.6,34.44 16.2,36.78 l 4.6,-2.83 1.41,1.22 c 3.67,11.6 0.58,25.76 -0.37,37.57 -0.2,2.49 0.24,2.59 1.6,3.87 2.77,-0.9 4.66,-1.78 7.3,-2.97 -2.33,4.24 -5.51,4.82 -7.4,10.5 -2.7,8.08 -0.22,26.66 -3.25,33.02 -2.24,-0.09 -3.62,-0.36 -5.79,-0.74 -7.26,4.31 -6.34,33.39 -11.02,43.12 -5.5,11.46 -12.8,19.96 -20.46,29.84 l -0.88,0.54 -1.46,-0.36 c -2.75,-6.4 -5.2,-21.28 -6.43,-28.47 4.43,1.16 6.47,2.51 10.46,-0.22 3.79,-9.47 -13.2,-28.1 -12.09,-41.85 2.19,-3.29 2.29,-2.49 6.73,-3.89 2.82,-7.8 -11.62,-24.01 -7.76,-41.24 4.24,-2.02 4.81,1.79 9.14,-0.17 1.56,-9.65 -5.9,-31.76 1.56,-39.39 2.35,0.43 3.79,0.81 6.09,1.47 6.79,-5.29 -0.66,-22.72 11.82,-35.8 z"
       id="path63" /><path
       fill="#fed001"
       d="m 1179.06,1209.31 c 13.82,4.54 13.34,18.76 20.45,28.41 l 1.85,0.22 c 2.27,-1.99 2.96,-3.02 5.8,-3.44 7.82,4.54 6.6,24.53 9.54,34.07 2.69,1.19 3.25,-0.52 7.72,-2.01 l 1.75,0.95 c 4.76,7.83 5.51,21.05 6.76,30.59 -19.98,6.82 -0.87,32.92 -2.09,47.46 -0.26,3 -3.83,1.02 -7.58,3.56 -3.05,7.47 2.24,30.19 2.24,39.46 -0.01,6.14 -0.2,8.58 -1.02,14.83 -2.41,-4.4 -5.02,-8.62 -7.62,-12.9 -5.86,-10.39 -6.86,-15.29 -15.7,-24.63 3.36,-0.5 8.64,-1.22 10.7,-3.96 -7.25,-11.31 -21.28,-22.91 -26.68,-34.73 l -0.47,-1.04 c 4.32,-0.56 9.19,-0.83 13.57,-1.16 -7.33,-11.5 -22.73,-25.01 -27.01,-38.04 -0.27,-0.81 0.37,-1.13 1.18,-2.23 4.16,-1.16 7.78,-0.15 12.13,0.54 -5.48,-8.34 -19.62,-29.89 -12.87,-38.99 2.26,0.21 3.89,0.42 6.13,0.79 1.2,-3.2 -2.59,-23.26 1.22,-37.75 z"
       id="path64" /><path
       fill="#ffffff"
       d="m 676.92,1789.07 c 5.526,3.47 10.219,4.75 16.616,5.7 -23.488,47.19 -6.104,65.92 -11.986,111.33 -2.301,17.78 -11.182,33.65 -11.984,51.72 -10.291,-13.44 -16.01,-24.82 -18.673,-41.49 l -8.512,9.97 c -11.568,9.53 -27.434,14.03 -41.372,19.05 20.52,-21.45 37.171,-46.21 42.647,-75.82 1.924,-10.4 2.368,-21.07 3.879,-31.54 2.999,-20.79 12.533,-36.35 29.385,-48.92 z"
       id="path65" /><path
       fill="#fed001"
       d="m 1180.42,909.304 c 5.9,1.885 10.03,12.834 14.43,17.898 5.29,6.094 11.69,11.932 16.52,18.202 3.52,4.571 5.7,18.555 11.17,21.325 7.79,-0.717 11.14,0.482 12.66,10.391 0.55,3.557 -6.6,2.474 -9.7,6.414 -3.13,10.608 14.16,28.836 16.39,40.836 -3.28,0.51 -3.83,0.59 -6.76,2.12 -4.86,8.75 6.9,28.14 8.6,39.13 1.7,11.05 -2.45,8.74 -2.84,16.36 -0.1,2.16 -0.17,4.33 -0.2,6.5 l -0.53,-2.91 c -2.96,-9.1 -3.89,-17.86 -14.58,-17.74 l -1.32,0.02 c -3.8,-3.72 -5.73,-11.04 -8.8,-16.04 -4.66,-7.62 -24.64,-22.59 -21.08,-31.21 2.47,-1.02 4.58,-1.81 7.11,-2.68 l 0.52,-1.78 c -5.21,-13.35 -21.88,-18.519 -22.55,-30.851 3.04,-1.772 3.54,1.193 8.47,0.321 2.13,-6.659 -16.36,-28.57 -14.34,-38.414 l 3.37,0.082 c 8.6,-5.48 -3.21,-23.642 3.46,-37.974 z"
       id="path66" /><path
       fill="#fed001"
       d="m 108.398,965.497 c 11.073,7.151 25.791,86.503 26.045,102.423 0.399,24.99 1.347,51.53 4.375,76.63 0.395,3.28 -2.084,10.83 -4.387,13.32 -2.688,-1.38 -2.803,-3.17 -4.356,-6.42 -15.588,-31.79 -27.971,-40.06 -34.1558,-77.38 -7.4906,-45.19 -1.2359,-66.36 12.4788,-108.573 z"
       id="path67" /><path
       fill="#fed001"
       d="m 220.647,1177.75 c 1.28,7.93 -1.167,18.45 -1.715,26.62 -2.726,40.71 -11.973,79.18 -30.171,115.8 -5.139,10.34 -10.221,22.18 -17.123,31.54 -2.078,-0.62 -3.68,-3.57 -5.048,-5.49 -5.574,-9.25 -6.069,-24.35 -6.372,-35.24 -1.643,-59.05 23.219,-92.44 60.429,-133.23 z"
       id="path68" /><path
       fill="#fed001"
       d="m 181.736,1389.49 c 2.39,2.81 10.168,25 12.64,30.33 20.04,43.22 44.434,84.56 51.276,132.51 0.732,5.13 2.314,13.95 2.082,18.71 l -1.2,0.14 c -60.56,-46.77 -77.391,-108.28 -64.798,-181.69 z"
       id="path69" /><path
       fill="#fed001"
       d="m 1199.82,1044.38 c 10.39,8.44 14.49,20.45 19.66,32.44 2.31,-2.89 3.46,-5.31 6.49,-6.58 5.2,4.74 11.51,41.75 10.27,42.88 -11.36,10.37 10.3,34.61 4.92,44.3 -3.29,0.53 -3.97,0.39 -6.39,2.45 -2.91,5.91 4.05,30.77 4.33,39.6 0.26,8.49 0.15,14.12 -0.28,22.85 -4.26,-3.93 -8.6,-8.66 -12.63,-12.88 -2.3,-2.75 -4.81,-6.7 -6.88,-9.73 4.26,-0.75 8.75,-2.19 12.93,-3.4 -5.85,-6.5 -28.41,-27.28 -26.63,-35.83 2.88,-0.24 3.74,-0.01 6.64,0.44 2.18,-5.73 -17.62,-22.58 -21.13,-36.45 1.1,-2.79 3.63,-1.96 8.18,-4.55 3.03,-8.38 -14.98,-27.49 -10.53,-36.3 3.02,-0.12 3,-0.11 5.86,-1.05 5.73,-6.61 -0.6,-21.92 5.19,-38.19 z"
       id="path70" /><path
       fill="#fed001"
       d="m 226.548,986.958 1.514,1.17 c -0.709,3.614 -5.687,14.082 -7.426,18.242 -16.037,38.34 -35.315,72.93 -58.942,107.12 -4.032,5.84 -12.906,20.34 -17.422,24.83 -1.646,-17.63 -5.881,-51.43 0.466,-67.22 14.849,-36.93 46.515,-67.57 81.81,-84.142 z"
       id="path71" /><path
       fill="#fed001"
       d="m 242.732,1356.66 c 8.37,7.93 3.604,120.33 6.534,141.82 5.396,39.56 13.809,64.59 30.449,100.62 l -10.537,-4.2 c -2.582,-4.23 -5.498,-10.09 -7.884,-14.56 -8.112,-16.3 -12.701,-50.64 -19.692,-71.12 -10.079,-29.53 -22.673,-49.71 -34.191,-77.03 7.925,-31.94 15.24,-49.85 35.321,-75.53 z"
       id="path72" /><path
       fill="#fed001"
       d="m 78.9792,1262.54 c 8.2163,4.17 71.7858,73.51 80.9098,85.76 6.847,9.19 13.451,19.69 17.879,30.5 -2.346,8.74 -3.206,14.15 -4.355,22.97 -0.334,1.97 -0.143,1.27 -1.175,3.05 -4.413,-0.81 -36.001,-31.77 -41.249,-36.73 -29.066,-27.49 -51.6229,-64.53 -52.0098,-105.55 z"
       id="path73" /><path
       fill="#fed001"
       d="m 92.4803,1469.32 c 19.7047,5.29 86.4557,33.37 97.9907,46.28 4.926,5.51 8.241,12.87 12.612,18.9 12.004,16.55 27.267,32.05 43.408,44.57 -5.729,-1.12 -26.661,-8.33 -32.122,-10.66 -49.52,-21.2 -99.439,-47.63 -121.8887,-99.09 z"
       id="path74" /><path
       fill="#00c232"
       d="m 607.451,1649.36 18.953,0.91 c -2.362,1.54 -4.777,3.1 -6.938,4.92 -14.031,11.79 -18.205,30.06 -12.36,47.19 3.204,9.39 9.568,19.87 9.427,29.95 -0.145,10.33 -9.919,18.47 -10.525,28.98 -0.202,3.49 0.966,7.15 3.568,9.58 6.644,6.19 21.501,4.96 30.068,4.91 -4.905,2.43 -9.585,4.64 -14.861,6.15 -11.949,2.05 -31.864,7.15 -42.323,-0.55 -17.236,-12.7 3.665,-32.79 2.597,-47.85 -0.995,-14.05 -7.768,-27.72 -9.638,-41.91 -1.291,-9.8 -2.011,-22.24 4.474,-30.52 6.434,-8.21 17.762,-10.64 27.558,-11.76 z"
       id="path75" /><path
       fill="#fed001"
       d="m 143.735,1151.89 c 4.486,7.57 17.405,93.54 15.969,104.55 -3.793,29.09 -7.82,44.24 -3.612,77.44 l -6.682,-7.75 c -6.541,-6.85 -13.405,-12.66 -16.534,-21.49 -17.217,-48.62 -10.4,-106.78 10.859,-152.75 z"
       id="path76" /><path
       fill="#fed001"
       d="m 1140.05,1512.48 c 1.27,0.34 1.84,0.66 2.66,1.66 3.6,4.45 -4.65,28.32 -5.35,35.25 l 12.12,-1.35 c -2.66,11.59 -5.45,23.91 -11.87,34.09 -4.31,6.83 -10.83,12.74 -15.97,19 -13.62,16.6 -26.85,38.61 -49.15,43.91 l -0.95,-1.11 c 0.87,-9.42 -1,-24.26 6.24,-31.39 4.85,-1.66 5.01,2.71 9.44,4.08 1.54,-3.72 -1.77,-18.82 -1.78,-24.2 0,-7.46 1.47,-14.53 2.92,-21.82 3.35,2.31 6.38,5.08 9.47,7.72 3.98,-12.35 5.41,-27.33 12.45,-38.32 2.93,0.39 2.68,3.94 5.31,5.43 8.86,-10.47 13.8,-23.94 24.46,-32.95 z"
       id="path77" /><path
       fill="#fed001"
       d="m 109.935,1371.6 c 6.598,4.98 13.747,15.18 19.407,21.8 19.296,22.57 36.547,49.8 45.691,78.15 3.377,10.46 6.383,21.26 9.403,31.6 -15.928,-9.17 -34.873,-15.23 -45.793,-29.16 -22.82,-28.95 -33.153,-65.8 -28.708,-102.39 z"
       id="path78" /><path
       fill="#fed001"
       d="m 430.787,1716.4 c 15.85,-0.69 25.51,0.02 39.963,6.76 -39.048,16.88 -73.29,42.93 -117.998,40.3 -14.935,-0.72 -28.923,-4.55 -43.205,-8.7 37.643,-18.48 79.157,-34.62 121.24,-38.36 z"
       id="path79" /><path
       fill="#fed001"
       d="m 1030.07,1623.92 2.91,0.47 0.82,1.61 c -1.52,8.69 -11.94,19.2 -17.36,26.34 4.41,1.3 8.76,2.76 13.11,4.23 -8.88,10.99 -22.61,21.19 -35.426,26.85 -11.414,5.05 -73.716,27.33 -83.482,23.52 l 0.216,-1.98 c 5.047,-9.6 10.43,-18.58 18.293,-26.19 l 7.745,10.21 c 9.856,-9.1 15.856,-23.8 22.815,-35.26 1.826,3.02 3.245,6.14 6.523,7.76 8.24,-1.58 17.269,-17.56 23.843,-23.33 2.249,-1.98 5.389,-4 8.392,-3.79 0.43,1.69 0.792,2.92 1.711,4.43 5.52,0.54 21.65,-12.13 29.89,-14.87 z"
       id="path80" /><path
       fill="#fed001"
       d="m 75.2457,1078.48 c 13.6088,7.74 48.4413,72.8 54.9213,89.92 -4.088,13.44 -6.727,21.72 -8.957,35.65 l -1.906,11.61 C 86.9923,1172.68 71.6224,1133.29 75.2457,1078.48 Z"
       id="path81" /><path
       fill="#f92420"
       d="m 667.706,1762.87 c 3.042,3.18 5.089,13.34 6.482,17.82 -15.722,14.08 -33.457,25.76 -50.268,38.47 -26.375,19.95 -52.446,40.49 -79.398,59.64 l -1.612,1.36 -1.126,-0.36 c -2.172,-7.12 -0.017,-19.8 0.309,-27.48 28.027,-21.31 57.989,-40.46 86.827,-60.66 13.211,-9.26 26.612,-18.17 38.786,-28.79 z"
       id="path82" /><path
       fill="#f92420"
       d="m 724.588,1774.53 c 5.277,2.31 12.387,11.68 16.869,15.84 8.651,8.04 21.3,14.5 31.28,20.94 23.063,14.86 46.378,29.45 69.038,44.93 0.411,10.48 0.58,20.97 0.506,31.46 -12.863,-7.35 -25.256,-17.03 -37.463,-25.45 -22.377,-15.43 -46.361,-30.92 -66.944,-48.66 -3.294,-10.86 -12.475,-29.77 -13.286,-39.06 z"
       id="path83" /><path
       fill="#ffffff"
       d="m 636.955,1654.24 c 3.771,-0.13 7.454,0.26 10.971,1.68 27.432,11.05 18.823,42.38 27.991,64.03 0.375,0.89 0.763,1.73 1.037,2.66 0.127,0.43 1.011,3.51 0.874,3.75 -0.428,0.74 -3.694,2.37 -4.457,2.82 -3.166,1.84 -4.891,6.42 -6.708,9.65 -2.487,-0.38 -5.384,-3.66 -7.366,-5.33 -9.441,-9.16 -15.075,-19.5 -22.632,-30.01 -7.101,-9.88 -14.498,-13 -26.2,-14.88 0.669,-8.12 2.229,-15.96 6.963,-22.78 4.896,-7.05 11.257,-10.13 19.527,-11.59 z"
       id="path84" /><path
       fill="#ffffff"
       d="m 772.991,1651.09 c 3.737,-0.37 8.843,-1.24 11.851,1.44 8.608,7.68 1.367,64.05 1.588,78 -12.461,1.04 -25.167,3.94 -37.497,6.15 -4.72,0.79 -9.527,1.27 -14.276,1.88 11.938,-16.53 12.02,-35.27 16.987,-54.25 3.564,-13.62 8.875,-25.83 21.347,-33.22 z"
       id="path85" /><path
       fill="#fed001"
       d="m 294.59,1670.29 c 1.008,0.04 35.103,13.38 42.141,15.22 18.458,4.83 37.002,6.31 55.897,8.37 -21.882,2.33 -43.588,6.36 -65.511,8.71 -30.733,4.1 -65.214,1.21 -95.427,-5.33 18.722,-14.46 39.631,-23.1 62.9,-26.97 z"
       id="path86" /><path
       fill="#fed001"
       d="m 214.399,780.66 c 1.231,4.321 -1.724,21.563 -2.224,27.677 -1.281,15.637 -2.374,35.926 -6.112,50.841 -2.986,11.912 -17.649,25.257 -25.167,36.162 -7.377,10.701 -12.213,18.392 -18.594,29.928 -1.165,-7.299 3.279,-24.015 4.97,-31.611 10.063,-45.211 21.289,-74.355 47.127,-112.997 z"
       id="path87" /><path
       fill="#00c232"
       d="m 703.246,1729.39 c 2.964,-0.26 3.99,-0.54 6.755,0.72 7.882,8.79 9.246,32.64 8.956,44.09 -0.076,3.04 -0.408,8.73 -2.763,10.85 -6.085,5.46 -18.775,3.89 -26.476,3.69 -1.8,-0.8 -3.878,-1.67 -5.421,-2.93 -6.791,-5.54 -10.596,-23.81 -11.581,-32.06 -0.685,-5.74 -0.729,-13.27 3.24,-17.92 5.063,-5.94 20.01,-5.66 27.29,-6.44 z"
       id="path88" /><path
       fill="#ffffff"
       d="m 299.157,1540.09 c 3.259,2.61 16.017,40.18 19.133,47.45 4.849,11.35 10.246,22.46 16.17,33.3 l -0.422,1.19 -2.55,-1.18 c -9.528,-6.04 -19.721,-10.59 -29.96,-15.26 -2.258,-20.28 -7.163,-40.57 -11.209,-60.55 z"
       id="path89" /><path
       fill="#ffffff"
       d="m 1184.83,1202.81 c 9.62,2.35 12.47,2.84 22.06,0.64 8.36,11.92 20.39,26.35 29.48,38.41 l -3.17,22.37 c -4.37,-3.78 -5.74,-4.2 -11.2,-6.3 -5.4,-9.76 -1.94,-25.56 -12.71,-30.89 -4.59,-0.19 -3.47,0.01 -7.97,2.25 -5.07,-14.05 -6.17,-16.19 -16.49,-26.48 z"
       id="path90" /><path
       fill="#fed001"
       d="m 200.839,1106.53 c 5.936,-1.49 12.206,0.41 16.327,4.93 4.121,4.52 5.429,10.94 3.405,16.71 -2.023,5.78 -7.052,9.97 -13.094,10.93 -8.798,1.4 -17.134,-4.38 -18.913,-13.11 -1.778,-8.73 3.633,-17.31 12.275,-19.46 z"
       id="path91" /><path
       fill="#fed001"
       d="m 222.595,925.477 c 8.818,-2.549 18.023,2.577 20.501,11.416 2.478,8.838 -2.722,18.003 -11.58,20.41 -8.758,2.379 -17.797,-2.749 -20.247,-11.488 -2.45,-8.739 2.606,-17.819 11.326,-20.338 z"
       id="path92" /><path
       fill="#fed001"
       d="m 481.82,1762.93 c 1.954,-0.23 3.98,-0.46 5.948,-0.25 5.488,0.58 11.287,2.59 14.704,7.15 2.468,3.29 3.276,7.21 2.537,11.24 -1.207,6.57 -5.505,10.17 -10.714,13.63 -1.794,0.51 -3.615,1 -5.49,1.05 -4.37,0.11 -8.921,-1.56 -11.949,-4.76 -3.145,-3.33 -4.415,-8.1 -4.062,-12.6 0.546,-6.97 4.046,-11.04 9.026,-15.46 z"
       id="path93" /><path
       fill="#fed001"
       d="m 226.877,1294.41 c 8.487,-2.8 17.641,1.77 20.512,10.23 2.87,8.46 -1.616,17.66 -10.052,20.6 -8.543,2.99 -17.88,-1.57 -20.787,-10.14 -2.906,-8.57 1.732,-17.86 10.327,-20.69 z"
       id="path94" /><path
       fill="#fed001"
       d="m 495.464,1641.58 c 8.455,-2.58 17.427,2.06 20.198,10.46 2.772,8.39 -1.673,17.47 -10.006,20.42 -5.556,1.97 -11.745,0.78 -16.173,-3.11 -4.429,-3.89 -6.404,-9.88 -5.163,-15.64 1.242,-5.76 5.506,-10.4 11.144,-12.13 z"
       id="path95" /><path
       fill="#fed001"
       d="m 277.039,1508.1 c 3.303,-0.25 6.792,-0.67 9.997,0.37 4.74,1.55 8.857,5.3 10.949,9.81 1.713,3.69 1.937,7.83 0.342,11.6 -2.05,4.85 -5.51,7.21 -10.134,9.16 -2.745,0.17 -5.537,0.37 -8.269,-0.05 -4.483,-0.68 -8.649,-3.03 -11.276,-6.78 -2.272,-3.24 -3.002,-7.12 -2.168,-10.98 1.369,-6.33 5.394,-9.84 10.559,-13.13 z"
       id="path96" /><path
       fill="#fed001"
       d="m 192.241,1618.06 c 2.419,-0.03 4.731,0.21 7.084,0.77 4.742,1.13 9.248,3.91 11.724,8.2 1.942,3.36 2.333,7.28 1.201,10.99 -1.847,6.05 -6.269,8.92 -11.455,11.78 -3.178,0.3 -6.771,0.45 -9.821,-0.6 -4.28,-1.46 -7.779,-4.61 -9.685,-8.71 -1.833,-3.94 -1.918,-8.48 -0.235,-12.49 2.251,-5.49 6.009,-7.78 11.187,-9.94 z"
       id="path97" /><path
       fill="#fed001"
       d="m 74.0292,1201.52 c 8.1546,-3.11 17.2888,0.94 20.4667,9.06 3.1779,8.13 -0.7883,17.3 -8.8869,20.55 -8.2003,3.29 -17.5103,-0.74 -20.7281,-8.97 -3.2178,-8.22 0.8911,-17.5 9.1483,-20.64 z"
       id="path98" /><path
       fill="#ffffff"
       d="m 611.121,1694.4 c 17.64,2.2 23.577,16.48 32.676,29.7 3.547,5.15 7.75,9.57 12.085,14.05 -10.829,-1.55 -21.634,-3.27 -32.412,-5.14 -1.861,-13.85 -9.103,-25.21 -12.349,-38.61 z"
       id="path99" /><path
       fill="#fed001"
       d="m 128.064,837.092 c 21.71,-1.358 26.887,19.585 6.614,29.533 -19.605,2.597 -27.638,-19.512 -6.614,-29.533 z"
       id="path100" /><path
       fill="#fed001"
       d="m 103.292,900.257 c 8.078,-2.097 16.352,2.644 18.628,10.674 2.275,8.031 -2.282,16.407 -10.26,18.86 -5.32,1.635 -11.108,0.263 -15.1282,-3.587 -4.0198,-3.849 -5.6414,-9.572 -4.2383,-14.958 1.4032,-5.386 5.6114,-9.59 10.9985,-10.989 z"
       id="path101" /><path
       fill="#ffffff"
       d="m 1039.44,1630.02 c 1.38,2.37 2.96,4.85 4.94,6.77 4.55,4.41 10.31,3.96 16.16,3.98 -1.56,5.11 -3.58,9.89 -5.75,14.77 -5.06,2.76 -10.49,5.04 -15.71,7.5 l -10.33,4.62 c 2.28,-2.94 6.48,-7.54 5.81,-11.49 -0.65,-3.87 -4.37,-6.32 -7.23,-8.63 4.87,-5.39 8.55,-11.23 12.11,-17.52 z"
       id="path102" /><path
       fill="#ffffff"
       d="m 614.928,1752.04 c 15.971,2.62 32.015,4.89 48.019,7.31 l -8.233,5.09 c -9.056,4.4 -23.636,7.71 -33.597,5.17 -2.964,-0.75 -5.878,-2.14 -7.406,-4.94 -2.084,-3.82 -0.137,-8.86 1.217,-12.63 z"
       id="path103" /><path
       fill="#ffffff"
       d="m 722.674,1759.59 c 5.816,0.17 10.525,1.88 15.943,3.81 16.661,5.96 27.445,8.11 44.986,4.57 l -5.131,7.1 c -2.88,2.71 -6.245,4.67 -9.574,6.77 -12.343,-0.78 -23.72,-3.12 -34.398,-9.76 -5.349,-3.33 -10.279,-6.04 -11.826,-12.49 z"
       id="path104" /><path
       fill="#fed001"
       d="m 902.389,1626.78 c 1.124,0.21 2.034,0.76 3.054,1.26 2.632,3.53 4.13,7.37 5.197,11.62 1.119,4.47 2.383,10.08 -0.063,14.25 -4.12,1.16 -10.925,-0.87 -15.233,-1.59 l -11.801,-1.83 c 4.63,-10.4 9.248,-17.4 18.846,-23.71 z"
       id="path105" /><path
       fill="#fed001"
       d="m 781.146,1737.35 c 0.774,-0.16 1.556,-0.34 2.349,-0.37 3.354,-0.17 3.737,0.15 6.166,2.3 0.094,1.43 0.317,1.17 -0.506,2.35 -3.864,5.52 -51.009,10.07 -59.912,10.8 -1.673,0.33 -2.903,0.15 -4.568,-0.08 -1.757,-1.69 -2.32,-1.7 -2.374,-4.22 7.495,-5.1 47.398,-9.04 58.845,-10.78 z"
       id="path106" /><path
       fill="#fed001"
       d="m 1118.86,1465.24 c 7.47,1.74 21.68,13.79 21.93,21.53 -2.1,2.72 -4.63,2.7 -8.53,3.91 l -14.7,4.72 c -1.68,-12.03 -3.09,-18.95 1.3,-30.16 z"
       id="path107" /><path
       fill="#fed001"
       d="m 1270.21,806.792 2.75,0.444 c 7.66,5.705 4.52,19.745 2.25,27.52 l -9.48,-4.102 c -4.96,-1.966 -10.35,-4.914 -15.15,-7.379 7.06,-9.227 9.25,-10.938 19.63,-16.483 z"
       id="path108" /><path
       fill="#fed001"
       d="m 1176.25,1163.86 c 10.97,1.07 15.47,3.66 23.72,11.03 l -8.85,8.8 c -3.08,2.92 -6.75,5.96 -10,8.76 -4.41,-8.85 -8.15,-18.82 -4.87,-28.59 z"
       id="path109" /><path
       fill="#ffffff"
       d="m 785.19,1750.35 c 1.734,-0.07 1.448,0.08 2.668,1.13 0.057,1.33 0.143,2.62 -0.263,3.91 -0.869,2.77 -3.088,4.55 -5.567,5.85 -10.703,5.65 -22.324,3.5 -33.344,0.1 -3.014,-1.36 -6.327,-2.41 -9.43,-3.58 z"
       id="path110" /><path
       fill="#fed001"
       d="m 1049.94,1592.75 c 5.23,2.64 11.1,7.52 14.2,12.56 1.47,2.4 1.67,4.43 1.06,7.12 -2.63,2.3 -5.26,2.33 -8.62,3.02 l -14.94,4.05 c 0.74,-10 2.31,-18.52 8.3,-26.75 z"
       id="path111" /><path
       fill="#fed001"
       d="m 622.004,1738.67 c 10.826,2.3 36.576,2.88 43.796,9.99 0.724,2.29 0.786,2.52 0.108,4.8 -5.602,-0.52 -44.459,-5.14 -46.796,-7.35 z"
       id="path112" /><path
       fill="#fed001"
       d="m 1305.55,1154.33 c 7.16,-0.6 17.55,-3.04 21.63,4.03 -0.16,5.69 -4.06,9.06 -7.87,13.11 l -8.29,6.54 c -1.91,-5.17 -7.09,-17.73 -7.31,-22.04 z"
       id="path113" /><path
       fill="#fed001"
       d="m 920.919,1768.81 c 3.441,3.57 8.127,12.35 8.477,17.27 0.214,3.02 -0.577,4.46 -2.397,6.61 -3.605,1.25 -7.082,0.26 -10.738,-0.37 -4.58,-1.42 -8.717,-3.69 -12.959,-5.88 6.143,-5.5 11.825,-11.75 17.617,-17.63 z"
       id="path114" /><path
       fill="#fed001"
       d="m 1156.59,1000.31 c 6.01,-0.28 11.52,0.68 17.45,1.49 -3.09,8.16 -5.24,13.01 -9.2,20.78 l -1.39,0.04 c -6.61,-3.88 -15.36,-10.71 -13.7,-19.31 2.46,-2.86 2.55,-2.13 6.84,-3 z"
       id="path115" /><path
       fill="#fed001"
       d="m 1316.45,922.73 c 0.85,-0.016 2.25,0.499 3.08,0.742 3.86,4.943 6.09,18.434 1.65,23.825 -3.11,0.88 -3.62,-0.291 -7.23,-2.222 -3.79,-2.135 -10.26,-4.85 -14.4,-6.733 5.68,-7.714 8.86,-10.404 16.9,-15.612 z"
       id="path116" /><path
       fill="#fed001"
       d="m 1257.27,1506.06 c 6.2,-0.65 14.3,-0.99 20.17,1.48 2.79,1.17 3.32,2.16 4.43,4.74 -0.6,3.52 -3.05,5.34 -5.49,7.72 -3.81,3.12 -8.05,5.74 -12.15,8.45 -2.66,-7.39 -5.44,-14.66 -6.96,-22.39 z"
       id="path117" /><path
       fill="#f92420"
       d="m 1247.36,830.402 c 4.96,2.401 22.01,7.16 22.39,12.101 l -3.05,2.892 c -16.14,7.6 -20.48,0.571 -19.34,-14.993 z"
       id="path118" /><path
       fill="#f92420"
       d="m 1181.58,1003.59 c 3.83,2.8 5.12,4.72 8.05,8.42 -2.61,7.74 -0.99,12.51 -8.41,16.35 -13.43,-1.63 -8.29,-6.83 -3.97,-16.04 1.36,-2.92 2.9,-5.84 4.33,-8.73 z"
       id="path119" /><path
       fill="#f92420"
       d="m 881.317,1656.64 c 6.516,0.85 13.779,1.65 20.102,3.4 2.384,0.65 4.333,1.1 5.572,3.31 l -2.446,3.38 c -2.175,1.46 -4.615,2.9 -7.12,3.69 -3.056,0.97 -6.488,0.84 -9.256,-0.86 -4.601,-2.83 -5.688,-8.07 -6.852,-12.92 z"
       id="path120" /><path
       fill="#f92420"
       d="m 1204.6,1179.66 c 11.36,10.48 2.05,18.76 -10.01,19.61 -2.56,-0.72 -2.88,-0.81 -5.23,-2 -0.04,-4.47 10.84,-13.03 15.24,-17.61 z"
       id="path121" /><path
       fill="#f92420"
       d="m 1060.68,1622.19 c 1.37,-0.16 2.81,-0.03 4.2,-0.01 1.48,1.73 2.11,2.81 2.01,5.2 -0.08,2.11 -1.7,4.33 -3.15,5.74 -2.86,2.79 -7.22,2.27 -10.94,2.29 -3.9,-2.74 -6.09,-5.55 -8.71,-9.48 z"
       id="path122" /><path
       fill="#f92420"
       d="m 1248.37,1509.63 c 2.05,0.88 2.64,1.96 3.55,3.98 1.72,3.83 5.88,12.96 3.91,17.21 -0.65,1.41 -2.89,1.88 -4.3,2.48 -1.7,-1.22 -3.47,-2.47 -4.94,-3.95 -2.48,-2.48 -4.51,-5.67 -4.38,-9.29 0.17,-4.53 3.21,-7.42 6.16,-10.43 z"
       id="path123" /><path
       fill="#f92420"
       d="m 1294.21,1158.57 c 5.27,0.83 9.67,16.92 9.08,21.82 l -3.1,2.01 c -11.08,-5.3 -15.11,-14.09 -5.98,-23.83 z"
       id="path124" /><path
       fill="#f92420"
       d="m 1140.67,1495.1 2.34,0.22 0.91,1.7 c -0.16,2.67 -0.85,4.58 -2.7,6.57 -4.13,4.44 -7.99,4.97 -13.74,4.98 -1.79,-1.17 -3.91,-2.31 -5.05,-4.19 -0.84,-1.4 -0.45,-1.57 -0.11,-3.07 4.08,-3.59 13.13,-4.76 18.35,-6.21 z"
       id="path125" /><path
       fill="#f92420"
       d="m 905.498,1761.97 c 1.317,-0.03 2.719,-0.1 4.023,0.09 2.344,0.33 3.16,0.7 4.442,2.6 -1.352,4.85 -8.135,10.13 -11.629,13.71 -1.765,1.66 -1.919,2.06 -4.412,2.36 l -1.433,-1.63 c -0.483,-1.7 -0.662,-3.1 -0.38,-4.87 0.98,-6.14 4.66,-8.8 9.389,-12.26 z"
       id="path126" /><path
       fill="#f92420"
       d="m 1298.85,945.562 c 5.2,2.565 14.99,6.849 18.4,10.826 l -0.67,2.336 c -12.96,6.589 -20.35,0.965 -17.73,-13.162 z"
       id="path127" /><path
       fill="#fed001"
       d="m 182.568,1159.8 c 1.118,4.97 -18.418,39.02 -21.993,45.53 -2.43,-8.75 16.716,-36.81 21.993,-45.53 z"
       id="path128" /><path
       fill="#ffffff"
       d="m 1214.33,1400.65 c 2.56,2.03 5.89,7.63 7.84,10.6 -0.09,3.57 -0.58,8.17 -0.87,11.82 l -5.3,-0.01 c -3.4,-3.78 -1.45,-15.53 -1.67,-22.41 z"
       id="path129" /><path
       fill="#fed001"
       d="m 209.453,1353.03 c -0.497,7.29 -14.403,35.91 -18.412,43.37 -3.083,-9.44 13.061,-34.06 18.412,-43.37 z"
       id="path130" /><path
       fill="#ffffff"
       d="m 1150.1,1522.6 c 0.41,0.81 0.78,1.57 1.08,2.43 3.01,8.56 8.25,22.88 4.05,31.38 l 0.31,-2.64 c 0.07,-0.36 0.15,-0.71 0.21,-1.06 1.66,-10.27 -4.76,-6.78 -8.5,-11.72 -0.79,-6.26 1.4,-12.33 2.85,-18.39 z"
       id="path131" /><path
       fill="#ffffff"
       d="m 1237.95,1510.07 0.57,0.67 c -0.78,3.35 -1.52,6.71 -2.22,10.07 -7.08,1.28 -14.09,3.45 -21.04,5.3 l -0.79,-0.61 c 3.18,-4.43 17.97,-11.7 23.48,-15.43 z"
       id="path132" /><path
       fill="#937c20"
       d="m 1234.14,1527.09 1.07,-0.13 0.94,0.83 c -4.66,3.69 -29.94,9.09 -36.97,10.43 l -1.69,0.91 -0.15,-1.25 c 5.23,-4.82 28.79,-8.55 36.8,-10.79 z"
       id="path133" /><path
       fill="#fed001"
       d="m 288.126,1565.68 c 3.775,11.27 6.258,25.82 6.853,37.64 -0.363,-0.25 -0.753,-0.46 -1.09,-0.74 -3.755,-3.16 -5.871,-31.16 -5.763,-36.9 z"
       id="path134" /><path
       fill="#fed001"
       d="m 508.536,1687.68 c 5.168,3.77 13.904,23.31 16.123,29.76 -0.289,-0.11 -0.587,-0.19 -0.866,-0.32 -6.084,-2.84 -12.721,-23.25 -15.257,-29.44 z"
       id="path135" /><path
       fill="#fed001"
       d="m 102.075,1246.93 c 3.501,2.89 16.782,21.17 17.756,26.45 -6.108,-3.5 -14.845,-19.73 -17.756,-26.45 z"
       id="path136" /><path
       fill="#937c20"
       d="m 129.499,945.653 c 3.897,2.437 12.355,18.747 13.793,23.684 -5.656,-3.253 -11.003,-17.392 -13.793,-23.684 z"
       id="path137" /><path
       fill="#fed001"
       d="m 884.658,1751.43 c -5.031,-4.92 -10.532,-9.81 -14.228,-15.75 4.541,1.73 12.493,11.06 15.975,15.08 z"
       id="path138" /><path
       fill="#fed001"
       d="m 148.959,890.906 c 4.134,5.218 9.175,10.541 9.211,17.309 -3.592,-2.853 -7.703,-12.77 -9.211,-17.309 z"
       id="path139" /><path
       fill="#937c20"
       d="m 886.405,1750.76 c 2.333,2.57 6.567,6.94 6.986,10.22 -3.686,-2.07 -6.1,-6.05 -8.733,-9.55 z"
       id="path140" /><path
       fill="#292a2b"
       d="m 721.524,106.205 c 16.413,0.164 21.416,5.711 25.656,20.69 23.263,-16.754 30.148,-4.441 33.652,17.807 1.857,3.01 3.796,3.174 6.666,4.379 13.917,3.732 2.234,22.093 2.626,22.617 5.69,7.602 27.259,25.09 -4.302,31.884 -1.279,3.745 6.492,10.733 3.878,18.081 -4.461,12.539 -18.114,12.139 -28.618,9.876 1.559,4.726 4.023,12.476 7.704,15.63 29.709,25.454 69.099,16.087 93.954,-7.51 -23.373,1.294 -38.511,-5.735 -23.909,-31.347 -17.593,-7.016 -24.125,-29.988 -3.1,-36.073 3.334,-6.007 -15.777,-35.639 18.236,-29.999 0.31,-7.914 0.554,-15.879 6.001,-22.035 2.471,-2.813 6.071,-4.372 9.813,-4.251 7.704,0.209 13.797,5.743 18.859,10.782 0.828,-1.376 1.689,-2.732 2.582,-4.066 5.913,-8.755 19.103,-15.471 28.87,-8.112 5.591,4.213 5.949,9.543 6.81,15.99 25.912,-12.546 39.291,2.637 25.397,27.388 24.756,9.023 30.395,28.701 7.147,44.399 12.552,15.223 11.946,28.573 -9.755,32.032 -6.365,1.014 -1.858,37.464 -32.203,15.728 3.643,9.05 7.425,17.161 16.192,22.062 27.895,15.594 51.343,-7.663 63.868,-29.342 -7.709,-14.894 -12.726,-40.377 4.972,-46.759 36.86,-13.291 17.06,-22.67 22.85,-35.853 11.18,-6.807 17.4,6.133 22,13.801 8.67,2.356 19.82,2.523 26.21,9.867 8.27,9.503 9.75,25.028 6.84,36.892 -1.48,6.018 -4.02,10.12 -8.56,14.225 -7.09,0.585 -6.86,-12.294 -14.4,-14.796 -8.16,2.945 -9.98,18.947 -15.53,26.061 -4.03,5.566 -13.22,12.701 -15.99,19.001 -10.92,24.836 -16.01,35.892 -36.831,53.774 17.681,19.476 1.253,32.49 -17.134,38.661 -4.297,17.728 -8.556,34.373 -11.509,52.426 35.029,27.34 -0.881,52.273 -27.917,63.351 -68.078,27.895 -147.887,31.33 -220.799,29.576 -77.732,-0.29 -201.534,-3.263 -267.814,-50.488 -17.157,-12.225 -11.854,-31.076 2.531,-44.199 -2.349,-12.076 -7.978,-45.073 -11.234,-54.441 -0.376,-1.082 -41.036,-17.912 -8.388,-39.917 -24.795,-23.71 -31.536,-39.218 -38.318,-72.869 -5.059,-25.099 -12.692,-31.979 -30.824,-12.142 l -1.474,-0.498 c -5.7,-5.708 -7.513,-11.47 -7.754,-19.369 -0.756,-24.757 14.146,-35.213 36.886,-36.138 5.693,-9.954 17.322,-26.393 30.958,-12.045 6.028,6.343 4.009,16.894 2.966,25.055 29.298,6.234 36.993,35.38 12.809,53.297 4.928,8.994 10.827,18.178 18.912,24.666 8.758,7.126 20.042,10.374 31.249,8.995 14.594,-1.77 21.498,-8.702 29.803,-19.512 -1.652,0.374 -3.313,0.705 -4.983,0.99 -17.265,2.873 -19.564,-6.609 -21.428,-20.914 -25.21,-0.5 -25.236,-18.835 -14.047,-35.809 -7.749,-3.904 -13.223,-7.335 -14.658,-16.758 -0.692,-4.68 0.544,-9.44 3.426,-13.192 4.745,-6.277 9.568,-6.859 16.672,-8.029 -4.187,-8.671 -7.266,-18.159 -0.884,-26.882 2.596,-3.601 6.633,-5.89 11.056,-6.271 7.811,-0.739 13.371,3.008 19.083,7.597 3.363,-7.922 5.611,-13.37 12.717,-18.438 5.282,-3.769 11.894,-5.173 18.252,-3.874 8.563,1.826 12.277,6.615 16.586,13.462 21.846,-19.657 24.151,0.539 25.057,18.707 1.806,-0.548 3.638,-1.009 5.489,-1.381 20.939,-4.281 24.866,12.55 11.847,28.056 15.653,9.264 20.436,23.217 1.197,32.059 17.735,22.296 1.853,34.963 -22.649,24.937 2.301,6.553 4.357,12.626 9.313,17.706 19.438,19.925 56.456,17.484 79.971,7.061 7.69,-3.409 12.916,-7.901 18.809,-13.411 -7.177,-0.346 -13.281,-1.407 -19.254,-5.81 -10.816,-7.974 -1.173,-19.124 -2.164,-27.212 -23.472,-15.504 -21.396,-29.907 5.287,-38.586 -3.765,-3.655 -7.777,-8.909 -8.457,-14.24 -0.349,-2.626 0.385,-5.282 2.034,-7.356 3.406,-4.296 8.333,-4.61 13.35,-5.202 2.018,-21.143 9.456,-34.935 30.777,-17.525 4.274,-10.722 5.077,-14.016 17.067,-16.917 z"
       id="path141" /><path
       fill="#fed001"
       d="m 721.553,112.232 c 20.264,1.057 18.755,12.815 20.863,29.507 5.378,-6.21 23.398,-25.327 31.445,-7.441 2.53,5.623 -2.802,14.784 -5.826,20.042 6.701,-0.883 14.222,-2.936 18.466,3.435 0.396,7.074 -7.62,14.885 -12.114,20.635 7.343,0.442 20.586,0.248 21.921,10.264 -2.497,7.617 -14.934,8.261 -19.001,11.907 -3.58,3.209 11.872,16.245 2.651,25.351 -10.629,3.545 -15.195,-2.942 -24.723,-3.247 l -1.191,1.22 c -0.842,5.878 3.818,19.043 7.183,23.605 18.897,25.299 67.298,26.649 91.492,8.377 6.725,-5.079 29.227,-26.326 22.695,-34.824 -4.603,1.065 -6.957,7.148 -11.934,10.276 -9.746,6.127 -26.099,3.108 -22.635,-11.264 1.84,-7.634 9.295,-11.305 15.799,-15.142 -5.478,-1.624 -19.922,-2.582 -22.364,-6.191 -15.383,-22.741 8.946,-21.51 19.803,-21.892 -1.967,-1.71 -8.929,-7.46 -9.947,-9.187 -13.695,-23.252 3.682,-21.018 18.402,-15.939 -1.028,-4.339 -1.684,-8.757 -1.962,-13.207 -0.251,-4.479 1.008,-13.241 4.402,-16.134 7.796,-6.646 20.042,12.358 23.964,17.26 0.41,-0.046 0.82,-0.092 1.23,-0.138 2.467,-8.601 15.228,-30.443 26.286,-20.032 5.27,4.961 3.953,14.71 3.779,22.946 6.708,-4.267 25.534,-17.47 30.268,-4.95 2.549,6.743 -4.04,20.504 -6.657,27.086 8.952,1.138 28.04,4.374 23.519,18.38 -3.039,9.416 -14.367,14.113 -22.687,18.29 9.887,4.412 18.366,10.463 15.28,22.739 -7.347,8.822 -19.997,-2.355 -27.332,0.451 l -0.647,1.627 c 1.405,4.776 7.595,8.869 8.787,12.648 2.123,6.735 -6.377,13.257 -13.504,9.756 -5.872,-2.884 -12.126,-7.309 -18.235,-11.051 4.678,30.266 20.955,53.234 55.803,43.849 19.641,-5.29 31.704,-23.259 40.518,-40.63 -4.16,-5.049 -8.881,-13.887 -9.015,-20.528 -0.617,-20.476 19.875,-19.741 31.325,-32.272 8.15,-8.923 3.58,-17.268 5.86,-21.69 2.96,2.37 7.23,9.835 9.48,13.386 4.6,1.706 9.53,1.831 14.25,3.214 20.44,5.988 20.66,22.417 16.01,39.794 -3.63,0.544 -7.75,-6.485 -14.08,-7.934 -13.78,-3.159 -16.29,19.019 -22.26,27.472 -4.23,6.456 -13.33,13.251 -16.68,20.021 -11.32,22.879 -14.12,38.428 -37.246,52.86 -93.533,-25.552 -167.019,-31.084 -264.837,-32.497 -33.236,-0.477 -66.603,1.959 -99.755,2.972 -64.878,1.983 -122.829,11.712 -185.612,27.028 -8.746,-9.352 -22.471,-24.039 -27.767,-35.054 -8.8,-18.199 -7.201,-43.023 -19.163,-59.343 -8.29,-11.31 -20.494,-6.093 -28.996,1.252 -4.609,-24.144 2.874,-43.601 31.121,-38.678 4.994,-9.242 8.233,-19.501 20.46,-18.892 10.394,5.852 1.587,26.171 5.316,27.327 23.263,7.213 42,31.585 10.111,46.766 15.285,35.534 51.525,62.28 87.586,28.146 4.891,-4.629 11.683,-18.566 11.208,-25.413 -6.892,-0.655 -33.776,33.835 -28.78,-14.38 -7.598,2.683 -21.843,6.162 -22.692,-6.737 -0.612,-9.304 6.015,-16.184 11.971,-22.518 -7.421,-2.516 -28.741,-10.826 -18.347,-22.777 5.37,-6.174 15.803,-5.858 23.567,-6.192 -19.462,-27.046 -3.884,-46.174 19.373,-21.289 5.433,-9.766 13.206,-36.559 31.577,-25.115 7.916,4.931 8.775,13.195 10.197,21.693 5.488,-6.223 9.656,-14.276 17.765,-16.841 8.053,2.096 5.349,21.717 4.282,28.383 7.315,-2.736 15.936,-6.374 23.612,-3.536 8.024,8.906 -9.248,22.106 -15.513,27.663 7.805,0.008 21.826,0.302 24.666,9.385 -2.01,10.363 -19.331,12.569 -27.643,14.17 5.467,2.311 25.558,9.194 22.137,18.614 -5.22,14.374 -23.215,-0.11 -32.137,-1.918 -1.718,3.661 0.05,6.807 1.043,10.501 11.152,41.445 57.541,44.938 92.089,33.28 16.868,-5.692 30.508,-18.285 38.209,-35.528 -8.439,4.179 -20.608,9.935 -29.038,3.18 -10.438,-8.363 1.268,-21.082 6.917,-27.126 -2.925,-0.562 -11.445,-1.936 -13.717,-3.236 -26.607,-15.216 5.576,-24.066 16.868,-27.22 -5.296,-5.885 -13.276,-11.922 -14.156,-19.4 3.099,-6.893 11.027,-4.622 17.199,-3.602 -0.142,-0.923 -0.276,-1.847 -0.402,-2.772 -0.773,-5.694 -2.13,-16.319 2.124,-20.452 8.712,-8.466 20.651,7.777 24.979,12.874 1.648,-10.907 1.333,-20.675 12.737,-25.423 z"
       id="path142" /><path
       fill="#292a2b"
       d="m 527.487,169.673 c 12.401,-3.391 25.19,3.969 28.488,16.394 3.298,12.426 -4.159,25.159 -16.609,28.364 -12.318,3.17 -24.887,-4.19 -28.15,-16.484 -3.263,-12.294 4.002,-24.918 16.271,-28.274 z"
       id="path143" /><path
       fill="#fed001"
       d="m 530.751,175.685 c 6.044,-1.03 12.17,1.307 15.993,6.1 3.822,4.793 4.738,11.286 2.389,16.949 -2.349,5.663 -7.59,9.602 -13.683,10.283 -9.055,1.012 -17.272,-5.362 -18.544,-14.383 -1.271,-9.022 4.864,-17.419 13.845,-18.949 z"
       id="path144" /><path
       fill="#292a2b"
       d="m 898.362,168.226 c 30.002,-0.735 36.06,35.45 6.738,47.291 -30.179,1.495 -36.19,-39.34 -6.738,-47.291 z"
       id="path145" /><path
       fill="#fed001"
       d="m 897.866,175.72 c 9,-2.015 17.938,3.615 20.007,12.603 2.069,8.988 -3.508,17.959 -12.484,20.081 -9.051,2.14 -18.114,-3.494 -20.2,-12.558 -2.086,-9.063 3.602,-18.093 12.677,-20.126 z"
       id="path146" /><path
       fill="#292a2b"
       d="m 722.044,168.559 c 12.269,-2.191 24.022,5.883 26.376,18.122 2.355,12.238 -5.562,24.098 -17.768,26.616 -8.042,1.659 -16.355,-1.138 -21.758,-7.322 -5.403,-6.183 -7.06,-14.796 -4.337,-22.543 2.722,-7.748 9.404,-13.43 17.487,-14.873 z"
       id="path147" /><path
       fill="#fed001"
       d="m 720.821,175.653 c 5.636,-1.843 11.828,-0.5 16.195,3.512 4.367,4.011 6.228,10.068 4.868,15.84 -1.36,5.771 -5.73,10.36 -11.428,12 -8.595,2.474 -17.588,-2.395 -20.215,-10.944 -2.628,-8.55 2.079,-17.628 10.58,-20.408 z"
       id="path148" /><path
       fill="#f92420"
       d="m 681.816,384.489 c 88.204,-0.606 177.243,4.437 262.767,27.586 17.265,4.673 34.171,18.923 16.201,36.3 -10.377,10.034 -22.293,15.168 -35.608,20.439 -61.559,24.37 -133.201,28.513 -198.883,28.051 -31.729,-1.05 -63.657,-1.015 -95.324,-3.199 -47.172,-3.254 -148.752,-14.488 -182.367,-46.09 -4.403,-4.139 -8.296,-9.432 -8.284,-15.739 0.009,-4.755 2.31,-8.967 5.542,-12.322 28.865,-29.97 191.403,-34.268 235.956,-35.026 z"
       id="path149" /><path
       fill="#292a2b"
       d="m 644.743,409.455 c 37.606,-1.663 83.649,-0.501 121.229,0.984 23.675,0.936 161.931,10.998 169.443,29.573 l -0.861,1.52 c -10.487,6.88 -35.702,12.087 -48.308,15.368 -39.323,10.234 -80.566,12.633 -120.997,14.969 -72.977,3.683 -146.138,-0.601 -218.186,-12.777 -17.681,-3.059 -63.841,-10.865 -74.371,-25.77 -0.518,-7.339 15.689,-6.876 21.718,-8.141 49.399,-10.364 99.974,-14.019 150.333,-15.726 z"
       id="path150" /><path
       fill="#af211f"
       d="m 663.973,416.471 c 83.574,-2.543 178.493,2.742 259.558,22.798 -58.195,17.25 -118.583,25.977 -179.281,25.909 -76.248,2.1 -189.272,-3.511 -260.718,-30.706 69.342,-13.582 110.834,-16.634 180.441,-18.001 z"
       id="path151" /><path
       fill="#fed001"
       d="m 649.77,323.443 c 16.66,-1.326 43.787,-0.671 61.076,-0.564 86.053,0.533 172.363,8.74 255.624,31.056 -4.169,18.225 -8.814,35.265 -12.37,53.737 -61.273,-18.056 -130.492,-25.433 -194.348,-28.814 -80.789,-5.056 -179.712,0.249 -259.956,13.745 -13.994,2.354 -33.216,8.191 -47.233,12.257 -4.123,-16.764 -7.311,-37.029 -10.1,-54.062 61.94,-18.87 142.925,-24.825 207.307,-27.355 z"
       id="path152" /><path
       fill="#292a2b"
       d="m 701.533,329.323 c 33.327,0.783 35.879,34.554 7.127,38.878 -35.571,0.173 -38.391,-34.113 -7.127,-38.878 z"
       id="path153" /><path
       fill="#fed001"
       d="m 698.329,336.127 c 8.931,-0.633 18.832,-0.343 23.397,9.182 1.037,2.16 1.143,4.651 0.293,6.891 -1.574,4.203 -6.094,7.347 -10.053,9.109 -3.923,0.22 -10.443,0.809 -14.072,-0.601 -15.684,-6.093 -16.08,-19.974 0.435,-24.581 z"
       id="path154" /><path
       fill="#292a2b"
       d="m 616.687,332.437 c 4.411,-0.403 11.666,-0.288 16.301,-0.362 0.495,12.042 0.684,27.184 2.805,38.785 l -18.678,0.3 -18.394,1.256 c -0.094,-12.782 -0.444,-25.681 -0.697,-38.47 5.492,-0.771 12.993,-1.096 18.663,-1.509 z"
       id="path155" /><path
       fill="#fed001"
       d="m 616.707,338.581 c 3.143,-0.395 5.143,-0.944 8.14,0.029 4.611,5.209 3.235,17.664 3.305,25.391 l -11.903,0.801 c -3.285,0.307 -6.009,0.935 -9,-0.231 -4.739,-5.061 -3.192,-17.032 -3.406,-25.186 z"
       id="path156" /><path
       fill="#292a2b"
       d="m 774.988,333.992 37.411,3.367 c -0.517,11.42 -2.914,23.853 -3.518,36.364 -10.224,-0.039 -25.589,-1.505 -36.175,-2.156 0.331,-11.906 1.521,-25.581 2.282,-37.575 z"
       id="path157" /><path
       fill="#fed001"
       d="m 780.805,340.765 c 8.575,1.073 17.034,1.758 25.64,2.49 -1.485,7.504 -2.728,15.809 -4.013,23.41 -3.304,1.336 -19.235,-1.307 -23.527,-1.915 0.413,-8.011 1.046,-16.009 1.9,-23.985 z"
       id="path158" /><path
       fill="#292a2b"
       d="m 862.329,340.248 c 11.249,-1.6 21.683,6.17 23.374,17.405 1.691,11.236 -5.995,21.733 -17.216,23.514 -11.351,1.802 -21.994,-5.991 -23.704,-17.356 -1.711,-11.364 6.168,-21.945 17.546,-23.563 z"
       id="path159" /><path
       fill="#fed001"
       d="m 859.659,347.073 c 20.951,-2.383 28.048,14.604 11.384,27.161 -18.057,3.778 -27.4,-17.599 -11.384,-27.161 z"
       id="path160" /><path
       fill="#292a2b"
       d="m 535.068,340.192 c 9.768,-0.59 17.557,0.178 23.689,8.928 3.066,4.291 4.168,9.68 3.034,14.83 -1.762,7.882 -6.474,11.182 -12.779,15.016 -27.566,1.31 -38.582,-27.542 -13.944,-38.774 z"
       id="path161" /><path
       fill="#fed001"
       d="m 537.131,346.013 c 6.982,-0.768 12.327,-0.174 16.777,6.196 2.236,3.168 2.969,7.157 2.006,10.913 -1.38,5.406 -4.165,6.854 -8.592,9.385 -19.484,0.894 -27.911,-14.817 -10.191,-26.494 z"
       id="path162" /><path
       fill="#292a2b"
       d="m 483.511,351.33 1.93,-0.159 c 3,2.895 6.45,27.544 8.404,35.163 -8.063,0.928 -21.21,5.031 -29.751,7.208 -4.042,-1.757 -8.697,-30.733 -9.957,-36.942 9.776,-1.838 19.568,-3.595 29.374,-5.27 z"
       id="path163" /><path
       fill="#fed001"
       d="m 479.541,358.263 1.421,0.333 c 1.758,3.608 4.14,17.028 5.078,21.668 -5.493,1.973 -11.72,3.824 -17.326,5.626 l -0.664,-0.244 c -2.781,-3.495 -5.579,-18.696 -6.724,-24.013 5.69,-0.739 12.494,-2.253 18.215,-3.37 z"
       id="path164" /><path
       fill="#292a2b"
       d="m 922.06,351.539 c 10.34,2.783 21.179,5.008 31.76,7.819 -1.223,5.787 -7.1,30.444 -9.126,35.12 -7.577,-1.645 -27.736,-4.213 -31.22,-9.257 0.083,-4.217 7.237,-28.068 8.586,-33.682 z"
       id="path165" /><path
       fill="#fed001"
       d="m 925.959,359.842 c 7.066,1.229 13.669,2.797 20.642,4.42 -1.958,7.425 -4.016,14.824 -6.171,22.195 -5.697,-0.827 -13.707,-2.778 -19.508,-4.006 1.82,-7.393 3.403,-15.146 5.037,-22.609 z"
       id="path166" /><path
       fill="#f92420"
       d="m 677.052,289.439 c 91.639,-0.896 183.03,2.017 272.769,23.37 11.102,3.31 26.302,5.362 35.63,12.424 10.958,8.295 -1.897,26.047 -13.789,23.195 -18.968,-4.55 -37.304,-10.081 -56.581,-13.644 -58.762,-10.86 -115.134,-15.672 -174.692,-17.932 -73.056,-1.544 -144.712,-0.187 -217.256,10.223 -16.377,2.35 -33.184,5.493 -49.354,9.119 -13.21,2.942 -26.261,6.76 -39.612,8.978 -9.621,1.598 -14.276,-16.405 -8.506,-21.377 6.534,-5.63 19.802,-7.382 28.33,-9.505 72.26,-17.99 148.838,-22.831 223.061,-24.851 z"
       id="path167" /></g></svg>
