<?xml version="1.0" encoding="UTF-8" standalone="no"?>
<svg
   version="1.1"
   style="display:block"
   viewBox="0 0 1797.0886 1055.5635"
   width="1403.9755"
   height="824.659"
   preserveAspectRatio="none"
   id="svg31"
   sodipodi:docname="tombola_nojana.svg"
   inkscape:version="1.4.2 (f4327f4, 2025-05-13)"
   xmlns:inkscape="http://www.inkscape.org/namespaces/inkscape"
   xmlns:sodipodi="http://sodipodi.sourceforge.net/DTD/sodipodi-0.dtd"
   xmlns="http://www.w3.org/2000/svg"
   xmlns:svg="http://www.w3.org/2000/svg">
  <defs
     id="defs31" />
  <sodipodi:namedview
     id="namedview31"
     pagecolor="#000000"
     bordercolor="#000000"
     borderopacity="0.25"
     inkscape:showpageshadow="true"
     inkscape:pageopacity="0.0"
     inkscape:pagecheckerboard="false"
     inkscape:deskcolor="#d1d1d1"
     inkscape:zoom="0.504375"
     inkscape:cx="698.88476"
     inkscape:cy="478.81041"
     inkscape:window-width="1920"
     inkscape:window-height="1009"
     inkscape:window-x="-8"
     inkscape:window-y="-8"
     inkscape:window-maximized="1"
     inkscape:current-layer="svg31"
     inkscape:antialias-rendering="true"
     inkscape:clip-to-page="false"
     borderlayer="true" />
  <path
     id="path2"
     d="m 1188.9386,236.75922 c -2.6907,0.0596 -5.2963,0.256 -7.78,0.5975 -71.42,11.42 -115.58,86.3185 -125.97,152.4575 -8.93,56.816 1.08,137.9585 51.59,174.0275 19.4,13.687 43.19,19.7025 66.77,16.8875 129.47,-22.769 177.1,-248.503 71.12,-327.675 -13.93,-10.40987 -36.8952,-16.71212 -55.73,-16.295 z m 3.97,6.6425 c 45.47,-1.666 65.05,37.4035 71.57,76.7775 11.84,71.433 -6.51,154.81 -45.48,215.635 -12.94,20.196 -31.85,33.893 -55.27,38.14 -54.14,1.097 -68.06,-36.505 -75.69,-83.65 -11.21,-69.319 22.05,-237.1245 104.87,-246.9025 z"
     style="fill:#ffffff;fill-opacity:1"
     inkscape:export-filename="path2.png"
     inkscape:export-xdpi="96"
     inkscape:export-ydpi="96" />
  <path
     id="path4"
     d="m 370.71611,236.73172 c -2.72915,0.0533 -5.37525,0.25088 -7.9,0.6025 -37.085,5.61 -64.5195,27.535 -87.3325,57.42 -53.489,70.071 -62.6385,209.3305 12.1025,268.6725 16.61,13.188 45.699,20.4575 66.95,17.3175 129.183,-21.647 177.1305,-247.4605 72.5025,-326.9925 -14.04813,-10.6785 -37.21847,-17.39282 -56.3225,-17.02 z m 4.245,6.6775 c 82.3,-2.819 80.3795,128.3185 68.1175,182.9725 -11.905,53.06 -36.799,138.0585 -99.15,147.6225 -52.303,1.061 -70.7105,-40.7825 -74.8775,-86.9875 -6.4,-70.958 9.8895,-154.873 54.2225,-212.065 13.022,-16.799 30.3485,-29.4095 51.6875,-31.5425 z"
     style="fill:#ffffff;fill-opacity:1" />
  <path
     id="path6"
     d="m 748.58611,643.83172 c -2.75074,0.0343 -5.4405,0.20375 -8.0375,0.5125 -37.546,5.509 -65.904,28.275 -88.04,58.11 -34.936,47.085 -47.923,112.2795 -38.445,169.8425 6.402,38.882 18.104,73.2975 50.88,98.0775 17.931,13.55 44.974,20.62 67.215,17.33 128.435,-20.3 177.109,-248.0815 72.485,-326.8225 -14.546,-10.94712 -36.80233,-17.29009 -56.0575,-17.05 z m 4.3275,6.5875 c 44.414,-1.154 63.9135,37.627 70.3125,76.11 11.977,72.029 -6.2165,155.634 -45.7425,216.875 -13.043,20.21 -31.867,33.5 -55.355,37.66 -55.015,1.12 -68.398,-39.259 -75.49,-86.255 -10.401,-68.92 22.964,-236.164 106.275,-244.39 z"
     style="fill:#ffffff;fill-opacity:1;stroke:none;stroke-width:3.84;stroke-dasharray:none;stroke-opacity:1" />
  <path
     id="path8"
     style="fill:#ffffff;fill-opacity:1"
     d="m 901.43111,237.85172 c -16.3479,-0.0842 -33.1585,0.284 -42.175,0.2825 -20.215,-0.002 -50.0605,-0.6025 -69.9925,0.2875 18.191,7.064 24.9295,16.278 25.3325,36.02 0.331,16.225 0.2475,32.4255 0.2525,48.6525 l -0.01,88.84 -0.005,83.17 c 0.014,15.825 0.1185,31.6185 -0.2175,47.4425 -0.395,18.594 -6.04,28.3065 -23.365,36.0375 11.694,0.837 27.0675,0.723 38.8525,0.36 43.776,-1.344 89.305,2.9015 132.645,-2.1425 15.45,-1.799 34.91,-18.1605 44.14999,-29.9925 29.38,-43.425 26.83,-115.6335 -19.64999,-147.0175 -12.13,-8.194 -22.07,-10.5365 -36.17,-13.3025 19.39,-11.402 31.25,-24.849 37.31,-47.155 5.49,-20.223 1.54,-51.932 -9.21,-70.045 -8.45,-14.354 -22.24,-24.7825 -38.35,-29.0075 -7.165,-1.8085 -23.0496,-2.34575 -39.3975,-2.43 z m -19.375,5.6925 c 10.5274,-0.11837 20.8675,0.091 27.1925,1.3925 50.99,10.485 54.92,94.63 28.82,127.595 -0.78,0.812 -1.56,1.614 -2.36,2.405 -16.63,16.565 -58.8295,11.2435 -81.8175,11.2275 -1.212,-45.527 -0.1605,-96.141 -0.1525,-142.05 7.0745,-0.006 17.79013,-0.45163 28.3175,-0.57 z m 29.145,148.4025 c 16.4353,0.12802 32.4125,1.805 46.1675,12.9275 23.23,18.795 31.08,47.2595 31.11,76.1675 0.02,27.116 -4.93,48.5015 -21.77,69.9725 -0.86,0.945 -1.75,1.871 -2.65,2.78 -21.28,21.369 -40.03,19.459 -67.85,19.4 l -42.4125,-0.15 0.0475,-180.9025 40.835,-0.0975 c 5.515,-0.009 11.0441,-0.14017 16.5225,-0.0975 z" />
  <path
     fill="#fefefe"
     d="m 588.01061,610.83422 c 15.251,-0.145 30.756,0.042 46.029,0.084 -16.136,23.039 -32.151,46.162 -48.045,69.369 -46.403,67.827 -165.994,241.927 -149.988,323.27698 2.512,12.77 9.154,23.82 20.224,30.91 15.99,10.25 39.608,12 57.9,8.22 48.415,-9.98 80.806,-52.70998 106.296,-91.61998 -5.248,20.56 -13.823,47.11 -20.322,67.53998 -31.526,23.31 -90.773,41.21 -129.691,36.06 -123.507,-16.35 -61.425,-223.12298 -50.762,-301.59798 -13.554,18.8 -25.597,42.102 -39.152,62.552 -61.19,92.757 -152.607,221.94598 -279.03,211.44598 -41.683003,-3.47 -62.373003,-32.86998 -55.458003,-73.83998 20.1,-1.6 47.05,-3.21 67.018003,-3.34 -11.198,12.67 -28.793003,31.28 -28.817003,48.96 -0.029,20.94998 26.819003,19.42998 40.741003,19.10998 3.779,-0.54 7.501,-1.17 11.191,-2.16 102.59,-27.54998 225.918,-238.85098 278.991,-329.90998 -11.597,-23.695 -27.953,-37.144 -55.377,-38.575 -40.373,-2.106 -77.014,14.075 -107.205,40.27 -22.639,19.643 -51.999,59.654 -26.912,88.622 13.484,15.053 42.837,17.663 62.357,17.724 l -27.841,64.806 c -43.273,-18.341 -72.081,-53.362 -58.863,-102.209 11.427,-41.167 38.711,-76.124 75.872,-97.206 33.138,-18.72 84.002,-31.909 119.468,-11.333 13.517,7.842 20.407,18.557 27.668,31.944 l 37.917,0.058 c -7.466,13.623 -21.279,34.567 -28.353,49.326 -2.582,5.388 -3.003,16.607 -3.624,22.667 -6.032,58.789 -21.771,115.398 -23.298,174.816 7.766,-23.246 15.149,-49.16 25.463,-71.35 40.673,-87.506 99.56,-166.71 155.603,-244.62 z"
     id="path11" />
  <path
     id="path12"
     d="m 1301.7586,645.22422 -48.98,0.085 c 0.99,0.533 1.97,1.079 2.95,1.635 19.69,11.153 14.66,32.834 14.66,52.98 v 73.4925 l -0.04,109.1125 c 0,19.879 0.43,39.765 -0.52,59.625 -1.14,23.94 -14.82,38.68 -38.39,42.67 -7.64,-3.4 -18.1,-9.94 -21.54,-17.56 -8.75,-19.33 -15.29,-45.6605 -21.34,-66.1725 l -51.44,-173.8525 -14.98,-51.175 c -2.2,-7.494 -5.98,-22.0775 -9.2,-28.5925 -1.82,-0.738 -8.73,-1.4485 -9.48,0.7325 -7.31,21.213 -13.31,43.014 -19.74,64.535 l -53.01,175.9225 c -2.6,8.658 -5.23,17.585 -7.76,26.25 -9.46,32.443 -13.4,58.1825 -49.75999,69.5725 l 1.01,2.64 c 24.96,-0.59 50.25999,0.61 75.32999,-0.52 -2.43,-0.52 -4.84,-1.1 -7.25,-1.73 -8.01,-2.19 -14.79,-7.54 -18.76,-14.83 -9.94,-17.99 0.16,-40.4095 5.89,-58.3825 5.87,-17.836 11.48,-35.7595 16.82,-53.7625 l 90.5,0.01 18.79,62.115 c 3.83,12.71 9.17,27.17 10.61,40.17 1.79,16.12 -8.17,22.47 -21.35,26.47 33.44,1.75 73.17,0.03 106.78,-0.62 22.05,-0.42 45.13,0.5 67,-0.59 -6.8,-1.18 -11.34,-1.34 -17.83,-4.36 -28.56,-13.26 -25.2,-42.641 -25.2,-68.585 v -50.76 l 0.04,-185.1775 c 18.4,33.102 163.23,306.1825 167.63,309.1925 l 2.32,-0.45 c 1.57,-3.3 0.84,-39.45 0.83,-45.27 l -0.04,-167.935 c 0,-18.71 0.23,-38.2575 0.01,-56.9075 -0.43,-35.577 1.24,-62.0575 42.56,-69.8975 l -89.53,0.05 c 11.89,1.91 20.07,4.334 28.99,13.055 15.59,15.251 12.79,36.148 12.99,55.95 0.12,12.825 -0.01,25.628 -0.01,38.425 l -0.07,150.74 c -14.98,-25.856 -30.36,-56.006 -44.75,-82.705 z m -210.75,61.5725 c 3.27,3.292 39.02,128.9025 43.53,144.4375 l -41.76,0.085 -44.67,-0.0575 c 13.56,-47.871 28.69,-96.673 42.9,-144.465 z"
     style="fill:#ffffff;fill-opacity:1" />
  <path
     fill="#fefefe"
     d="m 507.52761,238.35722 c 17.776,-0.663 38.205,-0.192 56.18,-0.202 l 71.304,262.302 74.948,-262.283 c 19.967,-0.033 41.726,-0.485 61.549,0.284 l -1.175,0.495 c -15.846,6.81 -22.863,16.451 -22.921,33.721 -0.312,90.972 -0.297,181.998 0.027,272.969 0.067,18.773 9.449,27.395 26.244,33.283 l -90.287,-0.009 c 31.846,-10.521 26.486,-35.678 26.491,-63.376 l 0.003,-57.213 -0.102,-199.3 -4.818,15.769 -56.221,199.327 c -9.056,32.166 -19.838,76.142 -30.302,106.577 l -56.4,-204.402 c -10.416,-37.71 -20.926,-78.605 -32.275,-115.702 l 0.011,185.386 c -0.007,29.736 -0.416,59.583 0.335,89.295 0.611,24.181 14.854,36.14 35.932,43.653 -22.422,0.006 -55.774,1.035 -77.255,-0.392 22.903,-6.822 34.248,-20.912 35.347,-44.89 0.898,-19.579 0.519,-39.152 0.525,-58.749 l 0.015,-109.053 -0.014,-70.125 c -0.009,-23.578 5.621,-44.101 -17.141,-57.365 z"
     id="path14" />
  <path
     id="path15"
     d="m 1616.9886,646.55672 c -23.02,72.165 -44.69,148.1715 -66.54,220.9425 l -16.1,53.615 c -11.26,37.48 -15.19,56.43 -58.13,65.48 22.53,1.07 63.98,1.03 86.56,0.01 -3.85,-0.9 -9.64,-2.07 -13.04,-3.86 -15.7,-8.28 -20.29,-26.71 -15.7,-42.87 7.82,-27.554 17.45,-54.576 25.62,-81.99 l 42.12,0.045 48.14,-0.04 18.27,60.195 c 7.75,25.74 25.39,58.74 -10.37,68.57 28.27,1.28 65.21,0.56 93.97,0.27 -28.82,-10.21 -30.86,-20.47 -38.81,-48.06 -3.88,-13.48 -8.22,-27.9405 -12.23,-41.5125 l -49.54,-167.645 c -7.41,-25.086 -15.03,-50.1735 -22.02,-75.3875 -0.85,-3.072 -1.78,-5.7965 -4.39,-7.5175 -2.69,-0.142 -5.1,-0.28 -7.81,-0.245 z m -12.64,60.0475 c 3.22,3.779 39.32,130.4785 43.48,144.7025 l -42.05,0.0125 -44.45,-0.0825 z"
     style="fill:#ffffff;fill-opacity:1" />
  <path
     id="path17"
     d="m 1668.8686,238.85422 c -1.2675,-0.0589 -2.56,0.0145 -4.63,0.0725 l -63.52,211.0925 -17.03,57.01 c -10.9,36.606 -13.92,61.294 -55.92,71.41 21.74,1.608 56.79,0.483 79.63,0.475 -17.34,-5.039 -30.94,-18.8035 -27.64,-36.5375 5.36,-28.778 18.76,-63.6255 27.09,-91.5675 l 46.93,0.085 43.73,-0.075 18.79,62.58 c 7.55,24.98 22.63,52.401 -8.06,65.58 l 88.85,-0.095 c -29.74,-10.561 -30.86,-26.503 -38.73,-53.74 l -13.97,-47.775 -54.98,-186.065 c -1.86,-6.299 -13.27,-47.765 -16.06,-51.725 -1.97,-0.4735 -3.2125,-0.66612 -4.48,-0.725 z m -17.15,59.92 c 4.18,5.816 38.75,129.0525 43.55,145.4075 l -42.49,0.07 -44.38,-0.0475 c 15.06,-46.862 29.22,-97.939 43.32,-145.43 z"
     style="fill:#ffffff;fill-opacity:1" />
  <path
     fill="#fefefe"
     d="m 0.06960728,238.18822 230.13100272,0.03 c 0.038,17.5 0.394,36.189 -0.305,53.583 -4.198,-13.604 -6.677,-26.423 -17.746,-37.171 -4.5,-4.396 -10.077,-7.531 -16.171,-9.091 -9.759,-2.517 -49.807,-1.46 -62.784,-1.456 l -0.006,283.191 c -0.342,22.826 3.424,41.473 26.3,51.632 l -88.113003,0.034 c 5.024,-2.473 8.569,-4.217 12.585,-8.206 5.87,-5.947 9.742,-13.574 11.079,-21.822 1.736,-10.856 1.266,-27.653 1.267,-39.181 v -57.956 l -0.03,-207.683 c -48.414,0.496 -80.837,-12.459 -96.04999972,45.549 -0.409,-16.772 -0.135,-34.6 -0.157,-51.453 z"
     id="path19" />
  <path
     fill="#fefefe"
     d="m 877.37861,645.23222 96.17,0.102 c -36.9,9.719 -29.08,40.08 -29.06,71.535 l 0.09,137.774 c 0.02,57.957 8.99,123.671 -40.45,165.37098 -13.84,11.67 -28.02,18.59 -45.377,23.57 -2.395,0.69 -4.798,1.34 -7.207,1.97 l -4.251,-2.35 c 13.273,-5.23 27.305,-11.38 36.415,-22.88 23.81,-30.07998 21.61,-70.82998 21.64,-106.80998 l 0.04,-72.69 -0.01,-103.442 c 0,-18.702 0.03,-37.443 -0.17,-56.143 -0.21,-20.781 -8.24,-30.195 -27.83,-36.007 z"
     id="path20" />
  <path
     fill="#fefefe"
     d="m 1316.4686,238.44122 c 23.47,-0.972 62.61,-0.805 86.08,0 -29.74,14.111 -24.14,36.928 -24.14,65.52 l 0.01,61.323 0.07,207.768 67.53,0.169 c 9.68,0.016 27.97,0.532 36.99,-0.682 5.71,-0.743 11.23,-2.543 16.27,-5.31 18.65,-10.219 27.03,-35.436 32.89,-54.846 l -0.11,3.849 c -2.65,19.815 -6.98,42.719 -10.31,62.674 l -206.38,-0.012 c 8.9,-3.331 19.65,-8.599 22.74,-17.818 5.36,-16.047 3.31,-44.986 3.32,-61.65 l 0.02,-83.009 -0.02,-93.861 c -0.01,-17.573 1.42,-46.123 -2.19,-63.668 -2.06,-10.013 -13.46,-16.569 -22.77,-20.447 z"
     id="path21" />
  <path
     id="path22"
     d="m 826.83361,0.18672181 c -16.202,-0.0376 -34.613,-0.4879 -50.635,0.1625 6.221,2.20139999 11.421,3.95629999 14.25,10.42500019 3.329,7.6113 3.1365,143.322998 0.1525,150.534998 -2.457,5.937 -7.532,8.1175 -13.07,10.6075 l 149.9875,-0.0125 c -29.06,-10.123 -8.84,-41.3025 -2.49,-63.9975 14.95,-0.036 30.15,0.0795 45.08,-0.1125 3.84,12.46 16.21,45.6195 13.22,57.5825 -0.51,2.031 -6.04,3.7095 -8.18,4.4025 l -1.44,2 c 10.95,0.938 36.59999,0.055 48.51999,0.08 -8.39,-3.075 -13.84,-6.381 -17.18,-15.36 -7.90999,-21.25 -13.11999,-45.042 -20.12999,-66.689998 -6.02,-20.849 -12.16,-41.661 -18.44,-62.435 -1.82,-6.092 -5.6,-21.0911002 -8.14,-25.5850002 -2.86,-0.79969999 -1.42,-0.7654 -4.47,0.2075 -4.84,7.3207 -6.92,20.3925002 -9.5,29.0075002 -5.99,20.044 -33.1,119.737998 -41.81,130.369998 -4.81,5.861 -11.68,8.1955 -18.84,9.6675 -0.35,0.07 -0.69,0.127 -1.03,0.19 2.09,-12.067 4.41,-24.3555 5.82,-36.5025 -5.88,18.298 -10.681,33.986 -33.47,33.68 -14.426,-0.193 -29.193,-0.649 -43.62,-0.495 l -0.065,-102.032498 c -0.008,-16.414 -0.358,-33.1767 0.355,-49.58 0.44,-10.1173002 6.563,-12.8440002 15.125,-16.11500019 z m 120.645,32.52750019 c 5.86,14.432 16.34,53.8825 21.48,71.212498 l -20.18,0.005 -22.47,-0.0925 c 5.71,-21.898998 14.31,-49.318998 21.17,-71.124998 z"
     style="fill:#ffffff;fill-opacity:1" />
  <path
     fill="#fefefe"
     d="m 159.50661,818.63522 c 9.633,-2.398 19.373,3.524 21.678,13.181 2.305,9.656 -3.711,19.338 -13.39,21.549 -9.547,2.181 -19.068,-3.736 -21.341,-13.261 -2.274,-9.525 3.55,-19.103 13.053,-21.469 z"
     id="path24" />
  <path
     fill="#fefefe"
     d="m 92.201607,830.56222 c 9.280003,-2.53 18.896003,2.751 21.740003,11.94 2.844,9.188 -2.107,18.978 -11.194,22.133 -6.159003,2.139 -12.994003,0.748 -17.828003,-3.628 -4.834,-4.375 -6.896,-11.039 -5.38,-17.38 1.517,-6.341 6.372,-11.351 12.662,-13.065 z"
     id="path25" />
  <path
     fill="#fefefe"
     d="m 191.92461,876.52422 c 6.407,-0.627 12.653,2.252 16.339,7.53 3.685,5.278 4.237,12.134 1.442,17.933 -2.794,5.799 -8.5,9.64 -14.925,10.046 -9.7,0.613 -18.101,-6.663 -18.88,-16.351 -0.78,-9.688 6.35,-18.213 16.024,-19.158 z"
     id="path26" />
  <path
     fill="#fefefe"
     d="m 127.28461,873.54822 c 9.375,-2.841 19.283,2.431 22.164,11.794 2.881,9.363 -2.347,19.293 -11.697,22.215 -9.408,2.941 -19.414,-2.328 -22.313,-11.748 -2.899,-9.421 2.413,-19.403 11.846,-22.261 z"
     id="path27" />
  <path
     fill="#fefefe"
     d="m 66.006607,888.50222 c 6.284,-1.324 12.794,0.841 17.033,5.666 4.239,4.824 5.548,11.559 3.426,17.62 -2.122,6.066 -7.347,10.506 -13.669,11.636 -9.566,1.7 -18.73,-4.58 -20.585,-14.119 -1.854,-9.538 4.287,-18.8 13.795,-20.803 z"
     id="path28" />
  <path
     fill="#fefefe"
     d="m 115.36861,772.54022 c 6.11,-1.999 12.823,-0.546 17.559,3.8 4.736,4.346 6.759,10.91 5.29,17.168 -1.468,6.259 -6.199,11.238 -12.374,13.024 -9.321,2.697 -19.084,-2.575 -21.942,-11.848 -2.858,-9.274 2.245,-19.127 11.467,-22.144 z"
     id="path29" />
  <path
     fill="#f4e7ea"
     d="m 851.54461,1045.5542 c -10.954,1.85 -17.091,2.57 -28.2,2.29 7.523,-0.79 16.422,-2.99 23.949,-4.64 z"
     id="path30" />
  <path
     fill="#f4e7ea"
     d="m 960.85861,986.63422 c 4.1,-0.77 8.21,-1.49 12.33,-2.15 l 1.01,2.64 c -4.16,-0.01 -9.11,-0.33 -13.34,-0.49 z"
     id="path31" />
</svg>
