<?xml version="1.0" encoding="UTF-8"?>
<svg id="Layer_1" data-name="Layer 1" xmlns="http://www.w3.org/2000/svg" viewBox="0 0 841.89 595.28">
  <defs>
    <style>
      .cls-1 {
        fill: #101820;
      }

      .cls-2 {
        fill: #c10230;
      }
    </style>
  </defs>
  <path class="cls-2" d="M76.28,242.17v110.93h110.93v-110.93h-110.93ZM152.48,254.11c5.44-2.35,9.81-3.23,10-3.25l1.07-.12,1.26,7-1.28.09c-6.84.47-12.81,2.93-17.76,7.32-3.71,3.29-5.42,6.49-5.44,6.52,0,0,.74-12.61,12.16-17.56ZM142.31,280.65c5.65-10.67,11.41-16.07,17.15-16.07.05,0,.09,0,.14,0,6.94.1,10.92,8.05,11.09,8.39l.97,1.97-2.17-.32c-12.23-1.79-25.35,7.42-25.48,7.51l-3.96,2.82,2.27-4.3ZM141.06,312.82l-16.51,1.11.42-1.56c2.68-9.96,6.85-31.27,6.85-31.27,0,0,5.12,21.33,8.66,30.25l.58,1.47ZM84.98,250.86h46.84v1.17c-.03,1.88-.03,3.76,0,5.61v.98s-.96.17-.96.17c-13,2.23-21.66,3.26-29.68,3.26-5.01,0-9.77-.4-15.19-1.16l-.99-.14v-9.88ZM89.37,281.39c.32-.38,7.88-8.78,16.95-8.14,15.63,1.1,16.17,18.96,16.17,18.96l-4.08-5.21s-2.83-3.55-7.62-5.75c-6.34-2.92-13.05-2.29-19.94,1.88l-6.02,3.64,4.54-5.37ZM121.96,301.89l-4.06-2.34c-.17-.1-16.76-9.54-27.81-5.27l-3.52,1.36,2.16-3.1c.22-.31,5.39-7.59,13.27-7.59.09,0,.19,0,.29,0,6.02.13,11.8,4.5,17.17,12.98l2.5,3.95ZM104.08,331.71c-3.55,3.84-9.5,8.89-17.64,11.19l-1.47.41v-12.28l1.11-.04c6.02-.22,14.72-1.88,22.03-8.55l4.9-4.48-3.11,5.87c-.08.15-1.99,3.73-5.83,7.88ZM110.49,344.54l1.21-1.8c1.46-2.16,2.86-4.46,4.18-6.85,2.17-3.94,4.16-8.43,5.93-13.35l.25-.71,22.59-1.52.35.64c5.19,9.45,11.56,16.67,18.93,21.47l3.25,2.12h-56.7ZM178.66,315.93l-1.07.08c-9.72.7-17.61,6.83-17.69,6.89l-3.93,3.09,2.18-4.5c4.21-8.7,10.8-14.48,19.06-16.7l1.45-.39v11.52Z"/>
  <g>
    <g>
      <path class="cls-1" d="M273.46,311.74c0,.33-.1.49-.29.49h-22.48c-.32,0-.49-.2-.49-.59v-1.32c0-.45.16-.68.49-.68h6.68c.52,0,.73-.29.63-.88-.29-1.04-1.41-4.43-3.36-10.17-1.95-5.74-3.02-8.82-3.22-9.24-.26-.65-.6-.98-1.02-.98h-23.55c-.29.07-.54.26-.73.59-.46.88-1.24,2.93-2.34,6.17-1.1,3.23-1.79,5.44-2.05,6.61-.52,2.6-.78,4.16-.78,4.68,0,2.15.26,3.22.78,3.22h7.41c.39,0,.59.23.59.68v1.41c0,.33-.16.49-.49.49h-19.7c-.32,0-.49-.16-.49-.49v-1.61c0-.32.13-.49.39-.49h4.19c.71,0,1.68-1.53,2.9-4.58,1.22-3.05,4.85-11.88,10.9-26.48,3.87-9.2,8.57-20.35,14.09-33.45.36-1.01.71-1.58,1.07-1.71.91-.26,2.08-.66,3.51-1.22.23-.1.49.08.78.51.29.44.16.93-.39,1.49-.98,1.01-1.46,1.98-1.46,2.93-.03.98.2,2.19.68,3.66,1.76,4.88,4.93,14,9.51,27.38,4.58,13.38,7.77,22.04,9.56,25.97,1.72,3.68,2.96,5.51,3.71,5.51h4.58c.26,0,.39.23.39.68v1.41ZM249.32,283.94c-1.33-3.87-2.76-8.11-4.29-12.73-1.53-4.61-3.1-9.43-4.73-14.44-.1-.42-.23-.68-.39-.78-.13.13-.29.39-.49.78-4.06,9.95-6.98,17-8.75,21.16-1.77,4.16-2.66,6.31-2.66,6.44,0,.2.15.29.44.29h20.63c.32,0,.41-.24.24-.73Z"/>
      <path class="cls-1" d="M350.76,311.84c0,.26-.2.39-.59.39h-19.9c-.32,0-.49-.16-.49-.49v-1.51c0-.39.16-.59.49-.59h4.58c.52,0,.83-.27.93-.83.32-1.76.49-8.91.49-21.46,0-6.17-.67-10.11-2-11.8-1.59-1.98-4.03-2.97-7.32-2.97-4.26,0-7.67,1.34-10.24,4-.29.36-.44.78-.44,1.27v21.51c0,6.86.47,10.29,1.41,10.29h5.8c.26,0,.39.17.39.49v1.61c0,.33-.13.49-.39.49h-19.07c-.36,0-.54-.13-.54-.39v-1.71c0-.32.15-.49.44-.49h4.78c.46,0,.68-.31.68-.93,0-.2-.02-4.89-.05-14.09-.03-9.2-.05-14.01-.05-14.44,0-5.33-2.63-8-7.9-8-4.91,0-8.66,1.3-11.27,3.9-.39.39-.59.81-.59,1.27v22.19c0,6.8.55,10.19,1.66,10.19h5.9c.36,0,.54.13.54.39v1.61c0,.33-.15.49-.44.49h-20.87c-.26,0-.42-.05-.49-.15s-.1-.21-.1-.34v-1.41c0-.45.2-.68.59-.68h5.8c.62,0,.93-.41.93-1.22,0-.13-.07-5.16-.22-15.09-.15-9.93-.22-15.13-.22-15.58,0-5.3-.67-7.95-2-7.95h-5.07c-.39,0-.59-.18-.59-.54v-1.46c0-.36.16-.54.49-.54h6.78c1.04,0,2.41-.1,4.1-.29.26-.03.71-.12,1.37-.27.65-.15,1.06-.22,1.22-.22.49,0,.73.26.73.78,0,.17-.03,1.04-.1,2.63-.07,1.59-.1,2.52-.1,2.78,0,.81.23,1.07.68.78.55-.42,2.36-1.58,5.41-3.46.71-.52,1.84-1.15,3.36-1.9,2.34-.81,4.6-1.22,6.78-1.22,2.54,0,4.68.73,6.44,2.19,1.37,1.17,2.29,2.75,2.78,4.73.16.65.49.78.98.39,1.63-1.59,2.89-2.66,3.8-3.22.49-.42,1.66-1.22,3.51-2.39,1.63-.88,4.05-1.32,7.27-1.32s6.11,1.14,8.39,3.41c2.54,2.51,3.8,7.59,3.8,15.26,0,.33-.1,3.21-.29,8.66-.2,5.44-.29,8.3-.29,8.56,0,4.33.36,6.49,1.07,6.49h6.83c.26,0,.39.17.39.49v1.71Z"/>
      <path class="cls-1" d="M377.28,311.74c0,.33-.2.49-.59.49h-23.16c-.32,0-.49-.2-.49-.59v-1.51c0-.45.13-.68.39-.68h7.07c.62,0,.93-.34.93-1.02,0-.2.02-4.14.05-11.82.03-7.69.05-11.94.05-12.75,0-5.07-.05-8.11-.15-9.12-.36-3.02-1.24-4.54-2.63-4.54h-4.83c-.52,0-.78-.16-.78-.49v-1.71c0-.42.16-.63.49-.63h2.88c3.02,0,5.93-.13,8.73-.39,2.08-.2,3.04-.29,2.88-.29.75,0,1.12.51,1.12,1.51,0,.1-.12,4.93-.37,14.51-.24,9.57-.37,14.59-.37,15.04,0,7.8.8,11.7,2.39,11.7h5.9c.32,0,.49.17.49.49v1.8ZM369.24,250c0,1.73-.78,3.25-2.34,4.58-1.33,1.14-2.58,1.71-3.76,1.71-2.15,0-3.22-1.05-3.22-3.17,0-1.27.54-2.55,1.61-3.85,1.3-1.56,2.89-2.34,4.78-2.34s2.93,1.02,2.93,3.07Z"/>
      <path class="cls-1" d="M420.35,304.23c0,.49-.8,1.35-2.39,2.58-5.23,4.07-10.86,6.1-16.87,6.1-3.58,0-6.41-.55-8.49-1.66-3.12-1.69-5.82-4.57-8.1-8.63-1.85-3.28-2.78-7.44-2.78-12.48,0-3.38.39-6.53,1.17-9.46,1.04-3.83,3.04-7.04,6-9.61,3.22-2.79,7.67-4.19,13.36-4.19,5.07,0,9.35,1.68,12.83,5.02,1.85,1.79,2.78,3.41,2.78,4.88s-.6,2.29-1.8,2.29c-1.63,0-3.28-.83-4.97-2.49-1.53-1.53-2.57-3.23-3.12-5.12-.23-.78-.97-1.27-2.22-1.46-1.25-.2-2.51-.29-3.78-.29-1.63,0-2.96.1-4,.29-2.7.52-4.83,1.64-6.39,3.36-2.6,2.9-3.9,7.43-3.9,13.61s2.1,11.67,6.29,16.09c1.89,1.95,4.19,3.22,6.92,3.8,1.4.33,3.59.49,6.58.49,4.03,0,7.46-1.01,10.29-3.02.39-.26.86-.59,1.41-.98.13-.06.32-.1.59-.1.39.36.59.68.59.98Z"/>
      <path class="cls-1" d="M448.39,311.74c0,.33-.2.49-.59.49h-23.16c-.32,0-.49-.2-.49-.59v-1.51c0-.45.13-.68.39-.68h7.07c.62,0,.93-.34.93-1.02,0-.2.02-4.14.05-11.82.03-7.69.05-11.94.05-12.75,0-5.07-.05-8.11-.15-9.12-.36-3.02-1.24-4.54-2.63-4.54h-4.83c-.52,0-.78-.16-.78-.49v-1.71c0-.42.16-.63.49-.63h2.88c3.02,0,5.93-.13,8.73-.39,2.08-.2,3.04-.29,2.88-.29.75,0,1.12.51,1.12,1.51,0,.1-.12,4.93-.37,14.51-.24,9.57-.37,14.59-.37,15.04,0,7.8.8,11.7,2.39,11.7h5.9c.32,0,.49.17.49.49v1.8ZM440.34,250c0,1.73-.78,3.25-2.34,4.58-1.33,1.14-2.58,1.71-3.76,1.71-2.15,0-3.22-1.05-3.22-3.17,0-1.27.54-2.55,1.61-3.85,1.3-1.56,2.89-2.34,4.78-2.34s2.93,1.02,2.93,3.07Z"/>
      <g>
        <path class="cls-1" d="M486.67,294.25c-.24,0-.55.06-1.32.38-.35.14-.9.33-1.63.57-.09-.44-.2-1.33-.2-3.09v-21.08c0-.34.02-1.43.07-3.28.05-1.88.07-2.84.07-2.88,0-1.5-1.1-1.54-1.23-1.54-.22,0-.24,0-1.6.57-1.14.47-2.64.71-4.45.71h-1.05c-.6,0-1.21.45-1.21,1.29v.59c0,.71.51,1.23,1.21,1.23h2.78c.1.32.26,1.11.26,3.01,0,.24.02,1.7.05,4.37.02,1.4.03,2.45.03,3.17-.77-.41-1.38-.69-1.84-.87-1.14-.41-2.46-.62-3.94-.62-2.77,0-5.09.9-6.89,2.68-2.03,2.02-3.06,5.03-3.06,8.96,0,2.29.46,4.49,1.36,6.53.76,1.7,1.91,2.99,3.44,3.86,1,.56,2.22.84,3.63.84,2.16,0,4.01-.5,5.54-1.5.8-.58,1.52-1.11,2.17-1.6v.09c0,.11-.02.42-.06.93-.05.59-.07.96-.07,1.08,0,1.02.65,1.47,1.3,1.47.24,0,.46-.09.62-.23.23-.12.74-.36,1.54-.73,2.06-.93,3.68-1.6,4.87-1.99.3-.11.8-.44.8-1.37,0-1.47-.99-1.54-1.18-1.54ZM470.62,294.55c-.53-.25-1.11-.77-1.72-1.55-.23-.29-.59-.89-.99-2.09-.4-1.15-.6-2.25-.6-3.27,0-2.65.59-4.68,1.74-6.04.86-1.01,2.17-1.5,4-1.5s3.61.39,5.05,1.16c.16.09.2.18.22.27.23,1.13.34,2.64.34,4.5,0,1.31,0,2.8.02,4.48,0,.96.01,1.64.04,2.12-.01.06-.02.12-.02.19,0,.2-.02.32,0,.33-1.69,1.23-3.43,1.82-5.32,1.82-1.23,0-2.17-.14-2.77-.42Z"/>
        <path class="cls-1" d="M508.03,294.2c-.09.05-.38.22-.45.3-.02.02-.22.2-.95.44-.81.28-1.88.42-3.18.42-2.52,0-4.31-.45-5.34-1.34-2.05-1.78-3.05-4.02-3.05-6.85v-.11c.12,0,.26,0,.42-.01.61-.02.95-.02,1.04-.02,1.11,0,3.23-.29,6.47-.89,3.79-.69,4.77-.99,5.17-1.14.93-.35,1.03-1.03,1.03-1.3,0-.34-.09-.69-.27-1.1-.56-1.23-1.6-2.38-3.16-3.5-1.23-.89-2.12-1.46-2.71-1.74-.82-.41-1.86-.62-3.07-.62-2.49,0-4.62.86-6.32,2.54-1.44,1.41-2.46,3.34-3.02,5.74-.23.99-.34,2.46-.34,4.5,0,2.97,1.05,5.53,3.13,7.61,1.73,1.73,4.08,2.61,6.96,2.61,1.9,0,3.68-.37,5.3-1.09,1.01-.45,1.8-.87,2.42-1.31.34-.25.77-.62,1.28-1.13.08-.07.14-.16.18-.25.07-.13.15-.41.15-.56,0-.12-.11-.43-.16-.54-.25-.61-.94-.93-1.5-.65ZM495.7,282.95c.41-1.01.71-1.53.89-1.77.67-.89,1.33-1.35,1.95-1.35,1.06,0,1.97.3,2.78.92.81.63,1.5,1.41,2.06,2.34-1.2.38-2.91.66-5.09.83-1.33.1-2.3.18-2.99.25.08-.3.2-.7.41-1.22Z"/>
        <path class="cls-1" d="M523.63,296.18h-2.84c-.11-.41-.29-1.44-.29-4.02,0-.32.05-4.88.14-13.69l.1-9.99c.02-2.19.03-3.29.03-3.32,0-1.42-1.19-1.89-1.88-1.46-.22.07-.64.18-1.24.34-1.08.29-2.11.43-3.06.43h-1.75c-.55,0-1.14.4-1.14,1.28v.74c0,.71.52,1.23,1.23,1.23h2.37c.11.39.3,1.42.3,4.02v24.44h-3.17c-.7,0-1.21.52-1.21,1.23v.78c0,.59.43,1.19,1.25,1.19h11.15c.79,0,1.21-.57,1.21-1.14v-.87c0-.69-.51-1.19-1.21-1.19Z"/>
      </g>
      <rect class="cls-1" x="462.7" y="309.45" width="62.13" height="2.78" rx=".61" ry=".61"/>
      <path class="cls-1" d="M581.65,246.59c-.29,2.05-.8,4.42-1.51,7.12-.13.46-.32.68-.59.68-.32,0-.63-.26-.93-.78-.75-1.46-2.05-2.4-3.9-2.83-3.22-.71-9.01-1.07-17.36-1.07-.52,0-.8.21-.83.63-.03.42-.13,8-.29,22.73-.2,14.14-.29,21.7-.29,22.68,0,9.27.8,13.9,2.39,13.9h8.39c.23,0,.34.13.34.39v1.71c0,.33-.11.49-.34.49h-26.82c-.36,0-.54-.16-.54-.49v-1.61c0-.32.18-.49.54-.49h7.85c.62,0,.93-.42.93-1.27-.13-6.83-.2-10.56-.2-11.22,0-.55.08-6.04.24-16.46.16-10.42.24-15.86.24-16.31,0-9.78-.57-14.68-1.71-14.68-8.39,0-14.31.47-17.75,1.41-2.5.65-4.11,1.55-4.83,2.68-.36.59-.68.88-.98.88-.42,0-.63-.13-.63-.39,0-.36.11-.78.34-1.27.91-3.28,1.64-5.72,2.19-7.32.13-.42.49-.59,1.07-.49.68.1,4.03.29,10.05.59,7.02.33,12.7.49,17.02.49,13.92,0,21.82-.03,23.7-.1.88-.03,1.7-.11,2.46-.22.76-.12,1.13-.17,1.1-.17.42,0,.63.26.63.78Z"/>
      <path class="cls-1" d="M613.2,305.64c0,.07-.03.17-.1.29-1.01,1.01-1.85,1.76-2.54,2.24-1.2.85-2.83,1.73-4.88,2.63-3.28,1.46-6.84,2.19-10.68,2.19-5.72,0-10.27-1.69-13.65-5.07-4.13-4.13-6.19-9.15-6.19-15.07,0-4.22.23-7.33.68-9.31,1.14-4.84,3.14-8.66,6-11.46,3.32-3.28,7.41-4.93,12.29-4.93,2.34,0,4.26.38,5.75,1.12,1.17.56,3.04,1.76,5.61,3.61,3.06,2.18,5.12,4.44,6.19,6.78.26.59.39,1.09.39,1.51,0,.36-.29.65-.88.88-1.24.49-4.86,1.29-10.88,2.39-6.86,1.27-11.43,1.9-13.7,1.9-.2,0-.97.02-2.32.05-1.35.03-2.14.05-2.37.05-.39,0-.59.77-.59,2.29,0,6.73,2.46,12.23,7.36,16.48,2.63,2.28,6.96,3.41,12.97,3.41,3.09,0,5.63-.34,7.61-1.02,1.4-.45,2.36-.94,2.88-1.46.1-.06.24-.15.44-.24.16,0,.29.12.39.34.07.1.13.23.2.39ZM604.08,279.55c0-.26-.16-.68-.49-1.27-1.4-2.47-3.15-4.52-5.27-6.14-2.11-1.62-4.55-2.44-7.32-2.44-2.05,0-4.02,1.25-5.9,3.76-.68.95-1.41,2.39-2.19,4.34-.85,2.12-1.27,3.74-1.27,4.88,0,.52.2.78.59.78-.32,0,2.47-.23,8.39-.68,5.63-.45,9.85-1.22,12.68-2.29.52-.23.78-.54.78-.93Z"/>
      <path class="cls-1" d="M657.34,309.01c0,.17-.07.38-.2.63-1.85,1.85-3.19,3.04-4,3.56-.29.23-.59.34-.88.34-1.92,0-3.82-.89-5.71-2.68-1.76-1.66-3.06-3.64-3.9-5.95-.2-.59-.46-.65-.78-.2-.36.56-1.27,1.5-2.73,2.83-1.46,1.34-2.49,2.16-3.07,2.49-3.19,1.85-6.08,2.78-8.68,2.78s-4.31-.42-5.51-1.27c-1.85-1.37-2.78-3.39-2.78-6.1,0-3.18,1.01-6.19,3.02-9.02,1.43-2.01,3.66-3.71,6.68-5.07,3.28-1.49,7.67-2.76,13.17-3.8.29-.06.46-.42.49-1.07.23-4.97.23-8.34,0-10.09-.2-1.72-.94-3-2.24-3.85-1.3-.84-3.14-1.27-5.51-1.27-3.35,0-5.69.41-7.02,1.22-.78.56-1.1,1.12-.98,1.71v1.37c0,1.43-.37,2.7-1.12,3.8-1.17,1.82-2.54,2.73-4.1,2.73-1.14,0-1.71-.75-1.71-2.24,0-1.27.73-2.84,2.19-4.73,1.46-1.88,3.07-3.36,4.83-4.44,3.15-1.92,7.48-2.88,12.97-2.88,3.64,0,6.27.77,7.9,2.29,1.2,1.11,1.8,3.43,1.8,6.97,0,2.57-.15,6.44-.46,11.61-.31,5.17-.46,8.1-.46,8.78,0,3.22.83,5.82,2.49,7.8,1.2,1.4,3.07,2.46,5.61,3.17.46.2.68.39.68.59ZM642.27,290.77c0-.62-.26-.93-.78-.93-2.54,0-5.36.7-8.49,2.1-5.27,2.37-7.9,5.58-7.9,9.61,0,2.47.6,4.16,1.8,5.07,1.01.81,2.6,1.22,4.78,1.22,2.93,0,5.82-1.27,8.68-3.8.78-.68,1.22-1.51,1.32-2.49.39-3.87.59-7.46.59-10.78Z"/>
      <path class="cls-1" d="M692.4,306.33c0,.49-.13.86-.39,1.12-1.33,1.07-3.07,2.1-5.22,3.07-3.67,1.73-7.09,2.58-10.24,2.58-6.8,0-10.19-3.46-10.19-10.39,0-.42.07-4.03.2-10.83.13-6.79.2-10.37.2-10.73,0-.42-.03-1.83-.1-4.22-.07-2.39-.1-3.65-.1-3.78,0-.68-.31-1.17-.93-1.46-.49-.26-1.76-.83-3.8-1.71-.42-.2-.62-.57-.59-1.12,0-.42.24-.81.73-1.17,3.25-2.76,6.71-5.67,10.39-8.73.49-.32.91-.49,1.27-.49.52,0,.68.47.49,1.41-.39,2.12-.59,4.28-.59,6.49,0,1.07.16,1.61.49,1.61.29,0,3.1-.09,8.44-.27,5.33-.18,8.08-.27,8.24-.27.68,0,.93.34.73,1.02,0,.65-.24,1.58-.73,2.78-.16.49-.46.73-.88.73-.29,0-2.95-.02-7.97-.05-5.02-.03-7.63-.05-7.83-.05-.39,0-.59.17-.59.49v27.07c0,2.83.41,4.9,1.22,6.19.88,1.46,3.33,2.19,7.36,2.19,2.21,0,4.81-.5,7.8-1.51,1.3-.59,2-.88,2.1-.88.32,0,.49.29.49.88Z"/>
      <path class="cls-1" d="M729.56,271.99c-.36,2.12-.86,4.15-1.51,6.1-.16.52-.39.78-.68.78-.36,0-.65-.16-.88-.49-.85-1.2-1.59-2.03-2.24-2.49-1.27-1.01-2.89-1.51-4.88-1.51-3.67,0-6.44.8-8.29,2.39-.32.29-.49.73-.49,1.32,0,.2-.02,3.95-.05,11.27-.03,7.32-.05,11.19-.05,11.61,0,5.79.54,8.68,1.61,8.68h9.56c.42,0,.63.23.63.68v1.41c0,.33-.15.49-.44.49h-24.97c-.46,0-.68-.16-.68-.49v-1.41c0-.45.2-.68.59-.68h5.9c.62,0,.93-.31.93-.93v-32.04c0-4.45-.54-6.68-1.61-6.68h-6c-.32,0-.49-.18-.49-.54v-1.56c0-.36.16-.54.49-.54h6.68c2.34,0,3.84-.1,4.49-.29,1.79-.52,2.76-.78,2.93-.78.46,0,.68.44.68,1.32,0,.23-.03,1.2-.1,2.9-.07,1.71-.1,2.66-.1,2.85,0,.95.2,1.22.59.83,1.49-1.3,3.2-2.73,5.12-4.29,2.37-1.76,4.7-2.63,6.97-2.63,2.63,0,4.66,1.11,6.1,3.32.29.46.36.93.2,1.41Z"/>
      <path class="cls-1" d="M776.28,289.65c0,4.23-.7,8-2.1,11.31-1.63,3.84-4.58,6.96-8.88,9.36-2.96,1.66-6.39,2.49-10.29,2.49-4.42,0-7.56-.39-9.41-1.17-3.97-1.76-6.95-4.66-8.95-8.7-2-4.05-3-8.35-3-12.9,0-5,1.09-9.43,3.27-13.26,1.98-3.44,4.78-6.08,8.39-7.9,2.8-1.4,6.76-2.1,11.9-2.1,4.16,0,7.46.77,9.9,2.29,3.19,2.02,5.54,4.88,7.07,8.58,1.4,3.41,2.1,7.41,2.1,12ZM769.4,292.04c0-6.76-1.61-12.05-4.83-15.85-3.28-3.93-7.58-5.9-12.87-5.9-2.76,0-4.65.23-5.66.68-.68.29-1.46,1.06-2.34,2.29-1.92,2.8-2.88,6.96-2.88,12.48s1.02,11.02,3.07,15.8c1.43,3.29,3.33,5.64,5.71,7.07,2.08,1.27,4.39,1.9,6.92,1.9,2.93,0,5.19-.45,6.78-1.37,1.92-1.14,3.48-3.32,4.68-6.53.94-2.44,1.41-5.96,1.41-10.58Z"/>
    </g>
    <g>
      <path class="cls-1" d="M209.04,352.76l7.88-19.79h3.06l7.9,19.79h-2.45l-2.08-5.22h-9.93l-2.05,5.22h-2.34ZM214.2,345.57h8.37l-2.6-6.61c-.06-.15-.14-.38-.26-.69-.11-.31-.24-.66-.39-1.05s-.29-.79-.43-1.2c-.14-.4-.28-.77-.42-1.1h-.2c-.12.37-.26.8-.45,1.3-.18.5-.37.99-.55,1.49-.18.49-.34.91-.48,1.25l-2.6,6.61Z"/>
      <path class="cls-1" d="M239.68,353.1c-1.06,0-2.09-.1-3.09-.29-1-.19-1.89-.52-2.65-.98-.77-.46-1.38-1.07-1.82-1.82-.44-.75-.66-1.68-.66-2.8v-.27c0-.09,0-.18.03-.27h2.28c0,.08,0,.18-.01.32-.01.14-.01.25-.01.35,0,.85.25,1.55.76,2.12.51.57,1.2.99,2.08,1.27.88.28,1.86.42,2.96.42.36,0,.8-.02,1.31-.07.51-.05,1.03-.14,1.56-.29.53-.14,1.01-.35,1.46-.61.44-.26.8-.6,1.08-1.01.28-.42.42-.93.42-1.54,0-.71-.19-1.3-.58-1.76-.39-.46-.89-.84-1.51-1.14-.63-.3-1.34-.56-2.15-.79-.81-.23-1.63-.45-2.48-.66-.85-.21-1.67-.45-2.47-.72-.8-.27-1.51-.61-2.15-1.01-.64-.41-1.14-.91-1.51-1.51s-.56-1.35-.56-2.24c0-.77.15-1.47.46-2.11s.78-1.18,1.41-1.63c.63-.45,1.44-.8,2.42-1.05.98-.25,2.14-.37,3.49-.37,1.02,0,1.97.11,2.86.32.88.21,1.66.54,2.34.99.67.45,1.2,1.02,1.57,1.7.38.68.56,1.5.56,2.47v.35h-2.25v-.49c0-.71-.22-1.31-.66-1.8-.44-.49-1.03-.87-1.77-1.15-.74-.28-1.58-.42-2.53-.42-1.29,0-2.35.13-3.17.39-.83.26-1.44.62-1.85,1.07-.4.45-.61.96-.61,1.52,0,.65.19,1.2.58,1.63.38.43.89.79,1.53,1.07.64.28,1.35.53,2.15.75.8.22,1.62.44,2.47.65.85.21,1.67.46,2.47.74.8.28,1.52.62,2.16,1.04.64.41,1.16.93,1.53,1.54s.56,1.37.56,2.28c0,1.37-.34,2.48-1.02,3.35-.68.87-1.62,1.5-2.81,1.91-1.19.41-2.58.61-4.15.61Z"/>
      <path class="cls-1" d="M260.88,353.1c-1.06,0-2.09-.1-3.09-.29-1-.19-1.89-.52-2.65-.98-.77-.46-1.38-1.07-1.82-1.82-.44-.75-.66-1.68-.66-2.8v-.27c0-.09,0-.18.03-.27h2.28c0,.08,0,.18-.01.32-.01.14-.01.25-.01.35,0,.85.25,1.55.76,2.12.51.57,1.2.99,2.08,1.27.88.28,1.86.42,2.96.42.36,0,.8-.02,1.31-.07.51-.05,1.03-.14,1.56-.29.53-.14,1.01-.35,1.46-.61.44-.26.8-.6,1.08-1.01.28-.42.42-.93.42-1.54,0-.71-.19-1.3-.58-1.76-.39-.46-.89-.84-1.51-1.14-.63-.3-1.34-.56-2.15-.79-.81-.23-1.63-.45-2.48-.66s-1.67-.45-2.47-.72c-.8-.27-1.51-.61-2.15-1.01-.64-.41-1.14-.91-1.51-1.51s-.56-1.35-.56-2.24c0-.77.15-1.47.46-2.11s.78-1.18,1.41-1.63c.63-.45,1.44-.8,2.42-1.05.98-.25,2.14-.37,3.49-.37,1.02,0,1.97.11,2.86.32.88.21,1.66.54,2.34.99.67.45,1.2,1.02,1.57,1.7.38.68.56,1.5.56,2.47v.35h-2.25v-.49c0-.71-.22-1.31-.66-1.8-.44-.49-1.03-.87-1.77-1.15-.74-.28-1.58-.42-2.53-.42-1.29,0-2.35.13-3.17.39-.83.26-1.44.62-1.85,1.07-.4.45-.61.96-.61,1.52,0,.65.19,1.2.58,1.63.38.43.89.79,1.53,1.07.64.28,1.35.53,2.15.75.8.22,1.62.44,2.47.65.85.21,1.67.46,2.47.74.8.28,1.52.62,2.16,1.04.64.41,1.16.93,1.53,1.54.38.62.56,1.37.56,2.28,0,1.37-.34,2.48-1.02,3.35-.68.87-1.62,1.5-2.81,1.91-1.19.41-2.58.61-4.15.61Z"/>
      <path class="cls-1" d="M283.65,353.1c-2.04,0-3.79-.38-5.27-1.14-1.47-.76-2.6-1.9-3.39-3.42-.79-1.52-1.18-3.42-1.18-5.68s.39-4.19,1.18-5.7c.79-1.51,1.92-2.64,3.39-3.41,1.47-.76,3.23-1.14,5.27-1.14s3.82.38,5.29,1.14c1.47.76,2.6,1.89,3.38,3.41.78,1.51,1.17,3.41,1.17,5.7s-.39,4.16-1.17,5.68c-.78,1.52-1.9,2.66-3.38,3.42-1.47.76-3.24,1.14-5.29,1.14ZM283.65,351.14c1.13,0,2.16-.15,3.09-.45.92-.3,1.71-.77,2.36-1.43.65-.66,1.16-1.48,1.51-2.48.36-1,.54-2.2.54-3.61v-.61c0-1.42-.18-2.63-.54-3.63-.36-1-.86-1.83-1.51-2.48-.65-.65-1.44-1.13-2.36-1.43-.92-.3-1.95-.45-3.09-.45s-2.16.15-3.07.45c-.91.3-1.7.77-2.35,1.43-.65.66-1.16,1.48-1.51,2.48-.36,1-.53,2.21-.53,3.63v.61c0,1.41.18,2.61.53,3.61.36,1,.86,1.83,1.51,2.48.66.65,1.44,1.13,2.35,1.43.91.3,1.94.45,3.07.45Z"/>
      <path class="cls-1" d="M307.74,353.1c-2.02,0-3.73-.37-5.12-1.12-1.39-.75-2.45-1.89-3.17-3.41-.72-1.52-1.08-3.42-1.08-5.71,0-3.42.83-5.99,2.48-7.69,1.65-1.7,3.97-2.55,6.95-2.55,1.71,0,3.22.27,4.52.82,1.3.55,2.32,1.37,3.06,2.45.74,1.08,1.11,2.47,1.11,4.14h-2.31c0-1.25-.26-2.28-.78-3.07-.52-.8-1.26-1.39-2.21-1.79-.95-.39-2.09-.59-3.42-.59-1.42,0-2.66.28-3.72.83-1.06.56-1.88,1.43-2.45,2.61-.58,1.18-.87,2.73-.87,4.63v.61c0,1.86.29,3.37.87,4.53.58,1.15,1.39,2,2.45,2.54,1.06.54,2.31.81,3.75.81,1.33,0,2.47-.2,3.43-.59s1.7-.99,2.22-1.79c.52-.8.78-1.82.78-3.07h2.25c0,1.69-.38,3.09-1.14,4.18-.76,1.1-1.79,1.91-3.1,2.44-1.31.53-2.81.79-4.5.79Z"/>
      <path class="cls-1" d="M322.28,352.76v-19.79h2.28v19.79h-2.28Z"/>
      <path class="cls-1" d="M329.12,352.76l7.88-19.79h3.06l7.9,19.79h-2.45l-2.08-5.22h-9.93l-2.05,5.22h-2.34ZM334.28,345.57h8.37l-2.6-6.61c-.06-.15-.14-.38-.26-.69-.11-.31-.24-.66-.39-1.05-.14-.39-.29-.79-.43-1.2-.14-.4-.28-.77-.42-1.1h-.2c-.12.37-.26.8-.45,1.3s-.37.99-.55,1.49c-.18.49-.34.91-.48,1.25l-2.6,6.61Z"/>
      <path class="cls-1" d="M350.9,352.76v-1.24l12.67-16.59h-11.92v-1.96h15.29v1.21l-12.75,16.62h13.01v1.96h-16.3Z"/>
      <path class="cls-1" d="M372.62,352.76v-19.79h2.28v19.79h-2.28Z"/>
      <path class="cls-1" d="M390.63,353.1c-2.04,0-3.79-.38-5.27-1.14-1.47-.76-2.6-1.9-3.39-3.42-.79-1.52-1.18-3.42-1.18-5.68s.39-4.19,1.18-5.7c.79-1.51,1.92-2.64,3.39-3.41,1.47-.76,3.23-1.14,5.27-1.14s3.82.38,5.29,1.14c1.47.76,2.6,1.89,3.38,3.41.78,1.51,1.17,3.41,1.17,5.7s-.39,4.16-1.17,5.68c-.78,1.52-1.9,2.66-3.38,3.42-1.47.76-3.24,1.14-5.29,1.14ZM390.63,351.14c1.13,0,2.16-.15,3.09-.45.92-.3,1.71-.77,2.36-1.43.65-.66,1.16-1.48,1.51-2.48s.54-2.2.54-3.61v-.61c0-1.42-.18-2.63-.54-3.63s-.86-1.83-1.51-2.48c-.65-.65-1.44-1.13-2.36-1.43-.92-.3-1.95-.45-3.09-.45s-2.16.15-3.07.45c-.91.3-1.7.77-2.35,1.43-.65.66-1.16,1.48-1.51,2.48s-.53,2.21-.53,3.63v.61c0,1.41.18,2.61.53,3.61s.86,1.83,1.51,2.48c.66.65,1.44,1.13,2.35,1.43.91.3,1.94.45,3.07.45Z"/>
      <path class="cls-1" d="M406.41,352.76v-19.79h2.22l10.13,13.68c.12.13.26.32.42.55.16.23.33.46.49.7.16.24.3.46.42.65h.14v-15.58h2.22v19.79h-1.99l-10.33-13.96c-.13-.19-.35-.5-.63-.91-.29-.42-.54-.76-.75-1.05h-.11v15.93h-2.22Z"/>
      <path class="cls-1" d="M429.4,352.76v-19.79h15.15v1.96h-12.87v6.7h11.6v1.99h-11.6v7.18h13.04v1.96h-15.32Z"/>
      <path class="cls-1" d="M466.94,353.1c-2.02,0-3.73-.37-5.12-1.12-1.39-.75-2.45-1.89-3.17-3.41-.72-1.52-1.08-3.42-1.08-5.71,0-3.42.83-5.99,2.48-7.69,1.65-1.7,3.97-2.55,6.95-2.55,1.71,0,3.22.27,4.52.82,1.3.55,2.32,1.37,3.06,2.45.74,1.08,1.11,2.47,1.11,4.14h-2.31c0-1.25-.26-2.28-.78-3.07-.52-.8-1.26-1.39-2.21-1.79-.95-.39-2.09-.59-3.42-.59-1.42,0-2.66.28-3.72.83-1.06.56-1.88,1.43-2.45,2.61-.58,1.18-.87,2.73-.87,4.63v.61c0,1.86.29,3.37.87,4.53s1.39,2,2.45,2.54c1.06.54,2.31.81,3.75.81,1.33,0,2.47-.2,3.43-.59.96-.39,1.7-.99,2.22-1.79.52-.8.78-1.82.78-3.07h2.25c0,1.69-.38,3.09-1.14,4.18-.76,1.1-1.79,1.91-3.1,2.44-1.31.53-2.81.79-4.5.79Z"/>
      <path class="cls-1" d="M489.38,353.1c-1.65,0-3.07-.26-4.25-.79-1.18-.53-2.09-1.38-2.73-2.55-.63-1.17-.95-2.69-.95-4.56v-12.23h2.28v12.7c0,1.82.49,3.19,1.49,4.1.99.91,2.38,1.36,4.17,1.36s3.26-.45,4.28-1.36c1.03-.91,1.54-2.27,1.54-4.1v-12.7h2.25v12.23c0,1.87-.32,3.39-.97,4.56-.64,1.17-1.57,2.03-2.77,2.55-1.2.53-2.65.79-4.34.79Z"/>
      <path class="cls-1" d="M504.41,352.76v-19.79h2.28v17.8h9.78v1.99h-12.06Z"/>
      <path class="cls-1" d="M523.8,352.76v-17.8h-7.01v-1.99h16.36v1.99h-7.07v17.8h-2.28Z"/>
      <path class="cls-1" d="M545.87,353.1c-1.65,0-3.07-.26-4.25-.79-1.18-.53-2.09-1.38-2.73-2.55-.63-1.17-.95-2.69-.95-4.56v-12.23h2.28v12.7c0,1.82.49,3.19,1.49,4.1.99.91,2.38,1.36,4.17,1.36s3.26-.45,4.28-1.36c1.03-.91,1.54-2.27,1.54-4.1v-12.7h2.25v12.23c0,1.87-.32,3.39-.97,4.56s-1.57,2.03-2.77,2.55c-1.2.53-2.65.79-4.34.79Z"/>
      <path class="cls-1" d="M560.91,352.76v-19.79h10.39c1.31,0,2.39.25,3.25.74.86.49,1.5,1.16,1.93,2,.43.85.65,1.81.65,2.88,0,1.41-.32,2.59-.97,3.56-.64.97-1.5,1.66-2.55,2.06l4.21,8.54h-2.51l-3.95-8.14h-8.17v8.14h-2.28ZM563.18,342.66h7.88c1.17,0,2.1-.36,2.77-1.08.67-.72,1.01-1.72,1.01-2.99,0-.77-.14-1.42-.43-1.96-.29-.54-.71-.95-1.27-1.25-.56-.3-1.25-.45-2.08-.45h-7.88v7.73Z"/>
      <path class="cls-1" d="M581.36,352.76l7.88-19.79h3.06l7.9,19.79h-2.45l-2.08-5.22h-9.93l-2.05,5.22h-2.34ZM586.53,345.57h8.37l-2.6-6.61c-.06-.15-.14-.38-.26-.69-.11-.31-.24-.66-.39-1.05s-.29-.79-.43-1.2c-.14-.4-.28-.77-.42-1.1h-.2c-.12.37-.26.8-.45,1.3s-.37.99-.55,1.49c-.18.49-.34.91-.48,1.25l-2.6,6.61Z"/>
      <path class="cls-1" d="M604.79,352.76v-19.79h2.28v17.8h9.78v1.99h-12.06Z"/>
      <path class="cls-1" d="M621.52,352.76v-19.79h15.15v1.96h-12.87v6.7h11.6v1.99h-11.6v7.18h13.04v1.96h-15.32Z"/>
      <path class="cls-1" d="M650.75,352.76v-19.79h2.22l10.13,13.68c.12.13.26.32.42.55.16.23.33.46.49.7.16.24.3.46.42.65h.14v-15.58h2.22v19.79h-1.99l-10.33-13.96c-.13-.19-.35-.5-.63-.91-.29-.42-.54-.76-.75-1.05h-.11v15.93h-2.22Z"/>
      <path class="cls-1" d="M682.51,353.1c-2.04,0-3.79-.38-5.27-1.14-1.47-.76-2.6-1.9-3.39-3.42-.79-1.52-1.18-3.42-1.18-5.68s.39-4.19,1.18-5.7c.79-1.51,1.92-2.64,3.39-3.41,1.47-.76,3.23-1.14,5.27-1.14s3.82.38,5.29,1.14c1.47.76,2.6,1.89,3.38,3.41s1.17,3.41,1.17,5.7-.39,4.16-1.17,5.68c-.78,1.52-1.9,2.66-3.38,3.42-1.47.76-3.24,1.14-5.29,1.14ZM682.51,351.14c1.13,0,2.16-.15,3.09-.45.92-.3,1.71-.77,2.36-1.43.65-.66,1.16-1.48,1.51-2.48s.54-2.2.54-3.61v-.61c0-1.42-.18-2.63-.54-3.63s-.86-1.83-1.51-2.48c-.65-.65-1.44-1.13-2.36-1.43-.92-.3-1.95-.45-3.09-.45s-2.16.15-3.07.45c-.91.3-1.7.77-2.35,1.43-.65.66-1.16,1.48-1.51,2.48s-.53,2.21-.53,3.63v.61c0,1.41.18,2.61.53,3.61s.86,1.83,1.51,2.48c.66.65,1.44,1.13,2.35,1.43.91.3,1.94.45,3.07.45Z"/>
      <path class="cls-1" d="M702.71,353.1c-1.27,0-2.36-.21-3.26-.65-.9-.43-1.6-1.06-2.08-1.89-.48-.83-.72-1.87-.72-3.12v-.75h2.28v.95c0,1.12.33,1.98.98,2.58.66.61,1.59.91,2.8.91s2.21-.39,2.88-1.18c.67-.79,1.01-1.98,1.01-3.58v-13.41h2.28v13.21c0,1.56-.24,2.85-.74,3.88-.49,1.03-1.2,1.79-2.12,2.29s-2.03.75-3.32.75Z"/>
      <path class="cls-1" d="M713.41,352.76l7.88-19.79h3.06l7.9,19.79h-2.45l-2.08-5.22h-9.93l-2.05,5.22h-2.34ZM718.58,345.57h8.37l-2.6-6.61c-.06-.15-.14-.38-.26-.69-.11-.31-.24-.66-.39-1.05s-.29-.79-.43-1.2c-.14-.4-.28-.77-.42-1.1h-.2c-.12.37-.26.8-.45,1.3-.18.5-.37.99-.55,1.49-.18.49-.34.91-.48,1.25l-2.6,6.61Z"/>
      <path class="cls-1" d="M736.84,352.76v-19.79h2.22l10.13,13.68c.12.13.26.32.42.55.16.23.33.46.49.7.16.24.3.46.42.65h.14v-15.58h2.22v19.79h-1.99l-10.33-13.96c-.13-.19-.35-.5-.63-.91-.29-.42-.54-.76-.75-1.05h-.11v15.93h-2.22Z"/>
      <path class="cls-1" d="M757.44,352.76l7.88-19.79h3.06l7.9,19.79h-2.45l-2.08-5.22h-9.93l-2.05,5.22h-2.34ZM762.6,345.57h8.37l-2.6-6.61c-.06-.15-.14-.38-.26-.69-.11-.31-.24-.66-.39-1.05-.14-.39-.29-.79-.43-1.2-.14-.4-.28-.77-.42-1.1h-.2c-.12.37-.26.8-.45,1.3-.18.5-.37.99-.55,1.49-.18.49-.34.91-.48,1.25l-2.6,6.61Z"/>
    </g>
  </g>
</svg>