<svg version="1.1" xmlns="http://www.w3.org/2000/svg" style="display: block;" viewBox="0 0 1365 2048" width="1024" height="1536" preserveAspectRatio="none">
<path transform="translate(0,0)" fill="rgb(255,255,255)" d="M 0 0 L 1365 0 L 1365 2048 L 0 2048 L 0 0 z"/>
<path transform="translate(0,0)" fill="rgb(0,162,231)" d="M 383.191 583.012 L 1024.23 583.01 L 1024.21 645.321 C 1024.21 651.827 1024.62 669.536 1023.93 675.56 C 1024.94 721.841 1024.18 770.741 1024.18 817.174 L 1024.16 1077.61 L 1024.15 1247.13 C 1024.16 1272.46 1025.36 1311.22 1023.96 1335.33 C 1024.63 1364.72 1016.13 1388.53 995.926 1409.88 C 975.353 1431.61 953.732 1439.68 924.13 1439.79 C 874.769 1439.97 825.634 1439.87 776.29 1439.24 C 765.34 1439.1 753.957 1438.27 743.204 1440.43 C 726.347 1444.08 711.795 1458.66 703.111 1472.99 C 675.729 1433.01 659.387 1439.07 615.881 1439.55 L 533.304 1439.79 C 483.215 1439.85 434.354 1448.53 402.71 1399.61 C 390.028 1380 384.321 1360.57 383.169 1337.46 L 383.323 671.723 L 383.191 583.012 z"/>
<path transform="translate(0,0)" fill="rgb(41,42,43)" d="M 383.191 583.012 L 1024.23 583.01 L 1024.21 645.321 C 1024.21 651.827 1024.62 669.536 1023.93 675.56 C 1024.94 721.841 1024.18 770.741 1024.18 817.174 L 1024.16 1077.61 L 1024.15 1247.13 C 1024.16 1272.46 1025.36 1311.22 1023.96 1335.33 C 1024.63 1364.72 1016.13 1388.53 995.926 1409.88 C 975.353 1431.61 953.732 1439.68 924.13 1439.79 C 874.769 1439.97 825.634 1439.87 776.29 1439.24 C 765.34 1439.1 753.957 1438.27 743.204 1440.43 C 726.347 1444.08 711.795 1458.66 703.111 1472.99 C 675.729 1433.01 659.387 1439.07 615.881 1439.55 L 533.304 1439.79 C 483.215 1439.85 434.354 1448.53 402.71 1399.61 C 390.028 1380 384.321 1360.57 383.169 1337.46 L 386.784 1342.13 C 388.371 1340.48 388.342 1340.07 389.131 1337.96 C 391.881 1362.54 397.455 1384.85 413.97 1404.38 C 424.688 1417.28 439.161 1426.52 455.374 1430.81 C 469.432 1434.42 494.315 1433.42 509.467 1433.4 L 605.002 1433.09 C 621.754 1432.99 640.277 1432.44 656.949 1433.27 C 677.222 1434.28 690.586 1446.88 703.011 1461.82 C 705.997 1458.35 708.976 1454.79 712.217 1451.56 C 719.734 1444.05 727.559 1438.39 737.862 1435.48 C 756.611 1430.19 832.916 1433.22 858.425 1433.29 L 905.504 1433.37 C 940.045 1433.38 963.445 1434.01 990.366 1406.9 C 1004.86 1392.42 1014.22 1373.59 1017 1353.29 C 1019.33 1337.05 1018.16 1294.48 1018.15 1275.78 L 1018.12 1122.52 L 1018.22 589.386 C 969.007 588.726 918.551 589.342 869.194 589.338 L 575.697 589.337 L 455.962 589.369 C 435.277 589.375 409.151 590.051 388.906 588.949 C 383.641 590.638 385.355 594.083 384.592 598.634 C 383.172 607.104 386.277 668.037 383.323 671.723 L 383.191 583.012 z"/>
<path transform="translate(0,0)" fill="rgb(57,30,14)" d="M 1023.96 1335.33 C 1023.04 1338.27 1022.59 1341.83 1020.56 1343.27 C 1018.42 1339.1 1019.42 1178.66 1019.41 1156.46 L 1019.4 746.019 L 1019.38 647.007 C 1019.39 638.512 1018.87 604.851 1020.57 598.029 C 1025.03 610.876 1019.52 670.777 1023.93 675.56 C 1024.94 721.841 1024.18 770.741 1024.18 817.174 L 1024.16 1077.61 L 1024.15 1247.13 C 1024.16 1272.46 1025.36 1311.22 1023.96 1335.33 z"/>
<path transform="translate(0,0)" fill="rgb(57,30,14)" d="M 383.323 671.723 C 386.277 668.037 383.172 607.104 384.592 598.634 C 385.355 594.083 383.641 590.638 388.906 588.949 C 389.995 628.407 389.164 670.951 389.161 710.666 L 389.135 937.108 L 389.137 1204.89 C 389.139 1248.42 389.947 1294.63 389.131 1337.96 C 388.342 1340.07 388.371 1340.48 386.784 1342.13 L 383.169 1337.46 L 383.323 671.723 z"/>
<path transform="translate(0,0)" fill="rgb(41,42,43)" d="M 703.351 621.032 C 721.259 620.052 724.242 635.017 725.233 649.058 C 732.215 642.59 740.097 636.316 750.436 637.701 C 760.271 639.019 763.633 649.533 762.001 658.222 C 759.827 669.791 752.355 675.052 743.434 681.413 C 757.312 688.847 776.185 704.58 752.449 719.954 C 745.653 724.355 732.616 720.483 725.298 717.504 C 725.5 731.485 724.75 737.318 715.059 747.491 L 714.953 878.023 C 721.902 866.487 746.143 839.907 747.575 869.508 C 757.398 849.708 770.3 827.568 779.22 808.023 C 770.928 783.643 767.421 740.414 789.527 722.073 L 790.937 722.383 C 797.803 731.604 797.108 767.155 797.121 779.847 C 803.307 767.783 816.379 749.387 824.211 737.709 C 816.149 736.48 809.983 735.952 803.855 730.005 C 800.5 726.782 798.6 722.333 798.593 717.681 C 798.61 707.739 804.595 701.112 811.129 694.596 C 801.502 683.053 797.941 665.97 813.934 658.401 C 819.599 655.72 824.267 655.651 830.292 654.657 C 833.067 645.244 836.234 635.361 846.824 631.497 C 861.607 626.104 869.475 635.633 874.233 648.358 C 881.568 641.633 888.369 636.628 898.901 639.175 C 903.961 640.348 908.293 643.6 910.831 648.132 C 914.67 655.052 913.857 660.82 911.924 667.945 C 913.117 668.298 914.305 668.669 915.486 669.059 C 940.96 677.538 939.47 701.502 915.102 713.083 C 929.621 739.854 907.792 755.875 882.377 743.326 C 872.368 765.288 853.664 770.522 839.057 748.15 L 810.758 795.027 C 833.561 782.706 855.796 777.914 881.477 778.606 C 863.572 802.424 829.055 827.726 797.911 818.507 C 788.774 831.588 780.037 846.471 773.271 860.955 C 770.888 866.058 770.325 871.347 767.415 877.578 C 763.291 879.718 761.556 880.118 760.321 884.575 C 763.381 885.986 766.416 887.452 769.423 888.975 C 790.993 900.102 762.135 917.26 748.397 919.689 C 744.674 929.908 735.116 944.161 732.763 954.518 C 732.587 955.292 733.885 956.159 734.662 956.884 C 738.417 956.582 741.289 952.321 743.253 949.396 C 757.664 927.927 776.502 911.327 795.961 894.403 C 796.981 866.648 805.342 852.318 828.198 837.539 C 828.005 852.083 826.057 861.135 822.472 875.041 C 838.162 864.172 849.752 858.629 867.653 852.054 C 870.95 838.996 875.907 834.931 887.091 828.148 C 873.442 800.192 901.071 772.566 925.363 799.893 C 947.435 777.84 969.523 791.435 963.969 821.358 C 978.933 826.824 992.445 839.537 981.305 857.192 C 975.443 866.482 964.356 866.579 954.25 867.827 C 946.375 888.2 940.977 907.652 912.786 890.235 C 907.002 886.662 905.95 879.083 905.194 872.858 C 892.505 874.619 888.02 874.776 876.53 869.382 C 861.577 874.027 851.991 880.186 838.567 887.854 C 846.771 890.258 859.611 894.635 863.628 902.763 C 864.264 921.692 824.449 910.509 814.701 904.238 C 791.929 923.192 779.345 934.861 761.485 958.578 L 781.339 961.14 C 814.292 941.291 849.085 945.285 860.15 985.593 C 871.791 1028 845.217 1054.92 824.387 1087.2 C 808.564 1111.72 815.45 1144.36 822.48 1171.03 C 805.315 1163.67 798.756 1161.05 789.716 1144.34 C 783.386 1181.86 772.303 1209.61 744.21 1235.8 C 739.18 1241.27 725.555 1252.48 723.73 1259.53 C 710.463 1310.78 779.455 1326.7 814.829 1338.83 C 819.443 1340.41 822.808 1342.89 824.294 1346.48 C 823.878 1349.2 823.383 1350.37 821.357 1352.33 C 804.254 1368.89 703.474 1365.9 676.993 1365.79 C 658.737 1365.73 598.043 1365.35 584.176 1358.29 C 580.724 1356.53 578.323 1354.46 577.133 1350.69 C 578.035 1345.98 582.711 1342.13 586.538 1341.54 C 616.241 1336.93 641.76 1329.27 663.247 1306.66 C 673.216 1296.17 684.006 1272.24 676.312 1257.09 C 671.906 1248.41 661.522 1241.15 654.634 1234.37 C 627.57 1210.97 611.809 1180.56 609.553 1144.42 C 599.786 1161.4 594.999 1164.33 577.303 1171.82 C 582.743 1149.25 588.213 1120.29 580.331 1097.11 C 576.23 1089.1 571.596 1081.76 565.43 1074.7 C 535.929 1040.94 516.148 979.688 564.237 952.434 C 579.474 943.798 604.905 954.031 621.214 960.996 C 629.508 959.55 639.037 958.418 647.452 957.242 C 638.776 941.524 610.151 914.426 594.234 904.845 C 581.951 910.509 554.662 919.823 543.637 908.45 C 540.202 897.362 560.649 890.805 568.712 888.371 C 556.061 881.506 539.51 871.924 526.265 867.432 C 519.708 870.272 512.57 872.019 505.38 871.22 C 503.836 871.048 499.015 869.579 497.847 869.915 C 494.698 870.821 492.823 888.292 484.639 892.583 C 479.104 895.486 470.089 895.691 464.298 893.5 C 452.151 888.902 456.004 878.176 451.713 869.294 C 450.226 866.215 436.884 866.661 433.027 864.919 C 428.193 862.735 423.28 857.352 421.596 852.382 C 419.958 847.55 420.887 842.407 423.227 837.982 C 427.527 829.85 434.662 826.739 443.086 824.368 C 439.018 813.107 438.825 801.999 448.253 793.211 C 452.512 789.172 458.236 787.049 464.098 787.332 C 473.653 787.783 478.524 792.566 484.43 799.157 C 492.488 791.43 501.654 785.864 513.075 791.613 C 518.449 794.288 522.415 799.143 523.966 804.943 C 526.227 813.417 523.716 817.746 519.88 824.729 C 532.677 831.933 535.971 835.629 536.402 850.578 C 551.167 856.004 568.531 864.808 581.882 873.044 C 579.533 864.811 575.745 852.46 579.335 844.502 C 588.621 837.498 599.877 860.502 602.398 867.08 C 605.391 874.887 605.228 879.761 604.858 887.978 C 622.591 899.869 639.085 914.029 653.363 930.126 C 657.286 934.548 668.905 954.218 672.325 955.692 C 675.74 955.791 676.657 956.128 679.418 954.444 C 674.92 942.834 665.808 925.548 660.254 913.637 C 641.346 909.736 616.677 898.12 645.207 881.744 C 633.229 861.393 621.497 840.658 608.047 821.273 C 574.147 826.95 545.257 806.744 522.622 783.831 C 548.349 781.301 564.614 785.388 588.41 793.854 C 580.389 780.459 569.097 761.049 557.472 750.352 C 556.311 749.283 548.944 745.493 547.149 744.566 C 540.868 755.955 526.153 772.574 511.367 759.823 C 505.689 754.926 506.504 745.363 506.687 738.284 C 502.19 741.2 499.147 742.527 494.246 744.753 C 463.613 742.834 462.564 720.25 482.911 701.86 C 481.809 701.047 480.714 700.224 479.627 699.391 C 468.652 690.973 461.508 680.795 471.728 667.069 C 477.957 658.702 488.843 660.393 498.051 659.317 C 498.101 654.401 497.271 646.976 499.238 642.678 C 503.743 632.842 513.198 627.782 523.833 630.344 C 533.705 632.722 537.258 638.51 542.166 646.784 C 550.567 635.643 563.961 625.205 576.695 639.609 C 583.17 646.933 581.082 654.179 579.993 663.203 C 585 673.581 621.309 682.248 584.199 710.354 C 592.788 722.856 587.078 730.073 579.587 741.004 C 587.534 754.845 597.683 768.807 607.168 781.67 C 607.481 772.396 609.931 724.407 624.719 728.253 C 640.878 742.623 632.872 791.376 625.959 810.625 L 664.217 876.136 C 659.869 837.389 682.628 849.64 694.989 874.863 C 695.877 840.249 694.544 805.079 695.17 770.42 C 695.324 761.851 695.131 753.712 695.829 745.106 C 687.662 734.417 688.032 730.307 688.009 716.959 C 676.724 723.697 646.743 735.148 647.351 709.315 C 647.594 698.963 661.009 689.238 668.711 683.265 C 656.784 676.948 642.547 666.776 650.343 650.9 C 652.679 646.204 656.919 642.736 661.986 641.378 C 671.839 638.646 679.713 643.299 687.738 648.076 C 687.942 633.457 688.897 627.33 703.351 621.032 z"/>
<path transform="translate(0,0)" fill="rgb(254,208,1)" d="M 691.404 998.457 C 712.691 997.761 755.629 999.157 777.326 1003.54 C 770.484 1017.14 758.436 1032.34 749.083 1044.73 C 764.25 1059.17 779.433 1074.55 783.542 1095.91 C 790.91 1134.23 778.508 1188.39 752.625 1218.15 C 742.188 1230.14 728.739 1240.78 719.809 1253.4 C 714.735 1260.57 714.341 1272.54 716.681 1281.06 C 725.211 1312.12 756.509 1325.07 784.038 1334.99 C 793.896 1338.54 807.417 1341.54 816.125 1346.76 L 816.333 1348.31 C 804.448 1359.99 726.695 1359.17 708.297 1359.31 C 692.712 1359.66 589.431 1360.4 585.252 1350.17 C 589.716 1344.53 604.042 1345.09 611.539 1342.82 C 643.521 1333.21 675.764 1314.44 683.42 1279.29 C 691.381 1242.73 655.007 1234.17 637.453 1207.49 C 616.712 1175.97 610.32 1137.35 616.761 1100.43 C 620.993 1076.18 635.971 1060.99 655.599 1048.24 C 643.503 1033.05 634.35 1019.6 623.216 1003.67 C 642.477 999.963 671.521 999.034 691.404 998.457 z"/>
<path transform="translate(0,0)" fill="rgb(254,208,1)" d="M 850.279 636.951 C 866.527 635.663 867.829 648.453 869.932 661.064 C 877.275 655.545 883.015 647.07 891.993 644.68 C 899.507 642.68 904.302 646.385 905.804 653.828 C 907.754 663.492 905.356 668.083 900.222 676.032 C 906.507 675.854 916.068 675.008 920.636 679.088 C 939.208 695.676 918.519 705.113 904.786 707.365 C 908.305 715.775 915.902 721.553 913.168 731.986 C 910.857 740.808 901.843 742.665 894.003 740.725 C 885.117 738.527 883.42 734.609 879.125 727.299 C 876.818 736.439 873.781 751.492 863.221 755.211 C 849.821 759.929 844.677 744.975 841.147 735.291 C 833.734 745.489 825.825 758.898 818.968 769.632 C 797.033 803.97 777.802 839.314 758.5 875.152 C 756.226 879.587 753.626 885.661 747.786 885.389 C 748.101 878.804 780.294 820.113 786.207 809.838 C 776.797 782.034 774.631 761.785 787.376 734.851 C 792.686 756.462 790.28 779.101 791.492 801.263 C 802.311 779.89 822.819 750.292 837.488 730.808 C 827.118 732.202 810.356 732.217 805.467 720.589 C 804.093 717.267 804.13 713.528 805.572 710.234 C 808.238 704.108 815.067 698.643 821.369 696.141 C 813.636 688.139 806.397 677.979 812.703 666.872 C 818.438 656.773 830.274 663.133 836.857 667.457 C 837.15 651.673 836.981 646.943 850.279 636.951 z"/>
<path transform="translate(0,0)" fill="rgb(41,42,43)" d="M 864.338 681.159 C 888.881 680.452 892.777 705.475 869.851 715.949 C 860.575 716.612 852.944 714.861 849.776 704.705 C 848.177 699.63 848.838 694.113 851.59 689.559 C 854.891 684.084 858.67 682.647 864.338 681.159 z"/>
<path transform="translate(0,0)" fill="rgb(254,208,1)" d="M 862.221 688.006 C 879.286 686.484 885.573 697.756 870.113 708.17 C 854.341 713.176 850.073 697.564 862.221 688.006 z"/>
<path transform="translate(0,0)" fill="rgb(254,208,1)" d="M 517.444 636.036 C 539.62 636.108 530.588 653.774 540.586 659.334 C 544.361 658.137 566.14 616.035 575.129 653.378 C 576.265 658.098 570.113 668.62 567.71 673.281 C 600.645 669.561 603.126 703.266 566.207 707.049 C 569.101 708.737 577.677 713.466 579.09 715.359 C 586.868 725.784 572.998 744.416 560.956 742.497 C 550.614 740.849 547.91 735.309 542.726 728.614 C 542.136 734.917 541.945 739.33 539.876 745.417 C 539.326 746.173 538.763 746.919 538.188 747.656 C 522.838 767.294 506.661 757.031 514.304 734.58 C 515.655 730.612 516.403 723.941 516.7 719.781 C 508.013 728.05 501.657 738.176 488.402 738.071 C 480.046 738.004 475.387 732.528 476.339 724.203 C 477.626 712.944 486.524 706.626 494.836 700.252 C 485.118 695.978 462.866 682.955 479.004 668.415 C 486.001 662.112 502.634 667.681 511.634 669.959 C 503.867 654.879 496.996 643.793 517.444 636.036 z"/>
<path transform="translate(0,0)" fill="rgb(41,42,43)" d="M 530.062 682.03 C 552.56 681.083 559.73 704.004 540.974 715.978 C 515.903 717.988 512.724 692.892 530.062 682.03 z"/>
<path transform="translate(0,0)" fill="rgb(254,208,1)" d="M 531.17 687.948 C 546.562 687.902 549.391 699.623 539.85 709.939 C 523.842 711.837 521.531 697.84 531.17 687.948 z"/>
<path transform="translate(0,0)" fill="rgb(254,208,1)" d="M 705.07 627.031 C 723.498 630.497 717.456 653.569 717.227 668.398 C 723.344 660.499 729.209 652.877 737.83 647.368 C 749.353 640.003 760.462 646.382 754.932 660.267 C 750.035 672.565 737.873 677.4 726.594 682.4 C 732.685 685.709 739.893 687.609 746.462 690.632 C 759.125 696.461 761.652 711.244 746.19 715.067 C 735.821 717.63 724.279 709.212 715.552 703.892 C 720.035 719.025 723.323 732.477 709.09 743.416 C 685.75 741.309 698.773 717.367 697.147 708.305 C 691.358 704.912 669.859 723.122 660.629 719.179 C 635.793 708.569 676.045 686.651 684.667 682.575 C 675.315 678.129 657.57 674.132 654.995 662.755 C 654.156 659.039 654.925 655.142 657.113 652.025 C 658.967 649.321 661.826 647.473 665.052 646.891 C 674.53 645.258 689.158 657.295 697.205 662.922 C 695.182 649.345 689.584 633.357 705.07 627.031 z"/>
<path transform="translate(0,0)" fill="rgb(41,42,43)" d="M 702.513 673.276 C 704.583 673.149 706.733 673.073 708.796 673.311 C 712.781 673.78 716.393 675.882 718.77 679.115 C 724.582 686.923 718.67 693.843 712.042 698.072 C 695.431 699.161 686.158 681.743 702.513 673.276 z"/>
<path transform="translate(0,0)" fill="rgb(254,208,1)" d="M 703.903 679.739 C 707.027 677.637 711.265 678.484 713.34 681.626 C 715.415 684.767 714.532 688.998 711.373 691.047 C 708.252 693.071 704.082 692.2 702.032 689.096 C 699.981 685.992 700.816 681.815 703.903 679.739 z"/>
<path transform="translate(0,0)" fill="rgb(254,208,1)" d="M 899.878 795.15 C 917.034 793.912 920.075 800.938 923.012 816.19 C 927.82 808.055 944.666 781.725 957.745 803.041 C 961.557 809.255 956.686 819.918 953.563 826.378 C 993.883 831.266 982.537 872.024 945.379 856.938 C 946.334 862.808 946.679 866.373 946.976 872.325 C 942.173 891.521 921.082 898 912.481 877.226 C 910.81 873.189 913.491 869.515 913.415 864.658 C 911.096 864.548 894.716 867.491 889.642 867.895 C 888.48 867.352 887.332 866.782 886.198 866.185 C 878.355 862.061 870.288 855.121 876.436 845.067 C 881.454 836.862 889.897 834.756 898.653 832.39 C 885.641 818.227 884.173 807.996 899.878 795.15 z"/>
<path transform="translate(0,0)" fill="rgb(41,42,43)" d="M 923.57 825.1 C 932.751 823.48 941.514 829.592 943.166 838.767 C 944.818 847.943 938.738 856.727 929.568 858.412 C 920.352 860.105 911.514 853.987 909.854 844.765 C 908.193 835.544 914.342 826.728 923.57 825.1 z"/>
<path transform="translate(0,0)" fill="rgb(254,208,1)" d="M 921.763 832.258 C 925.221 830.584 929.315 830.912 932.462 833.117 C 935.608 835.322 937.315 839.058 936.922 842.88 C 936.529 846.702 934.098 850.012 930.568 851.53 C 925.277 853.806 919.136 851.438 916.742 846.199 C 914.349 840.96 916.579 834.768 921.763 832.258 z"/>
<path transform="translate(0,0)" fill="rgb(254,208,1)" d="M 462.656 793.12 C 475.486 794.303 478.65 801.839 484.191 811.799 C 488.985 804.108 493.193 797.454 503.024 796.07 C 511.083 794.936 518.101 800.667 518.151 808.949 C 518.205 818.077 513.529 822.244 507.505 828.38 C 516.802 830.759 534.016 835.905 530.089 850.076 C 523.897 872.423 496.819 860.224 491.253 863.221 L 490.592 866.254 C 490.515 867.361 490.416 868.466 490.293 869.568 C 488.522 885.195 473.247 898.696 461.104 881.485 C 456.083 874.368 459.065 864.552 461.324 856.694 C 450.659 860.113 429.78 866.642 427.034 847.678 C 424.498 830.171 446.476 833.949 452.136 827.744 C 451.671 824.712 447.217 816.094 445.59 811.734 C 448.705 800.517 450.705 796.053 462.656 793.12 z"/>
<path transform="translate(0,0)" fill="rgb(41,42,43)" d="M 475.417 825.465 C 483.845 822.274 493.275 826.441 496.589 834.823 C 499.902 843.204 495.872 852.693 487.54 856.128 C 482.041 858.395 475.748 857.525 471.071 853.851 C 466.394 850.177 464.058 844.269 464.958 838.39 C 465.858 832.51 469.855 827.572 475.417 825.465 z"/>
<path transform="translate(0,0)" fill="rgb(254,208,1)" d="M 477.272 831.431 C 482.421 829.337 488.302 831.713 490.55 836.797 C 492.798 841.88 490.599 847.829 485.585 850.229 C 482.205 851.847 478.213 851.498 475.165 849.318 C 472.118 847.138 470.497 843.473 470.935 839.752 C 471.374 836.031 473.802 832.843 477.272 831.431 z"/>
<path transform="translate(0,0)" fill="rgb(254,208,1)" d="M 677.732 961.44 C 712.232 960.224 750.98 962.2 785.014 968.662 C 784.272 978.373 782.061 987.72 779.793 997.154 C 761.772 994.388 745.72 993.365 727.596 992.187 C 688.828 991.447 658.081 992.434 619.457 997.371 C 617.367 988.622 616.863 977.724 616.692 968.769 C 636.849 963.811 657.082 962.746 677.732 961.44 z"/>
<path transform="translate(0,0)" fill="rgb(254,208,1)" d="M 573.715 956.206 C 583.995 955.552 601.598 957.837 610.673 962.838 C 612.97 966.102 611.053 968.926 610.9 973.063 C 610.755 976.995 610.845 980.554 611.063 984.494 C 592.522 971.184 572.38 968.639 565.595 995.386 C 556.205 1032.41 589.187 1060.02 602.787 1090.5 C 608.598 1103.53 608.781 1121.19 606.247 1135.07 C 602.102 1148.43 597.127 1153.81 586.086 1161.75 C 590.291 1146.87 593.304 1114.29 587.7 1099.57 C 577.609 1073.06 550.668 1053.22 543.792 1023.77 C 537.42 996.481 543.039 964.102 573.715 956.206 z"/>
<path transform="translate(0,0)" fill="rgb(254,208,1)" d="M 812.801 956.256 C 837.843 955.406 850.176 967.02 855.423 991.616 C 862.891 1026.62 840.973 1052.36 822.425 1079.14 C 804.683 1104.76 807.605 1132.57 813.666 1161.41 C 805.547 1156.23 803.05 1154.45 798.002 1146.36 C 767.035 1077.66 859.817 1046.64 827.208 982.72 C 819.286 967.192 799.174 977.744 788.65 986.526 C 793.293 962.497 782.713 962.625 812.801 956.256 z"/>
<path transform="translate(0,0)" fill="rgb(0,162,231)" d="M 582.152 981.925 C 606.103 979.444 611.97 997.42 622.752 1014.28 C 629.271 1024.48 638.008 1037.78 646.289 1046.42 C 634.462 1055.07 625.262 1064.35 617.998 1077.15 C 615.218 1083.04 613.27 1089.7 611.255 1095.94 C 601.141 1067.96 544.786 1007.34 582.152 981.925 z"/>
<path transform="translate(0,0)" fill="rgb(0,162,231)" d="M 807.167 982.032 C 829.437 980.742 831.198 1004 826.735 1020.16 C 819.765 1045.4 803.529 1067.81 789.534 1089.71 L 788.456 1089.59 L 786.608 1084.57 C 781.311 1071.36 768.223 1051.79 756.459 1044.16 C 762.995 1036.15 768.577 1029.03 774.41 1020.48 C 785.722 1003.9 788.097 990.456 807.167 982.032 z"/>
<path transform="translate(0,0)" fill="rgb(254,208,1)" d="M 622.167 735.65 C 634.488 753.225 627.118 792.89 618.156 811.223 C 619.101 812.467 620.027 813.725 620.934 814.997 C 625.543 821.467 658.079 876.502 657.494 879.952 C 656.326 880.076 652.557 880.269 651.821 879.241 C 639.258 861.676 629.193 841.667 617.219 823.658 C 599.732 798.812 583.336 772.855 566.13 748.663 L 575.34 745.347 C 583.583 759.488 602.945 789.019 613.084 801.576 C 613.577 777.419 612.076 758.148 622.167 735.65 z"/>
<path transform="translate(0,0)" fill="rgb(254,208,1)" d="M 701.6 749.378 C 704.502 749.552 705.529 749.706 708.356 750.383 C 709.724 754.734 709.153 799.864 709.143 806.773 L 708.717 954.921 C 706.298 954.871 704.718 954.693 702.312 954.397 C 701.92 953.902 701.342 953.509 701.136 952.912 C 700.683 951.603 700.136 762.054 701.6 749.378 z"/>
<path transform="translate(0,0)" fill="rgb(254,208,1)" d="M 670.496 857.235 C 686.714 861.248 695.053 886.275 694.96 901.412 C 679.85 906.695 668.238 909.193 652.53 905.489 C 647.05 904.27 638.005 900.978 639.002 894.222 C 647.504 882.548 666.197 888.293 677.128 892.076 C 671.804 878.425 668.558 872.446 670.496 857.235 z"/>
<path transform="translate(0,0)" fill="rgb(254,208,1)" d="M 739.048 862.884 C 747.105 873.187 729.737 894.2 723.503 902.069 C 733.596 897.84 757.213 887.707 767.118 894.187 C 769.395 897.807 768.841 896.153 769.1 900.529 C 767.914 904.004 765.965 905.346 763.278 907.777 C 761.807 908.647 760.282 909.421 758.712 910.096 C 744.859 916.142 728.725 914.406 714.949 909.047 C 714.739 888.565 719.011 872.443 739.048 862.884 z"/>
<path transform="translate(0,0)" fill="rgb(254,208,1)" d="M 533.593 856.609 L 534.666 856.974 C 574.392 870.638 640.47 913.823 661.698 952.682 C 662.846 954.784 662.467 954.363 661.716 956.543 C 660.146 956.669 658.195 957.005 656.676 956.541 C 654.187 955.78 650.092 949.244 648.331 946.958 C 640.706 937.056 631.535 927.617 622.423 919.069 C 606.063 903.72 587.354 892.122 567.88 881.168 C 561.992 877.856 534.283 865.339 532.119 861.548 L 533.593 856.609 z"/>
<path transform="translate(0,0)" fill="rgb(254,208,1)" d="M 867.981 858.07 C 870.276 861.097 870.188 860.053 870.309 863.24 C 868.881 864.792 841.786 878.5 837.192 881.258 C 827.966 886.822 819.105 892.97 810.664 899.666 C 797.815 909.727 787.341 919.301 775.937 930.948 C 770.007 937.005 757.201 955.054 751.558 958.784 L 748.343 957.025 C 746.836 952.666 751.862 947.695 754.723 944.246 C 785.148 907.564 824.344 876.477 867.981 858.07 z"/>
<path transform="translate(0,0)" fill="rgb(254,208,1)" d="M 863.606 785.389 C 865.07 785.098 865.466 785.292 867.01 785.422 C 866.395 787.482 866.523 787.373 864.714 789.012 C 848.086 804.077 830.98 814.255 808.206 814.248 C 806.235 813.893 805.966 813.68 804.142 812.956 C 804.279 811.188 804.05 811.072 805.425 809.55 C 820.943 792.366 842.327 787.862 863.606 785.389 z"/>
<path transform="translate(0,0)" fill="rgb(254,208,1)" d="M 538.082 789.229 C 559.566 790.607 592.037 796.034 603.873 815.671 C 582.298 816.962 551.99 806.229 538.082 789.229 z"/>
<path transform="translate(0,0)" fill="rgb(254,208,1)" d="M 574.519 894.31 C 579.889 893.522 584.238 897.375 588.678 900.4 C 579.402 904.49 573.317 906.122 563.34 907.716 C 559.499 908.025 554.316 908.547 551.217 906.213 L 551.179 904.395 C 556.763 897.489 566.211 895.326 574.519 894.31 z"/>
<path transform="translate(0,0)" fill="rgb(254,208,1)" d="M 667.801 913.056 C 671.118 912.885 671.683 912.702 674.78 913.654 C 678.379 919.188 690.126 948.386 692.504 955.603 C 690.98 955.365 687.099 955.02 686.624 954.226 C 682.937 948.071 668.036 918.181 667.801 913.056 z"/>
<path transform="translate(0,0)" fill="rgb(254,208,1)" d="M 829.451 893.818 C 836.842 893.705 852.27 896.845 855.601 903.761 C 853.226 906.418 852.274 905.897 848.256 906.798 C 838.335 907.711 829.129 904.22 820.195 900.515 L 829.451 893.818 z"/>
<path transform="translate(0,0)" fill="rgb(254,208,1)" d="M 819.536 850.755 L 820.252 851.463 C 822.438 857.14 816.593 871.947 813.752 877.505 C 811.085 882.72 808.647 884.577 804.154 888.182 C 797.451 881.95 814.333 856.235 819.536 850.755 z"/>
<path transform="translate(0,0)" fill="rgb(0,162,231)" d="M 691.68 909.163 L 693.789 908.953 L 694.886 910.537 C 695.366 915.668 696.484 938.197 693.981 941.92 L 692.412 939.551 C 688.888 930.367 684.927 920.926 681.241 911.768 L 691.68 909.163 z"/>
<path transform="translate(0,0)" fill="rgb(254,208,1)" d="M 734.004 919.909 C 737.766 920.122 737.534 919.548 740.307 921.285 C 739.328 925.342 727.417 949.3 724.888 954.56 C 722.437 955.633 721.897 955.24 720.193 953.928 C 720.175 947.418 730.625 927.02 734.004 919.909 z"/>
<path transform="translate(0,0)" fill="rgb(254,208,1)" d="M 583.895 850.798 C 593.578 855.887 597.99 873.423 599.148 883.277 C 596.509 882.245 592.267 879.284 589.731 877.644 C 586.85 868.712 584.353 860.248 583.895 850.798 z"/>
<path transform="translate(0,0)" fill="rgb(0,162,231)" d="M 715.089 917.068 L 727.053 919.255 L 718.486 938.75 C 717.639 940.975 715.991 943.7 714.802 945.832 L 715.089 917.068 z"/>
<path transform="translate(0,0)" fill="rgb(41,42,43)" d="M 1196.46 919.671 C 1196.68 913.796 1196.77 911.757 1198.13 906.102 C 1196.22 896.459 1171.66 879.42 1179.97 864.493 C 1180.72 861.469 1185.79 862.661 1185.04 860.398 C 1181.97 851.159 1167.83 839.226 1173.48 828.74 C 1175.71 824.598 1178.63 825.695 1177.82 819.152 C 1176.52 808.719 1170.07 795.651 1174.44 785.502 C 1175.41 783.566 1179.62 782.665 1181.68 782.206 C 1184.49 771.696 1180.78 746.719 1197.49 744.756 C 1207.6 747.996 1207.66 769.305 1213 775.634 L 1214.17 775.437 C 1217.45 774.902 1218.72 774.39 1221.66 775.846 C 1230.93 785.14 1222.1 805.657 1233.55 810.759 C 1241.13 814.135 1240.67 822.561 1241.38 829.285 C 1245.81 820.802 1262.63 793.254 1277.91 803.199 C 1290.39 811.325 1281.62 850.183 1266.11 852.536 C 1263 853.45 1253.32 854.463 1251.41 856.58 C 1249.78 862.908 1251.34 866.974 1250.54 871.781 C 1249.54 877.848 1248.22 884.246 1247.21 890.579 C 1250.08 883.359 1254.88 868.687 1264.87 870.387 C 1273.39 875.045 1274.69 890.24 1275.78 898.96 C 1279.51 900.067 1281.86 898.296 1284.71 903.911 C 1289.58 913.499 1285.79 928.438 1288.02 938.898 C 1288.68 939.15 1289.34 939.403 1290 939.655 C 1293.8 929.6 1322.16 903.586 1327.98 926.914 C 1333.08 947.367 1326.68 967.623 1302.79 968.12 C 1297.7 977.32 1293.81 995.378 1289.88 1006.99 C 1291.04 1008.37 1292.3 1008.66 1293.99 1009.33 C 1302.49 1021.1 1295.83 1036.77 1298.95 1041.73 C 1302.48 1042.2 1305.14 1042.09 1307.75 1044.32 C 1314.11 1055.1 1303.4 1070.17 1303.28 1079.79 C 1314.9 1080.81 1312.02 1083.3 1312 1093.59 C 1311.99 1100.61 1300.09 1117.04 1302.4 1121.54 C 1308.18 1132.81 1300.79 1142.52 1294.74 1152.21 C 1302.68 1149.92 1329.65 1142.13 1333.25 1155.52 C 1336.7 1168.38 1317.33 1184.38 1306 1186.47 C 1297.15 1188.59 1292.08 1185.97 1285.42 1180.42 C 1279.35 1188.28 1254.75 1214.46 1259.34 1224.14 C 1265.82 1223.55 1268.33 1196.14 1281.93 1195.31 C 1297.72 1194.35 1290.2 1219.57 1294.14 1226.59 L 1295.28 1227.33 C 1310.62 1237.33 1296.46 1253.2 1297.05 1267.06 L 1298.31 1267.53 C 1299.99 1268.16 1300.67 1268.54 1302.22 1269.41 C 1308.34 1285.11 1292.47 1298.47 1289.92 1310.22 L 1290.64 1310.97 C 1305.12 1326.29 1277.96 1343.23 1269.6 1353.57 C 1269.04 1354.27 1269.31 1357.83 1269.37 1358.82 L 1270.61 1360.1 C 1277.3 1355.52 1285.3 1343.45 1294.72 1344.3 C 1307.18 1353.11 1293.03 1374.21 1295.8 1382.57 C 1298.4 1384.28 1300.7 1385.01 1301.12 1388.13 C 1302.53 1398.78 1288.06 1413.09 1286 1420.18 C 1309.46 1432.18 1268.61 1451.68 1270.54 1456.28 C 1279.19 1476.95 1255.9 1478.74 1239.62 1494.71 L 1243.76 1498.22 L 1243.76 1502.66 C 1245.36 1503.69 1249.3 1503.04 1251.41 1502.18 C 1262.87 1497.52 1300.29 1497.29 1285.7 1519.39 C 1277.69 1531.52 1255.36 1542.69 1240.38 1532.86 C 1214.7 1538.84 1191.36 1541.37 1175.96 1563.71 L 1181.69 1564.05 C 1186.5 1560.82 1190.59 1557.39 1196.45 1557.54 C 1199.85 1558.77 1200.13 1559.55 1202.54 1562.47 C 1213.67 1561.96 1224.45 1536.95 1238.6 1556.46 C 1249.02 1552.37 1272.89 1543.71 1279.23 1558.73 C 1280.24 1571.32 1260.11 1578.19 1257.31 1585.81 L 1257.42 1587.06 C 1258.86 1604.79 1228.8 1605 1228.8 1610.02 C 1228.81 1630.91 1207.79 1623.53 1192.97 1630.36 C 1191.75 1630.92 1192 1642.86 1185.86 1642.84 C 1169.68 1649.12 1155.56 1636.94 1145.01 1652.21 C 1141.78 1656.88 1119.06 1653.4 1111.74 1652.46 C 1098.37 1668.76 1108.03 1664.34 1103.8 1674.52 L 1104.39 1675.44 C 1118.5 1671.66 1127.94 1666.97 1136.84 1679.91 C 1139.95 1684.43 1164.86 1681.9 1169.09 1696.15 C 1168.5 1708.54 1149.03 1711.84 1139.47 1713.07 C 1139.84 1730.26 1117.04 1726.87 1104.6 1727.05 C 1097.21 1747.93 1078.57 1735.71 1063.46 1735.58 C 1063.49 1735.58 1061.7 1738.55 1061.24 1739.43 C 1054.53 1752.19 1031.09 1734.6 1020.67 1734.88 C 1012.58 1735.09 1009.37 1740.78 1001 1738.53 C 986.715 1734.42 969.711 1725.6 954.941 1724.43 C 927.308 1722.25 905.05 1729.75 878.734 1734.3 C 885.491 1741.94 892.955 1750.08 899.312 1757.97 C 906.084 1755.98 912.598 1754.83 918.412 1758.98 C 947.237 1779.58 940.66 1815.98 901.235 1792.3 C 891.192 1786.27 889.593 1778.61 890.232 1767.1 C 882.077 1757.93 870.127 1745.1 860.212 1737.63 L 827.866 1743.38 C 828.14 1771.06 821.186 1790.52 788.102 1790.86 C 776.406 1790.98 756.214 1787.95 745.163 1784.34 C 776.88 1807.75 816.822 1829.29 847.844 1852.61 C 848.215 1869.48 849.619 1885.57 850.319 1902.26 L 770.775 1845.97 C 760.932 1838.93 746.554 1829.15 737.475 1821.79 C 745.878 1850.6 760.84 1849.12 778.792 1869 C 786.612 1877.65 790.465 1899.06 798.8 1908.61 C 808.39 1923.22 819.604 1928.19 824.672 1935.4 C 818.122 1945.3 777.954 1919.71 770.338 1914.81 C 765.363 1937.09 758.184 1955.81 738.272 1969.96 C 736.849 1970.97 736.266 1971.07 734.574 1971.19 C 731.93 1968.01 736.21 1942.67 736.229 1935.78 C 736.078 1932.58 736.24 1928.2 736.274 1924.9 C 735.034 1902.94 722.718 1897.91 712.379 1880.3 C 707.812 1872.52 706.142 1865.8 704.363 1857.09 C 703.725 1851.42 703.41 1840.84 703.953 1835.35 C 703.773 1827.4 706.197 1800.06 702.67 1795.86 L 700.69 1796.26 C 696.57 1800.25 694.655 1805.28 692.395 1810.41 C 679.42 1839.86 691.781 1875.39 687.39 1907.31 C 685.089 1924.03 678.105 1936.58 675.498 1952.85 C 674.549 1958.77 680.713 1967.24 678.813 1971.42 C 668.207 1974.15 650.319 1938.13 647.098 1929.45 C 638.158 1937.01 600.59 1957.3 590.786 1949.28 C 590.281 1945.86 597.364 1941.3 600.465 1937.72 C 610.535 1926.13 620.001 1913.93 627.199 1900.41 C 644.805 1867.33 634.785 1841.44 650.958 1807.71 C 638.395 1815.01 617.827 1831.62 605.798 1840.75 C 581.797 1858.62 558.015 1876.78 534.455 1895.23 C 534.655 1880.01 535.685 1863.63 536.175 1848.27 C 560.622 1828.4 595.455 1809.05 618.903 1789.56 C 585.328 1793.02 557.594 1789.3 575.695 1746.5 C 562.478 1743.65 543.654 1739.71 530.546 1738.28 L 504.566 1761.65 C 518.727 1778.31 508.729 1800.29 487.717 1801.82 C 464.344 1803.51 458.779 1765.12 480.269 1757.4 C 482.404 1756.63 489.445 1756.67 492 1756.28 C 499.871 1750.03 507.376 1742.18 514.708 1735.21 C 502.108 1731.96 488.652 1729.87 475.763 1727.08 C 439.611 1743.24 406.221 1767.64 365.159 1769.33 C 339.925 1770.36 319.426 1763.93 295.842 1756.02 C 329.163 1733.86 398.918 1711.71 438.916 1709.97 C 431.252 1705.56 418.493 1699.81 410.221 1695.77 C 352.251 1708.48 275.893 1717.17 218.666 1699.83 C 236.515 1682.98 264.043 1671.12 287.575 1665.07 C 276.588 1658.78 267.241 1651.71 257.106 1644.23 C 244.892 1642.83 230.359 1642.24 218.077 1641.89 C 210.786 1652.36 208.249 1653.54 195.861 1656.41 C 193.71 1655.95 191.586 1655.38 189.501 1654.68 C 168.822 1647.7 170.154 1621.16 188.2 1613.36 C 193.442 1611.1 199.376 1611.06 204.647 1613.25 C 212.86 1616.74 216.438 1623.35 219.626 1631.08 L 241.381 1630.85 C 230.266 1619.38 219.97 1607.15 210.569 1594.25 C 208.109 1590.82 203.921 1585.16 204.614 1580.97 C 214.334 1577.85 247.458 1589.9 260.345 1592.34 L 261.627 1592.58 C 246.119 1584.54 230.906 1581.19 215.01 1575.01 C 164.136 1555.23 96.3529 1516.91 83.8412 1458.84 C 100.938 1466.02 118.16 1472.9 135.498 1479.48 C 111.22 1445.63 98.7716 1413.33 104.086 1370.12 C 104.417 1367.44 105.613 1364.25 107.904 1362.64 C 113.677 1363.4 121.09 1374.58 125.04 1378.92 C 145.332 1401.18 158.094 1421.8 172.026 1448.31 C 171.774 1437.28 172.046 1425.45 172.106 1414.36 C 166.464 1408.37 158.556 1401.76 152.361 1396.17 C 121.53 1368.44 90.8861 1339.32 78.7627 1298.25 C 75.7975 1288.21 70.7741 1266.43 73.7269 1256.62 C 82.6158 1249.92 117.417 1292.85 125.328 1300.62 C 120.991 1283.79 115.159 1278.26 105.543 1264.11 C 99.7794 1255.63 94.1384 1245.5 88.9003 1236.57 C 84.1218 1237.72 76.1364 1239.35 71.847 1237.04 C 32.7281 1215.99 82.1509 1170.04 100.898 1209.85 C 103.845 1216.1 101.178 1223.58 98.241 1229.59 C 102.757 1236.5 111.225 1249.32 116.933 1255.05 L 118.389 1223.33 C 91.3067 1191.08 75.5988 1158.71 70.1067 1116.69 C 68.6947 1105.88 65.2171 1075.89 75.0594 1069.9 C 79.5186 1070.81 89.962 1085.88 93.4529 1090.45 C 88.1886 1068.12 85.1603 1043.5 87.8883 1020.62 C 89.2707 1009.02 99.7188 961.83 106.622 956.433 C 118.874 955.87 128.339 1001.58 131.204 1011.8 C 133.874 1002.76 136.73 987.644 139.309 977.542 C 131.674 963.224 125.424 948.412 117.635 934.134 C 96.0755 940.586 77.6162 926.329 88.429 905.935 C 91.3254 900.492 96.2283 896.392 102.098 894.504 C 117.529 889.557 125.51 900.199 129.545 913.244 C 128.513 918.273 127.59 920.759 125.798 925.592 C 130.174 934.821 139.535 949.504 145.021 958.694 C 152.908 941.866 153.331 937.192 156.468 918.683 C 148.544 903.782 140.92 888.724 133.6 873.518 C 126.536 872.606 122.671 872.367 116.75 868.028 C 107.256 861.072 107.57 848.418 114.403 839.725 C 118.472 834.514 124.477 831.173 131.05 830.464 C 143.787 829.15 152.686 839.322 153.434 851.713 C 153.878 859.06 148.629 864.909 143.58 869.764 C 147.914 878.46 154.788 889 160.004 897.462 C 165.224 876.211 173.041 843.398 182.55 824.382 C 191.18 807.122 211.816 769.338 224.372 755.873 C 223.95 765.596 221.789 778.891 220.703 788.893 C 218.498 811.235 216.088 833.557 213.474 855.856 C 221.6 848.879 231.452 839.557 240.334 834.22 C 235.678 856.566 222.152 899.672 214.614 922.052 C 232.812 914.833 251.372 921.259 249.24 942.949 C 248.565 949.58 245.263 955.664 240.071 959.843 C 226.512 970.567 214.385 961.658 205.616 950.711 C 198.353 970.3 188.742 991.926 179.971 1010.85 C 195.837 995.828 217.786 982.667 238.627 975.996 C 228.934 1009.75 201.945 1061.43 183.504 1090.94 C 172.718 1108.2 159.834 1125.47 149.308 1143.26 C 152.131 1159.15 155.422 1174.86 158.196 1190.93 C 163.241 1179.83 181.447 1147.9 188.585 1138.61 C 158.532 1104.37 230.742 1079.8 226.905 1125.49 C 225.513 1142.06 211.274 1147.19 196.378 1143.87 C 186.132 1174.55 173.457 1190.24 161.739 1217.01 L 164.789 1246.85 C 171.994 1231.8 181.164 1214.79 191.736 1201.87 C 196.737 1195.76 219.429 1167.46 226.515 1165.7 L 227.883 1166.87 C 228.861 1173.8 226.058 1192.96 225.542 1200.86 C 221.781 1258.51 206.125 1307.81 175.478 1357.41 C 179.432 1366.42 182.744 1373.87 187.393 1382.52 C 194.834 1365.53 207.02 1343.76 215.603 1326.08 C 208.155 1315.6 205.183 1302.22 216.952 1293.14 C 222.254 1289.03 228.993 1287.24 235.638 1288.17 C 264.997 1292.38 259.47 1340.13 223.15 1330.83 C 215.985 1355.88 207.028 1379.9 193.952 1402.53 C 196.261 1409.7 199.834 1416.93 202.995 1423.81 C 203.179 1423.02 203.373 1422.24 203.578 1421.47 C 210.023 1396.77 226.089 1357.63 248.895 1344.31 C 252.154 1366 254.039 1387.86 254.537 1409.78 C 254.799 1429.47 253.293 1449.32 253.398 1469 C 253.489 1486.32 255.678 1503.27 258.303 1520.36 L 259.685 1520.91 L 260.243 1520.04 C 270.922 1485.94 317.379 1504.13 301.499 1536.73 C 352.585 1552.12 383.16 1574.4 408.524 1622.64 C 435.969 1674.85 442.254 1695.75 503.932 1712.72 C 507.347 1713.66 510.875 1714.1 514.413 1714.62 C 509.05 1702.96 503.004 1690.43 497.957 1678.69 C 483.84 1675.85 474.54 1667.25 478.74 1651.86 C 480.326 1645.85 484.206 1640.7 489.547 1637.51 C 500.572 1631.03 515.3 1637.61 520.834 1648.23 C 523.202 1652.86 523.612 1658.24 521.972 1663.17 C 519.984 1669.19 515.289 1673.56 510.557 1677.5 C 516.941 1690.43 526.163 1705 531.405 1717.68 C 545.917 1721.23 563.018 1724.27 577.876 1726.52 C 569.93 1698.91 555.657 1654.94 595.031 1645.45 C 623.925 1638.48 666.458 1646.05 674.264 1679.59 C 678.024 1695.75 676.289 1711.11 685.203 1725.39 L 707.737 1722.86 C 709.148 1701.79 711.85 1662.86 728.098 1648.15 C 744.064 1633.69 783.01 1631.38 803.949 1632.11 C 834.645 1633.18 833.843 1658.13 831.719 1681.65 C 830.403 1696.23 827.096 1710.16 825.384 1724.37 C 836.397 1723.4 847.509 1721.25 858.415 1719.31 C 871.87 1706.42 876.105 1692.22 884.359 1675.23 C 872.307 1660.65 874.98 1647.55 886.235 1632.93 C 906.206 1607 920.985 1632.43 916.954 1654.33 C 914.107 1672.27 901.705 1671.73 892.904 1684.93 C 886.951 1693.75 883.676 1705.11 880.231 1715.14 C 888.644 1713.42 893.858 1712.54 901.903 1709.43 C 907.563 1698.27 922.673 1660.35 938.48 1679.2 C 941.532 1673.08 954.254 1642.09 965.269 1647.2 C 966.145 1647.61 968.236 1650.56 968.97 1651.58 C 974.619 1648.31 991.339 1623.13 1003.33 1624.86 L 1006.93 1629.43 C 1019.63 1624.38 1016.86 1619.56 1035.2 1618.6 C 1045.48 1554.9 1065.28 1604.51 1073.67 1607.18 C 1085.5 1600.12 1074.5 1576.56 1084.59 1567.16 C 1086.23 1565.63 1092.84 1566.04 1093.26 1565.48 C 1102.44 1553.18 1095.4 1531.59 1116.73 1533.52 C 1120.88 1529.27 1124.56 1520.71 1128.72 1514.94 C 1112.75 1508.98 1111.75 1496.22 1109.63 1480.88 C 1107.83 1467.82 1115.53 1455.75 1129.82 1463.97 C 1146.16 1474.41 1152.74 1491 1146.78 1509.09 C 1148.61 1510.87 1150.03 1512.26 1152.01 1513.87 C 1155.47 1512.21 1156.15 1511.1 1160.13 1509.38 C 1161.32 1500.16 1138.45 1479.93 1154.87 1463.91 C 1151.74 1454.08 1146.02 1436.99 1150.29 1426.85 C 1151.48 1424.03 1154.28 1423.22 1157.03 1422.2 C 1161.41 1406.53 1148.23 1393.14 1168.22 1382.79 C 1169.41 1375.94 1172.6 1350.57 1183.76 1352.25 C 1187.69 1352.84 1194.2 1359.53 1198.85 1359.68 L 1200.07 1358.64 C 1200.33 1346.22 1161.95 1332.54 1186.37 1318.48 C 1179.13 1311.26 1165.73 1298.29 1165.63 1287.31 C 1165.59 1283.49 1168.46 1280.5 1170.84 1277.63 C 1169.32 1265.77 1159.73 1257.11 1164.64 1243.76 C 1167.2 1241.19 1168.04 1240.79 1171.23 1239.01 C 1173.66 1231.08 1168.96 1222.31 1171.21 1212.75 C 1173.31 1203.85 1182.66 1205.72 1179.37 1200.22 C 1173.07 1189.7 1161.44 1169 1174.74 1159.05 C 1180.92 1154.42 1192.4 1166.23 1198.72 1160.26 C 1199.7 1157.02 1200.47 1154.62 1198.85 1151.45 C 1194.93 1143.81 1182.14 1131.49 1184.48 1122.53 C 1185.41 1118.97 1189.76 1117.01 1190.65 1114.32 C 1191.29 1112.41 1182.22 1093.27 1182.1 1086.29 C 1181.97 1078.17 1188.18 1079.42 1190.23 1073.55 C 1194.03 1062.63 1187.97 1054.74 1195.93 1038.55 L 1188.65 1030.86 C 1181.99 1034.07 1177.71 1034.81 1170.56 1032.7 C 1159.83 1029.52 1139.75 1014.52 1141.83 1002.05 C 1143.63 991.228 1167.47 995.621 1173.3 993.832 C 1173.21 981.307 1171.83 984.81 1178.71 976.348 C 1174.25 968.616 1164.96 954.452 1166.32 945.699 C 1167.74 942.491 1170.1 941.732 1173.29 939.957 C 1175.15 932.609 1163.73 900.696 1184.37 904.217 C 1188.61 904.941 1194.59 915.721 1196.46 919.671 z"/>
<path transform="translate(0,0)" fill="rgb(254,208,1)" d="M 1181.69 1564.05 C 1186.5 1560.82 1190.59 1557.39 1196.45 1557.54 C 1199.85 1558.77 1200.13 1559.55 1202.54 1562.47 C 1213.67 1561.96 1224.45 1536.95 1238.6 1556.46 C 1249.02 1552.37 1272.89 1543.71 1279.23 1558.73 C 1280.24 1571.32 1260.11 1578.19 1257.31 1585.81 L 1257.42 1587.06 C 1258.86 1604.79 1228.8 1605 1228.8 1610.02 C 1228.81 1630.91 1207.79 1623.53 1192.97 1630.36 C 1191.75 1630.92 1192 1642.86 1185.86 1642.84 C 1169.68 1649.12 1155.56 1636.94 1145.01 1652.21 C 1141.78 1656.88 1119.06 1653.4 1111.74 1652.46 C 1098.37 1668.76 1108.03 1664.34 1103.8 1674.52 L 1104.39 1675.44 C 1097.36 1678.82 1095.16 1680.46 1088.9 1685.3 C 1099.16 1683.28 1124.24 1672.7 1130.99 1682.48 C 1130.58 1683.81 1130.11 1685 1129.43 1686.21 C 1138.41 1690.64 1156.05 1686.69 1162.39 1696.54 L 1161.85 1698.49 C 1153.25 1706.78 1136.65 1703.11 1131.47 1711.99 C 1131.84 1714.46 1132.32 1715.89 1131.38 1718.18 C 1121.51 1723.2 1098.45 1717.08 1095.23 1724.16 C 1095.8 1727.22 1096.47 1728.7 1095.24 1731.36 C 1085.23 1737.29 1062.89 1726.13 1053.18 1727.46 C 1051.97 1730.31 1053.94 1731.38 1054.91 1736.26 C 1047.56 1741.54 1020.46 1723.7 1011.23 1726.7 L 1010.22 1730.76 C 1005.07 1734.69 971.043 1723.34 968.018 1721.03 C 947.16 1705.1 835.69 1743.26 826.24 1734.98 L 826.198 1732.89 C 830.311 1728.69 859.532 1725.61 867.231 1723.93 C 892.489 1718.42 918.145 1713.24 943.345 1707.48 C 978.605 1699.4 1012.83 1682.37 1045.45 1667.19 C 1069.49 1655.89 1089.49 1650.28 1107.28 1629.33 C 1111.17 1624.74 1126.51 1603.88 1129.64 1602.96 C 1130.28 1607.93 1131.12 1614.37 1136.86 1615.45 C 1141.14 1613.04 1148.1 1598.72 1152.37 1593.29 C 1160.17 1583.38 1168.2 1573.61 1175.96 1563.71 L 1181.69 1564.05 z"/>
<path transform="translate(0,0)" fill="rgb(41,42,43)" d="M 1181.69 1564.05 C 1186.5 1560.82 1190.59 1557.39 1196.45 1557.54 C 1199.85 1558.77 1200.13 1559.55 1202.54 1562.47 C 1213.67 1561.96 1224.45 1536.95 1238.6 1556.46 C 1249.02 1552.37 1272.89 1543.71 1279.23 1558.73 C 1280.24 1571.32 1260.11 1578.19 1257.31 1585.81 L 1257.42 1587.06 C 1258.86 1604.79 1228.8 1605 1228.8 1610.02 C 1228.81 1630.91 1207.79 1623.53 1192.97 1630.36 C 1191.75 1630.92 1192 1642.86 1185.86 1642.84 C 1169.68 1649.12 1155.56 1636.94 1145.01 1652.21 C 1141.78 1656.88 1119.06 1653.4 1111.74 1652.46 C 1098.37 1668.76 1108.03 1664.34 1103.8 1674.52 C 1100.28 1675.41 1097.39 1676.58 1093.98 1675.71 L 1093.63 1674.44 L 1095.64 1670.99 L 1095.15 1670.49 C 1087.95 1672.61 1078.46 1675.26 1071.59 1678.01 C 1065.76 1680.35 1059.17 1688.27 1052.11 1688.91 C 1050.36 1685.98 1050.5 1681.34 1050.25 1677.72 C 1031.93 1689.34 1024.65 1692.93 1008.28 1707.47 C 1008.69 1703.18 1009.64 1697.78 1010.28 1693.42 C 989.565 1703.65 981.229 1709.57 957.833 1710.45 C 983.007 1698.23 1008.24 1690.02 1033.69 1679.71 C 1055.82 1670.74 1073.79 1654.72 1097.97 1647.14 C 1115.17 1641.74 1132.05 1653.01 1142.88 1647.46 C 1143.83 1644.36 1142.24 1643.38 1140.41 1639.4 C 1141.41 1638.2 1141.38 1637.81 1143.67 1637.83 C 1160.71 1638.04 1169.28 1639.48 1186.45 1636.33 C 1184.45 1632.84 1182.89 1630.79 1183.48 1627.14 C 1191.68 1619.82 1217.5 1623.36 1221.92 1614.59 C 1220.86 1612.78 1219.74 1611.01 1218.57 1609.28 C 1220.02 1605.65 1245.36 1595.64 1252.91 1589.48 L 1246.02 1582.64 C 1253.75 1577.96 1268.64 1571.03 1272.22 1562.55 C 1270.34 1547.8 1242.67 1562.35 1235.06 1562.84 C 1231.01 1563.1 1233.48 1558.98 1229.71 1555.82 C 1219.39 1554.62 1204.67 1575.86 1196.78 1570.03 C 1196.57 1567.54 1196.64 1566.86 1195.59 1564.51 C 1187.17 1563.5 1171.17 1583.36 1162.49 1589.3 L 1161.04 1588.44 L 1161.02 1586.24 C 1164.02 1579.15 1175.75 1569.46 1181.69 1564.05 z"/>
<path transform="translate(0,0)" fill="rgb(254,208,1)" d="M 1100.25 1654.2 L 1100.94 1654.9 C 1099.8 1658.86 1096.35 1662.79 1093.97 1666.16 C 1080.89 1669.28 1068.11 1672.2 1056.47 1679.25 C 1055.11 1677.45 1055.11 1677.44 1055.21 1675.19 C 1062.39 1666.86 1089.4 1656.71 1100.25 1654.2 z"/>
<path transform="translate(0,0)" fill="rgb(0,194,50)" d="M 710.962 1795.03 L 723.165 1789.04 C 730.099 1807.24 730.4 1823.44 738.253 1839.78 C 744.74 1853.28 766.518 1862.46 775.64 1874.51 C 780.988 1881.56 783.074 1892.83 787.04 1900.77 C 792.274 1911.24 800.792 1920.54 808.317 1929.48 C 791.539 1921.11 781.793 1915.51 766.926 1904.04 C 761.646 1930.18 758.799 1941.46 740.033 1961.86 C 740.353 1958.62 741.167 1951.94 741.019 1949.03 L 739.132 1949.22 C 736.998 1946.22 737.753 1940.18 736.229 1935.78 C 736.078 1932.58 736.24 1928.2 736.274 1924.9 C 735.034 1902.94 722.718 1897.91 712.379 1880.3 C 707.812 1872.52 706.142 1865.8 704.363 1857.09 C 703.725 1851.42 703.41 1840.84 703.953 1835.35 C 704.776 1833.76 705.791 1830.53 706.51 1828.65 L 709.358 1828.98 C 710.67 1820.78 710.529 1804.08 710.962 1795.03 z"/>
<path transform="translate(0,0)" fill="rgb(41,42,43)" d="M 704.363 1857.09 C 705.526 1853.47 704.899 1853.48 707.324 1851.36 L 708.013 1851.98 L 709.263 1851.95 C 710.746 1860.12 713.207 1870.76 717.182 1878.02 C 723.422 1889.4 737.262 1898.93 739.937 1911.92 C 736.369 1916.54 738.997 1920.16 736.274 1924.9 C 735.034 1902.94 722.718 1897.91 712.379 1880.3 C 707.812 1872.52 706.142 1865.8 704.363 1857.09 z"/>
<path transform="translate(0,0)" fill="rgb(51,36,43)" d="M 739.937 1911.92 C 742.806 1923.36 742.291 1937.33 741.019 1949.03 L 739.132 1949.22 C 736.998 1946.22 737.753 1940.18 736.229 1935.78 C 736.078 1932.58 736.24 1928.2 736.274 1924.9 C 738.997 1920.16 736.369 1916.54 739.937 1911.92 z"/>
<path transform="translate(0,0)" fill="rgb(51,36,43)" d="M 703.953 1835.35 C 704.776 1833.76 705.791 1830.53 706.51 1828.65 L 709.358 1828.98 C 709.217 1836.6 708.961 1844.34 709.263 1851.95 L 708.013 1851.98 L 707.324 1851.36 C 704.899 1853.48 705.526 1853.47 704.363 1857.09 C 703.725 1851.42 703.41 1840.84 703.953 1835.35 z"/>
<path transform="translate(0,0)" fill="rgb(255,255,255)" d="M 263.131 1534 C 268.242 1541.9 270.58 1543.05 280.088 1545.05 L 281.301 1545.31 C 282.26 1561.42 282.733 1579.9 285.373 1595.62 C 275.717 1580.22 266.7 1552.18 261.577 1534.58 L 263.131 1534 z"/>
<path transform="translate(0,0)" fill="rgb(116,115,114)" d="M 258.303 1520.36 L 259.685 1520.91 L 260.243 1520.04 C 260.876 1524.57 261.348 1529.89 263.131 1534 L 261.577 1534.58 C 259.308 1529.38 259.072 1526 258.303 1520.36 z"/>
<path transform="translate(0,0)" fill="rgb(254,208,1)" d="M 308.616 1545.29 C 308.938 1545.36 309.262 1545.43 309.583 1545.51 C 346.95 1555.05 377.863 1582.41 397.226 1614.99 C 405.895 1629.58 412.713 1645.23 421.335 1659.87 C 428.171 1671.48 435.645 1682.72 445.727 1691.8 C 470.918 1714.49 510.468 1720.83 542.799 1726.23 C 554.271 1728.15 565.986 1729.58 577.253 1732.49 C 579.164 1734.72 578.437 1736.94 578.315 1739.77 C 568.608 1740.96 555.206 1736.69 545.518 1734.77 C 526.971 1731.08 508.215 1728.51 489.98 1723.39 C 470.045 1717.8 439.819 1703.86 420.89 1694.82 C 358.278 1664.93 330.61 1607.3 308.616 1545.29 z"/>
<path transform="translate(0,0)" fill="rgb(254,208,1)" d="M 1291.07 1350.88 L 1292.67 1352.58 C 1295.04 1366.8 1288.41 1376.69 1285.27 1389.42 C 1288.58 1391.18 1289.95 1387.97 1293.27 1389.78 C 1295.92 1401.07 1278.4 1415.51 1277.17 1424.23 C 1279.96 1425.96 1285.12 1426.24 1288.61 1426.7 C 1278.69 1443.78 1272.62 1443.01 1260.2 1457.1 C 1258.93 1458.54 1259.32 1458.7 1259.6 1460.28 C 1261.9 1461 1263.86 1461.51 1266.2 1462.09 L 1266.64 1463.72 C 1261.84 1473.02 1237.85 1486.96 1228.27 1496.95 L 1237.44 1502.16 C 1223.7 1514.48 1210.06 1519.96 1199.34 1527.23 C 1190.32 1533.35 1154.29 1580.93 1149.3 1589.63 C 1146.68 1595.03 1139.97 1600.4 1135.43 1604.24 C 1150.51 1567.25 1173.37 1551.01 1194.83 1519.29 C 1196.27 1517.16 1198.29 1488.65 1200.17 1482.03 C 1204.51 1477.4 1212.22 1486.49 1212.08 1468.51 C 1212.02 1461.01 1210.89 1444.8 1215.3 1439.24 C 1218.75 1438.13 1219.27 1439.08 1223.28 1440.42 C 1227.29 1437.49 1228.58 1409.95 1230.93 1400.59 C 1234.26 1403.25 1237.37 1406.25 1241.48 1406.16 C 1244.53 1403.76 1246.41 1393.69 1249.08 1388.58 C 1252.81 1381.46 1254.98 1378.17 1259.53 1371.76 C 1261.94 1374.17 1264.61 1377.25 1266.94 1379.81 C 1274.4 1366.61 1277.71 1358.4 1291.07 1350.88 z"/>
<path transform="translate(0,0)" fill="rgb(254,208,1)" d="M 1286.46 1012.53 C 1296.95 1016.47 1288.05 1042.52 1295.79 1048.49 C 1299.1 1047.57 1300.77 1047.06 1302.75 1050.09 C 1303.19 1061.48 1298.82 1075.71 1295.94 1087.11 L 1307.39 1086.1 C 1304.59 1101.28 1296.9 1111.22 1293.17 1125.42 C 1293.12 1125.65 1296.98 1127.48 1297.66 1130.31 C 1300.32 1141.23 1274.76 1163.06 1276.22 1169.3 C 1278.88 1170.2 1279.3 1170.2 1281.31 1172.04 C 1282.06 1179.13 1261.27 1201.05 1255.65 1205.59 C 1251.5 1219.96 1248.84 1241.31 1245.96 1256.78 L 1245.21 1259.17 L 1243.05 1259.82 L 1241.17 1258.73 C 1238.48 1253.27 1247.76 1212.55 1246.77 1202.17 C 1245.52 1189.13 1240.14 1177.46 1240.27 1165.03 C 1243.26 1161.23 1245.57 1166.16 1249.57 1162.66 C 1249.28 1152.03 1238.05 1123.29 1240.56 1119.27 C 1245.55 1118.34 1246.81 1122.53 1250.95 1121.8 C 1252.29 1117.73 1248 1098.8 1247.79 1092.63 C 1247.56 1085.83 1247.68 1081.38 1248.08 1074.47 L 1257.36 1079 C 1259.63 1068.23 1260.34 1051.95 1265.06 1042.58 L 1266.39 1042.44 C 1267.89 1044.21 1268.7 1045.59 1270.88 1046.31 C 1276.66 1036.43 1272.87 1024.7 1286.46 1012.53 z"/>
<path transform="translate(0,0)" fill="rgb(254,208,1)" d="M 1195.32 750.793 C 1204.2 759.959 1204.64 779.996 1210.38 784.49 C 1212.94 784.072 1213.29 783.915 1215.74 782.893 L 1216.39 782.617 L 1218.2 783.756 C 1223.44 793.755 1220.37 814.394 1225.19 818.143 C 1227.78 817.131 1228.62 816.516 1231.25 816.909 C 1239.09 826.953 1232.23 853.982 1236.56 860.147 C 1239.27 860.182 1241.16 860.256 1243.85 860.554 C 1250.01 871.871 1234.31 900.551 1234.17 911.419 C 1234.07 914.652 1237.97 936.597 1236.2 937.53 C 1223.75 944.113 1229.88 945.709 1227.01 958.344 L 1225.59 958.453 C 1222.57 954.459 1221.43 950.945 1219.57 946.312 C 1216.91 935.118 1199.97 919.8 1202.89 912.484 C 1205.69 913.136 1205.88 913.153 1208.76 913.18 L 1209.91 911.83 C 1209.5 902.819 1185.26 885.537 1183.96 869.965 C 1187.42 866.592 1188.61 870.334 1193.56 867.422 C 1194.35 857.487 1176.07 840.963 1179.34 831.386 C 1181.49 830.72 1182.64 830.313 1184.71 829.445 C 1188.28 822.381 1176.31 800.251 1179.97 790.974 C 1182.78 791.433 1182.67 791.444 1185.47 790.926 C 1193.13 784.132 1186.24 765.366 1195.32 750.793 z"/>
<path transform="translate(0,0)" fill="rgb(254,208,1)" d="M 1282.55 1200.57 C 1290.14 1206.85 1285.67 1229.99 1284.31 1238.9 C 1287.09 1236.77 1288.81 1234.91 1292.19 1234.63 C 1300.85 1239.76 1289.03 1269.48 1286.37 1277.94 C 1290.14 1277.13 1294.32 1275.67 1298.04 1274.5 C 1296.32 1280.66 1295.04 1284.86 1292.44 1290.71 C 1289.31 1297.78 1281.88 1308.2 1280.26 1315.15 C 1282.47 1319.32 1283.93 1315.05 1288.13 1319.04 C 1288.28 1332.25 1260.4 1349.86 1259.45 1358.25 C 1261.64 1359.27 1262.31 1359.42 1263.93 1361.28 C 1262.4 1365.46 1253.23 1369.82 1249.72 1374.37 C 1246.6 1378.4 1245.12 1381.82 1242.92 1386.36 L 1238.85 1397.78 L 1232.08 1393.78 C 1231.77 1386.77 1227.49 1357 1229.61 1354.09 C 1230.73 1353.99 1235.02 1353.65 1235.37 1353.19 C 1241.64 1344.76 1227.69 1315.19 1230.52 1305.47 C 1234.48 1304.51 1236.18 1310.45 1240.9 1308.39 C 1243.33 1303.61 1238.44 1272.67 1237.69 1264.61 C 1240.99 1266.3 1241.95 1266.98 1245.59 1267.31 C 1256.41 1262.94 1251.77 1239.87 1258.32 1229.49 L 1259.96 1229.14 C 1262.14 1230.35 1263.57 1231.43 1266.04 1231.61 C 1273.89 1219.62 1268.59 1212.86 1282.55 1200.57 z"/>
<path transform="translate(0,0)" fill="rgb(249,36,32)" d="M 777.357 1639.38 C 790.321 1637.71 805.883 1637.91 818.286 1641.87 C 820.844 1644.31 823.729 1647.64 825.021 1650.99 C 831.746 1668.46 820.728 1707.52 819.617 1727.37 C 819.175 1735.27 821.75 1743.2 821.878 1751.12 C 821.985 1757.66 820.952 1768.46 816.157 1773.37 C 809.04 1780.67 794.689 1786.62 784.491 1786.05 C 781.544 1785.89 780.831 1785.1 779.074 1783.02 C 781.46 1777.42 787.937 1774.25 790.557 1767.7 C 797.992 1749.13 793.18 1734.65 792.737 1715.73 C 792.476 1704.62 793.881 1693.05 794.892 1681.97 C 795.252 1672.15 796.967 1656.79 790.156 1648.74 C 787.659 1645.79 785.144 1644.55 781.338 1644.33 C 750.031 1642.53 746.386 1686.23 741.046 1707.96 C 739.184 1715.81 736.383 1723.4 732.704 1730.57 C 731.299 1733.28 729.468 1737.15 727.022 1739.06 C 725.364 1740.35 724.52 1740.07 722.559 1739.93 C 720.251 1734.48 718.09 1728.97 714.726 1724.06 L 714.097 1723.16 C 714.051 1703.92 716.451 1672.89 728.564 1657.32 C 740.014 1642.6 760.291 1641.42 777.357 1639.38 z"/>
<path transform="translate(0,0)" fill="rgb(254,208,1)" d="M 213.409 1586.76 C 225.25 1588.49 237.279 1592.38 248.811 1595.64 C 281.102 1604.75 317.707 1614.11 343.296 1637.09 C 351.274 1644.25 358.009 1653.13 365.348 1660.96 C 374.642 1670.88 384.922 1679.07 395.965 1686.95 C 381.744 1687.36 366.907 1686.13 352.927 1683.51 C 308.951 1675.27 266.103 1649.83 236.14 1616.76 C 227.671 1607.42 220.537 1597.14 213.409 1586.76 z"/>
<path transform="translate(0,0)" fill="rgb(254,208,1)" d="M 228.881 850.833 C 229.193 855.776 223.204 873.409 221.58 879.477 C 208.725 927.495 191.531 974.84 169.386 1019.38 C 162.873 1032.48 151.062 1043.11 141.624 1062.89 L 140.248 1063.16 C 139.486 1045.63 135.903 1037.09 137.296 1017.37 C 141.323 960.375 185.638 886.678 228.881 850.833 z"/>
<path transform="translate(0,0)" fill="rgb(254,208,1)" d="M 1261.98 875.556 C 1271.84 882.144 1265.77 905.275 1272.19 909.517 L 1277.36 906.972 L 1279.21 907.777 C 1284.02 916.826 1279 935.068 1281.9 943.855 C 1284.23 946.018 1287.37 945.97 1290.7 946.429 C 1289.87 957.743 1285.28 970.431 1285.03 980.882 C 1285 982.17 1293.63 981.337 1288.77 994.193 C 1284.93 1004.35 1279.24 1009.77 1273.6 1018.83 C 1271.88 1021.66 1268.67 1031.17 1267.04 1035.01 C 1253.78 1038.16 1256.05 1055.95 1252.61 1066.35 L 1251.26 1066.46 C 1247.07 1054.9 1243.21 1043.23 1239.7 1031.45 C 1243.51 1030.22 1248.33 1029.21 1252.3 1028.28 C 1243.05 1011.25 1236.62 1002.28 1230.95 983.791 C 1234.77 984.393 1238.77 985.674 1242.24 984.582 C 1245.6 974.447 1232 953.308 1235.53 947.102 C 1238.69 946.792 1239.51 946.915 1242.24 945.47 C 1246.28 936.021 1238.45 922.489 1242.46 907.136 L 1243.7 906.449 L 1247.76 907.794 C 1253.76 903.125 1253.9 887.024 1261.98 875.556 z"/>
<path transform="translate(0,0)" fill="rgb(254,208,1)" d="M 1184 1356.7 C 1193.34 1365.86 1191.6 1391.14 1200.2 1393.48 L 1204.8 1390.65 L 1206.21 1391.87 C 1209.88 1403.47 1206.79 1417.63 1205.84 1429.44 C 1205.64 1431.93 1206.08 1432.03 1207.44 1433.31 C 1210.21 1432.41 1212.1 1431.53 1214.74 1430.34 C 1212.41 1434.58 1209.23 1435.16 1207.34 1440.84 C 1204.64 1448.92 1207.12 1467.5 1204.09 1473.86 C 1201.85 1473.77 1200.47 1473.5 1198.3 1473.12 C 1191.04 1477.43 1191.96 1506.51 1187.28 1516.24 C 1181.78 1527.7 1174.48 1536.2 1166.82 1546.08 L 1165.94 1546.62 L 1164.48 1546.26 C 1161.73 1539.86 1159.28 1524.98 1158.05 1517.79 C 1162.48 1518.95 1164.52 1520.3 1168.51 1517.57 C 1172.3 1508.1 1155.31 1489.47 1156.42 1475.72 C 1158.61 1472.43 1158.71 1473.23 1163.15 1471.83 C 1165.97 1464.03 1151.53 1447.82 1155.39 1430.59 C 1159.63 1428.57 1160.2 1432.38 1164.53 1430.42 C 1166.09 1420.77 1158.63 1398.66 1166.09 1391.03 C 1168.44 1391.46 1169.88 1391.84 1172.18 1392.5 C 1178.97 1387.21 1171.52 1369.78 1184 1356.7 z"/>
<path transform="translate(0,0)" fill="rgb(254,208,1)" d="M 1179.06 1209.31 C 1192.88 1213.85 1192.4 1228.07 1199.51 1237.72 L 1201.36 1237.94 C 1203.63 1235.95 1204.32 1234.92 1207.16 1234.5 C 1214.98 1239.04 1213.76 1259.03 1216.7 1268.57 C 1219.39 1269.76 1219.95 1268.05 1224.42 1266.56 L 1226.17 1267.51 C 1230.93 1275.34 1231.68 1288.56 1232.93 1298.1 C 1212.95 1304.92 1232.06 1331.02 1230.84 1345.56 C 1230.58 1348.56 1227.01 1346.58 1223.26 1349.12 C 1220.21 1356.59 1225.5 1379.31 1225.5 1388.58 C 1225.49 1394.72 1225.3 1397.16 1224.48 1403.41 C 1222.07 1399.01 1219.46 1394.79 1216.86 1390.51 C 1211 1380.12 1210 1375.22 1201.16 1365.88 C 1204.52 1365.38 1209.8 1364.66 1211.86 1361.92 C 1204.61 1350.61 1190.58 1339.01 1185.18 1327.19 L 1184.71 1326.15 C 1189.03 1325.59 1193.9 1325.32 1198.28 1324.99 C 1190.95 1313.49 1175.55 1299.98 1171.27 1286.95 C 1171 1286.14 1171.64 1285.82 1172.45 1284.72 C 1176.61 1283.56 1180.23 1284.57 1184.58 1285.26 C 1179.1 1276.92 1164.96 1255.37 1171.71 1246.27 C 1173.97 1246.48 1175.6 1246.69 1177.84 1247.06 C 1179.04 1243.86 1175.25 1223.8 1179.06 1209.31 z"/>
<path transform="translate(0,0)" fill="rgb(255,255,255)" d="M 676.92 1789.07 C 682.446 1792.54 687.139 1793.82 693.536 1794.77 C 670.048 1841.96 687.432 1860.69 681.55 1906.1 C 679.249 1923.88 670.368 1939.75 669.566 1957.82 C 659.275 1944.38 653.556 1933 650.893 1916.33 L 642.381 1926.3 C 630.813 1935.83 614.947 1940.33 601.009 1945.35 C 621.529 1923.9 638.18 1899.14 643.656 1869.53 C 645.58 1859.13 646.024 1848.46 647.535 1837.99 C 650.534 1817.2 660.068 1801.64 676.92 1789.07 z"/>
<path transform="translate(0,0)" fill="rgb(254,208,1)" d="M 1180.42 909.304 C 1186.32 911.189 1190.45 922.138 1194.85 927.202 C 1200.14 933.296 1206.54 939.134 1211.37 945.404 C 1214.89 949.975 1217.07 963.959 1222.54 966.729 C 1230.33 966.012 1233.68 967.211 1235.2 977.12 C 1235.75 980.677 1228.6 979.594 1225.5 983.534 C 1222.37 994.142 1239.66 1012.37 1241.89 1024.37 C 1238.61 1024.88 1238.06 1024.96 1235.13 1026.49 C 1230.27 1035.24 1242.03 1054.63 1243.73 1065.62 C 1245.43 1076.67 1241.28 1074.36 1240.89 1081.98 C 1240.79 1084.14 1240.72 1086.31 1240.69 1088.48 L 1240.16 1085.57 C 1237.2 1076.47 1236.27 1067.71 1225.58 1067.83 L 1224.26 1067.85 C 1220.46 1064.13 1218.53 1056.81 1215.46 1051.81 C 1210.8 1044.19 1190.82 1029.22 1194.38 1020.6 C 1196.85 1019.58 1198.96 1018.79 1201.49 1017.92 L 1202.01 1016.14 C 1196.8 1002.79 1180.13 997.621 1179.46 985.289 C 1182.5 983.517 1183 986.482 1187.93 985.61 C 1190.06 978.951 1171.57 957.04 1173.59 947.196 L 1176.96 947.278 C 1185.56 941.798 1173.75 923.636 1180.42 909.304 z"/>
<path transform="translate(0,0)" fill="rgb(254,208,1)" d="M 108.398 965.497 C 119.471 972.648 134.189 1052 134.443 1067.92 C 134.842 1092.91 135.79 1119.45 138.818 1144.55 C 139.213 1147.83 136.734 1155.38 134.431 1157.87 C 131.743 1156.49 131.628 1154.7 130.075 1151.45 C 114.487 1119.66 102.104 1111.39 95.9192 1074.07 C 88.4286 1028.88 94.6833 1007.71 108.398 965.497 z"/>
<path transform="translate(0,0)" fill="rgb(254,208,1)" d="M 220.647 1177.75 C 221.927 1185.68 219.48 1196.2 218.932 1204.37 C 216.206 1245.08 206.959 1283.55 188.761 1320.17 C 183.622 1330.51 178.54 1342.35 171.638 1351.71 C 169.56 1351.09 167.958 1348.14 166.59 1346.22 C 161.016 1336.97 160.521 1321.87 160.218 1310.98 C 158.575 1251.93 183.437 1218.54 220.647 1177.75 z"/>
<path transform="translate(0,0)" fill="rgb(254,208,1)" d="M 181.736 1389.49 C 184.126 1392.3 191.904 1414.49 194.376 1419.82 C 214.416 1463.04 238.81 1504.38 245.652 1552.33 C 246.384 1557.46 247.966 1566.28 247.734 1571.04 L 246.534 1571.18 C 185.974 1524.41 169.143 1462.9 181.736 1389.49 z"/>
<path transform="translate(0,0)" fill="rgb(254,208,1)" d="M 1199.82 1044.38 C 1210.21 1052.82 1214.31 1064.83 1219.48 1076.82 C 1221.79 1073.93 1222.94 1071.51 1225.97 1070.24 C 1231.17 1074.98 1237.48 1111.99 1236.24 1113.12 C 1224.88 1123.49 1246.54 1147.73 1241.16 1157.42 C 1237.87 1157.95 1237.19 1157.81 1234.77 1159.87 C 1231.86 1165.78 1238.82 1190.64 1239.1 1199.47 C 1239.36 1207.96 1239.25 1213.59 1238.82 1222.32 C 1234.56 1218.39 1230.22 1213.66 1226.19 1209.44 C 1223.89 1206.69 1221.38 1202.74 1219.31 1199.71 C 1223.57 1198.96 1228.06 1197.52 1232.24 1196.31 C 1226.39 1189.81 1203.83 1169.03 1205.61 1160.48 C 1208.49 1160.24 1209.35 1160.47 1212.25 1160.92 C 1214.43 1155.19 1194.63 1138.34 1191.12 1124.47 C 1192.22 1121.68 1194.75 1122.51 1199.3 1119.92 C 1202.33 1111.54 1184.32 1092.43 1188.77 1083.62 C 1191.79 1083.5 1191.77 1083.51 1194.63 1082.57 C 1200.36 1075.96 1194.03 1060.65 1199.82 1044.38 z"/>
<path transform="translate(0,0)" fill="rgb(254,208,1)" d="M 226.548 986.958 L 228.062 988.128 C 227.353 991.742 222.375 1002.21 220.636 1006.37 C 204.599 1044.71 185.321 1079.3 161.694 1113.49 C 157.662 1119.33 148.788 1133.83 144.272 1138.32 C 142.626 1120.69 138.391 1086.89 144.738 1071.1 C 159.587 1034.17 191.253 1003.53 226.548 986.958 z"/>
<path transform="translate(0,0)" fill="rgb(254,208,1)" d="M 242.732 1356.66 C 251.102 1364.59 246.336 1476.99 249.266 1498.48 C 254.662 1538.04 263.075 1563.07 279.715 1599.1 L 269.178 1594.9 C 266.596 1590.67 263.68 1584.81 261.294 1580.34 C 253.182 1564.04 248.593 1529.7 241.602 1509.22 C 231.523 1479.69 218.929 1459.51 207.411 1432.19 C 215.336 1400.25 222.651 1382.34 242.732 1356.66 z"/>
<path transform="translate(0,0)" fill="rgb(254,208,1)" d="M 78.9792 1262.54 C 87.1955 1266.71 150.765 1336.05 159.889 1348.3 C 166.736 1357.49 173.34 1367.99 177.768 1378.8 C 175.422 1387.54 174.562 1392.95 173.413 1401.77 C 173.079 1403.74 173.27 1403.04 172.238 1404.82 C 167.825 1404.01 136.237 1373.05 130.989 1368.09 C 101.923 1340.6 79.3661 1303.56 78.9792 1262.54 z"/>
<path transform="translate(0,0)" fill="rgb(254,208,1)" d="M 92.4803 1469.32 C 112.185 1474.61 178.936 1502.69 190.471 1515.6 C 195.397 1521.11 198.712 1528.47 203.083 1534.5 C 215.087 1551.05 230.35 1566.55 246.491 1579.07 C 240.762 1577.95 219.83 1570.74 214.369 1568.41 C 164.849 1547.21 114.93 1520.78 92.4803 1469.32 z"/>
<path transform="translate(0,0)" fill="rgb(0,194,50)" d="M 607.451 1649.36 L 626.404 1650.27 C 624.042 1651.81 621.627 1653.37 619.466 1655.19 C 605.435 1666.98 601.261 1685.25 607.106 1702.38 C 610.31 1711.77 616.674 1722.25 616.533 1732.33 C 616.388 1742.66 606.614 1750.8 606.008 1761.31 C 605.806 1764.8 606.974 1768.46 609.576 1770.89 C 616.22 1777.08 631.077 1775.85 639.644 1775.8 C 634.739 1778.23 630.059 1780.44 624.783 1781.95 C 612.834 1784 592.919 1789.1 582.46 1781.4 C 565.224 1768.7 586.125 1748.61 585.057 1733.55 C 584.062 1719.5 577.289 1705.83 575.419 1691.64 C 574.128 1681.84 573.408 1669.4 579.893 1661.12 C 586.327 1652.91 597.655 1650.48 607.451 1649.36 z"/>
<path transform="translate(0,0)" fill="rgb(254,208,1)" d="M 143.735 1151.89 C 148.221 1159.46 161.14 1245.43 159.704 1256.44 C 155.911 1285.53 151.884 1300.68 156.092 1333.88 L 149.41 1326.13 C 142.869 1319.28 136.005 1313.47 132.876 1304.64 C 115.659 1256.02 122.476 1197.86 143.735 1151.89 z"/>
<path transform="translate(0,0)" fill="rgb(254,208,1)" d="M 1140.05 1512.48 C 1141.32 1512.82 1141.89 1513.14 1142.71 1514.14 C 1146.31 1518.59 1138.06 1542.46 1137.36 1549.39 L 1149.48 1548.04 C 1146.82 1559.63 1144.03 1571.95 1137.61 1582.13 C 1133.3 1588.96 1126.78 1594.87 1121.64 1601.13 C 1108.02 1617.73 1094.79 1639.74 1072.49 1645.04 L 1071.54 1643.93 C 1072.41 1634.51 1070.54 1619.67 1077.78 1612.54 C 1082.63 1610.88 1082.79 1615.25 1087.22 1616.62 C 1088.76 1612.9 1085.45 1597.8 1085.44 1592.42 C 1085.44 1584.96 1086.91 1577.89 1088.36 1570.6 C 1091.71 1572.91 1094.74 1575.68 1097.83 1578.32 C 1101.81 1565.97 1103.24 1550.99 1110.28 1540 C 1113.21 1540.39 1112.96 1543.94 1115.59 1545.43 C 1124.45 1534.96 1129.39 1521.49 1140.05 1512.48 z"/>
<path transform="translate(0,0)" fill="rgb(254,208,1)" d="M 109.935 1371.6 C 116.533 1376.58 123.682 1386.78 129.342 1393.4 C 148.638 1415.97 165.889 1443.2 175.033 1471.55 C 178.41 1482.01 181.416 1492.81 184.436 1503.15 C 168.508 1493.98 149.563 1487.92 138.643 1473.99 C 115.823 1445.04 105.49 1408.19 109.935 1371.6 z"/>
<path transform="translate(0,0)" fill="rgb(254,208,1)" d="M 430.787 1716.4 C 446.637 1715.71 456.297 1716.42 470.75 1723.16 C 431.702 1740.04 397.46 1766.09 352.752 1763.46 C 337.817 1762.74 323.829 1758.91 309.547 1754.76 C 347.19 1736.28 388.704 1720.14 430.787 1716.4 z"/>
<path transform="translate(0,0)" fill="rgb(254,208,1)" d="M 1030.07 1623.92 L 1032.98 1624.39 L 1033.8 1626 C 1032.28 1634.69 1021.86 1645.2 1016.44 1652.34 C 1020.85 1653.64 1025.2 1655.1 1029.55 1656.57 C 1020.67 1667.56 1006.94 1677.76 994.124 1683.42 C 982.71 1688.47 920.408 1710.75 910.642 1706.94 L 910.858 1704.96 C 915.905 1695.36 921.288 1686.38 929.151 1678.77 L 936.896 1688.98 C 946.752 1679.88 952.752 1665.18 959.711 1653.72 C 961.537 1656.74 962.956 1659.86 966.234 1661.48 C 974.474 1659.9 983.503 1643.92 990.077 1638.15 C 992.326 1636.17 995.466 1634.15 998.469 1634.36 C 998.899 1636.05 999.261 1637.28 1000.18 1638.79 C 1005.7 1639.33 1021.83 1626.66 1030.07 1623.92 z"/>
<path transform="translate(0,0)" fill="rgb(254,208,1)" d="M 75.2457 1078.48 C 88.8545 1086.22 123.687 1151.28 130.167 1168.4 C 126.079 1181.84 123.44 1190.12 121.21 1204.05 L 119.304 1215.66 C 86.9923 1172.68 71.6224 1133.29 75.2457 1078.48 z"/>
<path transform="translate(0,0)" fill="rgb(249,36,32)" d="M 667.706 1762.87 C 670.748 1766.05 672.795 1776.21 674.188 1780.69 C 658.466 1794.77 640.731 1806.45 623.92 1819.16 C 597.545 1839.11 571.474 1859.65 544.522 1878.8 L 542.91 1880.16 L 541.784 1879.8 C 539.612 1872.68 541.767 1860 542.093 1852.32 C 570.12 1831.01 600.082 1811.86 628.92 1791.66 C 642.131 1782.4 655.532 1773.49 667.706 1762.87 z"/>
<path transform="translate(0,0)" fill="rgb(249,36,32)" d="M 724.588 1774.53 C 729.865 1776.84 736.975 1786.21 741.457 1790.37 C 750.108 1798.41 762.757 1804.87 772.737 1811.31 C 795.8 1826.17 819.115 1840.76 841.775 1856.24 C 842.186 1866.72 842.355 1877.21 842.281 1887.7 C 829.418 1880.35 817.025 1870.67 804.818 1862.25 C 782.441 1846.82 758.457 1831.33 737.874 1813.59 C 734.58 1802.73 725.399 1783.82 724.588 1774.53 z"/>
<path transform="translate(0,0)" fill="rgb(255,255,255)" d="M 636.955 1654.24 C 640.726 1654.11 644.409 1654.5 647.926 1655.92 C 675.358 1666.97 666.749 1698.3 675.917 1719.95 C 676.292 1720.84 676.68 1721.68 676.954 1722.61 C 677.081 1723.04 677.965 1726.12 677.828 1726.36 C 677.4 1727.1 674.134 1728.73 673.371 1729.18 C 670.205 1731.02 668.48 1735.6 666.663 1738.83 C 664.176 1738.45 661.279 1735.17 659.297 1733.5 C 649.856 1724.34 644.222 1714 636.665 1703.49 C 629.564 1693.61 622.167 1690.49 610.465 1688.61 C 611.134 1680.49 612.694 1672.65 617.428 1665.83 C 622.324 1658.78 628.685 1655.7 636.955 1654.24 z"/>
<path transform="translate(0,0)" fill="rgb(255,255,255)" d="M 772.991 1651.09 C 776.728 1650.72 781.834 1649.85 784.842 1652.53 C 793.45 1660.21 786.209 1716.58 786.43 1730.53 C 773.969 1731.57 761.263 1734.47 748.933 1736.68 C 744.213 1737.47 739.406 1737.95 734.657 1738.56 C 746.595 1722.03 746.677 1703.29 751.644 1684.31 C 755.208 1670.69 760.519 1658.48 772.991 1651.09 z"/>
<path transform="translate(0,0)" fill="rgb(254,208,1)" d="M 294.59 1670.29 C 295.598 1670.33 329.693 1683.67 336.731 1685.51 C 355.189 1690.34 373.733 1691.82 392.628 1693.88 C 370.746 1696.21 349.04 1700.24 327.117 1702.59 C 296.384 1706.69 261.903 1703.8 231.69 1697.26 C 250.412 1682.8 271.321 1674.16 294.59 1670.29 z"/>
<path transform="translate(0,0)" fill="rgb(254,208,1)" d="M 214.399 780.66 C 215.63 784.981 212.675 802.223 212.175 808.337 C 210.894 823.974 209.801 844.263 206.063 859.178 C 203.077 871.09 188.414 884.435 180.896 895.34 C 173.519 906.041 168.683 913.732 162.302 925.268 C 161.137 917.969 165.581 901.253 167.272 893.657 C 177.335 848.446 188.561 819.302 214.399 780.66 z"/>
<path transform="translate(0,0)" fill="rgb(0,194,50)" d="M 703.246 1729.39 C 706.21 1729.13 707.236 1728.85 710.001 1730.11 C 717.883 1738.9 719.247 1762.75 718.957 1774.2 C 718.881 1777.24 718.549 1782.93 716.194 1785.05 C 710.109 1790.51 697.419 1788.94 689.718 1788.74 C 687.918 1787.94 685.84 1787.07 684.297 1785.81 C 677.506 1780.27 673.701 1762 672.716 1753.75 C 672.031 1748.01 671.987 1740.48 675.956 1735.83 C 681.019 1729.89 695.966 1730.17 703.246 1729.39 z"/>
<path transform="translate(0,0)" fill="rgb(255,255,255)" d="M 299.157 1540.09 C 302.416 1542.7 315.174 1580.27 318.29 1587.54 C 323.139 1598.89 328.536 1610 334.46 1620.84 L 334.038 1622.03 L 331.488 1620.85 C 321.96 1614.81 311.767 1610.26 301.528 1605.59 C 299.27 1585.31 294.365 1565.02 290.319 1545.04 L 299.157 1540.09 z"/>
<path transform="translate(0,0)" fill="rgb(255,255,255)" d="M 1184.83 1202.81 C 1194.45 1205.16 1197.3 1205.65 1206.89 1203.45 C 1215.25 1215.37 1227.28 1229.8 1236.37 1241.86 L 1233.2 1264.23 C 1228.83 1260.45 1227.46 1260.03 1222 1257.93 C 1216.6 1248.17 1220.06 1232.37 1209.29 1227.04 C 1204.7 1226.85 1205.82 1227.05 1201.32 1229.29 C 1196.25 1215.24 1195.15 1213.1 1184.83 1202.81 z"/>
<path transform="translate(0,0)" fill="rgb(254,208,1)" d="M 200.839 1106.53 C 206.775 1105.04 213.045 1106.94 217.166 1111.46 C 221.287 1115.98 222.595 1122.4 220.571 1128.17 C 218.548 1133.95 213.519 1138.14 207.477 1139.1 C 198.679 1140.5 190.343 1134.72 188.564 1125.99 C 186.786 1117.26 192.197 1108.68 200.839 1106.53 z"/>
<path transform="translate(0,0)" fill="rgb(254,208,1)" d="M 222.595 925.477 C 231.413 922.928 240.618 928.054 243.096 936.893 C 245.574 945.731 240.374 954.896 231.516 957.303 C 222.758 959.682 213.719 954.554 211.269 945.815 C 208.819 937.076 213.875 927.996 222.595 925.477 z"/>
<path transform="translate(0,0)" fill="rgb(254,208,1)" d="M 481.82 1762.93 C 483.774 1762.7 485.8 1762.47 487.768 1762.68 C 493.256 1763.26 499.055 1765.27 502.472 1769.83 C 504.94 1773.12 505.748 1777.04 505.009 1781.07 C 503.802 1787.64 499.504 1791.24 494.295 1794.7 C 492.501 1795.21 490.68 1795.7 488.805 1795.75 C 484.435 1795.86 479.884 1794.19 476.856 1790.99 C 473.711 1787.66 472.441 1782.89 472.794 1778.39 C 473.34 1771.42 476.84 1767.35 481.82 1762.93 z"/>
<path transform="translate(0,0)" fill="rgb(254,208,1)" d="M 226.877 1294.41 C 235.364 1291.61 244.518 1296.18 247.389 1304.64 C 250.259 1313.1 245.773 1322.3 237.337 1325.24 C 228.794 1328.23 219.457 1323.67 216.55 1315.1 C 213.644 1306.53 218.282 1297.24 226.877 1294.41 z"/>
<path transform="translate(0,0)" fill="rgb(254,208,1)" d="M 495.464 1641.58 C 503.919 1639 512.891 1643.64 515.662 1652.04 C 518.434 1660.43 513.989 1669.51 505.656 1672.46 C 500.1 1674.43 493.911 1673.24 489.483 1669.35 C 485.054 1665.46 483.079 1659.47 484.32 1653.71 C 485.562 1647.95 489.826 1643.31 495.464 1641.58 z"/>
<path transform="translate(0,0)" fill="rgb(254,208,1)" d="M 277.039 1508.1 C 280.342 1507.85 283.831 1507.43 287.036 1508.47 C 291.776 1510.02 295.893 1513.77 297.985 1518.28 C 299.698 1521.97 299.922 1526.11 298.327 1529.88 C 296.277 1534.73 292.817 1537.09 288.193 1539.04 C 285.448 1539.21 282.656 1539.41 279.924 1538.99 C 275.441 1538.31 271.275 1535.96 268.648 1532.21 C 266.376 1528.97 265.646 1525.09 266.48 1521.23 C 267.849 1514.9 271.874 1511.39 277.039 1508.1 z"/>
<path transform="translate(0,0)" fill="rgb(254,208,1)" d="M 192.241 1618.06 C 194.66 1618.03 196.972 1618.27 199.325 1618.83 C 204.067 1619.96 208.573 1622.74 211.049 1627.03 C 212.991 1630.39 213.382 1634.31 212.25 1638.02 C 210.403 1644.07 205.981 1646.94 200.795 1649.8 C 197.617 1650.1 194.024 1650.25 190.974 1649.2 C 186.694 1647.74 183.195 1644.59 181.289 1640.49 C 179.456 1636.55 179.371 1632.01 181.054 1628 C 183.305 1622.51 187.063 1620.22 192.241 1618.06 z"/>
<path transform="translate(0,0)" fill="rgb(254,208,1)" d="M 74.0292 1201.52 C 82.1838 1198.41 91.318 1202.46 94.4959 1210.58 C 97.6738 1218.71 93.7076 1227.88 85.609 1231.13 C 77.4087 1234.42 68.0987 1230.39 64.8809 1222.16 C 61.6631 1213.94 65.772 1204.66 74.0292 1201.52 z"/>
<path transform="translate(0,0)" fill="rgb(255,255,255)" d="M 611.121 1694.4 C 628.761 1696.6 634.698 1710.88 643.797 1724.1 C 647.344 1729.25 651.547 1733.67 655.882 1738.15 C 645.053 1736.6 634.248 1734.88 623.47 1733.01 C 621.609 1719.16 614.367 1707.8 611.121 1694.4 z"/>
<path transform="translate(0,0)" fill="rgb(254,208,1)" d="M 128.064 837.092 C 149.774 835.734 154.951 856.677 134.678 866.625 C 115.073 869.222 107.04 847.113 128.064 837.092 z"/>
<path transform="translate(0,0)" fill="rgb(254,208,1)" d="M 103.292 900.257 C 111.37 898.16 119.644 902.901 121.92 910.931 C 124.195 918.962 119.638 927.338 111.66 929.791 C 106.34 931.426 100.552 930.054 96.5318 926.204 C 92.512 922.355 90.8904 916.632 92.2935 911.246 C 93.6967 905.86 97.9049 901.656 103.292 900.257 z"/>
<path transform="translate(0,0)" fill="rgb(255,255,255)" d="M 1039.44 1630.02 C 1040.82 1632.39 1042.4 1634.87 1044.38 1636.79 C 1048.93 1641.2 1054.69 1640.75 1060.54 1640.77 C 1058.98 1645.88 1056.96 1650.66 1054.79 1655.54 C 1049.73 1658.3 1044.3 1660.58 1039.08 1663.04 L 1028.75 1667.66 C 1031.03 1664.72 1035.23 1660.12 1034.56 1656.17 C 1033.91 1652.3 1030.19 1649.85 1027.33 1647.54 C 1032.2 1642.15 1035.88 1636.31 1039.44 1630.02 z"/>
<path transform="translate(0,0)" fill="rgb(255,255,255)" d="M 614.928 1752.04 C 630.899 1754.66 646.943 1756.93 662.947 1759.35 L 654.714 1764.44 C 645.658 1768.84 631.078 1772.15 621.117 1769.61 C 618.153 1768.86 615.239 1767.47 613.711 1764.67 C 611.627 1760.85 613.574 1755.81 614.928 1752.04 z"/>
<path transform="translate(0,0)" fill="rgb(255,255,255)" d="M 722.674 1759.59 C 728.49 1759.76 733.199 1761.47 738.617 1763.4 C 755.278 1769.36 766.062 1771.51 783.603 1767.97 L 778.472 1775.07 C 775.592 1777.78 772.227 1779.74 768.898 1781.84 C 756.555 1781.06 745.178 1778.72 734.5 1772.08 C 729.151 1768.75 724.221 1766.04 722.674 1759.59 z"/>
<path transform="translate(0,0)" fill="rgb(254,208,1)" d="M 902.389 1626.78 C 903.513 1626.99 904.423 1627.54 905.443 1628.04 C 908.075 1631.57 909.573 1635.41 910.64 1639.66 C 911.759 1644.13 913.023 1649.74 910.577 1653.91 C 906.457 1655.07 899.652 1653.04 895.344 1652.32 L 883.543 1650.49 C 888.173 1640.09 892.791 1633.09 902.389 1626.78 z"/>
<path transform="translate(0,0)" fill="rgb(254,208,1)" d="M 781.146 1737.35 C 781.92 1737.19 782.702 1737.01 783.495 1736.98 C 786.849 1736.81 787.232 1737.13 789.661 1739.28 C 789.755 1740.71 789.978 1740.45 789.155 1741.63 C 785.291 1747.15 738.146 1751.7 729.243 1752.43 C 727.57 1752.76 726.34 1752.58 724.675 1752.35 C 722.918 1750.66 722.355 1750.65 722.301 1748.13 C 729.796 1743.03 769.699 1739.09 781.146 1737.35 z"/>
<path transform="translate(0,0)" fill="rgb(254,208,1)" d="M 1118.86 1465.24 C 1126.33 1466.98 1140.54 1479.03 1140.79 1486.77 C 1138.69 1489.49 1136.16 1489.47 1132.26 1490.68 L 1117.56 1495.4 C 1115.88 1483.37 1114.47 1476.45 1118.86 1465.24 z"/>
<path transform="translate(0,0)" fill="rgb(254,208,1)" d="M 1270.21 806.792 L 1272.96 807.236 C 1280.62 812.941 1277.48 826.981 1275.21 834.756 L 1265.73 830.654 C 1260.77 828.688 1255.38 825.74 1250.58 823.275 C 1257.64 814.048 1259.83 812.337 1270.21 806.792 z"/>
<path transform="translate(0,0)" fill="rgb(254,208,1)" d="M 1176.25 1163.86 C 1187.22 1164.93 1191.72 1167.52 1199.97 1174.89 L 1191.12 1183.69 C 1188.04 1186.61 1184.37 1189.65 1181.12 1192.45 C 1176.71 1183.6 1172.97 1173.63 1176.25 1163.86 z"/>
<path transform="translate(0,0)" fill="rgb(255,255,255)" d="M 785.19 1750.35 C 786.924 1750.28 786.638 1750.43 787.858 1751.48 C 787.915 1752.81 788.001 1754.1 787.595 1755.39 C 786.726 1758.16 784.507 1759.94 782.028 1761.24 C 771.325 1766.89 759.704 1764.74 748.684 1761.34 C 745.67 1759.98 742.357 1758.93 739.254 1757.76 L 785.19 1750.35 z"/>
<path transform="translate(0,0)" fill="rgb(254,208,1)" d="M 1049.94 1592.75 C 1055.17 1595.39 1061.04 1600.27 1064.14 1605.31 C 1065.61 1607.71 1065.81 1609.74 1065.2 1612.43 C 1062.57 1614.73 1059.94 1614.76 1056.58 1615.45 L 1041.64 1619.5 C 1042.38 1609.5 1043.95 1600.98 1049.94 1592.75 z"/>
<path transform="translate(0,0)" fill="rgb(254,208,1)" d="M 622.004 1738.67 C 632.83 1740.97 658.58 1741.55 665.8 1748.66 C 666.524 1750.95 666.586 1751.18 665.908 1753.46 C 660.306 1752.94 621.449 1748.32 619.112 1746.11 L 622.004 1738.67 z"/>
<path transform="translate(0,0)" fill="rgb(254,208,1)" d="M 1305.55 1154.33 C 1312.71 1153.73 1323.1 1151.29 1327.18 1158.36 C 1327.02 1164.05 1323.12 1167.42 1319.31 1171.47 L 1311.02 1178.01 C 1309.11 1172.84 1303.93 1160.28 1303.71 1155.97 L 1305.55 1154.33 z"/>
<path transform="translate(0,0)" fill="rgb(254,208,1)" d="M 920.919 1768.81 C 924.36 1772.38 929.046 1781.16 929.396 1786.08 C 929.61 1789.1 928.819 1790.54 926.999 1792.69 C 923.394 1793.94 919.917 1792.95 916.261 1792.32 C 911.681 1790.9 907.544 1788.63 903.302 1786.44 C 909.445 1780.94 915.127 1774.69 920.919 1768.81 z"/>
<path transform="translate(0,0)" fill="rgb(254,208,1)" d="M 1156.59 1000.31 C 1162.6 1000.03 1168.11 1000.99 1174.04 1001.8 C 1170.95 1009.96 1168.8 1014.81 1164.84 1022.58 L 1163.45 1022.62 C 1156.84 1018.74 1148.09 1011.91 1149.75 1003.31 C 1152.21 1000.45 1152.3 1001.18 1156.59 1000.31 z"/>
<path transform="translate(0,0)" fill="rgb(254,208,1)" d="M 1316.45 922.73 C 1317.3 922.714 1318.7 923.229 1319.53 923.472 C 1323.39 928.415 1325.62 941.906 1321.18 947.297 C 1318.07 948.177 1317.56 947.006 1313.95 945.075 C 1310.16 942.94 1303.69 940.225 1299.55 938.342 C 1305.23 930.628 1308.41 927.938 1316.45 922.73 z"/>
<path transform="translate(0,0)" fill="rgb(254,208,1)" d="M 1257.27 1506.06 C 1263.47 1505.41 1271.57 1505.07 1277.44 1507.54 C 1280.23 1508.71 1280.76 1509.7 1281.87 1512.28 C 1281.27 1515.8 1278.82 1517.62 1276.38 1520 C 1272.57 1523.12 1268.33 1525.74 1264.23 1528.45 C 1261.57 1521.06 1258.79 1513.79 1257.27 1506.06 z"/>
<path transform="translate(0,0)" fill="rgb(249,36,32)" d="M 1247.36 830.402 C 1252.32 832.803 1269.37 837.562 1269.75 842.503 L 1266.7 845.395 C 1250.56 852.995 1246.22 845.966 1247.36 830.402 z"/>
<path transform="translate(0,0)" fill="rgb(249,36,32)" d="M 1181.58 1003.59 C 1185.41 1006.39 1186.7 1008.31 1189.63 1012.01 C 1187.02 1019.75 1188.64 1024.52 1181.22 1028.36 C 1167.79 1026.73 1172.93 1021.53 1177.25 1012.32 C 1178.61 1009.4 1180.15 1006.48 1181.58 1003.59 z"/>
<path transform="translate(0,0)" fill="rgb(249,36,32)" d="M 881.317 1656.64 C 887.833 1657.49 895.096 1658.29 901.419 1660.04 C 903.803 1660.69 905.752 1661.14 906.991 1663.35 L 904.545 1666.73 C 902.37 1668.19 899.93 1669.63 897.425 1670.42 C 894.369 1671.39 890.937 1671.26 888.169 1669.56 C 883.568 1666.73 882.481 1661.49 881.317 1656.64 z"/>
<path transform="translate(0,0)" fill="rgb(249,36,32)" d="M 1204.6 1179.66 C 1215.96 1190.14 1206.65 1198.42 1194.59 1199.27 C 1192.03 1198.55 1191.71 1198.46 1189.36 1197.27 C 1189.32 1192.8 1200.2 1184.24 1204.6 1179.66 z"/>
<path transform="translate(0,0)" fill="rgb(249,36,32)" d="M 1060.68 1622.19 C 1062.05 1622.03 1063.49 1622.16 1064.88 1622.18 C 1066.36 1623.91 1066.99 1624.99 1066.89 1627.38 C 1066.81 1629.49 1065.19 1631.71 1063.74 1633.12 C 1060.88 1635.91 1056.52 1635.39 1052.8 1635.41 C 1048.9 1632.67 1046.71 1629.86 1044.09 1625.93 L 1060.68 1622.19 z"/>
<path transform="translate(0,0)" fill="rgb(249,36,32)" d="M 1248.37 1509.63 C 1250.42 1510.51 1251.01 1511.59 1251.92 1513.61 C 1253.64 1517.44 1257.8 1526.57 1255.83 1530.82 C 1255.18 1532.23 1252.94 1532.7 1251.53 1533.3 C 1249.83 1532.08 1248.06 1530.83 1246.59 1529.35 C 1244.11 1526.87 1242.08 1523.68 1242.21 1520.06 C 1242.38 1515.53 1245.42 1512.64 1248.37 1509.63 z"/>
<path transform="translate(0,0)" fill="rgb(249,36,32)" d="M 1294.21 1158.57 C 1299.48 1159.4 1303.88 1175.49 1303.29 1180.39 L 1300.19 1182.4 C 1289.11 1177.1 1285.08 1168.31 1294.21 1158.57 z"/>
<path transform="translate(0,0)" fill="rgb(249,36,32)" d="M 1140.67 1495.1 L 1143.01 1495.32 L 1143.92 1497.02 C 1143.76 1499.69 1143.07 1501.6 1141.22 1503.59 C 1137.09 1508.03 1133.23 1508.56 1127.48 1508.57 C 1125.69 1507.4 1123.57 1506.26 1122.43 1504.38 C 1121.59 1502.98 1121.98 1502.81 1122.32 1501.31 C 1126.4 1497.72 1135.45 1496.55 1140.67 1495.1 z"/>
<path transform="translate(0,0)" fill="rgb(249,36,32)" d="M 905.498 1761.97 C 906.815 1761.94 908.217 1761.87 909.521 1762.06 C 911.865 1762.39 912.681 1762.76 913.963 1764.66 C 912.611 1769.51 905.828 1774.79 902.334 1778.37 C 900.569 1780.03 900.415 1780.43 897.922 1780.73 L 896.489 1779.1 C 896.006 1777.4 895.827 1776 896.109 1774.23 C 897.089 1768.09 900.769 1765.43 905.498 1761.97 z"/>
<path transform="translate(0,0)" fill="rgb(249,36,32)" d="M 1298.85 945.562 C 1304.05 948.127 1313.84 952.411 1317.25 956.388 L 1316.58 958.724 C 1303.62 965.313 1296.23 959.689 1298.85 945.562 z"/>
<path transform="translate(0,0)" fill="rgb(254,208,1)" d="M 182.568 1159.8 C 183.686 1164.77 164.15 1198.82 160.575 1205.33 C 158.145 1196.58 177.291 1168.52 182.568 1159.8 z"/>
<path transform="translate(0,0)" fill="rgb(255,255,255)" d="M 1214.33 1400.65 C 1216.89 1402.68 1220.22 1408.28 1222.17 1411.25 C 1222.08 1414.82 1221.59 1419.42 1221.3 1423.07 L 1216 1423.06 C 1212.6 1419.28 1214.55 1407.53 1214.33 1400.65 z"/>
<path transform="translate(0,0)" fill="rgb(254,208,1)" d="M 209.453 1353.03 C 208.956 1360.32 195.05 1388.94 191.041 1396.4 C 187.958 1386.96 204.102 1362.34 209.453 1353.03 z"/>
<path transform="translate(0,0)" fill="rgb(255,255,255)" d="M 1150.1 1522.6 C 1150.51 1523.41 1150.88 1524.17 1151.18 1525.03 C 1154.19 1533.59 1159.43 1547.91 1155.23 1556.41 L 1155.54 1553.77 C 1155.61 1553.41 1155.69 1553.06 1155.75 1552.71 C 1157.41 1542.44 1150.99 1545.93 1147.25 1540.99 C 1146.46 1534.73 1148.65 1528.66 1150.1 1522.6 z"/>
<path transform="translate(0,0)" fill="rgb(255,255,255)" d="M 1237.95 1510.07 L 1238.52 1510.74 C 1237.74 1514.09 1237 1517.45 1236.3 1520.81 C 1229.22 1522.09 1222.21 1524.26 1215.26 1526.11 L 1214.47 1525.5 C 1217.65 1521.07 1232.44 1513.8 1237.95 1510.07 z"/>
<path transform="translate(0,0)" fill="rgb(147,124,32)" d="M 1234.14 1527.09 L 1235.21 1526.96 L 1236.15 1527.79 C 1231.49 1531.48 1206.21 1536.88 1199.18 1538.22 L 1197.49 1539.13 L 1197.34 1537.88 C 1202.57 1533.06 1226.13 1529.33 1234.14 1527.09 z"/>
<path transform="translate(0,0)" fill="rgb(254,208,1)" d="M 288.126 1565.68 C 291.901 1576.95 294.384 1591.5 294.979 1603.32 C 294.616 1603.07 294.226 1602.86 293.889 1602.58 C 290.134 1599.42 288.018 1571.42 288.126 1565.68 z"/>
<path transform="translate(0,0)" fill="rgb(254,208,1)" d="M 508.536 1687.68 C 513.704 1691.45 522.44 1710.99 524.659 1717.44 C 524.37 1717.33 524.072 1717.25 523.793 1717.12 C 517.709 1714.28 511.072 1693.87 508.536 1687.68 z"/>
<path transform="translate(0,0)" fill="rgb(254,208,1)" d="M 102.075 1246.93 C 105.576 1249.82 118.857 1268.1 119.831 1273.38 C 113.723 1269.88 104.986 1253.65 102.075 1246.93 z"/>
<path transform="translate(0,0)" fill="rgb(147,124,32)" d="M 129.499 945.653 C 133.396 948.09 141.854 964.4 143.292 969.337 C 137.636 966.084 132.289 951.945 129.499 945.653 z"/>
<path transform="translate(0,0)" fill="rgb(254,208,1)" d="M 884.658 1751.43 C 879.627 1746.51 874.126 1741.62 870.43 1735.68 C 874.971 1737.41 882.923 1746.74 886.405 1750.76 L 884.658 1751.43 z"/>
<path transform="translate(0,0)" fill="rgb(254,208,1)" d="M 148.959 890.906 C 153.093 896.124 158.134 901.447 158.17 908.215 C 154.578 905.362 150.467 895.445 148.959 890.906 z"/>
<path transform="translate(0,0)" fill="rgb(147,124,32)" d="M 886.405 1750.76 C 888.738 1753.33 892.972 1757.7 893.391 1760.98 C 889.705 1758.91 887.291 1754.93 884.658 1751.43 L 886.405 1750.76 z"/>
<path transform="translate(0,0)" fill="rgb(41,42,43)" d="M 721.524 106.205 C 737.937 106.369 742.94 111.916 747.18 126.895 C 770.443 110.141 777.328 122.454 780.832 144.702 C 782.689 147.712 784.628 147.876 787.498 149.081 C 801.415 152.813 789.732 171.174 790.124 171.698 C 795.814 179.3 817.383 196.788 785.822 203.582 C 784.543 207.327 792.314 214.315 789.7 221.663 C 785.239 234.202 771.586 233.802 761.082 231.539 C 762.641 236.265 765.105 244.015 768.786 247.169 C 798.495 272.623 837.885 263.256 862.74 239.659 C 839.367 240.953 824.229 233.924 838.831 208.312 C 821.238 201.296 814.706 178.324 835.731 172.239 C 839.065 166.232 819.954 136.6 853.967 142.24 C 854.277 134.326 854.521 126.361 859.968 120.205 C 862.439 117.392 866.039 115.833 869.781 115.954 C 877.485 116.163 883.578 121.697 888.64 126.736 C 889.468 125.36 890.329 124.004 891.222 122.67 C 897.135 113.915 910.325 107.199 920.092 114.558 C 925.683 118.771 926.041 124.101 926.902 130.548 C 952.814 118.002 966.193 133.185 952.299 157.936 C 977.055 166.959 982.694 186.637 959.446 202.335 C 971.998 217.558 971.392 230.908 949.691 234.367 C 943.326 235.381 947.833 271.831 917.488 250.095 C 921.131 259.145 924.913 267.256 933.68 272.157 C 961.575 287.751 985.023 264.494 997.548 242.815 C 989.839 227.921 984.822 202.438 1002.52 196.056 C 1039.38 182.765 1019.58 173.386 1025.37 160.203 C 1036.55 153.396 1042.77 166.336 1047.37 174.004 C 1056.04 176.36 1067.19 176.527 1073.58 183.871 C 1081.85 193.374 1083.33 208.899 1080.42 220.763 C 1078.94 226.781 1076.4 230.883 1071.86 234.988 C 1064.77 235.573 1065 222.694 1057.46 220.192 C 1049.3 223.137 1047.48 239.139 1041.93 246.253 C 1037.9 251.819 1028.71 258.954 1025.94 265.254 C 1015.02 290.09 1009.93 301.146 989.109 319.028 C 1006.79 338.504 990.362 351.518 971.975 357.689 C 967.678 375.417 963.419 392.062 960.466 410.115 C 995.495 437.455 959.585 462.388 932.549 473.466 C 864.471 501.361 784.662 504.796 711.75 503.042 C 634.018 502.752 510.216 499.779 443.936 452.554 C 426.779 440.329 432.082 421.478 446.467 408.355 C 444.118 396.279 438.489 363.282 435.233 353.914 C 434.857 352.832 394.197 336.002 426.845 313.997 C 402.05 290.287 395.309 274.779 388.527 241.128 C 383.468 216.029 375.835 209.149 357.703 228.986 L 356.229 228.488 C 350.529 222.78 348.716 217.018 348.475 209.119 C 347.719 184.362 362.621 173.906 385.361 172.981 C 391.054 163.027 402.683 146.588 416.319 160.936 C 422.347 167.279 420.328 177.83 419.285 185.991 C 448.583 192.225 456.278 221.371 432.094 239.288 C 437.022 248.282 442.921 257.466 451.006 263.954 C 459.764 271.08 471.048 274.328 482.255 272.949 C 496.849 271.179 503.753 264.247 512.058 253.437 C 510.406 253.811 508.745 254.142 507.075 254.427 C 489.81 257.3 487.511 247.818 485.647 233.513 C 460.437 233.013 460.411 214.678 471.6 197.704 C 463.851 193.8 458.377 190.369 456.942 180.946 C 456.25 176.266 457.486 171.506 460.368 167.754 C 465.113 161.477 469.936 160.895 477.04 159.725 C 472.853 151.054 469.774 141.566 476.156 132.843 C 478.752 129.242 482.789 126.953 487.212 126.572 C 495.023 125.833 500.583 129.58 506.295 134.169 C 509.658 126.247 511.906 120.799 519.012 115.731 C 524.294 111.962 530.906 110.558 537.264 111.857 C 545.827 113.683 549.541 118.472 553.85 125.319 C 575.696 105.662 578.001 125.858 578.907 144.026 C 580.713 143.478 582.545 143.017 584.396 142.645 C 605.335 138.364 609.262 155.195 596.243 170.701 C 611.896 179.965 616.679 193.918 597.44 202.76 C 615.175 225.056 599.293 237.723 574.791 227.697 C 577.092 234.25 579.148 240.323 584.104 245.403 C 603.542 265.328 640.56 262.887 664.075 252.464 C 671.765 249.055 676.991 244.563 682.884 239.053 C 675.707 238.707 669.603 237.646 663.63 233.243 C 652.814 225.269 662.457 214.119 661.466 206.031 C 637.994 190.527 640.07 176.124 666.753 167.445 C 662.988 163.79 658.976 158.536 658.296 153.205 C 657.947 150.579 658.681 147.923 660.33 145.849 C 663.736 141.553 668.663 141.239 673.68 140.647 C 675.698 119.504 683.136 105.712 704.457 123.122 C 708.731 112.4 709.534 109.106 721.524 106.205 z"/>
<path transform="translate(0,0)" fill="rgb(254,208,1)" d="M 721.553 112.232 C 741.817 113.289 740.308 125.047 742.416 141.739 C 747.794 135.529 765.814 116.412 773.861 134.298 C 776.391 139.921 771.059 149.082 768.035 154.34 C 774.736 153.457 782.257 151.404 786.501 157.775 C 786.897 164.849 778.881 172.66 774.387 178.41 C 781.73 178.852 794.973 178.658 796.308 188.674 C 793.811 196.291 781.374 196.935 777.307 200.581 C 773.727 203.79 789.179 216.826 779.958 225.932 C 769.329 229.477 764.763 222.99 755.235 222.685 L 754.044 223.905 C 753.202 229.783 757.862 242.948 761.227 247.51 C 780.124 272.809 828.525 274.159 852.719 255.887 C 859.444 250.808 881.946 229.561 875.414 221.063 C 870.811 222.128 868.457 228.211 863.48 231.339 C 853.734 237.466 837.381 234.447 840.845 220.075 C 842.685 212.441 850.14 208.77 856.644 204.933 C 851.166 203.309 836.722 202.351 834.28 198.742 C 818.897 176.001 843.226 177.232 854.083 176.85 C 852.116 175.14 845.154 169.39 844.136 167.663 C 830.441 144.411 847.818 146.645 862.538 151.724 C 861.51 147.385 860.854 142.967 860.576 138.517 C 860.325 134.038 861.584 125.276 864.978 122.383 C 872.774 115.737 885.02 134.741 888.942 139.643 C 889.352 139.597 889.762 139.551 890.172 139.505 C 892.639 130.904 905.4 109.062 916.458 119.473 C 921.728 124.434 920.411 134.183 920.237 142.419 C 926.945 138.152 945.771 124.949 950.505 137.469 C 953.054 144.212 946.465 157.973 943.848 164.555 C 952.8 165.693 971.888 168.929 967.367 182.935 C 964.328 192.351 953 197.048 944.68 201.225 C 954.567 205.637 963.046 211.688 959.96 223.964 C 952.613 232.786 939.963 221.609 932.628 224.415 L 931.981 226.042 C 933.386 230.818 939.576 234.911 940.768 238.69 C 942.891 245.425 934.391 251.947 927.264 248.446 C 921.392 245.562 915.138 241.137 909.029 237.395 C 913.707 267.661 929.984 290.629 964.832 281.244 C 984.473 275.954 996.536 257.985 1005.35 240.614 C 1001.19 235.565 996.469 226.727 996.335 220.086 C 995.718 199.61 1016.21 200.345 1027.66 187.814 C 1035.81 178.891 1031.24 170.546 1033.52 166.124 C 1036.48 168.494 1040.75 175.959 1043 179.51 C 1047.6 181.216 1052.53 181.341 1057.25 182.724 C 1077.69 188.712 1077.91 205.141 1073.26 222.518 C 1069.63 223.062 1065.51 216.033 1059.18 214.584 C 1045.4 211.425 1042.89 233.603 1036.92 242.056 C 1032.69 248.512 1023.59 255.307 1020.24 262.077 C 1008.92 284.956 1006.12 300.505 982.994 314.937 C 889.461 289.385 815.975 283.853 718.157 282.44 C 684.921 281.963 651.554 284.399 618.402 285.412 C 553.524 287.395 495.573 297.124 432.79 312.44 C 424.044 303.088 410.319 288.401 405.023 277.386 C 396.223 259.187 397.822 234.363 385.86 218.043 C 377.57 206.733 365.366 211.95 356.864 219.295 C 352.255 195.151 359.738 175.694 387.985 180.617 C 392.979 171.375 396.218 161.116 408.445 161.725 C 418.839 167.577 410.032 187.896 413.761 189.052 C 437.024 196.265 455.761 220.637 423.872 235.818 C 439.157 271.352 475.397 298.098 511.458 263.964 C 516.349 259.335 523.141 245.398 522.666 238.551 C 515.774 237.896 488.89 272.386 493.886 224.171 C 486.288 226.854 472.043 230.333 471.194 217.434 C 470.582 208.13 477.209 201.25 483.165 194.916 C 475.744 192.4 454.424 184.09 464.818 172.139 C 470.188 165.965 480.621 166.281 488.385 165.947 C 468.923 138.901 484.501 119.773 507.758 144.658 C 513.191 134.892 520.964 108.099 539.335 119.543 C 547.251 124.474 548.11 132.738 549.532 141.236 C 555.02 135.013 559.188 126.96 567.297 124.395 C 575.35 126.491 572.646 146.112 571.579 152.778 C 578.894 150.042 587.515 146.404 595.191 149.242 C 603.215 158.148 585.943 171.348 579.678 176.905 C 587.483 176.913 601.504 177.207 604.344 186.29 C 602.334 196.653 585.013 198.859 576.701 200.46 C 582.168 202.771 602.259 209.654 598.838 219.074 C 593.618 233.448 575.623 218.964 566.701 217.156 C 564.983 220.817 566.751 223.963 567.744 227.657 C 578.896 269.102 625.285 272.595 659.833 260.937 C 676.701 255.245 690.341 242.652 698.042 225.409 C 689.603 229.588 677.434 235.344 669.004 228.589 C 658.566 220.226 670.272 207.507 675.921 201.463 C 672.996 200.901 664.476 199.527 662.204 198.227 C 635.597 183.011 667.78 174.161 679.072 171.007 C 673.776 165.122 665.796 159.085 664.916 151.607 C 668.015 144.714 675.943 146.985 682.115 148.005 C 681.973 147.082 681.839 146.158 681.713 145.233 C 680.94 139.539 679.583 128.914 683.837 124.781 C 692.549 116.315 704.488 132.558 708.816 137.655 C 710.464 126.748 710.149 116.98 721.553 112.232 z"/>
<path transform="translate(0,0)" fill="rgb(41,42,43)" d="M 527.487 169.673 C 539.888 166.282 552.677 173.642 555.975 186.067 C 559.273 198.493 551.816 211.226 539.366 214.431 C 527.048 217.601 514.479 210.241 511.216 197.947 C 507.953 185.653 515.218 173.029 527.487 169.673 z"/>
<path transform="translate(0,0)" fill="rgb(254,208,1)" d="M 530.751 175.685 C 536.795 174.655 542.921 176.992 546.744 181.785 C 550.566 186.578 551.482 193.071 549.133 198.734 C 546.784 204.397 541.543 208.336 535.45 209.017 C 526.395 210.029 518.178 203.655 516.906 194.634 C 515.635 185.612 521.77 177.215 530.751 175.685 z"/>
<path transform="translate(0,0)" fill="rgb(41,42,43)" d="M 898.362 168.226 C 928.364 167.491 934.422 203.676 905.1 215.517 C 874.921 217.012 868.91 176.177 898.362 168.226 z"/>
<path transform="translate(0,0)" fill="rgb(254,208,1)" d="M 897.866 175.72 C 906.866 173.705 915.804 179.335 917.873 188.323 C 919.942 197.311 914.365 206.282 905.389 208.404 C 896.338 210.544 887.275 204.91 885.189 195.846 C 883.103 186.783 888.791 177.753 897.866 175.72 z"/>
<path transform="translate(0,0)" fill="rgb(41,42,43)" d="M 722.044 168.559 C 734.313 166.368 746.066 174.442 748.42 186.681 C 750.775 198.919 742.858 210.779 730.652 213.297 C 722.61 214.956 714.297 212.159 708.894 205.975 C 703.491 199.792 701.834 191.179 704.557 183.432 C 707.279 175.684 713.961 170.002 722.044 168.559 z"/>
<path transform="translate(0,0)" fill="rgb(254,208,1)" d="M 720.821 175.653 C 726.457 173.81 732.649 175.153 737.016 179.165 C 741.383 183.176 743.244 189.233 741.884 195.005 C 740.524 200.776 736.154 205.365 730.456 207.005 C 721.861 209.479 712.868 204.61 710.241 196.061 C 707.613 187.511 712.32 178.433 720.821 175.653 z"/>
<path transform="translate(0,0)" fill="rgb(249,36,32)" d="M 681.816 384.489 C 770.02 383.883 859.059 388.926 944.583 412.075 C 961.848 416.748 978.754 430.998 960.784 448.375 C 950.407 458.409 938.491 463.543 925.176 468.814 C 863.617 493.184 791.975 497.327 726.293 496.865 C 694.564 495.815 662.636 495.85 630.969 493.666 C 583.797 490.412 482.217 479.178 448.602 447.576 C 444.199 443.437 440.306 438.144 440.318 431.837 C 440.327 427.082 442.628 422.87 445.86 419.515 C 474.725 389.545 637.263 385.247 681.816 384.489 z"/>
<path transform="translate(0,0)" fill="rgb(41,42,43)" d="M 644.743 409.455 C 682.349 407.792 728.392 408.954 765.972 410.439 C 789.647 411.375 927.903 421.437 935.415 440.012 L 934.554 441.532 C 924.067 448.412 898.852 453.619 886.246 456.9 C 846.923 467.134 805.68 469.533 765.249 471.869 C 692.272 475.552 619.111 471.268 547.063 459.092 C 529.382 456.033 483.222 448.227 472.692 433.322 C 472.174 425.983 488.381 426.446 494.41 425.181 C 543.809 414.817 594.384 411.162 644.743 409.455 z"/>
<path transform="translate(0,0)" fill="rgb(175,33,31)" d="M 663.973 416.471 C 747.547 413.928 842.466 419.213 923.531 439.269 C 865.336 456.519 804.948 465.246 744.25 465.178 C 668.002 467.278 554.978 461.667 483.532 434.472 C 552.874 420.89 594.366 417.838 663.973 416.471 z"/>
<path transform="translate(0,0)" fill="rgb(254,208,1)" d="M 649.77 323.443 C 666.43 322.117 693.557 322.772 710.846 322.879 C 796.899 323.412 883.209 331.619 966.47 353.935 C 962.301 372.16 957.656 389.2 954.1 407.672 C 892.827 389.616 823.608 382.239 759.752 378.858 C 678.963 373.802 580.04 379.107 499.796 392.603 C 485.802 394.957 466.58 400.794 452.563 404.86 C 448.44 388.096 445.252 367.831 442.463 350.798 C 504.403 331.928 585.388 325.973 649.77 323.443 z"/>
<path transform="translate(0,0)" fill="rgb(41,42,43)" d="M 701.533 329.323 C 734.86 330.106 737.412 363.877 708.66 368.201 C 673.089 368.374 670.269 334.088 701.533 329.323 z"/>
<path transform="translate(0,0)" fill="rgb(254,208,1)" d="M 698.329 336.127 C 707.26 335.494 717.161 335.784 721.726 345.309 C 722.763 347.469 722.869 349.96 722.019 352.2 C 720.445 356.403 715.925 359.547 711.966 361.309 C 708.043 361.529 701.523 362.118 697.894 360.708 C 682.21 354.615 681.814 340.734 698.329 336.127 z"/>
<path transform="translate(0,0)" fill="rgb(41,42,43)" d="M 616.687 332.437 C 621.098 332.034 628.353 332.149 632.988 332.075 C 633.483 344.117 633.672 359.259 635.793 370.86 L 617.115 371.16 L 598.721 372.416 C 598.627 359.634 598.277 346.735 598.024 333.946 C 603.516 333.175 611.017 332.85 616.687 332.437 z"/>
<path transform="translate(0,0)" fill="rgb(254,208,1)" d="M 616.707 338.581 C 619.85 338.186 621.85 337.637 624.847 338.61 C 629.458 343.819 628.082 356.274 628.152 364.001 L 616.249 364.802 C 612.964 365.109 610.24 365.737 607.249 364.571 C 602.51 359.51 604.057 347.539 603.843 339.385 L 616.707 338.581 z"/>
<path transform="translate(0,0)" fill="rgb(41,42,43)" d="M 774.988 333.992 L 812.399 337.359 C 811.882 348.779 809.485 361.212 808.881 373.723 C 798.657 373.684 783.292 372.218 772.706 371.567 C 773.037 359.661 774.227 345.986 774.988 333.992 z"/>
<path transform="translate(0,0)" fill="rgb(254,208,1)" d="M 780.805 340.765 C 789.38 341.838 797.839 342.523 806.445 343.255 C 804.96 350.759 803.717 359.064 802.432 366.665 C 799.128 368.001 783.197 365.358 778.905 364.75 C 779.318 356.739 779.951 348.741 780.805 340.765 z"/>
<path transform="translate(0,0)" fill="rgb(41,42,43)" d="M 862.329 340.248 C 873.578 338.648 884.012 346.418 885.703 357.653 C 887.394 368.889 879.708 379.386 868.487 381.167 C 857.136 382.969 846.493 375.176 844.783 363.811 C 843.072 352.447 850.951 341.866 862.329 340.248 z"/>
<path transform="translate(0,0)" fill="rgb(254,208,1)" d="M 859.659 347.073 C 880.61 344.69 887.707 361.677 871.043 374.234 C 852.986 378.012 843.643 356.635 859.659 347.073 z"/>
<path transform="translate(0,0)" fill="rgb(41,42,43)" d="M 535.068 340.192 C 544.836 339.602 552.625 340.37 558.757 349.12 C 561.823 353.411 562.925 358.8 561.791 363.95 C 560.029 371.832 555.317 375.132 549.012 378.966 C 521.446 380.276 510.43 351.424 535.068 340.192 z"/>
<path transform="translate(0,0)" fill="rgb(254,208,1)" d="M 537.131 346.013 C 544.113 345.245 549.458 345.839 553.908 352.209 C 556.144 355.377 556.877 359.366 555.914 363.122 C 554.534 368.528 551.749 369.976 547.322 372.507 C 527.838 373.401 519.411 357.69 537.131 346.013 z"/>
<path transform="translate(0,0)" fill="rgb(41,42,43)" d="M 483.511 351.33 L 485.441 351.171 C 488.441 354.066 491.891 378.715 493.845 386.334 C 485.782 387.262 472.635 391.365 464.094 393.542 C 460.052 391.785 455.397 362.809 454.137 356.6 C 463.913 354.762 473.705 353.005 483.511 351.33 z"/>
<path transform="translate(0,0)" fill="rgb(254,208,1)" d="M 479.541 358.263 L 480.962 358.596 C 482.72 362.204 485.102 375.624 486.04 380.264 C 480.547 382.237 474.32 384.088 468.714 385.89 L 468.05 385.646 C 465.269 382.151 462.471 366.95 461.326 361.633 C 467.016 360.894 473.82 359.38 479.541 358.263 z"/>
<path transform="translate(0,0)" fill="rgb(41,42,43)" d="M 922.06 351.539 C 932.4 354.322 943.239 356.547 953.82 359.358 C 952.597 365.145 946.72 389.802 944.694 394.478 C 937.117 392.833 916.958 390.265 913.474 385.221 C 913.557 381.004 920.711 357.153 922.06 351.539 z"/>
<path transform="translate(0,0)" fill="rgb(254,208,1)" d="M 925.959 359.842 C 933.025 361.071 939.628 362.639 946.601 364.262 C 944.643 371.687 942.585 379.086 940.43 386.457 C 934.733 385.63 926.723 383.679 920.922 382.451 C 922.742 375.058 924.325 367.305 925.959 359.842 z"/>
<path transform="translate(0,0)" fill="rgb(249,36,32)" d="M 677.052 289.439 C 768.691 288.543 860.082 291.456 949.821 312.809 C 960.923 316.119 976.123 318.171 985.451 325.233 C 996.409 333.528 983.554 351.28 971.662 348.428 C 952.694 343.878 934.358 338.347 915.081 334.784 C 856.319 323.924 799.947 319.112 740.389 316.852 C 667.333 315.308 595.677 316.665 523.133 327.075 C 506.756 329.425 489.949 332.568 473.779 336.194 C 460.569 339.136 447.518 342.954 434.167 345.172 C 424.546 346.77 419.891 328.767 425.661 323.795 C 432.195 318.165 445.463 316.413 453.991 314.29 C 526.251 296.3 602.829 291.459 677.052 289.439 z"/>
</svg>