<svg xmlns="http://www.w3.org/2000/svg" viewBox="0 0 120 180" role="img" aria-label="Stemma del Comune di Noicattaro">
  <defs>
    <linearGradient id="gold" x1="0" x2="1" y1="0" y2="1">
      <stop offset="0" stop-color="#f8e9a1" />
      <stop offset="0.6" stop-color="#d8a74f" />
      <stop offset="1" stop-color="#c1873c" />
    </linearGradient>
    <linearGradient id="blue" x1="0" x2="0" y1="0" y2="1">
      <stop offset="0" stop-color="#2f8fd8" />
      <stop offset="1" stop-color="#0f5fa7" />
    </linearGradient>
  </defs>
  <rect x="18" y="34" width="84" height="102" rx="6" fill="url(#blue)" stroke="#1d4d82" stroke-width="3" />
  <path d="M60 72c12 0 22-12 22-24a22 22 0 0 0-44 0c0 12 10 24 22 24z" fill="url(#gold)" stroke="#a5672f" stroke-width="2" />
  <path d="M60 96c-10.5 0-18-6.3-18-14.8V70h36v11.2C78 89.7 70.5 96 60 96z" fill="url(#gold)" stroke="#a5672f" stroke-width="2" />
  <path d="M60 100c-8.5 0-16 5.6-16 14v8h32v-8c0-8.4-7.5-14-16-14z" fill="#f6d38a" stroke="#a5672f" stroke-width="2" />
  <path d="M60 112c-6.4 0-11.6 4.1-12.8 9.6-.2.8.4 1.6 1.2 1.6h23.2c.8 0 1.4-.8 1.2-1.6C71.6 116.1 66.4 112 60 112z" fill="#f9e6b7" stroke="#b07a33" stroke-width="1.6" />
  <g fill="#f4cf7b" stroke="#a86730" stroke-width="1.6" stroke-linecap="round">
    <path d="M60 52 51 35" />
    <path d="M60 52 69 35" />
    <path d="M60 54 47 40" />
    <path d="M60 54 73 40" />
    <path d="M60 58 44 48" />
    <path d="M60 58 76 48" />
  </g>
  <g fill="none" stroke="url(#gold)" stroke-width="6" stroke-linecap="round">
    <path d="M25 144c0 12 9 18 18 18" />
    <path d="M95 144c0 12-9 18-18 18" />
  </g>
  <g fill="none" stroke="#a5672f" stroke-width="2" stroke-linecap="round">
    <path d="M24 144c0 12.5 9 19.5 20 19.5" />
    <path d="M96 144c0 12.5-9 19.5-20 19.5" />
  </g>
  <path d="M60 18c-12 0-22 4-22 9.2 0 1.4.7 2.7 2 3.8l-2 5.6c-.6 1.7.6 3.4 2.3 3.4h39.4c1.8 0 2.9-1.7 2.3-3.4l-2-5.6c1.3-1.1 2-2.4 2-3.8C82 22 72 18 60 18z" fill="url(#gold)" stroke="#a5672f" stroke-width="2" />
  <circle cx="60" cy="26" r="6" fill="#d46a26" stroke="#8f3f12" stroke-width="2" />
  <path d="M42 164c6 4.5 12 8 18 8s12-3.5 18-8l-4-6H46l-4 6z" fill="#fff" stroke="#c44" stroke-width="1.8" />
  <path d="M42 164c5.5 4 11 7.2 18 7.2 7 0 12.5-3.2 18-7.2" stroke="#c44" stroke-width="1.8" fill="none" />
  <path d="M60 160c-3 0-5.5 1.8-5.5 4s2.5 4 5.5 4 5.5-1.8 5.5-4-2.5-4-5.5-4z" fill="#3aab55" stroke="#267339" stroke-width="1.2" />
</svg>
