<?xml version="1.0" encoding="UTF-8"?>
<svg xmlns="http://www.w3.org/2000/svg" viewBox="0 0 160 160">
  <defs>
    <linearGradient id="hornGradient" x1="0%" y1="0%" x2="100%" y2="100%">
      <stop offset="0%" stop-color="#9b1b2b" />
      <stop offset="100%" stop-color="#5b0f1c" />
    </linearGradient>
    <linearGradient id="faceGradient" x1="0%" y1="0%" x2="100%" y2="100%">
      <stop offset="0%" stop-color="#f6f0eb" />
      <stop offset="100%" stop-color="#ede1da" />
    </linearGradient>
  </defs>
  <rect width="160" height="160" rx="32" fill="#2d1015" />
  <g transform="translate(25 22)">
    <path
      d="M16 26c-2.8-9.9 4.4-20.6 15-22 6.6-.9 13.6 1.7 18 6.8 2.8 3.2 5.1 7 6.8 11l-10.8 3.7c-1.7-3.9-4.3-8.1-8-8.7-4.8-.8-7 3.4-5.8 8.5z"
      fill="url(#hornGradient)"
    />
    <path
      d="M94 26c2.8-9.9-4.4-20.6-15-22-6.6-.9-13.6 1.7-18 6.8-2.8 3.2-5.1 7-6.8 11l10.8 3.7c1.7-3.9 4.3-8.1 8-8.7 4.8-.8 7 3.4 5.8 8.5z"
      fill="url(#hornGradient)"
    />
    <path
      d="M56 26c-20.2 0-36 16.8-36 40.4 0 18.9 10.9 35.2 26 40.4l-6 15 16-8 16 8-6-15c15.1-5.2 26-21.5 26-40.4C92 42.8 76.2 26 56 26z"
      fill="url(#faceGradient)"
      stroke="#9b1b2b"
      stroke-width="3.5"
      stroke-linejoin="round"
    />
    <circle cx="43.5" cy="66" r="5.5" fill="#2d1015" />
    <circle cx="68.5" cy="66" r="5.5" fill="#2d1015" />
    <path
      d="M56 88c-5.3 0-10.3-2.6-13.4-6.8l4.7-3.4c2.2 3 5.5 4.7 8.7 4.7s6.5-1.7 8.7-4.7l4.7 3.4C66.3 85.4 61.3 88 56 88z"
      fill="#9b1b2b"
    />
  </g>
  <g font-family="Manrope, 'Segoe UI', sans-serif" font-weight="700" text-anchor="middle">
    <text x="80" y="138" font-size="22" fill="#f6f0eb">GOATYCODER</text>
  </g>
</svg>
