<svg xmlns="http://www.w3.org/2000/svg" viewBox="0 0 240 72" role="img" aria-labelledby="title desc">
  <title id="title">Logo GoatyCoder</title>
  <desc id="desc">Parola GoatyCoder con icona stilizzata di una capra e parentesi graffe</desc>
  <defs>
    <linearGradient id="horn" x1="0%" y1="0%" x2="100%" y2="0%">
      <stop offset="0%" stop-color="#6f7c91" />
      <stop offset="100%" stop-color="#475166" />
    </linearGradient>
    <linearGradient id="text" x1="0%" y1="0%" x2="100%" y2="100%">
      <stop offset="0%" stop-color="#c5ccd9" />
      <stop offset="100%" stop-color="#9aa3b5" />
    </linearGradient>
  </defs>
  <rect width="240" height="72" fill="none" />
  <g transform="translate(18 14)">
    <path d="M20 6c2.6-4 6.8-6 11.4-6 4.8 0 8.8 2.2 11.4 6" fill="none" stroke="url(#horn)" stroke-width="4" stroke-linecap="round" />
    <circle cx="31.4" cy="22" r="14" fill="none" stroke="#475166" stroke-width="4" />
    <path d="M22 26c3 4 6.2 6 9.4 6s6.4-2 9.4-6" fill="none" stroke="#475166" stroke-width="4" stroke-linecap="round" />
    <circle cx="26" cy="20" r="2.6" fill="#475166" />
    <circle cx="36.8" cy="20" r="2.6" fill="#475166" />
  </g>
  <g transform="translate(88 21)" fill="url(#text)">
    <path d="M6.7 31.2c-4 0-6.7-2.3-6.7-5.8 0-3 1.7-4.8 4.6-5.5l5.4-1.3c1.5-.3 2.1-.9 2.1-1.9 0-1.4-1.3-2.4-3.5-2.4-2.1 0-3.9.8-5.8 2.4l-2.7-3.4C2.5 11 5.5 9.6 9.8 9.6c4.8 0 7.9 2.4 7.9 6.3 0 3.1-1.7 5-5.2 5.8l-5 1.2c-1.5.3-2.1.9-2.1 2 0 1.4 1.3 2.4 3.4 2.4 2.2 0 4.2-.8 6.2-2.5l2.8 3.2c-2.6 2.5-5.8 3.7-9.1 3.7Z" />
    <path d="M28.8 31.2c-5 0-8.4-3.6-8.4-10 0-6.5 3.4-10 8.4-10 2.9 0 5 .9 6.7 2.9l-2.9 3.1c-1.1-1.3-2.1-1.8-3.5-1.8-2.3 0-3.9 2-3.9 5.8s1.6 5.8 3.9 5.8c1.4 0 2.4-.6 3.5-1.9l2.9 3.1c-1.6 2-3.8 3-6.7 3Z" />
    <path d="M52.8 31c-3.6 0-6-1.8-7-4.7v4.4h-5.1V1.4h5.1v13.3c1.1-2.7 3.5-4.2 7-4.2 4.8 0 8.3 3.8 8.3 10.1 0 6.3-3.5 10.4-8.3 10.4Zm-1.4-16.8c-2.4 0-4 2-4 5.7s1.5 5.8 4 5.8 4-2.1 4-5.8-1.5-5.7-4-5.7Z" />
    <path d="M76.7 31.2c-5 0-8.4-3.6-8.4-10 0-6.5 3.4-10 8.4-10 2.9 0 5 .9 6.7 2.9l-2.9 3.1c-1.1-1.3-2.1-1.8-3.5-1.8-2.3 0-3.9 2-3.9 5.8s1.6 5.8 3.9 5.8c1.4 0 2.4-.6 3.5-1.9l2.9 3.1c-1.6 2-3.8 3-6.7 3Z" />
    <path d="M90.7 18.7c0-4.9 3-7.9 7.6-7.9 2.9 0 5 1.1 6.2 3v-2.7h5.1v19.8h-5.1v-2.9c-1.2 2-3.3 3.1-6.2 3.1-4.6 0-7.6-3-7.6-7.9Zm13.9 0c0-2.7-1.5-4.3-4-4.3-2.4 0-3.9 1.6-3.9 4.3s1.5 4.4 3.9 4.4 4-1.7 4-4.4Z" />
    <path d="M125.8 31c-4.7 0-7.6-3-7.6-7.9V11.1h5.1v11.5c0 2.7 1.4 4.3 3.9 4.3 2.4 0 4-1.6 4-4.3V11.1h5.1v12c0 4.9-3 7.9-7.5 7.9Z" />
  </g>
  <g fill="#475166" opacity="0.6" transform="translate(0 4)">
    <path d="M6 28V12h6v3H9v10h3v3H6Zm228 0v-3h3V15h-3v-3h6v16h-6Z" />
  </g>
</svg>
