<?xml version="1.0" encoding="UTF-8" standalone="no"?>
<svg
   id="Layer_1"
   data-name="Layer 1"
   viewBox="0 0 700.02001 290.78999"
   version="1.1"
   sodipodi:docname="logo_amicidelteatro_big.svg"
   width="700.02002"
   height="290.79001"
   inkscape:version="1.4.2 (f4327f4, 2025-05-13)"
   xmlns:inkscape="http://www.inkscape.org/namespaces/inkscape"
   xmlns:sodipodi="http://sodipodi.sourceforge.net/DTD/sodipodi-0.dtd"
   xmlns="http://www.w3.org/2000/svg"
   xmlns:svg="http://www.w3.org/2000/svg">
  <sodipodi:namedview
     id="namedview43"
     pagecolor="#ffffff"
     bordercolor="#000000"
     borderopacity="0.25"
     inkscape:showpageshadow="2"
     inkscape:pageopacity="0.0"
     inkscape:pagecheckerboard="0"
     inkscape:deskcolor="#d1d1d1"
     inkscape:zoom="1.3556645"
     inkscape:cx="350.38168"
     inkscape:cy="145.68501"
     inkscape:window-width="1920"
     inkscape:window-height="1009"
     inkscape:window-x="-8"
     inkscape:window-y="-8"
     inkscape:window-maximized="1"
     inkscape:current-layer="Layer_1" />
  <defs
     id="defs1">
    <style
       id="style1">
      .cls-1 {
        fill: #fff;
      }

      .cls-2 {
        fill: #c10230;
      }
    </style>
  </defs>
  <path
     class="cls-2"
     d="m 281.57,0 v 136.9 h 136.9 V 0 Z m 94.04,14.73 c 6.71,-2.91 12.11,-3.99 12.34,-4.01 l 1.32,-0.15 1.55,8.64 -1.58,0.11 c -8.44,0.58 -15.81,3.62 -21.92,9.03 -4.58,4.06 -6.69,8.01 -6.71,8.05 0,0 0.91,-15.57 15,-21.67 z m -12.56,32.76 c 6.97,-13.16 14.09,-19.84 21.16,-19.84 0.06,0 0.11,0 0.17,0 8.56,0.13 13.48,9.94 13.69,10.35 l 1.19,2.43 -2.68,-0.39 c -15.09,-2.21 -31.28,9.16 -31.45,9.27 l -4.89,3.48 z m -1.53,39.69 -20.38,1.37 0.52,-1.92 c 3.31,-12.29 8.45,-38.59 8.45,-38.59 0,0 6.32,26.33 10.68,37.33 l 0.72,1.81 z M 292.31,10.72 h 57.8 v 1.44 c -0.04,2.31 -0.03,4.64 0,6.92 v 1.22 c 0,0 -1.18,0.21 -1.18,0.21 -16.05,2.75 -26.73,4.02 -36.63,4.02 -6.18,0 -12.06,-0.49 -18.75,-1.43 l -1.23,-0.17 v -12.2 z m 5.42,37.67 c 0.39,-0.47 9.73,-10.84 20.92,-10.05 19.29,1.36 19.96,23.4 19.96,23.4 l -5.04,-6.43 c 0,0 -3.49,-4.38 -9.41,-7.1 -7.83,-3.6 -16.11,-2.82 -24.6,2.32 l -7.43,4.49 5.61,-6.63 z m 40.21,25.31 -5.01,-2.88 c -0.21,-0.12 -20.68,-11.77 -34.32,-6.5 l -4.35,1.68 2.67,-3.82 c 0.27,-0.39 6.65,-9.37 16.38,-9.37 0.12,0 0.23,0 0.35,0 7.43,0.17 14.56,5.55 21.19,16.02 l 3.09,4.88 z m -22.06,36.8 c -4.38,4.73 -11.72,10.97 -21.76,13.81 l -1.81,0.51 v -15.15 l 1.37,-0.05 c 7.43,-0.27 18.17,-2.32 27.18,-10.56 l 6.05,-5.53 -3.83,7.24 c -0.1,0.19 -2.46,4.6 -7.2,9.72 z m 7.91,15.82 1.5,-2.22 c 1.8,-2.66 3.53,-5.51 5.15,-8.46 2.67,-4.86 5.13,-10.4 7.31,-16.48 l 0.31,-0.88 27.87,-1.88 0.44,0.8 c 6.41,11.66 14.27,20.58 23.36,26.5 l 4.02,2.62 h -69.97 z m 84.12,-35.3 -1.32,0.1 c -12,0.87 -21.73,8.43 -21.83,8.51 l -4.85,3.82 2.69,-5.55 c 5.19,-10.74 13.33,-17.87 23.52,-20.6 l 1.79,-0.48 v 14.22 z"
     id="path1" />
  <g
     id="g43"
     transform="translate(-70.93,-152.25)">
    <g
       id="g15">
      <path
         class="cls-1"
         d="m 150.44,391.98 c 0,0.4 -0.12,0.6 -0.36,0.6 h -27.74 c -0.4,0 -0.6,-0.24 -0.6,-0.72 v -1.62 c 0,-0.56 0.2,-0.84 0.6,-0.84 h 8.24 c 0.64,0 0.9,-0.36 0.78,-1.08 -0.36,-1.28 -1.75,-5.47 -4.15,-12.55 -2.41,-7.08 -3.73,-10.88 -3.97,-11.41 -0.32,-0.8 -0.74,-1.2 -1.26,-1.2 H 92.91 c -0.36,0.08 -0.66,0.32 -0.9,0.72 -0.56,1.08 -1.53,3.62 -2.89,7.62 -1.36,3.99 -2.21,6.71 -2.53,8.15 -0.64,3.21 -0.96,5.14 -0.96,5.78 0,2.65 0.32,3.97 0.96,3.97 h 9.15 c 0.48,0 0.72,0.28 0.72,0.84 v 1.75 c 0,0.4 -0.2,0.6 -0.6,0.6 H 71.55 c -0.4,0 -0.6,-0.2 -0.6,-0.6 V 390 c 0,-0.4 0.16,-0.6 0.48,-0.6 h 5.18 c 0.88,0 2.08,-1.88 3.58,-5.66 1.5,-3.77 5.99,-14.66 13.45,-32.68 4.78,-11.35 10.57,-25.11 17.39,-41.28 0.44,-1.24 0.88,-1.94 1.32,-2.11 1.12,-0.32 2.57,-0.82 4.33,-1.5 0.28,-0.12 0.6,0.09 0.96,0.63 0.36,0.54 0.2,1.15 -0.48,1.83 -1.2,1.25 -1.81,2.45 -1.81,3.61 -0.04,1.2 0.24,2.71 0.84,4.51 2.17,6.02 6.08,17.28 11.74,33.79 5.66,16.51 9.59,27.19 11.8,32.04 2.13,4.54 3.65,6.8 4.57,6.8 h 5.66 c 0.32,0 0.48,0.28 0.48,0.84 v 1.75 z m -29.79,-34.3 c -1.65,-4.77 -3.41,-10.01 -5.3,-15.71 -1.89,-5.69 -3.83,-11.63 -5.84,-17.81 -0.12,-0.52 -0.28,-0.84 -0.48,-0.96 -0.16,0.16 -0.36,0.48 -0.6,0.96 -5.02,12.28 -8.62,20.98 -10.8,26.12 -2.19,5.14 -3.28,7.79 -3.28,7.94 0,0.24 0.18,0.36 0.54,0.36 h 25.46 c 0.4,0 0.5,-0.3 0.3,-0.9 z"
         id="path2" />
      <path
         class="cls-1"
         d="m 245.83,392.1 c 0,0.32 -0.24,0.48 -0.72,0.48 h -24.55 c -0.4,0 -0.6,-0.2 -0.6,-0.6 v -1.87 c 0,-0.48 0.2,-0.72 0.6,-0.72 h 5.66 c 0.64,0 1.02,-0.34 1.14,-1.02 0.4,-2.17 0.6,-10.99 0.6,-26.48 0,-7.62 -0.82,-12.48 -2.47,-14.56 -1.97,-2.44 -4.97,-3.67 -9.03,-3.67 -5.26,0 -9.47,1.65 -12.64,4.93 -0.36,0.44 -0.54,0.96 -0.54,1.56 v 26.54 c 0,8.47 0.58,12.7 1.75,12.7 h 7.16 c 0.32,0 0.48,0.2 0.48,0.6 v 1.99 c 0,0.4 -0.16,0.6 -0.48,0.6 h -23.53 c -0.44,0 -0.66,-0.16 -0.66,-0.48 v -2.11 c 0,-0.4 0.18,-0.6 0.54,-0.6 h 5.9 c 0.56,0 0.84,-0.38 0.84,-1.14 0,-0.24 -0.02,-6.04 -0.06,-17.39 -0.04,-11.35 -0.06,-17.29 -0.06,-17.81 0,-6.58 -3.25,-9.87 -9.75,-9.87 -6.06,0 -10.69,1.61 -13.9,4.81 -0.48,0.48 -0.72,1 -0.72,1.56 v 27.38 c 0,8.39 0.68,12.58 2.05,12.58 h 7.28 c 0.44,0 0.66,0.16 0.66,0.48 v 1.99 c 0,0.4 -0.18,0.6 -0.54,0.6 h -25.76 c -0.32,0 -0.52,-0.06 -0.6,-0.18 -0.08,-0.12 -0.12,-0.26 -0.12,-0.42 v -1.75 c 0,-0.56 0.24,-0.84 0.72,-0.84 h 7.16 c 0.76,0 1.14,-0.5 1.14,-1.5 0,-0.16 -0.09,-6.37 -0.27,-18.62 -0.18,-12.26 -0.27,-18.67 -0.27,-19.23 0,-6.54 -0.82,-9.81 -2.47,-9.81 h -6.26 c -0.48,0 -0.72,-0.22 -0.72,-0.66 v -1.81 c 0,-0.44 0.2,-0.66 0.6,-0.66 h 8.37 c 1.28,0 2.97,-0.12 5.06,-0.36 0.32,-0.04 0.88,-0.15 1.69,-0.33 0.8,-0.18 1.3,-0.27 1.5,-0.27 0.6,0 0.9,0.32 0.9,0.96 0,0.2 -0.04,1.29 -0.12,3.25 -0.08,1.97 -0.12,3.11 -0.12,3.43 0,1 0.28,1.32 0.84,0.96 0.68,-0.52 2.91,-1.94 6.68,-4.27 0.88,-0.64 2.27,-1.42 4.15,-2.35 2.89,-1 5.68,-1.5 8.37,-1.5 3.13,0 5.78,0.9 7.94,2.71 1.69,1.44 2.83,3.39 3.43,5.84 0.2,0.81 0.6,0.96 1.2,0.48 2.01,-1.96 3.57,-3.29 4.69,-3.97 0.6,-0.52 2.05,-1.5 4.33,-2.95 2.01,-1.08 4.99,-1.62 8.97,-1.62 3.98,0 7.54,1.41 10.35,4.21 3.13,3.09 4.69,9.37 4.69,18.84 0,0.4 -0.12,3.96 -0.36,10.68 -0.24,6.72 -0.36,10.24 -0.36,10.56 0,5.34 0.44,8 1.32,8 h 8.43 c 0.32,0 0.48,0.2 0.48,0.6 v 2.11 z"
         id="path3" />
      <path
         class="cls-1"
         d="m 278.57,391.98 c 0,0.4 -0.24,0.6 -0.72,0.6 h -28.59 c -0.4,0 -0.6,-0.24 -0.6,-0.72 v -1.87 c 0,-0.56 0.16,-0.84 0.48,-0.84 h 8.73 c 0.76,0 1.14,-0.42 1.14,-1.26 0,-0.24 0.02,-5.11 0.06,-14.59 0.04,-9.49 0.06,-14.74 0.06,-15.74 0,-6.26 -0.06,-10.01 -0.18,-11.25 -0.44,-3.73 -1.53,-5.6 -3.25,-5.6 h -5.96 c -0.64,0 -0.96,-0.2 -0.96,-0.6 V 338 c 0,-0.52 0.2,-0.78 0.6,-0.78 h 3.55 c 3.73,0 7.32,-0.16 10.77,-0.48 2.57,-0.24 3.75,-0.36 3.55,-0.36 0.92,0 1.38,0.62 1.38,1.87 0,0.12 -0.15,6.09 -0.45,17.91 -0.3,11.81 -0.45,18 -0.45,18.56 0,9.63 0.98,14.44 2.95,14.44 h 7.28 c 0.4,0 0.6,0.2 0.6,0.6 v 2.23 z m -9.93,-76.19 c 0,2.13 -0.96,4.01 -2.89,5.66 -1.65,1.41 -3.19,2.11 -4.63,2.11 -2.65,0 -3.97,-1.3 -3.97,-3.91 0,-1.56 0.66,-3.15 1.99,-4.75 1.6,-1.93 3.57,-2.89 5.9,-2.89 2.33,0 3.61,1.26 3.61,3.79 z"
         id="path4" />
      <path
         class="cls-1"
         d="m 331.71,382.71 c 0,0.6 -0.98,1.67 -2.95,3.19 -6.46,5.02 -13.4,7.52 -20.82,7.52 -4.41,0 -7.9,-0.68 -10.47,-2.05 -3.85,-2.08 -7.18,-5.63 -9.99,-10.65 -2.29,-4.05 -3.43,-9.18 -3.43,-15.41 0,-4.17 0.48,-8.06 1.44,-11.68 1.28,-4.73 3.75,-8.68 7.4,-11.86 3.97,-3.45 9.47,-5.18 16.49,-5.18 6.26,0 11.53,2.07 15.83,6.2 2.29,2.21 3.43,4.21 3.43,6.02 0,1.81 -0.74,2.83 -2.23,2.83 -2.01,0 -4.05,-1.02 -6.14,-3.07 -1.89,-1.88 -3.17,-3.99 -3.85,-6.32 -0.28,-0.96 -1.19,-1.56 -2.74,-1.81 -1.54,-0.24 -3.1,-0.36 -4.66,-0.36 -2.01,0 -3.65,0.12 -4.93,0.36 -3.33,0.64 -5.96,2.03 -7.88,4.15 -3.21,3.57 -4.81,9.17 -4.81,16.79 0,7.62 2.59,14.41 7.76,19.86 2.33,2.41 5.18,3.97 8.55,4.69 1.72,0.4 4.43,0.6 8.12,0.6 4.97,0 9.21,-1.24 12.7,-3.73 0.48,-0.32 1.06,-0.72 1.75,-1.2 0.16,-0.08 0.4,-0.12 0.72,-0.12 0.48,0.44 0.72,0.84 0.72,1.2 z"
         id="path5" />
      <path
         class="cls-1"
         d="m 366.31,391.98 c 0,0.4 -0.24,0.6 -0.72,0.6 H 337 c -0.4,0 -0.6,-0.24 -0.6,-0.72 v -1.87 c 0,-0.56 0.16,-0.84 0.48,-0.84 h 8.73 c 0.76,0 1.14,-0.42 1.14,-1.26 0,-0.24 0.02,-5.11 0.06,-14.59 0.04,-9.49 0.06,-14.74 0.06,-15.74 0,-6.26 -0.06,-10.01 -0.18,-11.25 -0.44,-3.73 -1.53,-5.6 -3.25,-5.6 h -5.96 c -0.64,0 -0.96,-0.2 -0.96,-0.6 V 338 c 0,-0.52 0.2,-0.78 0.6,-0.78 h 3.55 c 3.73,0 7.32,-0.16 10.77,-0.48 2.57,-0.24 3.75,-0.36 3.55,-0.36 0.92,0 1.38,0.62 1.38,1.87 0,0.12 -0.15,6.09 -0.45,17.91 -0.3,11.81 -0.45,18 -0.45,18.56 0,9.63 0.98,14.44 2.95,14.44 h 7.28 c 0.4,0 0.6,0.2 0.6,0.6 v 2.23 z m -9.93,-76.19 c 0,2.13 -0.96,4.01 -2.89,5.66 -1.65,1.41 -3.19,2.11 -4.63,2.11 -2.65,0 -3.97,-1.3 -3.97,-3.91 0,-1.56 0.66,-3.15 1.99,-4.75 1.6,-1.93 3.57,-2.89 5.9,-2.89 2.33,0 3.61,1.26 3.61,3.79 z"
         id="path6" />
      <g
         id="g9">
        <path
           class="cls-1"
           d="m 413.55,370.4 c -0.3,0 -0.68,0.08 -1.62,0.47 -0.44,0.17 -1.11,0.41 -2.01,0.71 -0.11,-0.54 -0.25,-1.64 -0.25,-3.81 v -26.01 c 0,-0.42 0.03,-1.77 0.08,-4.05 0.06,-2.31 0.08,-3.5 0.08,-3.56 0,-1.85 -1.36,-1.9 -1.52,-1.9 -0.28,0 -0.29,0 -1.97,0.7 -1.4,0.58 -3.25,0.87 -5.5,0.87 h -1.3 c -0.74,0 -1.49,0.55 -1.49,1.6 v 0.72 c 0,0.88 0.62,1.52 1.49,1.52 h 3.43 c 0.12,0.39 0.31,1.37 0.31,3.71 0,0.29 0.02,2.09 0.06,5.39 0.02,1.73 0.03,3.03 0.04,3.91 -0.95,-0.5 -1.7,-0.85 -2.27,-1.07 -1.41,-0.5 -3.04,-0.76 -4.86,-0.76 -3.42,0 -6.28,1.11 -8.5,3.31 -2.51,2.49 -3.78,6.21 -3.78,11.05 0,2.83 0.56,5.54 1.68,8.06 0.94,2.09 2.36,3.69 4.25,4.76 1.24,0.69 2.74,1.03 4.48,1.03 2.66,0 4.94,-0.61 6.84,-1.86 0.98,-0.72 1.88,-1.37 2.68,-1.98 v 0.11 c 0,0.14 -0.03,0.52 -0.08,1.15 -0.06,0.73 -0.09,1.18 -0.09,1.34 0,1.25 0.8,1.82 1.6,1.82 0.29,0 0.56,-0.11 0.77,-0.28 0.28,-0.15 0.92,-0.45 1.9,-0.9 2.54,-1.15 4.54,-1.97 6.01,-2.46 0.37,-0.14 0.99,-0.55 0.99,-1.69 0,-1.81 -1.22,-1.9 -1.46,-1.9 z m -19.8,0.37 c -0.65,-0.31 -1.37,-0.95 -2.13,-1.91 -0.28,-0.36 -0.73,-1.1 -1.22,-2.58 -0.49,-1.42 -0.74,-2.78 -0.74,-4.04 0,-3.27 0.72,-5.78 2.15,-7.45 1.07,-1.25 2.68,-1.85 4.94,-1.85 2.26,0 4.46,0.49 6.23,1.43 0.19,0.11 0.25,0.22 0.28,0.33 0.28,1.39 0.42,3.26 0.42,5.55 0,1.61 0,3.45 0.03,5.53 0,1.19 0.02,2.03 0.05,2.62 -0.02,0.07 -0.02,0.15 -0.02,0.23 0,0.25 -0.02,0.39 0,0.41 -2.08,1.51 -4.23,2.25 -6.56,2.25 -1.52,0 -2.68,-0.18 -3.42,-0.52 z"
           id="path7" />
        <path
           class="cls-1"
           d="m 439.92,370.33 c -0.12,0.06 -0.47,0.27 -0.56,0.37 -0.03,0.02 -0.27,0.25 -1.18,0.54 -1,0.34 -2.32,0.52 -3.93,0.52 -3.11,0 -5.32,-0.56 -6.59,-1.65 -2.53,-2.19 -3.77,-4.96 -3.77,-8.45 v -0.13 c 0.15,0 0.33,0 0.52,-0.01 0.75,-0.02 1.18,-0.03 1.29,-0.03 1.37,0 3.98,-0.36 7.99,-1.1 4.68,-0.86 5.89,-1.22 6.37,-1.41 1.14,-0.43 1.27,-1.27 1.27,-1.61 0,-0.42 -0.11,-0.86 -0.33,-1.36 -0.7,-1.52 -1.97,-2.93 -3.9,-4.31 -1.52,-1.09 -2.62,-1.8 -3.35,-2.14 -1.01,-0.5 -2.29,-0.76 -3.79,-0.76 -3.08,0 -5.71,1.06 -7.8,3.13 -1.78,1.74 -3.03,4.12 -3.73,7.09 -0.28,1.22 -0.42,3.04 -0.42,5.55 0,3.67 1.3,6.82 3.86,9.39 2.14,2.14 5.03,3.22 8.59,3.22 2.34,0 4.54,-0.45 6.54,-1.35 1.25,-0.56 2.22,-1.08 2.98,-1.61 0.42,-0.31 0.95,-0.77 1.58,-1.4 0.09,-0.09 0.17,-0.19 0.22,-0.31 0.08,-0.16 0.18,-0.51 0.18,-0.69 0,-0.15 -0.14,-0.53 -0.2,-0.67 -0.31,-0.75 -1.16,-1.14 -1.85,-0.81 z m -15.23,-13.88 c 0.5,-1.25 0.88,-1.89 1.09,-2.19 0.83,-1.1 1.64,-1.66 2.4,-1.66 1.31,0 2.43,0.37 3.43,1.14 1,0.77 1.86,1.75 2.54,2.88 -1.49,0.47 -3.59,0.81 -6.28,1.03 -1.65,0.12 -2.83,0.22 -3.69,0.31 0.09,-0.37 0.25,-0.86 0.51,-1.51 z"
           id="path8" />
        <path
           class="cls-1"
           d="m 459.16,372.78 h -3.5 c -0.14,-0.5 -0.35,-1.78 -0.35,-4.96 0,-0.39 0.06,-6.02 0.17,-16.89 l 0.12,-12.33 c 0.03,-2.7 0.04,-4.06 0.04,-4.09 0,-1.75 -1.47,-2.33 -2.32,-1.8 -0.27,0.08 -0.78,0.22 -1.53,0.42 -1.33,0.35 -2.6,0.53 -3.78,0.53 h -2.16 c -0.68,0 -1.4,0.49 -1.4,1.57 v 0.91 c 0,0.88 0.64,1.52 1.52,1.52 h 2.92 c 0.14,0.48 0.37,1.75 0.37,4.96 v 30.16 h -3.91 c -0.86,0 -1.49,0.64 -1.49,1.52 v 0.97 c 0,0.73 0.53,1.46 1.54,1.46 h 13.75 c 0.98,0 1.49,-0.71 1.49,-1.41 v -1.08 c 0,-0.85 -0.62,-1.46 -1.49,-1.46 z"
           id="path9" />
      </g>
      <rect
         class="cls-1"
         x="383.97"
         y="389.14999"
         width="76.669998"
         height="3.4300001"
         rx="0.75"
         ry="0.75"
         id="rect9" />
      <path
         class="cls-1"
         d="m 530.76,311.58 c -0.36,2.53 -0.98,5.46 -1.87,8.79 -0.16,0.56 -0.4,0.84 -0.72,0.84 -0.4,0 -0.78,-0.32 -1.14,-0.96 -0.92,-1.81 -2.53,-2.97 -4.81,-3.49 -3.97,-0.88 -11.11,-1.32 -21.42,-1.32 -0.64,0 -0.98,0.26 -1.02,0.78 -0.04,0.52 -0.16,9.87 -0.36,28.04 -0.24,17.45 -0.36,26.78 -0.36,27.98 0,11.43 0.98,17.15 2.95,17.15 h 10.35 c 0.28,0 0.42,0.16 0.42,0.48 v 2.11 c 0,0.4 -0.14,0.6 -0.42,0.6 h -33.1 c -0.44,0 -0.66,-0.2 -0.66,-0.6 v -1.99 c 0,-0.4 0.22,-0.6 0.66,-0.6 h 9.69 c 0.76,0 1.14,-0.52 1.14,-1.56 -0.16,-8.43 -0.24,-13.04 -0.24,-13.84 0,-0.68 0.1,-7.45 0.3,-20.31 0.2,-12.86 0.3,-19.57 0.3,-20.13 0,-12.07 -0.7,-18.11 -2.11,-18.11 -10.35,0 -17.65,0.58 -21.91,1.75 -3.09,0.81 -5.08,1.91 -5.96,3.31 -0.44,0.72 -0.84,1.08 -1.2,1.08 -0.52,0 -0.78,-0.16 -0.78,-0.48 0,-0.44 0.14,-0.96 0.42,-1.56 1.12,-4.05 2.03,-7.06 2.71,-9.03 0.16,-0.52 0.6,-0.72 1.32,-0.6 0.84,0.12 4.97,0.36 12.4,0.72 8.67,0.4 15.67,0.6 21,0.6 17.17,0 26.92,-0.04 29.25,-0.12 1.08,-0.04 2.1,-0.13 3.04,-0.27 0.94,-0.14 1.39,-0.21 1.35,-0.21 0.52,0 0.78,0.32 0.78,0.96 z"
         id="path10" />
      <path
         class="cls-1"
         d="m 569.7,384.46 c 0,0.08 -0.04,0.2 -0.12,0.36 -1.24,1.25 -2.29,2.17 -3.13,2.77 -1.48,1.05 -3.49,2.13 -6.02,3.25 -4.05,1.81 -8.45,2.71 -13.18,2.71 -7.06,0 -12.68,-2.08 -16.85,-6.26 -5.09,-5.09 -7.64,-11.29 -7.64,-18.6 0,-5.21 0.28,-9.05 0.84,-11.49 1.4,-5.98 3.87,-10.69 7.4,-14.14 4.09,-4.05 9.15,-6.08 15.17,-6.08 2.89,0 5.26,0.46 7.1,1.38 1.44,0.69 3.75,2.17 6.92,4.45 3.77,2.69 6.32,5.48 7.64,8.37 0.32,0.72 0.48,1.35 0.48,1.87 0,0.44 -0.36,0.81 -1.08,1.08 -1.53,0.6 -6,1.59 -13.42,2.95 -8.46,1.56 -14.1,2.35 -16.91,2.35 -0.24,0 -1.19,0.02 -2.86,0.06 -1.66,0.04 -2.64,0.06 -2.92,0.06 -0.48,0 -0.72,0.94 -0.72,2.83 0,8.3 3.03,15.09 9.09,20.34 3.25,2.81 8.59,4.21 16.01,4.21 3.81,0 6.94,-0.42 9.39,-1.26 1.72,-0.56 2.91,-1.16 3.55,-1.81 0.12,-0.08 0.3,-0.18 0.54,-0.3 0.2,0 0.36,0.14 0.48,0.42 0.08,0.12 0.16,0.28 0.24,0.48 z m -11.25,-32.2 c 0,-0.32 -0.2,-0.84 -0.6,-1.56 -1.72,-3.05 -3.89,-5.57 -6.5,-7.58 -2.61,-2 -5.62,-3.01 -9.03,-3.01 -2.53,0 -4.96,1.55 -7.28,4.63 -0.84,1.17 -1.75,2.95 -2.71,5.36 -1.04,2.61 -1.56,4.62 -1.56,6.02 0,0.64 0.24,0.96 0.72,0.96 -0.4,0 3.05,-0.28 10.35,-0.84 6.94,-0.56 12.16,-1.5 15.65,-2.83 0.64,-0.28 0.96,-0.66 0.96,-1.14 z"
         id="path11" />
      <path
         class="cls-1"
         d="m 624.16,388.61 c 0,0.2 -0.08,0.46 -0.24,0.78 -2.29,2.29 -3.93,3.75 -4.93,4.39 -0.36,0.28 -0.72,0.42 -1.08,0.42 -2.37,0 -4.71,-1.1 -7.04,-3.31 -2.17,-2.05 -3.77,-4.49 -4.81,-7.34 -0.24,-0.72 -0.56,-0.8 -0.96,-0.24 -0.44,0.69 -1.56,1.85 -3.37,3.49 -1.81,1.65 -3.07,2.67 -3.79,3.07 -3.93,2.29 -7.5,3.43 -10.71,3.43 -3.21,0 -5.32,-0.52 -6.8,-1.56 -2.29,-1.69 -3.43,-4.19 -3.43,-7.52 0,-3.93 1.24,-7.64 3.73,-11.13 1.77,-2.49 4.51,-4.57 8.24,-6.26 4.05,-1.84 9.47,-3.41 16.25,-4.69 0.36,-0.08 0.56,-0.52 0.6,-1.32 0.28,-6.14 0.28,-10.29 0,-12.46 -0.24,-2.12 -1.16,-3.71 -2.77,-4.75 -1.6,-1.04 -3.87,-1.56 -6.8,-1.56 -4.13,0 -7.02,0.5 -8.67,1.5 -0.96,0.69 -1.36,1.38 -1.2,2.11 v 1.69 c 0,1.77 -0.46,3.33 -1.38,4.69 -1.44,2.25 -3.13,3.37 -5.06,3.37 -1.4,0 -2.11,-0.92 -2.11,-2.77 0,-1.56 0.9,-3.51 2.71,-5.84 1.81,-2.32 3.79,-4.15 5.96,-5.48 3.89,-2.37 9.23,-3.55 16.01,-3.55 4.49,0 7.74,0.94 9.75,2.83 1.48,1.37 2.23,4.24 2.23,8.61 0,3.17 -0.19,7.94 -0.57,14.32 -0.38,6.38 -0.57,9.99 -0.57,10.83 0,3.97 1.02,7.18 3.07,9.63 1.48,1.73 3.79,3.03 6.92,3.91 0.56,0.24 0.84,0.48 0.84,0.72 z M 605.57,366.1 c 0,-0.76 -0.32,-1.14 -0.96,-1.14 -3.13,0 -6.62,0.87 -10.47,2.59 -6.5,2.93 -9.75,6.88 -9.75,11.86 0,3.05 0.74,5.14 2.23,6.26 1.24,1 3.21,1.5 5.9,1.5 3.61,0 7.18,-1.56 10.71,-4.69 0.96,-0.84 1.5,-1.87 1.62,-3.07 0.48,-4.77 0.72,-9.21 0.72,-13.3 z"
         id="path12" />
      <path
         class="cls-1"
         d="m 667.43,385.3 c 0,0.6 -0.16,1.06 -0.48,1.38 -1.65,1.32 -3.79,2.59 -6.44,3.79 -4.53,2.13 -8.75,3.19 -12.64,3.19 -8.39,0 -12.58,-4.27 -12.58,-12.82 0,-0.52 0.08,-4.97 0.24,-13.36 0.16,-8.38 0.24,-12.8 0.24,-13.24 0,-0.52 -0.04,-2.25 -0.12,-5.2 -0.08,-2.95 -0.12,-4.5 -0.12,-4.67 0,-0.84 -0.38,-1.44 -1.14,-1.81 -0.6,-0.32 -2.17,-1.02 -4.69,-2.11 -0.52,-0.24 -0.76,-0.7 -0.72,-1.38 0,-0.52 0.3,-1 0.9,-1.44 4.01,-3.41 8.28,-7 12.82,-10.77 0.6,-0.4 1.12,-0.6 1.56,-0.6 0.64,0 0.84,0.58 0.6,1.75 -0.48,2.61 -0.72,5.28 -0.72,8 0,1.32 0.2,1.99 0.6,1.99 0.36,0 3.83,-0.11 10.41,-0.33 6.58,-0.22 9.97,-0.33 10.17,-0.33 0.84,0 1.14,0.42 0.9,1.26 0,0.81 -0.3,1.95 -0.9,3.43 -0.2,0.6 -0.56,0.9 -1.08,0.9 -0.36,0 -3.64,-0.02 -9.84,-0.06 -6.2,-0.04 -9.42,-0.06 -9.66,-0.06 -0.48,0 -0.72,0.2 -0.72,0.6 v 33.4 c 0,3.49 0.5,6.04 1.5,7.64 1.08,1.81 4.11,2.71 9.09,2.71 2.73,0 5.94,-0.62 9.63,-1.87 1.6,-0.72 2.47,-1.08 2.59,-1.08 0.4,0 0.6,0.36 0.6,1.08 z"
         id="path13" />
      <path
         class="cls-1"
         d="m 713.29,342.93 c -0.44,2.61 -1.06,5.12 -1.87,7.52 -0.2,0.64 -0.48,0.96 -0.84,0.96 -0.44,0 -0.8,-0.2 -1.08,-0.6 -1.04,-1.48 -1.97,-2.5 -2.77,-3.07 -1.56,-1.24 -3.57,-1.87 -6.02,-1.87 -4.53,0 -7.94,0.99 -10.23,2.95 -0.4,0.36 -0.6,0.9 -0.6,1.62 0,0.24 -0.02,4.87 -0.06,13.9 -0.04,9.03 -0.06,13.8 -0.06,14.32 0,7.14 0.66,10.71 1.99,10.71 h 11.8 c 0.52,0 0.78,0.28 0.78,0.84 v 1.75 c 0,0.4 -0.18,0.6 -0.54,0.6 h -30.81 c -0.56,0 -0.84,-0.2 -0.84,-0.6 v -1.75 c 0,-0.56 0.24,-0.84 0.72,-0.84 h 7.28 c 0.76,0 1.14,-0.38 1.14,-1.14 v -39.54 c 0,-5.49 -0.66,-8.24 -1.99,-8.24 h -7.4 c -0.4,0 -0.6,-0.22 -0.6,-0.66 v -1.93 c 0,-0.44 0.2,-0.66 0.6,-0.66 h 8.24 c 2.89,0 4.73,-0.12 5.54,-0.36 2.21,-0.64 3.41,-0.96 3.61,-0.96 0.56,0 0.84,0.54 0.84,1.62 0,0.28 -0.04,1.48 -0.12,3.58 -0.08,2.11 -0.12,3.28 -0.12,3.52 0,1.17 0.24,1.5 0.72,1.02 1.84,-1.6 3.95,-3.37 6.32,-5.3 2.93,-2.17 5.8,-3.25 8.61,-3.25 3.25,0 5.76,1.37 7.52,4.09 0.36,0.56 0.44,1.14 0.24,1.75 z"
         id="path14" />
      <path
         class="cls-1"
         d="m 770.94,364.72 c 0,5.22 -0.86,9.87 -2.59,13.96 -2.01,4.74 -5.66,8.59 -10.95,11.55 -3.65,2.05 -7.88,3.07 -12.7,3.07 -5.46,0 -9.33,-0.48 -11.61,-1.44 -4.9,-2.17 -8.58,-5.74 -11.04,-10.74 -2.47,-4.99 -3.7,-10.3 -3.7,-15.92 0,-6.18 1.34,-11.63 4.03,-16.37 2.45,-4.25 5.9,-7.5 10.35,-9.75 3.45,-1.72 8.34,-2.59 14.68,-2.59 5.14,0 9.21,0.94 12.22,2.83 3.93,2.49 6.84,6.02 8.73,10.59 1.72,4.21 2.59,9.15 2.59,14.8 z m -8.48,2.95 c 0,-8.34 -1.99,-14.86 -5.96,-19.56 -4.05,-4.85 -9.35,-7.28 -15.89,-7.28 -3.41,0 -5.74,0.28 -6.98,0.84 -0.84,0.36 -1.81,1.31 -2.89,2.83 -2.37,3.45 -3.55,8.59 -3.55,15.41 0,6.82 1.26,13.6 3.79,19.5 1.77,4.06 4.11,6.96 7.04,8.73 2.57,1.56 5.42,2.35 8.55,2.35 3.61,0 6.4,-0.56 8.37,-1.69 2.37,-1.4 4.29,-4.09 5.78,-8.06 1.16,-3.01 1.75,-7.36 1.75,-13.06 z"
         id="path15" />
    </g>
    <g
       id="g42">
      <path
         class="cls-1"
         d="m 70.94,442.6 9.72,-24.43 h 3.77 l 9.75,24.43 h -3.03 l -2.56,-6.45 H 76.34 l -2.53,6.45 h -2.88 z m 6.38,-8.87 h 10.32 l -3.2,-8.15 c -0.07,-0.19 -0.18,-0.47 -0.32,-0.86 -0.14,-0.38 -0.3,-0.81 -0.48,-1.3 -0.18,-0.49 -0.36,-0.98 -0.53,-1.48 -0.18,-0.5 -0.35,-0.95 -0.52,-1.35 h -0.25 c -0.14,0.45 -0.33,0.99 -0.55,1.6 -0.23,0.62 -0.45,1.23 -0.68,1.83 -0.23,0.6 -0.42,1.12 -0.59,1.55 l -3.2,8.15 z"
         id="path16" />
      <path
         class="cls-1"
         d="m 108.76,443.03 c -1.31,0 -2.58,-0.12 -3.81,-0.36 -1.23,-0.23 -2.33,-0.64 -3.27,-1.21 -0.95,-0.57 -1.7,-1.32 -2.24,-2.24 -0.55,-0.93 -0.82,-2.08 -0.82,-3.46 v -0.34 c 0,-0.11 0.01,-0.22 0.03,-0.34 h 2.81 c 0,0.1 0,0.23 -0.02,0.39 -0.01,0.17 -0.02,0.31 -0.02,0.43 0,1.04 0.31,1.92 0.94,2.62 0.63,0.7 1.48,1.22 2.56,1.56 1.08,0.34 2.29,0.52 3.65,0.52 0.45,0 0.99,-0.03 1.62,-0.09 0.63,-0.06 1.27,-0.18 1.92,-0.36 0.65,-0.18 1.25,-0.43 1.8,-0.75 0.55,-0.32 0.99,-0.74 1.33,-1.25 0.34,-0.51 0.52,-1.15 0.52,-1.9 0,-0.88 -0.24,-1.6 -0.71,-2.17 -0.48,-0.57 -1.1,-1.04 -1.87,-1.41 -0.77,-0.37 -1.66,-0.69 -2.65,-0.98 -1,-0.29 -2.02,-0.56 -3.06,-0.82 -1.04,-0.26 -2.06,-0.56 -3.04,-0.89 -0.98,-0.33 -1.87,-0.75 -2.65,-1.25 -0.78,-0.5 -1.41,-1.12 -1.87,-1.87 -0.46,-0.75 -0.7,-1.67 -0.7,-2.76 0,-0.95 0.19,-1.82 0.57,-2.6 0.38,-0.78 0.96,-1.45 1.74,-2.01 0.78,-0.56 1.78,-0.99 2.99,-1.3 1.21,-0.31 2.65,-0.46 4.31,-0.46 1.26,0 2.43,0.13 3.52,0.39 1.09,0.26 2.05,0.67 2.88,1.23 0.83,0.56 1.48,1.26 1.94,2.1 0.46,0.84 0.69,1.86 0.69,3.04 v 0.43 h -2.78 v -0.61 c 0,-0.88 -0.27,-1.62 -0.82,-2.23 -0.55,-0.6 -1.28,-1.08 -2.19,-1.42 -0.91,-0.35 -1.95,-0.52 -3.12,-0.52 -1.59,0 -2.89,0.16 -3.92,0.48 -1.02,0.32 -1.78,0.76 -2.28,1.32 -0.5,0.56 -0.75,1.18 -0.75,1.87 0,0.8 0.24,1.48 0.71,2.01 0.47,0.53 1.1,0.97 1.89,1.32 0.78,0.34 1.67,0.65 2.65,0.93 0.98,0.27 2,0.54 3.04,0.8 1.04,0.26 2.06,0.57 3.04,0.91 0.98,0.34 1.87,0.77 2.67,1.28 0.8,0.51 1.43,1.14 1.89,1.9 0.46,0.76 0.69,1.7 0.69,2.81 0,1.69 -0.42,3.06 -1.26,4.13 -0.84,1.07 -2,1.85 -3.47,2.35 -1.47,0.5 -3.18,0.75 -5.13,0.75 z"
         id="path17" />
      <path
         class="cls-1"
         d="m 134.93,443.03 c -1.31,0 -2.58,-0.12 -3.81,-0.36 -1.23,-0.23 -2.33,-0.64 -3.27,-1.21 -0.95,-0.57 -1.7,-1.32 -2.24,-2.24 -0.54,-0.92 -0.82,-2.08 -0.82,-3.46 v -0.34 c 0,-0.11 0.01,-0.22 0.03,-0.34 h 2.81 c 0,0.1 0,0.23 -0.02,0.39 -0.01,0.17 -0.02,0.31 -0.02,0.43 0,1.04 0.31,1.92 0.94,2.62 0.63,0.7 1.48,1.22 2.56,1.56 1.08,0.34 2.29,0.52 3.65,0.52 0.45,0 0.99,-0.03 1.62,-0.09 0.63,-0.06 1.27,-0.18 1.92,-0.36 0.65,-0.18 1.25,-0.43 1.8,-0.75 0.55,-0.32 0.99,-0.74 1.33,-1.25 0.34,-0.51 0.52,-1.15 0.52,-1.9 0,-0.88 -0.24,-1.6 -0.71,-2.17 -0.48,-0.57 -1.1,-1.04 -1.87,-1.41 -0.77,-0.37 -1.66,-0.69 -2.65,-0.98 -1,-0.29 -2.02,-0.56 -3.06,-0.82 -1.04,-0.26 -2.06,-0.56 -3.04,-0.89 -0.98,-0.33 -1.87,-0.75 -2.65,-1.25 -0.78,-0.5 -1.41,-1.12 -1.87,-1.87 -0.46,-0.75 -0.7,-1.67 -0.7,-2.76 0,-0.95 0.19,-1.82 0.57,-2.6 0.38,-0.78 0.96,-1.45 1.74,-2.01 0.78,-0.56 1.78,-0.99 2.99,-1.3 1.21,-0.31 2.65,-0.46 4.31,-0.46 1.26,0 2.43,0.13 3.52,0.39 1.09,0.26 2.05,0.67 2.88,1.23 0.83,0.56 1.48,1.26 1.94,2.1 0.46,0.84 0.69,1.86 0.69,3.04 v 0.43 h -2.78 v -0.61 c 0,-0.88 -0.27,-1.62 -0.82,-2.23 -0.55,-0.6 -1.28,-1.08 -2.19,-1.42 -0.91,-0.35 -1.95,-0.52 -3.12,-0.52 -1.59,0 -2.89,0.16 -3.92,0.48 -1.02,0.32 -1.78,0.76 -2.28,1.32 -0.5,0.56 -0.75,1.18 -0.75,1.87 0,0.8 0.24,1.48 0.71,2.01 0.47,0.53 1.1,0.97 1.89,1.32 0.78,0.34 1.67,0.65 2.65,0.93 0.98,0.27 2,0.54 3.04,0.8 1.04,0.26 2.06,0.57 3.04,0.91 0.98,0.34 1.87,0.77 2.67,1.28 0.8,0.51 1.43,1.14 1.89,1.9 0.46,0.76 0.69,1.7 0.69,2.81 0,1.69 -0.42,3.06 -1.26,4.13 -0.84,1.07 -2,1.85 -3.47,2.35 -1.47,0.5 -3.18,0.75 -5.13,0.75 z"
         id="path18" />
      <path
         class="cls-1"
         d="m 163.02,443.03 c -2.52,0 -4.68,-0.47 -6.5,-1.41 -1.82,-0.93 -3.21,-2.34 -4.19,-4.22 -0.97,-1.88 -1.46,-4.22 -1.46,-7.01 0,-2.79 0.48,-5.17 1.46,-7.03 0.97,-1.86 2.37,-3.26 4.19,-4.2 1.81,-0.93 3.98,-1.4 6.5,-1.4 2.52,0 4.72,0.47 6.53,1.4 1.82,0.94 3.21,2.34 4.17,4.2 0.96,1.86 1.44,4.21 1.44,7.03 0,2.82 -0.48,5.14 -1.44,7.01 -0.96,1.87 -2.35,3.28 -4.17,4.22 -1.81,0.94 -3.99,1.41 -6.53,1.41 z m 0,-2.43 c 1.4,0 2.67,-0.18 3.81,-0.55 1.14,-0.37 2.11,-0.96 2.92,-1.76 0.81,-0.81 1.43,-1.83 1.87,-3.06 0.44,-1.23 0.66,-2.72 0.66,-4.45 v -0.75 c 0,-1.76 -0.22,-3.25 -0.66,-4.49 -0.44,-1.23 -1.06,-2.26 -1.87,-3.06 -0.81,-0.8 -1.78,-1.39 -2.92,-1.76 -1.14,-0.37 -2.41,-0.55 -3.81,-0.55 -1.4,0 -2.67,0.18 -3.79,0.55 -1.13,0.37 -2.09,0.96 -2.9,1.76 -0.81,0.81 -1.43,1.83 -1.87,3.06 -0.44,1.23 -0.66,2.73 -0.66,4.49 v 0.75 c 0,1.73 0.22,3.22 0.66,4.45 0.44,1.23 1.06,2.26 1.87,3.06 0.81,0.8 1.78,1.39 2.9,1.76 1.13,0.37 2.39,0.55 3.79,0.55 z"
         id="path19" />
      <path
         class="cls-1"
         d="m 192.74,443.03 c -2.49,0 -4.6,-0.46 -6.32,-1.39 -1.72,-0.93 -3.02,-2.33 -3.92,-4.2 -0.89,-1.87 -1.33,-4.22 -1.33,-7.05 0,-4.22 1.02,-7.39 3.06,-9.49 2.04,-2.1 4.9,-3.15 8.58,-3.15 2.11,0 3.97,0.34 5.57,1.01 1.6,0.68 2.86,1.69 3.77,3.03 0.91,1.34 1.37,3.04 1.37,5.11 h -2.85 c 0,-1.54 -0.32,-2.81 -0.96,-3.79 -0.64,-0.99 -1.55,-1.72 -2.73,-2.21 -1.17,-0.49 -2.58,-0.73 -4.22,-0.73 -1.76,0 -3.29,0.34 -4.59,1.03 -1.3,0.69 -2.31,1.76 -3.02,3.22 -0.71,1.46 -1.07,3.36 -1.07,5.72 v 0.75 c 0,2.3 0.36,4.16 1.07,5.59 0.71,1.42 1.72,2.47 3.02,3.13 1.31,0.66 2.85,1 4.63,1 1.64,0 3.05,-0.24 4.24,-0.73 1.19,-0.49 2.1,-1.22 2.74,-2.21 0.64,-0.98 0.96,-2.25 0.96,-3.79 h 2.78 c 0,2.09 -0.47,3.81 -1.41,5.16 -0.94,1.35 -2.21,2.36 -3.83,3.01 -1.61,0.65 -3.46,0.98 -5.55,0.98 z"
         id="path20" />
      <path
         class="cls-1"
         d="m 210.69,442.6 v -24.43 h 2.81 v 24.43 z"
         id="path21" />
      <path
         class="cls-1"
         d="m 219.13,442.6 9.72,-24.43 h 3.77 l 9.75,24.43 h -3.03 l -2.56,-6.45 H 224.53 L 222,442.6 h -2.88 z m 6.37,-8.87 h 10.32 l -3.2,-8.15 c -0.07,-0.19 -0.18,-0.47 -0.32,-0.86 -0.14,-0.38 -0.3,-0.81 -0.48,-1.3 -0.18,-0.49 -0.36,-0.98 -0.53,-1.48 -0.18,-0.5 -0.35,-0.95 -0.52,-1.35 h -0.25 c -0.14,0.45 -0.33,0.99 -0.55,1.6 -0.22,0.61 -0.45,1.23 -0.68,1.83 -0.23,0.6 -0.42,1.12 -0.59,1.55 l -3.2,8.15 z"
         id="path22" />
      <path
         class="cls-1"
         d="m 246.01,442.6 v -1.53 l 15.63,-20.47 h -14.71 v -2.42 h 18.87 v 1.5 l -15.74,20.51 h 16.06 v 2.42 H 246 Z"
         id="path23" />
      <path
         class="cls-1"
         d="m 272.82,442.6 v -24.43 h 2.81 v 24.43 z"
         id="path24" />
      <path
         class="cls-1"
         d="m 295.03,443.03 c -2.52,0 -4.68,-0.47 -6.5,-1.41 -1.82,-0.93 -3.21,-2.34 -4.19,-4.22 -0.97,-1.88 -1.46,-4.22 -1.46,-7.01 0,-2.79 0.48,-5.17 1.46,-7.03 0.97,-1.86 2.37,-3.26 4.19,-4.2 1.81,-0.93 3.98,-1.4 6.5,-1.4 2.52,0 4.72,0.47 6.53,1.4 1.82,0.94 3.21,2.34 4.17,4.2 0.96,1.86 1.44,4.21 1.44,7.03 0,2.82 -0.48,5.14 -1.44,7.01 -0.96,1.87 -2.35,3.28 -4.17,4.22 -1.81,0.94 -3.99,1.41 -6.53,1.41 z m 0,-2.43 c 1.4,0 2.67,-0.18 3.81,-0.55 1.14,-0.37 2.11,-0.96 2.92,-1.76 0.81,-0.81 1.43,-1.83 1.87,-3.06 0.44,-1.23 0.66,-2.72 0.66,-4.45 v -0.75 c 0,-1.76 -0.22,-3.25 -0.66,-4.49 -0.44,-1.23 -1.06,-2.26 -1.87,-3.06 -0.81,-0.8 -1.78,-1.39 -2.92,-1.76 -1.14,-0.37 -2.41,-0.55 -3.81,-0.55 -1.4,0 -2.67,0.18 -3.79,0.55 -1.13,0.37 -2.09,0.96 -2.9,1.76 -0.81,0.81 -1.43,1.83 -1.87,3.06 -0.44,1.23 -0.66,2.73 -0.66,4.49 v 0.75 c 0,1.73 0.22,3.22 0.66,4.45 0.44,1.23 1.06,2.26 1.87,3.06 0.81,0.8 1.78,1.39 2.9,1.76 1.13,0.37 2.39,0.55 3.79,0.55 z"
         id="path25" />
      <path
         class="cls-1"
         d="m 314.51,442.6 v -24.43 h 2.74 l 12.5,16.88 c 0.14,0.17 0.32,0.39 0.52,0.68 0.2,0.28 0.4,0.57 0.6,0.87 0.2,0.3 0.37,0.57 0.52,0.8 h 0.18 v -19.23 h 2.74 v 24.43 h -2.46 L 319.1,425.37 c -0.17,-0.24 -0.43,-0.61 -0.78,-1.12 -0.36,-0.51 -0.66,-0.94 -0.93,-1.3 h -0.14 v 19.65 z"
         id="path26" />
      <path
         class="cls-1"
         d="m 342.88,442.6 v -24.43 h 18.69 v 2.42 h -15.88 v 8.26 H 360 v 2.46 h -14.31 v 8.87 h 16.09 v 2.42 h -18.91 z"
         id="path27" />
      <path
         class="cls-1"
         d="m 389.2,443.03 c -2.49,0 -4.6,-0.46 -6.32,-1.39 -1.72,-0.93 -3.02,-2.33 -3.92,-4.2 -0.89,-1.87 -1.33,-4.22 -1.33,-7.05 0,-4.22 1.02,-7.39 3.06,-9.49 2.04,-2.1 4.9,-3.15 8.58,-3.15 2.11,0 3.97,0.34 5.57,1.01 1.6,0.68 2.86,1.69 3.77,3.03 0.91,1.34 1.37,3.04 1.37,5.11 h -2.85 c 0,-1.54 -0.32,-2.81 -0.96,-3.79 -0.64,-0.99 -1.55,-1.72 -2.73,-2.21 -1.17,-0.49 -2.58,-0.73 -4.22,-0.73 -1.76,0 -3.29,0.34 -4.59,1.03 -1.3,0.69 -2.31,1.76 -3.02,3.22 -0.71,1.46 -1.07,3.36 -1.07,5.72 v 0.75 c 0,2.3 0.36,4.16 1.07,5.59 0.71,1.43 1.72,2.47 3.02,3.13 1.31,0.66 2.85,1 4.63,1 1.64,0 3.05,-0.24 4.24,-0.73 1.19,-0.49 2.1,-1.22 2.74,-2.21 0.64,-0.98 0.96,-2.25 0.96,-3.79 h 2.78 c 0,2.09 -0.47,3.81 -1.41,5.16 -0.94,1.35 -2.21,2.36 -3.83,3.01 -1.61,0.65 -3.46,0.98 -5.55,0.98 z"
         id="path28" />
      <path
         class="cls-1"
         d="m 416.9,443.03 c -2.04,0 -3.79,-0.33 -5.25,-0.98 -1.46,-0.65 -2.58,-1.7 -3.37,-3.15 -0.78,-1.45 -1.17,-3.32 -1.17,-5.63 v -15.09 h 2.81 v 15.67 c 0,2.25 0.61,3.94 1.83,5.05 1.22,1.12 2.94,1.67 5.14,1.67 2.2,0 4.02,-0.56 5.29,-1.67 1.27,-1.12 1.91,-2.8 1.91,-5.05 v -15.67 h 2.78 v 15.09 c 0,2.3 -0.4,4.18 -1.19,5.63 -0.8,1.45 -1.94,2.5 -3.42,3.15 -1.48,0.65 -3.27,0.98 -5.36,0.98 z"
         id="path29" />
      <path
         class="cls-1"
         d="m 435.45,442.6 v -24.43 h 2.81 v 21.97 h 12.07 v 2.46 z"
         id="path30" />
      <path
         class="cls-1"
         d="m 459.38,442.6 v -21.97 h -8.65 v -2.46 h 20.19 v 2.46 h -8.72 v 21.97 h -2.81 z"
         id="path31" />
      <path
         class="cls-1"
         d="m 486.62,443.03 c -2.04,0 -3.79,-0.33 -5.25,-0.98 -1.46,-0.65 -2.58,-1.7 -3.37,-3.15 -0.78,-1.45 -1.17,-3.32 -1.17,-5.63 v -15.09 h 2.81 v 15.67 c 0,2.25 0.61,3.94 1.83,5.05 1.22,1.12 2.94,1.67 5.14,1.67 2.2,0 4.02,-0.56 5.29,-1.67 1.27,-1.12 1.91,-2.8 1.91,-5.05 v -15.67 h 2.78 v 15.09 c 0,2.3 -0.4,4.18 -1.19,5.63 -0.8,1.45 -1.94,2.5 -3.42,3.15 -1.48,0.65 -3.27,0.98 -5.36,0.98 z"
         id="path32" />
      <path
         class="cls-1"
         d="m 505.17,442.6 v -24.43 h 12.82 c 1.61,0 2.95,0.3 4.01,0.91 1.06,0.6 1.85,1.43 2.39,2.47 0.53,1.05 0.8,2.23 0.8,3.56 0,1.73 -0.4,3.2 -1.19,4.4 -0.79,1.2 -1.85,2.05 -3.15,2.55 l 5.2,10.54 h -3.1 l -4.88,-10.04 h -10.08 v 10.04 h -2.81 z m 2.81,-12.46 h 9.72 c 1.45,0 2.59,-0.45 3.42,-1.34 0.83,-0.89 1.25,-2.12 1.25,-3.69 0,-0.95 -0.18,-1.76 -0.53,-2.42 -0.36,-0.66 -0.88,-1.18 -1.57,-1.55 -0.69,-0.37 -1.54,-0.55 -2.56,-0.55 h -9.72 v 9.54 z"
         id="path33" />
      <path
         class="cls-1"
         d="m 530.41,442.6 9.72,-24.43 h 3.77 l 9.75,24.43 h -3.03 l -2.56,-6.45 h -12.25 l -2.53,6.45 h -2.88 z m 6.37,-8.87 h 10.32 l -3.2,-8.15 c -0.07,-0.19 -0.18,-0.47 -0.32,-0.86 -0.14,-0.38 -0.3,-0.81 -0.48,-1.3 -0.18,-0.49 -0.36,-0.98 -0.53,-1.48 -0.18,-0.5 -0.35,-0.95 -0.52,-1.35 h -0.25 c -0.14,0.45 -0.33,0.99 -0.55,1.6 -0.22,0.61 -0.45,1.23 -0.68,1.83 -0.23,0.6 -0.42,1.12 -0.59,1.55 l -3.2,8.15 z"
         id="path34" />
      <path
         class="cls-1"
         d="m 559.32,442.6 v -24.43 h 2.81 v 21.97 h 12.07 v 2.46 z"
         id="path35" />
      <path
         class="cls-1"
         d="m 579.97,442.6 v -24.43 h 18.69 v 2.42 h -15.88 v 8.26 h 14.31 v 2.46 h -14.31 v 8.87 h 16.09 v 2.42 h -18.91 z"
         id="path36" />
      <path
         class="cls-1"
         d="m 616.03,442.6 v -24.43 h 2.74 l 12.5,16.88 c 0.14,0.17 0.32,0.39 0.52,0.68 0.2,0.28 0.4,0.57 0.6,0.87 0.2,0.3 0.37,0.57 0.52,0.8 h 0.18 v -19.23 h 2.74 v 24.43 h -2.46 l -12.75,-17.23 c -0.17,-0.24 -0.43,-0.61 -0.78,-1.12 -0.36,-0.51 -0.66,-0.94 -0.93,-1.3 h -0.14 v 19.65 z"
         id="path37" />
      <path
         class="cls-1"
         d="m 655.23,443.03 c -2.52,0 -4.68,-0.47 -6.5,-1.41 -1.82,-0.93 -3.21,-2.34 -4.19,-4.22 -0.97,-1.88 -1.46,-4.22 -1.46,-7.01 0,-2.79 0.48,-5.17 1.46,-7.03 0.98,-1.86 2.37,-3.26 4.19,-4.2 1.81,-0.93 3.98,-1.4 6.5,-1.4 2.52,0 4.72,0.47 6.53,1.4 1.82,0.94 3.21,2.34 4.17,4.2 0.96,1.86 1.44,4.21 1.44,7.03 0,2.82 -0.48,5.14 -1.44,7.01 -0.96,1.87 -2.35,3.28 -4.17,4.22 -1.81,0.94 -3.99,1.41 -6.53,1.41 z m 0,-2.43 c 1.4,0 2.67,-0.18 3.81,-0.55 1.14,-0.37 2.11,-0.96 2.92,-1.76 0.81,-0.81 1.43,-1.83 1.87,-3.06 0.44,-1.23 0.66,-2.72 0.66,-4.45 v -0.75 c 0,-1.76 -0.22,-3.25 -0.66,-4.49 -0.44,-1.24 -1.06,-2.26 -1.87,-3.06 -0.81,-0.8 -1.78,-1.39 -2.92,-1.76 -1.14,-0.37 -2.41,-0.55 -3.81,-0.55 -1.4,0 -2.67,0.18 -3.79,0.55 -1.13,0.37 -2.09,0.96 -2.9,1.76 -0.81,0.81 -1.43,1.83 -1.87,3.06 -0.44,1.23 -0.66,2.73 -0.66,4.49 v 0.75 c 0,1.73 0.22,3.22 0.66,4.45 0.44,1.23 1.06,2.26 1.87,3.06 0.81,0.8 1.78,1.39 2.9,1.76 1.13,0.37 2.39,0.55 3.79,0.55 z"
         id="path38" />
      <path
         class="cls-1"
         d="m 680.16,443.03 c -1.57,0 -2.91,-0.27 -4.02,-0.8 -1.11,-0.53 -1.97,-1.31 -2.56,-2.33 -0.59,-1.02 -0.89,-2.3 -0.89,-3.85 v -0.93 h 2.81 v 1.18 c 0,1.38 0.4,2.44 1.21,3.19 0.81,0.75 1.96,1.12 3.46,1.12 1.5,0 2.73,-0.49 3.56,-1.46 0.83,-0.97 1.25,-2.44 1.25,-4.42 v -16.55 h 2.81 v 16.31 c 0,1.92 -0.3,3.52 -0.91,4.79 -0.6,1.27 -1.48,2.21 -2.62,2.83 -1.14,0.62 -2.51,0.93 -4.09,0.93 z"
         id="path39" />
      <path
         class="cls-1"
         d="m 693.36,442.6 9.72,-24.43 h 3.77 l 9.75,24.43 h -3.03 l -2.56,-6.45 h -12.25 l -2.53,6.45 h -2.88 z m 6.38,-8.87 h 10.32 l -3.2,-8.15 c -0.07,-0.19 -0.18,-0.47 -0.32,-0.86 -0.14,-0.38 -0.3,-0.81 -0.48,-1.3 -0.18,-0.49 -0.36,-0.98 -0.53,-1.48 -0.18,-0.5 -0.35,-0.95 -0.52,-1.35 h -0.25 c -0.14,0.45 -0.33,0.99 -0.55,1.6 -0.22,0.61 -0.45,1.23 -0.68,1.83 -0.23,0.6 -0.42,1.12 -0.59,1.55 l -3.2,8.15 z"
         id="path40" />
      <path
         class="cls-1"
         d="m 722.27,442.6 v -24.43 h 2.74 l 12.5,16.88 c 0.14,0.17 0.32,0.39 0.52,0.68 0.2,0.28 0.4,0.57 0.6,0.87 0.2,0.3 0.37,0.57 0.52,0.8 h 0.18 v -19.23 h 2.74 v 24.43 h -2.46 l -12.75,-17.23 c -0.17,-0.24 -0.43,-0.61 -0.78,-1.12 -0.36,-0.51 -0.66,-0.94 -0.93,-1.3 h -0.14 v 19.65 z"
         id="path41" />
      <path
         class="cls-1"
         d="m 747.7,442.6 9.72,-24.43 h 3.77 l 9.75,24.43 h -3.03 l -2.56,-6.45 H 753.1 l -2.53,6.45 h -2.88 z m 6.37,-8.87 h 10.32 l -3.2,-8.15 c -0.07,-0.19 -0.18,-0.47 -0.32,-0.86 -0.14,-0.38 -0.3,-0.81 -0.48,-1.3 -0.18,-0.49 -0.36,-0.98 -0.53,-1.48 -0.18,-0.5 -0.35,-0.95 -0.52,-1.35 h -0.25 c -0.14,0.45 -0.33,0.99 -0.55,1.6 -0.22,0.61 -0.45,1.23 -0.68,1.83 -0.23,0.6 -0.42,1.12 -0.59,1.55 l -3.2,8.15 z"
         id="path42" />
    </g>
  </g>
</svg>
