<svg version="1.1" xmlns="http://www.w3.org/2000/svg" style="display: block;" viewBox="0 0 2048 758" width="794" height="294" preserveAspectRatio="none">
<path transform="translate(0,0)" fill="rgb(222,51,50)" d="M 106.008 681.87 C 100.049 679.491 95.5158 675.625 90.3517 671.998 C 54.3861 646.739 30.6002 606.863 28.7205 562.59 C 27.6362 537.051 28.3151 510.93 28.4268 485.313 L 28.435 355.629 L 27.9045 182.47 C 27.7887 147.308 27.8693 112.134 28.3548 76.9907 C 28.5765 60.9489 33.6356 45.4715 49.6169 39.2083 C 55.1898 37.0242 60.8696 36.1028 66.8732 35.9465 C 94.0928 35.8228 121.445 36.2246 148.661 36.1922 L 335.897 36.0967 L 498.205 36.1028 C 526.367 36.101 554.844 35.9378 582.997 36.3172 C 592.279 36.4423 601.216 39.1409 609.528 42.623 C 634.811 53.2133 652.811 73.993 662.012 99.5439 C 664.357 106.058 665.433 120.988 665.511 128.346 C 665.829 158.019 665.583 187.87 665.551 217.555 L 665.596 386.132 L 665.683 561.056 C 665.713 581.489 667.886 667.884 662.467 680.276 C 658.921 688.586 652.156 695.102 643.719 698.333 C 628.111 704.449 503.61 701.839 476.072 701.845 L 417.457 701.777 C 413.007 701.75 396.305 701.966 392.434 701.481 C 383.348 702.428 369.324 701.979 359.667 701.987 L 302.54 702.088 L 223.414 702.248 C 177.855 702.259 147.826 703.408 106.008 681.87 z"/>
<path transform="translate(0,0)" fill="rgb(254,254,254)" d="M 98.5544 107.394 C 155.958 77.4501 263.019 81.4207 324.006 100.573 C 368.598 114.128 408.422 140.07 438.842 175.38 C 457.682 197.146 464.25 210.629 487.933 228.856 C 517.924 254.026 523.587 289.277 540.897 321.713 C 560.48 358.409 612.503 404.38 605.396 449.715 C 602.911 465.564 567.272 453.908 553.43 453.344 C 563.115 478.232 579.684 482.644 603.832 477.073 C 581.63 518.352 540.263 533.869 500.622 504.927 C 478.548 539.987 486.802 573.948 503.84 608.734 C 480.211 602.134 460.87 593.988 448.203 571.476 C 438.203 553.284 435.816 531.871 441.565 511.923 C 444.309 502.368 449.639 491.453 455.133 483.134 C 437.595 474.126 420.646 471.726 401.505 468.842 C 368.447 463.862 330.758 444.952 319.826 410.915 C 318.993 408.241 318.223 405.548 317.516 402.837 C 309.226 445.685 321.776 471.721 351.108 502.808 C 350.171 572.422 354.85 640.105 392.434 701.481 C 383.348 702.428 369.324 701.979 359.667 701.987 L 302.54 702.088 L 223.414 702.248 C 177.855 702.259 147.826 703.408 106.008 681.87 C 103.883 679.567 101.738 677.281 99.5751 675.014 C 107.34 580.377 158.194 440.229 210 361.517 C 220.17 345.964 231.236 331.016 243.145 316.751 C 250.209 308.441 262.271 296.217 267.875 287.79 C 208.182 279.414 169 250.51 163.835 187.141 C 210.663 186.436 254.937 191.709 298.684 209.506 C 306.47 212.673 323.803 223.077 331.647 219.697 C 334.735 214.275 327.846 205.584 324.65 200.89 C 310.11 179.176 290.638 161.209 267.827 148.458 C 219.223 120.918 154.12 109.746 98.5544 107.394 z"/>
<path transform="translate(0,0)" fill="rgb(222,51,50)" d="M 442.843 283.358 C 467.288 284.037 485.051 293.535 494.143 316.652 C 486.157 318.289 479.696 318.137 471.665 318.124 C 458.224 316.456 446.42 314.405 434.711 306.766 C 428.569 302.761 413.417 291.962 426.899 285.917 C 430.162 284.454 438.859 283.785 442.843 283.358 z"/>
<path transform="translate(0,0)" fill="rgb(254,254,254)" d="M 1565.82 402.484 L 1573.61 402.464 C 1573.23 506.743 1572.81 613.719 1574.15 717.815 C 1553.25 718.065 1532.34 718.056 1511.44 717.787 C 1511.27 708.485 1511.53 700.156 1511.89 690.868 C 1499.3 706.966 1481.05 717.656 1460.85 720.756 C 1428.37 725.929 1403.17 716.951 1377.57 698.275 C 1375.55 696.466 1373.56 694.624 1371.59 692.751 C 1326.5 649.714 1327.54 562.617 1371.19 518.602 C 1409.78 479.686 1471.06 474.86 1511.53 513.817 C 1509.98 477.639 1510.36 439.299 1510.15 402.933 C 1524.88 402.966 1551.95 403.758 1565.82 402.484 z M 1457.68 665.155 C 1495.61 662.841 1515.11 634.771 1512.06 598.34 C 1509.2 564.223 1489.49 547.063 1456.82 543.336 C 1445.79 544.322 1437.33 545.252 1427.69 551.097 C 1385.3 576.795 1393.77 659.443 1447.96 664.273 C 1451.21 664.562 1454.42 665.013 1457.68 665.155 z"/>
<path transform="translate(0,0)" fill="rgb(254,254,254)" d="M 935.592 53.4487 C 951.853 52.3495 968.185 53.9116 983.943 58.0732 C 1020.43 67.9296 1053.08 90.5136 1072.1 123.54 C 1058.77 132.713 1032.66 147.343 1017.78 156.333 C 1001.91 142.721 996.092 131.677 974.265 123.456 C 952.95 115.327 924.538 115.154 903.58 124.497 C 855.436 145.959 836.458 206.208 857.465 252.955 C 866.882 274.425 884.605 291.157 906.579 299.326 C 938.464 311.437 977.687 305.104 1003.61 282.639 C 1014.14 273.518 1018.1 262.428 1022.86 249.861 C 998.921 248.801 956.876 249.015 933.033 250.404 C 932.354 231.023 932.992 208.544 933.377 189.049 L 946.964 189.031 L 1087.76 188.868 C 1089.28 238.413 1088.19 280.241 1053.55 319.956 C 1028.78 348.524 993.664 366.059 955.947 368.692 C 862.894 374.988 789.49 316.692 783.418 222.033 C 780.515 180.578 794.355 139.691 821.84 108.522 C 852.571 73.6397 889.543 56.407 935.592 53.4487 z"/>
<path transform="translate(0,0)" fill="rgb(254,254,254)" d="M 1216.83 132.34 C 1282.77 126.787 1340.72 175.789 1346.2 241.742 C 1351.67 307.696 1302.6 365.584 1236.64 370.985 C 1170.79 376.377 1113.02 327.406 1107.55 261.56 C 1102.08 195.713 1150.99 137.884 1216.83 132.34 z M 1232.4 310.629 C 1270.51 306.403 1287.12 281.007 1284.44 243.56 C 1282.32 213.97 1255.53 188.01 1225.15 191.199 C 1224.67 191.247 1224.19 191.321 1223.71 191.419 C 1215.89 192.266 1210.54 192.702 1203.2 195.925 C 1164.55 212.914 1159.94 274.703 1192.39 299.877 C 1202.78 307.937 1219.35 313.126 1232.4 310.629 z"/>
<path transform="translate(0,0)" fill="rgb(254,254,254)" d="M 1184.8 486.902 C 1250.17 477.386 1310.85 522.763 1320.19 588.161 C 1329.54 653.558 1284.01 714.115 1218.58 723.293 C 1153.4 732.436 1093.12 687.104 1083.8 621.946 C 1074.49 556.789 1119.67 496.384 1184.8 486.902 z M 1211 665.421 C 1215.65 664.364 1221.01 663.24 1225.36 661.372 C 1266.19 643.84 1268.53 574.865 1231.35 552.267 C 1219.86 545.28 1206.2 543.158 1193 544.213 C 1120.92 559.41 1133.6 673.649 1211 665.421 z"/>
<path transform="translate(0,0)" fill="rgb(254,254,254)" d="M 925.231 408.419 C 942.416 405.476 981.179 412.724 997.194 419.723 C 1031.43 434.683 1055.92 456.655 1070.38 491.25 C 1051.99 500.848 1031.35 510.821 1013.66 521.259 C 968.673 428.549 827.885 472.795 850.302 588.487 C 854.869 612.608 868.985 633.862 889.447 647.426 C 923.929 670.516 978.426 663.924 1004.07 629.953 C 1006.11 627.259 1008.06 624.309 1009.93 621.5 C 1011.41 619.07 1013.73 615.889 1015.38 613.463 C 1034.03 622.526 1051.94 633.872 1070.84 642.835 C 1048.65 688.35 1005.24 719.215 954.376 723.137 C 912.159 726.392 868.379 715.897 836.083 687.424 C 734.076 597.49 783.873 419.923 925.231 408.419 z"/>
<path transform="translate(0,0)" fill="rgb(254,254,254)" d="M 1453.65 135.353 C 1479.7 131.709 1516.1 137.945 1537.08 153.929 C 1571.99 180.523 1570.04 218.543 1570.14 257.594 C 1570.23 291.684 1568.36 329.932 1572.91 363.637 C 1554.11 364.432 1529.91 364 1510.89 363.714 C 1510.95 355.162 1511.14 348.703 1511.87 340.143 C 1481.67 378.307 1413.41 381.642 1381.51 343.622 C 1356.67 313.473 1362 265.965 1394.64 243.706 C 1424.65 223.244 1474.88 221.758 1509.78 227.638 C 1508.37 221.798 1508 214.266 1505.5 208.891 C 1493.78 183.664 1458.97 184.669 1437.42 194.924 C 1429.67 198.613 1425.63 205.462 1418.34 209.778 C 1413.67 210.105 1377.13 184.01 1375.81 180.539 C 1375.71 173.059 1386.67 165.191 1391.69 160.624 C 1410.12 143.853 1429.75 138.379 1453.65 135.353 z M 1472.43 318.156 C 1499.19 308.836 1507.22 299.123 1509.78 270.793 C 1495.67 269.809 1481.51 269.658 1467.38 270.34 C 1455 271.77 1442.28 273.616 1433.76 283.745 C 1426.37 292.524 1426.86 306.046 1436.46 313.036 C 1447.4 320.991 1459.79 319.928 1472.43 318.156 z"/>
<path transform="translate(0,0)" fill="rgb(254,254,254)" d="M 1702.51 486.407 C 1732.3 481.101 1773.37 495.182 1793.16 518.436 C 1819.02 548.81 1822.09 580.344 1819.97 618.088 C 1784.11 616.985 1746.41 618.59 1710.4 617.992 C 1695.71 617.749 1675.07 618.849 1660.98 617.216 C 1666.09 636.94 1668.95 649.128 1687.79 661.368 C 1700.93 669.909 1721.57 670.523 1736.51 666.714 C 1750.66 663.137 1762.83 654.122 1770.38 641.626 C 1774.89 645.078 1788.31 652.53 1793.93 655.815 C 1796.76 657.35 1812.31 664.645 1812.15 667.037 C 1811.31 679.097 1793.73 693.863 1785.23 701.027 C 1746.91 733.328 1682.01 728.593 1643.61 699.013 C 1592.8 660.603 1586.02 577.004 1624.24 527.683 C 1644.9 501.135 1669.86 490.347 1702.51 486.407 z M 1662.54 577.299 C 1679.61 577.104 1696.68 577.022 1713.75 577.053 C 1727.99 577.018 1748.36 576.449 1762.12 577.895 C 1755.91 561.681 1751.56 549.242 1734.32 541.388 C 1728.05 538.527 1717.25 536.522 1710.41 537.292 C 1683.12 540.54 1670.95 550.716 1662.54 577.299 z"/>
<path transform="translate(0,0)" fill="rgb(254,254,254)" d="M 1938.54 140.173 C 1957.71 139.237 1983.89 140.074 2003.41 140.262 C 1999.15 154.818 1990.8 175.329 1985.24 189.911 L 1953.17 273.291 C 1938.12 309.084 1925.11 346.462 1910.59 382.559 C 1903.28 400.745 1895.64 420.062 1889.49 438.624 C 1868.73 439.039 1843.7 438.43 1822.86 437.645 C 1829.92 414.638 1845.73 385.962 1853.58 360.075 C 1850.65 347.684 1834.18 310.35 1828.66 296.681 L 1776.53 166.199 C 1772.98 157.304 1768.48 148.385 1765.27 140.155 L 1834.18 140.051 C 1835.14 142.032 1835.81 144.163 1836.59 146.22 C 1846.24 172.56 1856.73 198.845 1865.61 225.45 C 1871.83 244.1 1882.57 265.876 1886.83 284.666 C 1901.53 239.676 1921.82 184.489 1938.54 140.173 z"/>
<path transform="translate(0,0)" fill="rgb(254,254,254)" d="M 1624.84 82.0481 L 1686.09 81.8566 C 1685.13 101.014 1686.2 121.274 1684.84 139.997 C 1704.84 139.553 1725.9 139.952 1746.13 139.717 C 1745.27 155.275 1746.05 176.596 1745.74 192.963 C 1727.51 191.792 1703.57 192.328 1684.88 192.275 C 1686.33 215.833 1681.35 282.571 1691.35 299.597 C 1695.01 305.832 1700.83 310.314 1707.9 312 C 1721.02 315.13 1734.35 309.682 1745.23 302.81 C 1746.16 315.382 1745.91 329.173 1745.91 341.875 L 1745.52 359.319 C 1729.89 366.067 1713.04 369.543 1696.02 369.532 C 1622.86 369.079 1624.77 315.223 1624.74 260.077 C 1624.65 237.461 1624.75 214.845 1625.04 192.23 C 1613.05 192.948 1597.46 192.602 1585.02 192.802 L 1584.99 139.659 C 1597.66 139.237 1612.35 139.673 1625.24 139.67 C 1623.89 125.173 1624.36 97.1137 1624.84 82.0481 z"/>
<path transform="translate(0,0)" fill="rgb(254,254,254)" d="M 1980.84 485.465 L 1981.64 485.746 C 1983.65 488.936 1983.2 540.746 1983.31 548.672 C 1979.2 548.434 1975.08 548.283 1970.95 548.22 C 1955.82 548.042 1938.69 552.571 1927.78 563.554 C 1907.99 583.474 1911.89 618.415 1911.95 644.425 L 1912.03 717.868 C 1892.22 718.253 1870.27 717.094 1850.87 718.373 C 1851.03 707.166 1851.12 695.958 1851.15 684.75 L 1850.69 490.053 C 1870.7 489.81 1890.7 489.955 1910.7 490.491 C 1911.31 500.361 1910.7 514.91 1910.29 524.851 C 1928.76 493.366 1946.42 488.038 1980.84 485.465 z"/>
</svg>